<svg version="1.1" viewBox="0.0 0.0 600.0 371.0" fill="none" stroke="none" stroke-linecap="square" stroke-miterlimit="10" width="600" height="371" xmlns:xlink="http://www.w3.org/1999/xlink" xmlns="http://www.w3.org/2000/svg"><path fill="#ffffff" d="M0 0L600.0 0L600.0 371.0L0 371.0L0 0Z" fill-rule="nonzero"/><path stroke="#333333" stroke-width="1.0" stroke-linecap="butt" d="M45.5 306.5L581.5 306.5" fill-rule="nonzero"/><path stroke="#cccccc" stroke-width="1.0" stroke-linecap="butt" d="M45.5 257.5L581.5 257.5" fill-rule="nonzero"/><path stroke="#cccccc" stroke-width="1.0" stroke-linecap="butt" d="M45.5 208.5L581.5 208.5" fill-rule="nonzero"/><path stroke="#cccccc" stroke-width="1.0" stroke-linecap="butt" d="M45.5 159.5L581.5 159.5" fill-rule="nonzero"/><path stroke="#cccccc" stroke-width="1.0" stroke-linecap="butt" d="M45.5 110.5L581.5 110.5" fill-rule="nonzero"/><path stroke="#cccccc" stroke-width="1.0" stroke-linecap="butt" d="M45.5 61.5L581.5 61.5" fill-rule="nonzero"/><clipPath id="id_0"><path d="M45.55 61.916668L581.45 61.916668L581.45 306.08334L45.55 306.08334L45.55 61.916668Z" clip-rule="nonzero"/></clipPath><path stroke="#000000" stroke-width="2.0" stroke-linecap="butt" stroke-opacity="0.0" clip-path="url(#id_0)" d="M112.0 306.0L81.0 306.0L81.0 196.0C81.0 194.89543 81.89543 194.0 83.0 194.0L110.0 194.0C111.10457 194.0 112.0 194.89543 112.0 196.0Z" fill-rule="nonzero"/><path fill="#46bdc6" clip-path="url(#id_0)" d="M112.0 306.0L81.0 306.0L81.0 196.0C81.0 194.89543 81.89543 194.0 83.0 194.0L110.0 194.0C111.10457 194.0 112.0 194.89543 112.0 196.0Z" fill-rule="nonzero"/><path stroke="#000000" stroke-width="2.0" stroke-linecap="butt" stroke-opacity="0.0" clip-path="url(#id_0)" d="M212.0 306.0L181.0 306.0L181.0 185.0C181.0 183.89543 181.89543 183.0 183.0 183.0L210.0 183.0C211.10457 183.0 212.0 183.89543 212.0 185.0Z" fill-rule="nonzero"/><path fill="#46bdc6" clip-path="url(#id_0)" d="M212.0 306.0L181.0 306.0L181.0 185.0C181.0 183.89543 181.89543 183.0 183.0 183.0L210.0 183.0C211.10457 183.0 212.0 183.89543 212.0 185.0Z" fill-rule="nonzero"/><path stroke="#000000" stroke-width="2.0" stroke-linecap="butt" stroke-opacity="0.0" clip-path="url(#id_0)" d="M313.0 306.0L282.0 306.0L282.0 219.0C282.0 217.89543 282.89542 217.0 284.0 217.0L311.0 217.0C312.10458 217.0 313.0 217.89543 313.0 219.0Z" fill-rule="nonzero"/><path fill="#46bdc6" clip-path="url(#id_0)" d="M313.0 306.0L282.0 306.0L282.0 219.0C282.0 217.89543 282.89542 217.0 284.0 217.0L311.0 217.0C312.10458 217.0 313.0 217.89543 313.0 219.0Z" fill-rule="nonzero"/><path stroke="#000000" stroke-width="2.0" stroke-linecap="butt" stroke-opacity="0.0" clip-path="url(#id_0)" d="M413.0 306.0L382.0 306.0L382.0 75.0C382.0 73.89543 382.89542 73.0 384.0 73.0L411.0 73.0C412.10458 73.0 413.0 73.89543 413.0 75.0Z" fill-rule="nonzero"/><path fill="#46bdc6" clip-path="url(#id_0)" d="M413.0 306.0L382.0 306.0L382.0 75.0C382.0 73.89543 382.89542 73.0 384.0 73.0L411.0 73.0C412.10458 73.0 413.0 73.89543 413.0 75.0Z" fill-rule="nonzero"/><path stroke="#000000" stroke-width="2.0" stroke-linecap="butt" stroke-opacity="0.0" clip-path="url(#id_0)" d="M513.0 306.0L482.0 306.0L482.0 68.0C482.0 66.89543 482.89542 66.0 484.0 66.0L511.0 66.0C512.10455 66.0 513.0 66.89543 513.0 68.0Z" fill-rule="nonzero"/><path fill="#46bdc6" clip-path="url(#id_0)" d="M513.0 306.0L482.0 306.0L482.0 68.0C482.0 66.89543 482.89542 66.0 484.0 66.0L511.0 66.0C512.10455 66.0 513.0 66.89543 513.0 68.0Z" fill-rule="nonzero"/><path stroke="#000000" stroke-width="2.0" stroke-linecap="butt" stroke-opacity="0.0" clip-path="url(#id_0)" d="M145.0 306.0L114.0 306.0L114.0 210.0C114.0 208.89543 114.89543 208.0 116.0 208.0L143.0 208.0C144.10457 208.0 145.0 208.89543 145.0 210.0Z" fill-rule="nonzero"/><path fill="#ea4335" clip-path="url(#id_0)" d="M145.0 306.0L114.0 306.0L114.0 210.0C114.0 208.89543 114.89543 208.0 116.0 208.0L143.0 208.0C144.10457 208.0 145.0 208.89543 145.0 210.0Z" fill-rule="nonzero"/><path stroke="#000000" stroke-width="2.0" stroke-linecap="butt" stroke-opacity="0.0" clip-path="url(#id_0)" d="M245.0 306.0L214.0 306.0L214.0 210.0C214.0 208.89543 214.89543 208.0 216.0 208.0L243.0 208.0C244.10457 208.0 245.0 208.89543 245.0 210.0Z" fill-rule="nonzero"/><path fill="#ea4335" clip-path="url(#id_0)" d="M245.0 306.0L214.0 306.0L214.0 210.0C214.0 208.89543 214.89543 208.0 216.0 208.0L243.0 208.0C244.10457 208.0 245.0 208.89543 245.0 210.0Z" fill-rule="nonzero"/><path stroke="#000000" stroke-width="2.0" stroke-linecap="butt" stroke-opacity="0.0" clip-path="url(#id_0)" d="M346.0 306.0L315.0 306.0L315.0 210.0C315.0 208.89543 315.89542 208.0 317.0 208.0L344.0 208.0C345.10458 208.0 346.0 208.89543 346.0 210.0Z" fill-rule="nonzero"/><path fill="#ea4335" clip-path="url(#id_0)" d="M346.0 306.0L315.0 306.0L315.0 210.0C315.0 208.89543 315.89542 208.0 317.0 208.0L344.0 208.0C345.10458 208.0 346.0 208.89543 346.0 210.0Z" fill-rule="nonzero"/><path stroke="#000000" stroke-width="2.0" stroke-linecap="butt" stroke-opacity="0.0" clip-path="url(#id_0)" d="M446.0 306.0L415.0 306.0L415.0 210.0C415.0 208.89543 415.89542 208.0 417.0 208.0L444.0 208.0C445.10458 208.0 446.0 208.89543 446.0 210.0Z" fill-rule="nonzero"/><path fill="#ea4335" clip-path="url(#id_0)" d="M446.0 306.0L415.0 306.0L415.0 210.0C415.0 208.89543 415.89542 208.0 417.0 208.0L444.0 208.0C445.10458 208.0 446.0 208.89543 446.0 210.0Z" fill-rule="nonzero"/><path stroke="#000000" stroke-width="2.0" stroke-linecap="butt" stroke-opacity="0.0" clip-path="url(#id_0)" d="M546.0 306.0L515.0 306.0L515.0 210.0C515.0 208.89543 515.89545 208.0 517.0 208.0L544.0 208.0C545.10455 208.0 546.0 208.89543 546.0 210.0Z" fill-rule="nonzero"/><path fill="#ea4335" clip-path="url(#id_0)" d="M546.0 306.0L515.0 306.0L515.0 210.0C515.0 208.89543 515.89545 208.0 517.0 208.0L544.0 208.0C545.10455 208.0 546.0 208.89543 546.0 210.0Z" fill-rule="nonzero"/><path fill="#000000" d="M23.05 305.84897Q23.05 304.31772 23.3625 303.39584Q23.675 302.45834 24.284374 301.95834Q24.909374 301.45834 25.846874 301.45834Q26.534374 301.45834 27.05 301.7396Q27.58125 302.02084 27.925 302.5521Q28.26875 303.06772 28.45625 303.81772Q28.64375 304.56772 28.64375 305.84897Q28.64375 307.3646 28.33125 308.28647Q28.034374 309.20834 27.409374 309.72397Q26.8 310.22397 25.846874 310.22397Q24.6125 310.22397 23.89375 309.33334Q23.05 308.27084 23.05 305.84897ZM24.128124 305.84897Q24.128124 307.95834 24.628124 308.66147Q25.128124 309.3646 25.846874 309.3646Q26.58125 309.3646 27.065624 308.66147Q27.565624 307.95834 27.565624 305.84897Q27.565624 303.72397 27.065624 303.03647Q26.58125 302.33334 25.83125 302.33334Q25.1125 302.33334 24.675 302.94272Q24.128124 303.72397 24.128124 305.84897ZM30.64375 310.08334L30.64375 308.88022L31.846874 308.88022L31.846874 310.08334L30.64375 310.08334ZM33.05 305.84897Q33.05 304.31772 33.3625 303.39584Q33.675 302.45834 34.284374 301.95834Q34.909374 301.45834 35.846874 301.45834Q36.534374 301.45834 37.05 301.7396Q37.58125 302.02084 37.925 302.5521Q38.26875 303.06772 38.45625 303.81772Q38.64375 304.56772 38.64375 305.84897Q38.64375 307.3646 38.33125 308.28647Q38.034374 309.20834 37.409374 309.72397Q36.8 310.22397 35.846874 310.22397Q34.6125 310.22397 33.89375 309.33334Q33.05 308.27084 33.05 305.84897ZM34.128124 305.84897Q34.128124 307.95834 34.628124 308.66147Q35.128124 309.3646 35.846874 309.3646Q36.58125 309.3646 37.065624 308.66147Q37.565624 307.95834 37.565624 305.84897Q37.565624 303.72397 37.065624 303.03647Q36.58125 302.33334 35.83125 302.33334Q35.1125 302.33334 34.675 302.94272Q34.128124 303.72397 34.128124 305.84897Z" fill-rule="nonzero"/><path fill="#000000" d="M23.05 257.01562Q23.05 255.48438 23.3625 254.5625Q23.675 253.625 24.284374 253.125Q24.909374 252.625 25.846874 252.625Q26.534374 252.625 27.05 252.90625Q27.58125 253.1875 27.925 253.71875Q28.26875 254.23438 28.45625 254.98438Q28.64375 255.73438 28.64375 257.01562Q28.64375 258.53125 28.33125 259.45312Q28.034374 260.375 27.409374 260.89062Q26.8 261.39062 25.846874 261.39062Q24.6125 261.39062 23.89375 260.5Q23.05 259.4375 23.05 257.01562ZM24.128124 257.01562Q24.128124 259.125 24.628124 259.82812Q25.128124 260.53125 25.846874 260.53125Q26.58125 260.53125 27.065624 259.82812Q27.565624 259.125 27.565624 257.01562Q27.565624 254.89062 27.065624 254.20312Q26.58125 253.5 25.83125 253.5Q25.1125 253.5 24.675 254.10938Q24.128124 254.89062 24.128124 257.01562ZM30.64375 261.25L30.64375 260.04688L31.846874 260.04688L31.846874 261.25L30.64375 261.25ZM33.05 259.0L34.159374 258.90625Q34.284374 259.71875 34.721874 260.125Q35.175 260.53125 35.815624 260.53125Q36.565624 260.53125 37.096874 259.95312Q37.628124 259.375 37.628124 258.4375Q37.628124 257.53125 37.1125 257.01562Q36.6125 256.48438 35.784374 256.48438Q35.284374 256.48438 34.8625 256.71875Q34.45625 256.95312 34.221874 257.3125L33.2375 257.1875L34.065624 252.78125L38.346874 252.78125L38.346874 253.78125L34.909374 253.78125L34.45625 256.09375Q35.221874 255.54688 36.065624 255.54688Q37.190624 255.54688 37.95625 256.32812Q38.7375 257.10938 38.7375 258.34375Q38.7375 259.5 38.065624 260.35938Q37.2375 261.39062 35.815624 261.39062Q34.64375 261.39062 33.89375 260.73438Q33.159374 260.07812 33.05 259.0Z" fill-rule="nonzero"/><path fill="#000000" d="M27.01875 212.41667L25.971874 212.41667L25.971874 205.69792Q25.58125 206.0573 24.95625 206.4323Q24.346874 206.79167 23.8625 206.96355L23.8625 205.94792Q24.7375 205.52605 25.39375 204.94792Q26.065624 204.35417 26.346874 203.79167L27.01875 203.79167L27.01875 212.41667ZM30.64375 212.41667L30.64375 211.21355L31.846874 211.21355L31.846874 212.41667L30.64375 212.41667ZM33.05 208.1823Q33.05 206.65105 33.3625 205.72917Q33.675 204.79167 34.284374 204.29167Q34.909374 203.79167 35.846874 203.79167Q36.534374 203.79167 37.05 204.07292Q37.58125 204.35417 37.925 204.88542Q38.26875 205.40105 38.45625 206.15105Q38.64375 206.90105 38.64375 208.1823Q38.64375 209.69792 38.33125 210.6198Q38.034374 211.54167 37.409374 212.0573Q36.8 212.5573 35.846874 212.5573Q34.6125 212.5573 33.89375 211.66667Q33.05 210.60417 33.05 208.1823ZM34.128124 208.1823Q34.128124 210.29167 34.628124 210.9948Q35.128124 211.69792 35.846874 211.69792Q36.58125 211.69792 37.065624 210.9948Q37.565624 210.29167 37.565624 208.1823Q37.565624 206.0573 37.065624 205.3698Q36.58125 204.66667 35.83125 204.66667Q35.1125 204.66667 34.675 205.27605Q34.128124 206.0573 34.128124 208.1823Z" fill-rule="nonzero"/><path fill="#000000" d="M27.01875 163.58333L25.971874 163.58333L25.971874 156.86458Q25.58125 157.22395 24.95625 157.59895Q24.346874 157.95833 23.8625 158.1302L23.8625 157.11458Q24.7375 156.6927 25.39375 156.11458Q26.065624 155.52083 26.346874 154.95833L27.01875 154.95833L27.01875 163.58333ZM30.64375 163.58333L30.64375 162.3802L31.846874 162.3802L31.846874 163.58333L30.64375 163.58333ZM33.05 161.33333L34.159374 161.23958Q34.284374 162.05208 34.721874 162.45833Q35.175 162.86458 35.815624 162.86458Q36.565624 162.86458 37.096874 162.28645Q37.628124 161.70833 37.628124 160.77083Q37.628124 159.86458 37.1125 159.34895Q36.6125 158.8177 35.784374 158.8177Q35.284374 158.8177 34.8625 159.05208Q34.45625 159.28645 34.221874 159.64583L33.2375 159.52083L34.065624 155.11458L38.346874 155.11458L38.346874 156.11458L34.909374 156.11458L34.45625 158.42708Q35.221874 157.8802 36.065624 157.8802Q37.190624 157.8802 37.95625 158.66145Q38.7375 159.4427 38.7375 160.67708Q38.7375 161.83333 38.065624 162.6927Q37.2375 163.72395 35.815624 163.72395Q34.64375 163.72395 33.89375 163.0677Q33.159374 162.41145 33.05 161.33333Z" fill-rule="nonzero"/><path fill="#000000" d="M28.596874 113.734375L28.596874 114.75L22.909374 114.75Q22.909374 114.375 23.034374 114.015625Q23.253124 113.4375 23.721874 112.875Q24.20625 112.3125 25.1125 111.578125Q26.51875 110.421875 27.003124 109.75Q27.503124 109.078125 27.503124 108.484375Q27.503124 107.859375 27.05 107.4375Q26.596874 107.0 25.878124 107.0Q25.1125 107.0 24.659374 107.453125Q24.20625 107.90625 24.190624 108.71875L23.1125 108.609375Q23.221874 107.390625 23.940624 106.765625Q24.675 106.125 25.909374 106.125Q27.14375 106.125 27.8625 106.8125Q28.58125 107.5 28.58125 108.515625Q28.58125 109.03125 28.3625 109.53125Q28.159374 110.015625 27.659374 110.578125Q27.175 111.125 26.05 112.078125Q25.096874 112.875 24.815624 113.171875Q24.55 113.453125 24.378124 113.734375L28.596874 113.734375ZM30.64375 114.75L30.64375 113.546875L31.846874 113.546875L31.846874 114.75L30.64375 114.75ZM33.05 110.515625Q33.05 108.984375 33.3625 108.0625Q33.675 107.125 34.284374 106.625Q34.909374 106.125 35.846874 106.125Q36.534374 106.125 37.05 106.40625Q37.58125 106.6875 37.925 107.21875Q38.26875 107.734375 38.45625 108.484375Q38.64375 109.234375 38.64375 110.515625Q38.64375 112.03125 38.33125 112.953125Q38.034374 113.875 37.409374 114.390625Q36.8 114.890625 35.846874 114.890625Q34.6125 114.890625 33.89375 114.0Q33.05 112.9375 33.05 110.515625ZM34.128124 110.515625Q34.128124 112.625 34.628124 113.328125Q35.128124 114.03125 35.846874 114.03125Q36.58125 114.03125 37.065624 113.328125Q37.565624 112.625 37.565624 110.515625Q37.565624 108.390625 37.065624 107.703125Q36.58125 107.0 35.83125 107.0Q35.1125 107.0 34.675 107.609375Q34.128124 108.390625 34.128124 110.515625Z" fill-rule="nonzero"/><path fill="#000000" d="M28.596874 64.90104L28.596874 65.916664L22.909374 65.916664Q22.909374 65.541664 23.034374 65.18229Q23.253124 64.604164 23.721874 64.041664Q24.20625 63.479164 25.1125 62.74479Q26.51875 61.58854 27.003124 60.916664Q27.503124 60.24479 27.503124 59.65104Q27.503124 59.02604 27.05 58.604164Q26.596874 58.166664 25.878124 58.166664Q25.1125 58.166664 24.659374 58.61979Q24.20625 59.072914 24.190624 59.885414L23.1125 59.77604Q23.221874 58.55729 23.940624 57.93229Q24.675 57.291664 25.909374 57.291664Q27.14375 57.291664 27.8625 57.979164Q28.58125 58.666664 28.58125 59.68229Q28.58125 60.197914 28.3625 60.697914Q28.159374 61.18229 27.659374 61.74479Q27.175 62.291664 26.05 63.24479Q25.096874 64.041664 24.815624 64.33854Q24.55 64.61979 24.378124 64.90104L28.596874 64.90104ZM30.64375 65.916664L30.64375 64.71354L31.846874 64.71354L31.846874 65.916664L30.64375 65.916664ZM33.05 63.666664L34.159374 63.572914Q34.284374 64.385414 34.721874 64.791664Q35.175 65.197914 35.815624 65.197914Q36.565624 65.197914 37.096874 64.61979Q37.628124 64.041664 37.628124 63.104164Q37.628124 62.197914 37.1125 61.68229Q36.6125 61.15104 35.784374 61.15104Q35.284374 61.15104 34.8625 61.385414Q34.45625 61.61979 34.221874 61.979164L33.2375 61.854164L34.065624 57.447914L38.346874 57.447914L38.346874 58.447914L34.909374 58.447914L34.45625 60.760414Q35.221874 60.21354 36.065624 60.21354Q37.190624 60.21354 37.95625 60.99479Q38.7375 61.77604 38.7375 63.010414Q38.7375 64.166664 38.065624 65.02604Q37.2375 66.05729 35.815624 66.05729Q34.64375 66.05729 33.89375 65.40104Q33.159374 64.74479 33.05 63.666664Z" fill-rule="nonzero"/><path fill="#000000" d="M103.6323 323.08334L102.58543 323.08334L102.58543 316.3646Q102.1948 316.72397 101.5698 317.09897Q100.96043 317.45834 100.47605 317.63022L100.47605 316.6146Q101.35105 316.19272 102.0073 315.6146Q102.67918 315.02084 102.96043 314.45834L103.6323 314.45834L103.6323 323.08334ZM106.66355 318.84897Q106.66355 317.31772 106.97605 316.39584Q107.28855 315.45834 107.89793 314.95834Q108.52293 314.45834 109.46043 314.45834Q110.14793 314.45834 110.66355 314.7396Q111.1948 315.02084 111.53855 315.5521Q111.8823 316.06772 112.0698 316.81772Q112.2573 317.56772 112.2573 318.84897Q112.2573 320.3646 111.9448 321.28647Q111.64793 322.20834 111.02293 322.72397Q110.41355 323.22397 109.46043 323.22397Q108.22605 323.22397 107.5073 322.33334Q106.66355 321.27084 106.66355 318.84897ZM107.74168 318.84897Q107.74168 320.95834 108.24168 321.66147Q108.74168 322.3646 109.46043 322.3646Q110.1948 322.3646 110.67918 321.66147Q111.17918 320.95834 111.17918 318.84897Q111.17918 316.72397 110.67918 316.03647Q110.1948 315.33334 109.4448 315.33334Q108.72605 315.33334 108.28855 315.94272Q107.74168 316.72397 107.74168 318.84897ZM113.66355 318.84897Q113.66355 317.31772 113.97605 316.39584Q114.28855 315.45834 114.89793 314.95834Q115.52293 314.45834 116.46043 314.45834Q117.14793 314.45834 117.66355 314.7396Q118.1948 315.02084 118.53855 315.5521Q118.8823 316.06772 119.0698 316.81772Q119.2573 317.56772 119.2573 318.84897Q119.2573 320.3646 118.9448 321.28647Q118.64793 322.20834 118.02293 322.72397Q117.41355 323.22397 116.46043 323.22397Q115.22605 323.22397 114.5073 322.33334Q113.66355 321.27084 113.66355 318.84897ZM114.74168 318.84897Q114.74168 320.95834 115.24168 321.66147Q115.74168 322.3646 116.46043 322.3646Q117.1948 322.3646 117.67918 321.66147Q118.17918 320.95834 118.17918 318.84897Q118.17918 316.72397 117.67918 316.03647Q117.1948 315.33334 116.4448 315.33334Q115.72605 315.33334 115.28855 315.94272Q114.74168 316.72397 114.74168 318.84897ZM120.66355 318.84897Q120.66355 317.31772 120.97605 316.39584Q121.28855 315.45834 121.89793 314.95834Q122.52293 314.45834 123.46043 314.45834Q124.14793 314.45834 124.66355 314.7396Q125.1948 315.02084 125.53855 315.5521Q125.8823 316.06772 126.0698 316.81772Q126.2573 317.56772 126.2573 318.84897Q126.2573 320.3646 125.9448 321.28647Q125.64793 322.20834 125.02293 322.72397Q124.41355 323.22397 123.46043 323.22397Q122.22605 323.22397 121.5073 322.33334Q120.66355 321.27084 120.66355 318.84897ZM121.74168 318.84897Q121.74168 320.95834 122.24168 321.66147Q122.74168 322.3646 123.46043 322.3646Q124.1948 322.3646 124.67918 321.66147Q125.17918 320.95834 125.17918 318.84897Q125.17918 316.72397 124.67918 316.03647Q124.1948 315.33334 123.4448 315.33334Q122.72605 315.33334 122.28855 315.94272Q121.74168 316.72397 121.74168 318.84897Z" fill-rule="nonzero"/><path fill="#000000" d="M200.30052 323.08334L199.25365 323.08334L199.25365 316.3646Q198.86302 316.72397 198.23802 317.09897Q197.62865 317.45834 197.14427 317.63022L197.14427 316.6146Q198.01927 316.19272 198.67552 315.6146Q199.3474 315.02084 199.62865 314.45834L200.30052 314.45834L200.30052 323.08334ZM203.33177 318.84897Q203.33177 317.31772 203.64427 316.39584Q203.95677 315.45834 204.56615 314.95834Q205.19115 314.45834 206.12865 314.45834Q206.81615 314.45834 207.33177 314.7396Q207.86302 315.02084 208.20677 315.5521Q208.55052 316.06772 208.73802 316.81772Q208.92552 317.56772 208.92552 318.84897Q208.92552 320.3646 208.61302 321.28647Q208.31615 322.20834 207.69115 322.72397Q207.08177 323.22397 206.12865 323.22397Q204.89427 323.22397 204.17552 322.33334Q203.33177 321.27084 203.33177 318.84897ZM204.4099 318.84897Q204.4099 320.95834 204.9099 321.66147Q205.4099 322.3646 206.12865 322.3646Q206.86302 322.3646 207.3474 321.66147Q207.8474 320.95834 207.8474 318.84897Q207.8474 316.72397 207.3474 316.03647Q206.86302 315.33334 206.11302 315.33334Q205.39427 315.33334 204.95677 315.94272Q204.4099 316.72397 204.4099 318.84897ZM210.33177 318.84897Q210.33177 317.31772 210.64427 316.39584Q210.95677 315.45834 211.56615 314.95834Q212.19115 314.45834 213.12865 314.45834Q213.81615 314.45834 214.33177 314.7396Q214.86302 315.02084 215.20677 315.5521Q215.55052 316.06772 215.73802 316.81772Q215.92552 317.56772 215.92552 318.84897Q215.92552 320.3646 215.61302 321.28647Q215.31615 322.20834 214.69115 322.72397Q214.08177 323.22397 213.12865 323.22397Q211.89427 323.22397 211.17552 322.33334Q210.33177 321.27084 210.33177 318.84897ZM211.4099 318.84897Q211.4099 320.95834 211.9099 321.66147Q212.4099 322.3646 213.12865 322.3646Q213.86302 322.3646 214.3474 321.66147Q214.8474 320.95834 214.8474 318.84897Q214.8474 316.72397 214.3474 316.03647Q213.86302 315.33334 213.11302 315.33334Q212.39427 315.33334 211.95677 315.94272Q211.4099 316.72397 211.4099 318.84897ZM217.33177 318.84897Q217.33177 317.31772 217.64427 316.39584Q217.95677 315.45834 218.56615 314.95834Q219.19115 314.45834 220.12865 314.45834Q220.81615 314.45834 221.33177 314.7396Q221.86302 315.02084 222.20677 315.5521Q222.55052 316.06772 222.73802 316.81772Q222.92552 317.56772 222.92552 318.84897Q222.92552 320.3646 222.61302 321.28647Q222.31615 322.20834 221.69115 322.72397Q221.08177 323.22397 220.12865 323.22397Q218.89427 323.22397 218.17552 322.33334Q217.33177 321.27084 217.33177 318.84897ZM218.4099 318.84897Q218.4099 320.95834 218.9099 321.66147Q219.4099 322.3646 220.12865 322.3646Q220.86302 322.3646 221.3474 321.66147Q221.8474 320.95834 221.8474 318.84897Q221.8474 316.72397 221.3474 316.03647Q220.86302 315.33334 220.11302 315.33334Q219.39427 315.33334 218.95677 315.94272Q218.4099 316.72397 218.4099 318.84897ZM224.33177 318.84897Q224.33177 317.31772 224.64427 316.39584Q224.95677 315.45834 225.56615 314.95834Q226.19115 314.45834 227.12865 314.45834Q227.81615 314.45834 228.33177 314.7396Q228.86302 315.02084 229.20677 315.5521Q229.55052 316.06772 229.73802 316.81772Q229.92552 317.56772 229.92552 318.84897Q229.92552 320.3646 229.61302 321.28647Q229.31615 322.20834 228.69115 322.72397Q228.08177 323.22397 227.12865 323.22397Q225.89427 323.22397 225.17552 322.33334Q224.33177 321.27084 224.33177 318.84897ZM225.4099 318.84897Q225.4099 320.95834 225.9099 321.66147Q226.4099 322.3646 227.12865 322.3646Q227.86302 322.3646 228.3474 321.66147Q228.8474 320.95834 228.8474 318.84897Q228.8474 316.72397 228.3474 316.03647Q227.86302 315.33334 227.11302 315.33334Q226.39427 315.33334 225.95677 315.94272Q225.4099 316.72397 225.4099 318.84897Z" fill-rule="nonzero"/><path fill="#000000" d="M296.96875 323.08334L295.92188 323.08334L295.92188 316.3646Q295.53125 316.72397 294.90625 317.09897Q294.29688 317.45834 293.8125 317.63022L293.8125 316.6146Q294.6875 316.19272 295.34375 315.6146Q296.01562 315.02084 296.29688 314.45834L296.96875 314.45834L296.96875 323.08334ZM300.0 318.84897Q300.0 317.31772 300.3125 316.39584Q300.625 315.45834 301.23438 314.95834Q301.85938 314.45834 302.79688 314.45834Q303.48438 314.45834 304.0 314.7396Q304.53125 315.02084 304.875 315.5521Q305.21875 316.06772 305.40625 316.81772Q305.59375 317.56772 305.59375 318.84897Q305.59375 320.3646 305.28125 321.28647Q304.98438 322.20834 304.35938 322.72397Q303.75 323.22397 302.79688 323.22397Q301.5625 323.22397 300.84375 322.33334Q300.0 321.27084 300.0 318.84897ZM301.07812 318.84897Q301.07812 320.95834 301.57812 321.66147Q302.07812 322.3646 302.79688 322.3646Q303.53125 322.3646 304.01562 321.66147Q304.51562 320.95834 304.51562 318.84897Q304.51562 316.72397 304.01562 316.03647Q303.53125 315.33334 302.78125 315.33334Q302.0625 315.33334 301.625 315.94272Q301.07812 316.72397 301.07812 318.84897ZM307.0 318.84897Q307.0 317.31772 307.3125 316.39584Q307.625 315.45834 308.23438 314.95834Q308.85938 314.45834 309.79688 314.45834Q310.48438 314.45834 311.0 314.7396Q311.53125 315.02084 311.875 315.5521Q312.21875 316.06772 312.40625 316.81772Q312.59375 317.56772 312.59375 318.84897Q312.59375 320.3646 312.28125 321.28647Q311.98438 322.20834 311.35938 322.72397Q310.75 323.22397 309.79688 323.22397Q308.5625 323.22397 307.84375 322.33334Q307.0 321.27084 307.0 318.84897ZM308.07812 318.84897Q308.07812 320.95834 308.57812 321.66147Q309.07812 322.3646 309.79688 322.3646Q310.53125 322.3646 311.01562 321.66147Q311.51562 320.95834 311.51562 318.84897Q311.51562 316.72397 311.01562 316.03647Q310.53125 315.33334 309.78125 315.33334Q309.0625 315.33334 308.625 315.94272Q308.07812 316.72397 308.07812 318.84897ZM314.0 318.84897Q314.0 317.31772 314.3125 316.39584Q314.625 315.45834 315.23438 314.95834Q315.85938 314.45834 316.79688 314.45834Q317.48438 314.45834 318.0 314.7396Q318.53125 315.02084 318.875 315.5521Q319.21875 316.06772 319.40625 316.81772Q319.59375 317.56772 319.59375 318.84897Q319.59375 320.3646 319.28125 321.28647Q318.98438 322.20834 318.35938 322.72397Q317.75 323.22397 316.79688 323.22397Q315.5625 323.22397 314.84375 322.33334Q314.0 321.27084 314.0 318.84897ZM315.07812 318.84897Q315.07812 320.95834 315.57812 321.66147Q316.07812 322.3646 316.79688 322.3646Q317.53125 322.3646 318.01562 321.66147Q318.51562 320.95834 318.51562 318.84897Q318.51562 316.72397 318.01562 316.03647Q317.53125 315.33334 316.78125 315.33334Q316.0625 315.33334 315.625 315.94272Q315.07812 316.72397 315.07812 318.84897ZM321.0 318.84897Q321.0 317.31772 321.3125 316.39584Q321.625 315.45834 322.23438 314.95834Q322.85938 314.45834 323.79688 314.45834Q324.48438 314.45834 325.0 314.7396Q325.53125 315.02084 325.875 315.5521Q326.21875 316.06772 326.40625 316.81772Q326.59375 317.56772 326.59375 318.84897Q326.59375 320.3646 326.28125 321.28647Q325.98438 322.20834 325.35938 322.72397Q324.75 323.22397 323.79688 323.22397Q322.5625 323.22397 321.84375 322.33334Q321.0 321.27084 321.0 318.84897ZM322.07812 318.84897Q322.07812 320.95834 322.57812 321.66147Q323.07812 322.3646 323.79688 322.3646Q324.53125 322.3646 325.01562 321.66147Q325.51562 320.95834 325.51562 318.84897Q325.51562 316.72397 325.01562 316.03647Q324.53125 315.33334 323.78125 315.33334Q323.0625 315.33334 322.625 315.94272Q322.07812 316.72397 322.07812 318.84897ZM328.0 318.84897Q328.0 317.31772 328.3125 316.39584Q328.625 315.45834 329.23438 314.95834Q329.85938 314.45834 330.79688 314.45834Q331.48438 314.45834 332.0 314.7396Q332.53125 315.02084 332.875 315.5521Q333.21875 316.06772 333.40625 316.81772Q333.59375 317.56772 333.59375 318.84897Q333.59375 320.3646 333.28125 321.28647Q332.98438 322.20834 332.35938 322.72397Q331.75 323.22397 330.79688 323.22397Q329.5625 323.22397 328.84375 322.33334Q328.0 321.27084 328.0 318.84897ZM329.07812 318.84897Q329.07812 320.95834 329.57812 321.66147Q330.07812 322.3646 330.79688 322.3646Q331.53125 322.3646 332.01562 321.66147Q332.51562 320.95834 332.51562 318.84897Q332.51562 316.72397 332.01562 316.03647Q331.53125 315.33334 330.78125 315.33334Q330.0625 315.33334 329.625 315.94272Q329.07812 316.72397 329.07812 318.84897Z" fill-rule="nonzero"/><path fill="#000000" d="M393.63696 323.08334L392.5901 323.08334L392.5901 316.3646Q392.19946 316.72397 391.57446 317.09897Q390.9651 317.45834 390.4807 317.63022L390.4807 316.6146Q391.3557 316.19272 392.01196 315.6146Q392.68384 315.02084 392.9651 314.45834L393.63696 314.45834L393.63696 323.08334ZM396.6682 318.84897Q396.6682 317.31772 396.9807 316.39584Q397.2932 315.45834 397.9026 314.95834Q398.5276 314.45834 399.4651 314.45834Q400.1526 314.45834 400.6682 314.7396Q401.19946 315.02084 401.5432 315.5521Q401.88696 316.06772 402.07446 316.81772Q402.26196 317.56772 402.26196 318.84897Q402.26196 320.3646 401.94946 321.28647Q401.6526 322.20834 401.0276 322.72397Q400.4182 323.22397 399.4651 323.22397Q398.2307 323.22397 397.51196 322.33334Q396.6682 321.27084 396.6682 318.84897ZM397.74634 318.84897Q397.74634 320.95834 398.24634 321.66147Q398.74634 322.3646 399.4651 322.3646Q400.19946 322.3646 400.68384 321.66147Q401.18384 320.95834 401.18384 318.84897Q401.18384 316.72397 400.68384 316.03647Q400.19946 315.33334 399.44946 315.33334Q398.7307 315.33334 398.2932 315.94272Q397.74634 316.72397 397.74634 318.84897ZM403.6682 318.84897Q403.6682 317.31772 403.9807 316.39584Q404.2932 315.45834 404.9026 314.95834Q405.5276 314.45834 406.4651 314.45834Q407.1526 314.45834 407.6682 314.7396Q408.19946 315.02084 408.5432 315.5521Q408.88696 316.06772 409.07446 316.81772Q409.26196 317.56772 409.26196 318.84897Q409.26196 320.3646 408.94946 321.28647Q408.6526 322.20834 408.0276 322.72397Q407.4182 323.22397 406.4651 323.22397Q405.2307 323.22397 404.51196 322.33334Q403.6682 321.27084 403.6682 318.84897ZM404.74634 318.84897Q404.74634 320.95834 405.24634 321.66147Q405.74634 322.3646 406.4651 322.3646Q407.19946 322.3646 407.68384 321.66147Q408.18384 320.95834 408.18384 318.84897Q408.18384 316.72397 407.68384 316.03647Q407.19946 315.33334 406.44946 315.33334Q405.7307 315.33334 405.2932 315.94272Q404.74634 316.72397 404.74634 318.84897ZM410.6682 318.84897Q410.6682 317.31772 410.9807 316.39584Q411.2932 315.45834 411.9026 314.95834Q412.5276 314.45834 413.4651 314.45834Q414.1526 314.45834 414.6682 314.7396Q415.19946 315.02084 415.5432 315.5521Q415.88696 316.06772 416.07446 316.81772Q416.26196 317.56772 416.26196 318.84897Q416.26196 320.3646 415.94946 321.28647Q415.6526 322.20834 415.0276 322.72397Q414.4182 323.22397 413.4651 323.22397Q412.2307 323.22397 411.51196 322.33334Q410.6682 321.27084 410.6682 318.84897ZM411.74634 318.84897Q411.74634 320.95834 412.24634 321.66147Q412.74634 322.3646 413.4651 322.3646Q414.19946 322.3646 414.68384 321.66147Q415.18384 320.95834 415.18384 318.84897Q415.18384 316.72397 414.68384 316.03647Q414.19946 315.33334 413.44946 315.33334Q412.7307 315.33334 412.2932 315.94272Q411.74634 316.72397 411.74634 318.84897ZM417.6682 318.84897Q417.6682 317.31772 417.9807 316.39584Q418.2932 315.45834 418.9026 314.95834Q419.5276 314.45834 420.4651 314.45834Q421.1526 314.45834 421.6682 314.7396Q422.19946 315.02084 422.5432 315.5521Q422.88696 316.06772 423.07446 316.81772Q423.26196 317.56772 423.26196 318.84897Q423.26196 320.3646 422.94946 321.28647Q422.6526 322.20834 422.0276 322.72397Q421.4182 323.22397 420.4651 323.22397Q419.2307 323.22397 418.51196 322.33334Q417.6682 321.27084 417.6682 318.84897ZM418.74634 318.84897Q418.74634 320.95834 419.24634 321.66147Q419.74634 322.3646 420.4651 322.3646Q421.19946 322.3646 421.68384 321.66147Q422.18384 320.95834 422.18384 318.84897Q422.18384 316.72397 421.68384 316.03647Q421.19946 315.33334 420.44946 315.33334Q419.7307 315.33334 419.2932 315.94272Q418.74634 316.72397 418.74634 318.84897ZM424.6682 318.84897Q424.6682 317.31772 424.9807 316.39584Q425.2932 315.45834 425.9026 314.95834Q426.5276 314.45834 427.4651 314.45834Q428.1526 314.45834 428.6682 314.7396Q429.19946 315.02084 429.5432 315.5521Q429.88696 316.06772 430.07446 316.81772Q430.26196 317.56772 430.26196 318.84897Q430.26196 320.3646 429.94946 321.28647Q429.6526 322.20834 429.0276 322.72397Q428.4182 323.22397 427.4651 323.22397Q426.2307 323.22397 425.51196 322.33334Q424.6682 321.27084 424.6682 318.84897ZM425.74634 318.84897Q425.74634 320.95834 426.24634 321.66147Q426.74634 322.3646 427.4651 322.3646Q428.19946 322.3646 428.68384 321.66147Q429.18384 320.95834 429.18384 318.84897Q429.18384 316.72397 428.68384 316.03647Q428.19946 315.33334 427.44946 315.33334Q426.7307 315.33334 426.2932 315.94272Q425.74634 316.72397 425.74634 318.84897ZM431.6682 318.84897Q431.6682 317.31772 431.9807 316.39584Q432.2932 315.45834 432.9026 314.95834Q433.5276 314.45834 434.4651 314.45834Q435.1526 314.45834 435.6682 314.7396Q436.19946 315.02084 436.5432 315.5521Q436.88696 316.06772 437.07446 316.81772Q437.26196 317.56772 437.26196 318.84897Q437.26196 320.3646 436.94946 321.28647Q436.6526 322.20834 436.0276 322.72397Q435.4182 323.22397 434.4651 323.22397Q433.2307 323.22397 432.51196 322.33334Q431.6682 321.27084 431.6682 318.84897ZM432.74634 318.84897Q432.74634 320.95834 433.24634 321.66147Q433.74634 322.3646 434.4651 322.3646Q435.19946 322.3646 435.68384 321.66147Q436.18384 320.95834 436.18384 318.84897Q436.18384 316.72397 435.68384 316.03647Q435.19946 315.33334 434.44946 315.33334Q433.7307 315.33334 433.2932 315.94272Q432.74634 316.72397 432.74634 318.84897Z" fill-rule="nonzero"/><path fill="#000000" d="M490.3052 323.08334L489.25833 323.08334L489.25833 316.3646Q488.8677 316.72397 488.2427 317.09897Q487.63333 317.45834 487.14896 317.63022L487.14896 316.6146Q488.02396 316.19272 488.6802 315.6146Q489.35208 315.02084 489.63333 314.45834L490.3052 314.45834L490.3052 323.08334ZM493.33646 318.84897Q493.33646 317.31772 493.64896 316.39584Q493.96146 315.45834 494.57083 314.95834Q495.19583 314.45834 496.13333 314.45834Q496.82083 314.45834 497.33646 314.7396Q497.8677 315.02084 498.21146 315.5521Q498.5552 316.06772 498.7427 316.81772Q498.9302 317.56772 498.9302 318.84897Q498.9302 320.3646 498.6177 321.28647Q498.32083 322.20834 497.69583 322.72397Q497.08646 323.22397 496.13333 323.22397Q494.89896 323.22397 494.1802 322.33334Q493.33646 321.27084 493.33646 318.84897ZM494.41458 318.84897Q494.41458 320.95834 494.91458 321.66147Q495.41458 322.3646 496.13333 322.3646Q496.8677 322.3646 497.35208 321.66147Q497.85208 320.95834 497.85208 318.84897Q497.85208 316.72397 497.35208 316.03647Q496.8677 315.33334 496.1177 315.33334Q495.39896 315.33334 494.96146 315.94272Q494.41458 316.72397 494.41458 318.84897ZM500.33646 318.84897Q500.33646 317.31772 500.64896 316.39584Q500.96146 315.45834 501.57083 314.95834Q502.19583 314.45834 503.13333 314.45834Q503.82083 314.45834 504.33646 314.7396Q504.8677 315.02084 505.21146 315.5521Q505.5552 316.06772 505.7427 316.81772Q505.9302 317.56772 505.9302 318.84897Q505.9302 320.3646 505.6177 321.28647Q505.32083 322.20834 504.69583 322.72397Q504.08646 323.22397 503.13333 323.22397Q501.89896 323.22397 501.1802 322.33334Q500.33646 321.27084 500.33646 318.84897ZM501.41458 318.84897Q501.41458 320.95834 501.91458 321.66147Q502.41458 322.3646 503.13333 322.3646Q503.8677 322.3646 504.35208 321.66147Q504.85208 320.95834 504.85208 318.84897Q504.85208 316.72397 504.35208 316.03647Q503.8677 315.33334 503.1177 315.33334Q502.39896 315.33334 501.96146 315.94272Q501.41458 316.72397 501.41458 318.84897ZM507.33646 318.84897Q507.33646 317.31772 507.64896 316.39584Q507.96146 315.45834 508.57083 314.95834Q509.19583 314.45834 510.13333 314.45834Q510.82083 314.45834 511.33646 314.7396Q511.8677 315.02084 512.2114 315.5521Q512.5552 316.06772 512.7427 316.81772Q512.9302 317.56772 512.9302 318.84897Q512.9302 320.3646 512.6177 321.28647Q512.3208 322.20834 511.69583 322.72397Q511.08646 323.22397 510.13333 323.22397Q508.89896 323.22397 508.1802 322.33334Q507.33646 321.27084 507.33646 318.84897ZM508.41458 318.84897Q508.41458 320.95834 508.91458 321.66147Q509.41458 322.3646 510.13333 322.3646Q510.8677 322.3646 511.35208 321.66147Q511.85208 320.95834 511.85208 318.84897Q511.85208 316.72397 511.35208 316.03647Q510.8677 315.33334 510.1177 315.33334Q509.39896 315.33334 508.96146 315.94272Q508.41458 316.72397 508.41458 318.84897ZM514.3364 318.84897Q514.3364 317.31772 514.6489 316.39584Q514.9614 315.45834 515.5708 314.95834Q516.1958 314.45834 517.1333 314.45834Q517.8208 314.45834 518.3364 314.7396Q518.8677 315.02084 519.2114 315.5521Q519.5552 316.06772 519.7427 316.81772Q519.9302 317.56772 519.9302 318.84897Q519.9302 320.3646 519.6177 321.28647Q519.3208 322.20834 518.6958 322.72397Q518.0864 323.22397 517.1333 323.22397Q515.8989 323.22397 515.1802 322.33334Q514.3364 321.27084 514.3364 318.84897ZM515.41455 318.84897Q515.41455 320.95834 515.91455 321.66147Q516.41455 322.3646 517.1333 322.3646Q517.8677 322.3646 518.35205 321.66147Q518.85205 320.95834 518.85205 318.84897Q518.85205 316.72397 518.35205 316.03647Q517.8677 315.33334 517.1177 315.33334Q516.3989 315.33334 515.9614 315.94272Q515.41455 316.72397 515.41455 318.84897ZM521.3364 318.84897Q521.3364 317.31772 521.6489 316.39584Q521.9614 315.45834 522.5708 314.95834Q523.1958 314.45834 524.1333 314.45834Q524.8208 314.45834 525.3364 314.7396Q525.8677 315.02084 526.2114 315.5521Q526.5552 316.06772 526.7427 316.81772Q526.9302 317.56772 526.9302 318.84897Q526.9302 320.3646 526.6177 321.28647Q526.3208 322.20834 525.6958 322.72397Q525.0864 323.22397 524.1333 323.22397Q522.8989 323.22397 522.1802 322.33334Q521.3364 321.27084 521.3364 318.84897ZM522.41455 318.84897Q522.41455 320.95834 522.91455 321.66147Q523.41455 322.3646 524.1333 322.3646Q524.8677 322.3646 525.35205 321.66147Q525.85205 320.95834 525.85205 318.84897Q525.85205 316.72397 525.35205 316.03647Q524.8677 315.33334 524.1177 315.33334Q523.3989 315.33334 522.9614 315.94272Q522.41455 316.72397 522.41455 318.84897ZM528.3364 318.84897Q528.3364 317.31772 528.6489 316.39584Q528.9614 315.45834 529.5708 314.95834Q530.1958 314.45834 531.1333 314.45834Q531.8208 314.45834 532.3364 314.7396Q532.8677 315.02084 533.2114 315.5521Q533.5552 316.06772 533.7427 316.81772Q533.9302 317.56772 533.9302 318.84897Q533.9302 320.3646 533.6177 321.28647Q533.3208 322.20834 532.6958 322.72397Q532.0864 323.22397 531.1333 323.22397Q529.8989 323.22397 529.1802 322.33334Q528.3364 321.27084 528.3364 318.84897ZM529.41455 318.84897Q529.41455 320.95834 529.91455 321.66147Q530.41455 322.3646 531.1333 322.3646Q531.8677 322.3646 532.35205 321.66147Q532.85205 320.95834 532.85205 318.84897Q532.85205 316.72397 532.35205 316.03647Q531.8677 315.33334 531.1177 315.33334Q530.3989 315.33334 529.9614 315.94272Q529.41455 316.72397 529.41455 318.84897ZM535.3364 318.84897Q535.3364 317.31772 535.6489 316.39584Q535.9614 315.45834 536.5708 314.95834Q537.1958 314.45834 538.1333 314.45834Q538.8208 314.45834 539.3364 314.7396Q539.8677 315.02084 540.2114 315.5521Q540.5552 316.06772 540.7427 316.81772Q540.9302 317.56772 540.9302 318.84897Q540.9302 320.3646 540.6177 321.28647Q540.3208 322.20834 539.6958 322.72397Q539.0864 323.22397 538.1333 323.22397Q536.8989 323.22397 536.1802 322.33334Q535.3364 321.27084 535.3364 318.84897ZM536.41455 318.84897Q536.41455 320.95834 536.91455 321.66147Q537.41455 322.3646 538.1333 322.3646Q538.8677 322.3646 539.35205 321.66147Q539.85205 320.95834 539.85205 318.84897Q539.85205 316.72397 539.35205 316.03647Q538.8677 315.33334 538.1177 315.33334Q537.3989 315.33334 536.9614 315.94272Q536.41455 316.72397 536.41455 318.84897Z" fill-rule="nonzero"/><path fill="#46bdc6" d="M204.0 340.45C204.0 339.8977 204.44771 339.45 205.0 339.45L215.0 339.45C215.55229 339.45 216.0 339.8977 216.0 340.45L216.0 350.45C216.0 351.0023 215.55229 351.45 215.0 351.45L205.0 351.45C204.44771 351.45 204.0 351.0023 204.0 350.45Z" fill-rule="nonzero"/><path fill="#1a1a1a" d="M224.9375 349.45L224.9375 340.85626L228.75 340.85626Q229.90625 340.85626 230.5 341.09064Q231.09375 341.325 231.45312 341.91876Q231.8125 342.4969 231.8125 343.2Q231.8125 344.1219 231.21875 344.7469Q230.625 345.3719 229.39062 345.54376Q229.84375 345.7625 230.07812 345.96564Q230.57812 346.41876 231.01562 347.10626L232.51562 349.45L231.07812 349.45L229.95312 347.66876Q229.45312 346.8875 229.125 346.48126Q228.8125 346.075 228.54688 345.91876Q228.29688 345.7469 228.03125 345.66876Q227.84375 345.6375 227.40625 345.6375L226.07812 345.6375L226.07812 349.45L224.9375 349.45ZM226.07812 344.65314L228.53125 344.65314Q229.29688 344.65314 229.73438 344.4969Q230.1875 344.325 230.40625 343.98126Q230.64062 343.6219 230.64062 343.2Q230.64062 342.59064 230.1875 342.2Q229.75 341.8094 228.79688 341.8094L226.07812 341.8094L226.07812 344.65314ZM237.875 349.45L237.875 348.52814Q237.14062 349.59064 235.89062 349.59064Q235.34375 349.59064 234.85938 349.3875Q234.39062 349.16876 234.15625 348.85626Q233.92188 348.52814 233.82812 348.0594Q233.76562 347.7625 233.76562 347.075L233.76562 343.23126L234.82812 343.23126L234.82812 346.6844Q234.82812 347.4969 234.89062 347.79376Q234.98438 348.2 235.29688 348.45Q235.625 348.6844 236.10938 348.6844Q236.57812 348.6844 236.98438 348.45Q237.40625 348.2 237.57812 347.77814Q237.76562 347.35626 237.76562 346.5594L237.76562 343.23126L238.8125 343.23126L238.8125 349.45L237.875 349.45ZM244.875 349.45L244.875 348.52814Q244.14062 349.59064 242.89062 349.59064Q242.34375 349.59064 241.85938 349.3875Q241.39062 349.16876 241.15625 348.85626Q240.92188 348.52814 240.82812 348.0594Q240.76562 347.7625 240.76562 347.075L240.76562 343.23126L241.82812 343.23126L241.82812 346.6844Q241.82812 347.4969 241.89062 347.79376Q241.98438 348.2 242.29688 348.45Q242.625 348.6844 243.10938 348.6844Q243.57812 348.6844 243.98438 348.45Q244.40625 348.2 244.57812 347.77814Q244.76562 347.35626 244.76562 346.5594L244.76562 343.23126L245.8125 343.23126L245.8125 349.45L244.875 349.45ZM250.09375 348.5125L250.25 349.4344Q249.79688 349.52814 249.45312 349.52814Q248.875 349.52814 248.5625 349.35626Q248.25 349.16876 248.10938 348.8719Q247.98438 348.575 247.98438 347.6219L247.98438 344.04376L247.21875 344.04376L247.21875 343.23126L247.98438 343.23126L247.98438 341.6844L249.03125 341.0594L249.03125 343.23126L250.09375 343.23126L250.09375 344.04376L249.03125 344.04376L249.03125 347.6844Q249.03125 348.1375 249.07812 348.2625Q249.14062 348.3875 249.26562 348.46564Q249.39062 348.54376 249.625 348.54376Q249.8125 348.54376 250.09375 348.5125ZM254.875 349.45L254.875 348.52814Q254.14062 349.59064 252.89062 349.59064Q252.34375 349.59064 251.85938 349.3875Q251.39062 349.16876 251.15625 348.85626Q250.92188 348.52814 250.82812 348.0594Q250.76562 347.7625 250.76562 347.075L250.76562 343.23126L251.82812 343.23126L251.82812 346.6844Q251.82812 347.4969 251.89062 347.79376Q251.98438 348.2 252.29688 348.45Q252.625 348.6844 253.10938 348.6844Q253.57812 348.6844 253.98438 348.45Q254.40625 348.2 254.57812 347.77814Q254.76562 347.35626 254.76562 346.5594L254.76562 343.23126L255.8125 343.23126L255.8125 349.45L254.875 349.45ZM257.875 349.45L257.875 340.85626L259.01562 340.85626L259.01562 345.1219L263.28125 340.85626L264.82812 340.85626L261.21875 344.34064L264.98438 349.45L263.48438 349.45L260.42188 345.10626L259.01562 346.46564L259.01562 349.45L257.875 349.45ZM270.04688 347.45L271.14062 347.575Q270.89062 348.52814 270.1875 349.0594Q269.48438 349.59064 268.40625 349.59064Q267.04688 349.59064 266.23438 348.7469Q265.4375 347.90314 265.4375 346.3875Q265.4375 344.825 266.25 343.96564Q267.0625 343.09064 268.34375 343.09064Q269.59375 343.09064 270.375 343.9344Q271.17188 344.77814 271.17188 346.325Q271.17188 346.41876 271.17188 346.60626L266.53125 346.60626Q266.59375 347.6375 267.10938 348.1844Q267.625 348.71564 268.40625 348.71564Q268.98438 348.71564 269.39062 348.41876Q269.8125 348.10626 270.04688 347.45ZM266.59375 345.7469L270.0625 345.7469Q270.0 344.95 269.67188 344.5594Q269.15625 343.95 268.35938 343.95Q267.625 343.95 267.125 344.4344Q266.64062 344.91876 266.59375 345.7469ZM272.79688 349.45L272.79688 340.85626L273.85938 340.85626L273.85938 345.7625L276.34375 343.23126L277.71875 343.23126L275.32812 345.52814L277.95312 349.45L276.65625 349.45L274.59375 346.2625L273.85938 346.98126L273.85938 349.45L272.79688 349.45ZM278.40625 346.34064Q278.40625 344.60626 279.35938 343.77814Q280.15625 343.09064 281.3125 343.09064Q282.59375 343.09064 283.40625 343.9344Q284.23438 344.7625 284.23438 346.2469Q284.23438 347.45 283.875 348.1375Q283.51562 348.825 282.8125 349.21564Q282.125 349.59064 281.3125 349.59064Q280.01562 349.59064 279.20312 348.7625Q278.40625 347.91876 278.40625 346.34064ZM279.48438 346.34064Q279.48438 347.52814 280.0 348.1219Q280.53125 348.71564 281.3125 348.71564Q282.10938 348.71564 282.625 348.1219Q283.14062 347.52814 283.14062 346.3094Q283.14062 345.15314 282.60938 344.5594Q282.09375 343.96564 281.3125 343.96564Q280.53125 343.96564 280.0 344.5594Q279.48438 345.1375 279.48438 346.34064Z" fill-rule="nonzero"/><path fill="#ea4335" d="M301.0 340.45C301.0 339.8977 301.44772 339.45 302.0 339.45L312.0 339.45C312.55228 339.45 313.0 339.8977 313.0 340.45L313.0 350.45C313.0 351.0023 312.55228 351.45 312.0 351.45L302.0 351.45C301.44772 351.45 301.0 351.0023 301.0 350.45Z" fill-rule="nonzero"/><path fill="#1a1a1a" d="M321.92188 349.45L321.92188 340.85626L325.17188 340.85626Q326.01562 340.85626 326.46875 340.9344Q327.10938 341.04376 327.53125 341.34064Q327.96875 341.6375 328.21875 342.16876Q328.48438 342.7 328.48438 343.34064Q328.48438 344.4344 327.78125 345.2Q327.09375 345.95 325.26562 345.95L323.0625 345.95L323.0625 349.45L321.92188 349.45ZM323.0625 344.95L325.28125 344.95Q326.39062 344.95 326.84375 344.54376Q327.3125 344.1219 327.3125 343.3719Q327.3125 342.84064 327.03125 342.46564Q326.76562 342.075 326.32812 341.95Q326.03125 341.8719 325.26562 341.8719L323.0625 341.8719L323.0625 344.95ZM329.78125 349.45L329.78125 343.23126L330.73438 343.23126L330.73438 344.16876Q331.09375 343.5125 331.39062 343.3094Q331.70312 343.09064 332.07812 343.09064Q332.60938 343.09064 333.15625 343.41876L332.79688 344.40314Q332.40625 344.16876 332.03125 344.16876Q331.67188 344.16876 331.39062 344.3875Q331.125 344.59064 331.01562 344.96564Q330.82812 345.52814 330.82812 346.1844L330.82812 349.45L329.78125 349.45ZM333.79688 342.075L333.79688 340.85626L334.85938 340.85626L334.85938 342.075L333.79688 342.075ZM333.79688 349.45L333.79688 343.23126L334.85938 343.23126L334.85938 349.45L333.79688 349.45ZM336.40625 346.34064Q336.40625 344.60626 337.35938 343.77814Q338.15625 343.09064 339.3125 343.09064Q340.59375 343.09064 341.40625 343.9344Q342.23438 344.7625 342.23438 346.2469Q342.23438 347.45 341.875 348.1375Q341.51562 348.825 340.8125 349.21564Q340.125 349.59064 339.3125 349.59064Q338.01562 349.59064 337.20312 348.7625Q336.40625 347.91876 336.40625 346.34064ZM337.48438 346.34064Q337.48438 347.52814 338.0 348.1219Q338.53125 348.71564 339.3125 348.71564Q340.10938 348.71564 340.625 348.1219Q341.14062 347.52814 341.14062 346.3094Q341.14062 345.15314 340.60938 344.5594Q340.09375 343.96564 339.3125 343.96564Q338.53125 343.96564 338.0 344.5594Q337.48438 345.1375 337.48438 346.34064ZM343.78125 349.45L343.78125 343.23126L344.73438 343.23126L344.73438 344.16876Q345.09375 343.5125 345.39062 343.3094Q345.70312 343.09064 346.07812 343.09064Q346.60938 343.09064 347.15625 343.41876L346.79688 344.40314Q346.40625 344.16876 346.03125 344.16876Q345.67188 344.16876 345.39062 344.3875Q345.125 344.59064 345.01562 344.96564Q344.82812 345.52814 344.82812 346.1844L344.82812 349.45L343.78125 349.45ZM347.79688 342.075L347.79688 340.85626L348.85938 340.85626L348.85938 342.075L347.79688 342.075ZM347.79688 349.45L347.79688 343.23126L348.85938 343.23126L348.85938 349.45L347.79688 349.45ZM353.09375 348.5125L353.25 349.4344Q352.79688 349.52814 352.45312 349.52814Q351.875 349.52814 351.5625 349.35626Q351.25 349.16876 351.10938 348.8719Q350.98438 348.575 350.98438 347.6219L350.98438 344.04376L350.21875 344.04376L350.21875 343.23126L350.98438 343.23126L350.98438 341.6844L352.03125 341.0594L352.03125 343.23126L353.09375 343.23126L353.09375 344.04376L352.03125 344.04376L352.03125 347.6844Q352.03125 348.1375 352.07812 348.2625Q352.14062 348.3875 352.26562 348.46564Q352.39062 348.54376 352.625 348.54376Q352.8125 348.54376 353.09375 348.5125ZM353.75 351.84064L353.625 350.85626Q353.96875 350.95 354.23438 350.95Q354.57812 350.95 354.78125 350.825Q355.0 350.71564 355.14062 350.5125Q355.23438 350.34064 355.46875 349.71564Q355.48438 349.6375 355.5625 349.46564L353.1875 343.23126L354.32812 343.23126L355.625 346.825Q355.875 347.5125 356.07812 348.27814Q356.26562 347.54376 356.51562 346.85626L357.84375 343.23126L358.89062 343.23126L356.53125 349.5594Q356.14062 350.575 355.9375 350.96564Q355.65625 351.4969 355.28125 351.73126Q354.92188 351.98126 354.42188 351.98126Q354.125 351.98126 353.75 351.84064ZM366.4375 348.52814Q367.23438 349.075 367.89062 349.325L367.5625 350.1219Q366.64062 349.77814 365.71875 349.0594Q364.76562 349.59064 363.60938 349.59064Q362.4375 349.59064 361.48438 349.02814Q360.54688 348.46564 360.03125 347.45Q359.51562 346.4344 359.51562 345.15314Q359.51562 343.8875 360.03125 342.84064Q360.54688 341.79376 361.5 341.2469Q362.45312 340.7 363.625 340.7Q364.8125 340.7 365.76562 341.27814Q366.73438 341.84064 367.23438 342.85626Q367.73438 343.8719 367.73438 345.15314Q367.73438 346.21564 367.40625 347.0594Q367.09375 347.90314 366.4375 348.52814ZM363.9375 347.075Q364.92188 347.35626 365.5625 347.90314Q366.5625 346.98126 366.5625 345.15314Q366.5625 344.10626 366.20312 343.325Q365.84375 342.54376 365.15625 342.1219Q364.48438 341.6844 363.64062 341.6844Q362.35938 341.6844 361.51562 342.5594Q360.6875 343.41876 360.6875 345.15314Q360.6875 346.825 361.51562 347.73126Q362.34375 348.6219 363.64062 348.6219Q364.25 348.6219 364.78125 348.3875Q364.25 348.04376 363.65625 347.90314L363.9375 347.075ZM372.875 349.45L372.875 348.52814Q372.14062 349.59064 370.89062 349.59064Q370.34375 349.59064 369.85938 349.3875Q369.39062 349.16876 369.15625 348.85626Q368.92188 348.52814 368.82812 348.0594Q368.76562 347.7625 368.76562 347.075L368.76562 343.23126L369.82812 343.23126L369.82812 346.6844Q369.82812 347.4969 369.89062 347.79376Q369.98438 348.2 370.29688 348.45Q370.625 348.6844 371.10938 348.6844Q371.57812 348.6844 371.98438 348.45Q372.40625 348.2 372.57812 347.77814Q372.76562 347.35626 372.76562 346.5594L372.76562 343.23126L373.8125 343.23126L373.8125 349.45L372.875 349.45ZM380.04688 347.45L381.14062 347.575Q380.89062 348.52814 380.1875 349.0594Q379.48438 349.59064 378.40625 349.59064Q377.04688 349.59064 376.23438 348.7469Q375.4375 347.90314 375.4375 346.3875Q375.4375 344.825 376.25 343.96564Q377.0625 343.09064 378.34375 343.09064Q379.59375 343.09064 380.375 343.9344Q381.17188 344.77814 381.17188 346.325Q381.17188 346.41876 381.17188 346.60626L376.53125 346.60626Q376.59375 347.6375 377.10938 348.1844Q377.625 348.71564 378.40625 348.71564Q378.98438 348.71564 379.39062 348.41876Q379.8125 348.10626 380.04688 347.45ZM376.59375 345.7469L380.0625 345.7469Q380.0 344.95 379.67188 344.5594Q379.15625 343.95 378.35938 343.95Q377.625 343.95 377.125 344.4344Q376.64062 344.91876 376.59375 345.7469ZM386.875 349.45L386.875 348.52814Q386.14062 349.59064 384.89062 349.59064Q384.34375 349.59064 383.85938 349.3875Q383.39062 349.16876 383.15625 348.85626Q382.92188 348.52814 382.82812 348.0594Q382.76562 347.7625 382.76562 347.075L382.76562 343.23126L383.82812 343.23126L383.82812 346.6844Q383.82812 347.4969 383.89062 347.79376Q383.98438 348.2 384.29688 348.45Q384.625 348.6844 385.10938 348.6844Q385.57812 348.6844 385.98438 348.45Q386.40625 348.2 386.57812 347.77814Q386.76562 347.35626 386.76562 346.5594L386.76562 343.23126L387.8125 343.23126L387.8125 349.45L386.875 349.45ZM394.04688 347.45L395.14062 347.575Q394.89062 348.52814 394.1875 349.0594Q393.48438 349.59064 392.40625 349.59064Q391.04688 349.59064 390.23438 348.7469Q389.4375 347.90314 389.4375 346.3875Q389.4375 344.825 390.25 343.96564Q391.0625 343.09064 392.34375 343.09064Q393.59375 343.09064 394.375 343.9344Q395.17188 344.77814 395.17188 346.325Q395.17188 346.41876 395.17188 346.60626L390.53125 346.60626Q390.59375 347.6375 391.10938 348.1844Q391.625 348.71564 392.40625 348.71564Q392.98438 348.71564 393.39062 348.41876Q393.8125 348.10626 394.04688 347.45ZM390.59375 345.7469L394.0625 345.7469Q394.0 344.95 393.67188 344.5594Q393.15625 343.95 392.35938 343.95Q391.625 343.95 391.125 344.4344Q390.64062 344.91876 390.59375 345.7469Z" fill-rule="nonzero"/><path fill="#757575" d="M58.578125 37.55L58.578125 23.2375L64.921875 23.2375Q66.828125 23.2375 67.828125 23.628124Q68.828125 24.003124 69.421875 24.9875Q70.015625 25.95625 70.015625 27.14375Q70.015625 28.659374 69.03125 29.70625Q68.046875 30.753124 65.984375 31.034374Q66.734375 31.39375 67.125 31.753124Q67.953125 32.503124 68.703125 33.659374L71.1875 37.55L68.8125 37.55L66.90625 34.565624Q66.078125 33.284374 65.546875 32.596874Q65.015625 31.909374 64.578125 31.64375Q64.15625 31.3625 63.71875 31.253124Q63.390625 31.190624 62.671875 31.190624L60.46875 31.190624L60.46875 37.55L58.578125 37.55ZM60.46875 29.55L64.546875 29.55Q65.84375 29.55 66.5625 29.284374Q67.296875 29.01875 67.671875 28.425Q68.0625 27.83125 68.0625 27.14375Q68.0625 26.128124 67.328125 25.471874Q66.59375 24.815624 65.0 24.815624L60.46875 24.815624L60.46875 29.55ZM79.109375 37.55L79.109375 36.01875Q77.90625 37.784374 75.828125 37.784374Q74.90625 37.784374 74.109375 37.440624Q73.3125 37.08125 72.921875 36.55Q72.546875 36.01875 72.390625 35.2375Q72.28125 34.721874 72.28125 33.596874L72.28125 27.175L74.03125 27.175L74.03125 32.925Q74.03125 34.3 74.140625 34.784374Q74.3125 35.471874 74.84375 35.878124Q75.390625 36.26875 76.171875 36.26875Q76.96875 36.26875 77.65625 35.8625Q78.359375 35.45625 78.640625 34.76875Q78.9375 34.065624 78.9375 32.7375L78.9375 27.175L80.6875 27.175L80.6875 37.55L79.109375 37.55ZM90.109375 37.55L90.109375 36.01875Q88.90625 37.784374 86.828125 37.784374Q85.90625 37.784374 85.109375 37.440624Q84.3125 37.08125 83.921875 36.55Q83.546875 36.01875 83.390625 35.2375Q83.28125 34.721874 83.28125 33.596874L83.28125 27.175L85.03125 27.175L85.03125 32.925Q85.03125 34.3 85.140625 34.784374Q85.3125 35.471874 85.84375 35.878124Q86.390625 36.26875 87.171875 36.26875Q87.96875 36.26875 88.65625 35.8625Q89.359375 35.45625 89.640625 34.76875Q89.9375 34.065624 89.9375 32.7375L89.9375 27.175L91.6875 27.175L91.6875 37.55L90.109375 37.55ZM98.15625 35.971874L98.40625 37.534374Q97.671875 37.690624 97.078125 37.690624Q96.125 37.690624 95.59375 37.39375Q95.078125 37.08125 94.859375 36.596874Q94.640625 36.096874 94.640625 34.51875L94.640625 28.55L93.359375 28.55L93.359375 27.175L94.640625 27.175L94.640625 24.6125L96.390625 23.55L96.390625 27.175L98.15625 27.175L98.15625 28.55L96.390625 28.55L96.390625 34.6125Q96.390625 35.3625 96.484375 35.58125Q96.578125 35.784374 96.78125 35.925Q97.0 36.05 97.390625 36.05Q97.671875 36.05 98.15625 35.971874ZM107.109375 37.55L107.109375 36.01875Q105.90625 37.784374 103.828125 37.784374Q102.90625 37.784374 102.109375 37.440624Q101.3125 37.08125 100.921875 36.55Q100.546875 36.01875 100.390625 35.2375Q100.28125 34.721874 100.28125 33.596874L100.28125 27.175L102.03125 27.175L102.03125 32.925Q102.03125 34.3 102.140625 34.784374Q102.3125 35.471874 102.84375 35.878124Q103.390625 36.26875 104.171875 36.26875Q104.96875 36.26875 105.65625 35.8625Q106.359375 35.45625 106.640625 34.76875Q106.9375 34.065624 106.9375 32.7375L106.9375 27.175L108.6875 27.175L108.6875 37.55L107.109375 37.55ZM111.46875 37.55L111.46875 23.2375L113.359375 23.2375L113.359375 30.33125L120.46875 23.2375L123.03125 23.2375L117.03125 29.034374L123.296875 37.55L120.796875 37.55L115.703125 30.3L113.359375 32.58125L113.359375 37.55L111.46875 37.55ZM131.42188 34.20625L133.23438 34.440624Q132.8125 36.01875 131.64062 36.909374Q130.48438 37.784374 128.67188 37.784374Q126.40625 37.784374 125.0625 36.39375Q123.734375 34.9875 123.734375 32.45625Q123.734375 29.83125 125.078125 28.39375Q126.421875 26.940624 128.57812 26.940624Q130.65625 26.940624 131.96875 28.3625Q133.29688 29.76875 133.29688 32.346874Q133.29688 32.503124 133.28125 32.815624L125.546875 32.815624Q125.640625 34.51875 126.515625 35.425Q127.390625 36.33125 128.6875 36.33125Q129.65625 36.33125 130.32812 35.83125Q131.01562 35.315624 131.42188 34.20625ZM125.640625 31.3625L131.4375 31.3625Q131.32812 30.065624 130.78125 29.409374Q129.9375 28.39375 128.59375 28.39375Q127.390625 28.39375 126.5625 29.20625Q125.734375 30.003124 125.640625 31.3625ZM134.67188 32.3625Q134.67188 29.4875 136.26562 28.096874Q137.60938 26.940624 139.53125 26.940624Q141.67188 26.940624 143.01562 28.346874Q144.375 29.753124 144.375 32.221874Q144.375 34.221874 143.78125 35.378124Q143.1875 36.51875 142.03125 37.159374Q140.89062 37.784374 139.53125 37.784374Q137.34375 37.784374 136.0 36.39375Q134.67188 34.9875 134.67188 32.3625ZM136.46875 32.3625Q136.46875 34.3625 137.32812 35.346874Q138.20312 36.33125 139.53125 36.33125Q140.84375 36.33125 141.70312 35.346874Q142.57812 34.346874 142.57812 32.3Q142.57812 30.378124 141.70312 29.39375Q140.82812 28.39375 139.53125 28.39375Q138.20312 28.39375 137.32812 29.39375Q136.46875 30.378124 136.46875 32.3625ZM146.3125 37.55L146.3125 27.175L147.90625 27.175L147.90625 28.659374Q149.04688 26.940624 151.20312 26.940624Q152.14062 26.940624 152.92188 27.284374Q153.71875 27.6125 154.10938 28.159374Q154.5 28.70625 154.65625 29.45625Q154.75 29.95625 154.75 31.175L154.75 37.55L152.98438 37.55L152.98438 31.2375Q152.98438 30.159374 152.78125 29.628124Q152.57812 29.096874 152.04688 28.784374Q151.53125 28.471874 150.82812 28.471874Q149.70312 28.471874 148.89062 29.190624Q148.07812 29.89375 148.07812 31.878124L148.07812 37.55L146.3125 37.55ZM163.3125 25.26875L163.3125 23.2375L165.0625 23.2375L165.0625 25.26875L163.3125 25.26875ZM161.07812 41.58125L161.40625 40.08125Q161.9375 40.221874 162.25 40.221874Q162.78125 40.221874 163.04688 39.8625Q163.3125 39.503124 163.3125 38.08125L163.3125 27.175L165.0625 27.175L165.0625 38.1125Q165.0625 40.034374 164.5625 40.784374Q163.9375 41.753124 162.45312 41.753124Q161.75 41.753124 161.07812 41.58125ZM174.09375 36.26875Q173.10938 37.096874 172.20312 37.440624Q171.29688 37.784374 170.26562 37.784374Q168.5625 37.784374 167.64062 36.95625Q166.71875 36.1125 166.71875 34.815624Q166.71875 34.05 167.0625 33.425Q167.42188 32.8 167.98438 32.425Q168.54688 32.034374 169.25 31.83125Q169.76562 31.70625 170.8125 31.565624Q172.9375 31.315624 173.9375 30.971874Q173.95312 30.6125 173.95312 30.503124Q173.95312 29.440624 173.45312 28.9875Q172.78125 28.39375 171.45312 28.39375Q170.20312 28.39375 169.60938 28.83125Q169.03125 29.26875 168.75 30.378124L167.03125 30.14375Q167.26562 29.034374 167.79688 28.3625Q168.32812 27.675 169.34375 27.315624Q170.35938 26.940624 171.70312 26.940624Q173.03125 26.940624 173.85938 27.253124Q174.6875 27.565624 175.07812 28.05Q175.46875 28.51875 175.625 29.2375Q175.71875 29.690624 175.71875 30.8625L175.71875 33.20625Q175.71875 35.659374 175.82812 36.315624Q175.9375 36.95625 176.28125 37.55L174.4375 37.55Q174.17188 37.003124 174.09375 36.26875ZM173.9375 32.346874Q172.98438 32.7375 171.0625 33.003124Q169.98438 33.159374 169.53125 33.3625Q169.09375 33.55 168.84375 33.925Q168.59375 34.3 168.59375 34.76875Q168.59375 35.471874 169.125 35.940624Q169.65625 36.409374 170.6875 36.409374Q171.70312 36.409374 172.48438 35.971874Q173.28125 35.51875 173.65625 34.753124Q173.9375 34.14375 173.9375 32.9875L173.9375 32.346874ZM184.54688 37.55L184.54688 23.2375L189.9375 23.2375Q191.375 23.2375 192.125 23.3625Q193.17188 23.55 193.89062 24.05Q194.60938 24.534374 195.03125 25.425Q195.46875 26.315624 195.46875 27.378124Q195.46875 29.20625 194.29688 30.471874Q193.14062 31.721874 190.10938 31.721874L186.4375 31.721874L186.4375 37.55L184.54688 37.55ZM186.4375 30.034374L190.14062 30.034374Q191.96875 30.034374 192.73438 29.3625Q193.51562 28.675 193.51562 27.425Q193.51562 26.534374 193.0625 25.89375Q192.60938 25.253124 191.875 25.05Q191.39062 24.925 190.09375 24.925L186.4375 24.925L186.4375 30.034374ZM197.29688 37.55L197.29688 27.175L198.875 27.175L198.875 28.753124Q199.48438 27.64375 200.0 27.3Q200.51562 26.940624 201.125 26.940624Q202.01562 26.940624 202.9375 27.503124L202.32812 29.14375Q201.6875 28.753124 201.04688 28.753124Q200.46875 28.753124 200.0 29.1125Q199.54688 29.45625 199.34375 30.065624Q199.0625 31.003124 199.0625 32.1125L199.0625 37.55L197.29688 37.55ZM204.32812 25.253124L204.32812 23.2375L206.09375 23.2375L206.09375 25.253124L204.32812 25.253124ZM204.32812 37.55L204.32812 27.175L206.09375 27.175L206.09375 37.55L204.32812 37.55ZM207.67188 32.3625Q207.67188 29.4875 209.26562 28.096874Q210.60938 26.940624 212.53125 26.940624Q214.67188 26.940624 216.01562 28.346874Q217.375 29.753124 217.375 32.221874Q217.375 34.221874 216.78125 35.378124Q216.1875 36.51875 215.03125 37.159374Q213.89062 37.784374 212.53125 37.784374Q210.34375 37.784374 209.0 36.39375Q207.67188 34.9875 207.67188 32.3625ZM209.46875 32.3625Q209.46875 34.3625 210.32812 35.346874Q211.20312 36.33125 212.53125 36.33125Q213.84375 36.33125 214.70312 35.346874Q215.57812 34.346874 215.57812 32.3Q215.57812 30.378124 214.70312 29.39375Q213.82812 28.39375 212.53125 28.39375Q211.20312 28.39375 210.32812 29.39375Q209.46875 30.378124 209.46875 32.3625ZM219.29688 37.55L219.29688 27.175L220.875 27.175L220.875 28.753124Q221.48438 27.64375 222.0 27.3Q222.51562 26.940624 223.125 26.940624Q224.01562 26.940624 224.9375 27.503124L224.32812 29.14375Q223.6875 28.753124 223.04688 28.753124Q222.46875 28.753124 222.0 29.1125Q221.54688 29.45625 221.34375 30.065624Q221.0625 31.003124 221.0625 32.1125L221.0625 37.55L219.29688 37.55ZM226.32812 25.253124L226.32812 23.2375L228.09375 23.2375L228.09375 25.253124L226.32812 25.253124ZM226.32812 37.55L226.32812 27.175L228.09375 27.175L228.09375 37.55L226.32812 37.55ZM234.15625 35.971874L234.40625 37.534374Q233.67188 37.690624 233.07812 37.690624Q232.125 37.690624 231.59375 37.39375Q231.07812 37.08125 230.85938 36.596874Q230.64062 36.096874 230.64062 34.51875L230.64062 28.55L229.35938 28.55L229.35938 27.175L230.64062 27.175L230.64062 24.6125L232.39062 23.55L232.39062 27.175L234.15625 27.175L234.15625 28.55L232.39062 28.55L232.39062 34.6125Q232.39062 35.3625 232.48438 35.58125Q232.57812 35.784374 232.78125 35.925Q233.0 36.05 233.39062 36.05Q233.67188 36.05 234.15625 35.971874ZM236.23438 41.55L236.04688 39.89375Q236.625 40.05 237.04688 40.05Q237.64062 40.05 237.98438 39.846874Q238.34375 39.659374 238.5625 39.315624Q238.73438 39.05 239.10938 38.003124Q239.15625 37.846874 239.26562 37.565624L235.32812 27.175L237.21875 27.175L239.375 33.190624Q239.79688 34.33125 240.125 35.58125Q240.4375 34.378124 240.84375 33.221874L243.0625 27.175L244.82812 27.175L240.875 37.721874Q240.25 39.440624 239.89062 40.08125Q239.42188 40.95625 238.8125 41.346874Q238.21875 41.753124 237.375 41.753124Q236.85938 41.753124 236.23438 41.55ZM257.39062 36.01875Q258.71875 36.925 259.82812 37.346874L259.26562 38.659374Q257.71875 38.1125 256.1875 36.909374Q254.59375 37.8 252.67188 37.8Q250.73438 37.8 249.14062 36.8625Q247.5625 35.925 246.70312 34.221874Q245.85938 32.51875 245.85938 30.39375Q245.85938 28.26875 246.71875 26.534374Q247.57812 24.8 249.15625 23.89375Q250.75 22.971874 252.71875 22.971874Q254.70312 22.971874 256.28125 23.925Q257.875 24.8625 258.70312 26.565624Q259.54688 28.253124 259.54688 30.378124Q259.54688 32.14375 259.01562 33.565624Q258.48438 34.971874 257.39062 36.01875ZM253.21875 33.596874Q254.85938 34.05 255.92188 34.95625Q257.59375 33.440624 257.59375 30.378124Q257.59375 28.64375 257.0 27.346874Q256.42188 26.05 255.28125 25.33125Q254.14062 24.6125 252.71875 24.6125Q250.60938 24.6125 249.20312 26.065624Q247.8125 27.503124 247.8125 30.39375Q247.8125 33.190624 249.1875 34.690624Q250.57812 36.175 252.71875 36.175Q253.73438 36.175 254.64062 35.784374Q253.75 35.221874 252.76562 34.971874L253.21875 33.596874ZM269.10938 37.55L269.10938 36.01875Q267.90625 37.784374 265.82812 37.784374Q264.90625 37.784374 264.10938 37.440624Q263.3125 37.08125 262.92188 36.55Q262.54688 36.01875 262.39062 35.2375Q262.28125 34.721874 262.28125 33.596874L262.28125 27.175L264.03125 27.175L264.03125 32.925Q264.03125 34.3 264.14062 34.784374Q264.3125 35.471874 264.84375 35.878124Q265.39062 36.26875 266.17188 36.26875Q266.96875 36.26875 267.65625 35.8625Q268.35938 35.45625 268.64062 34.76875Q268.9375 34.065624 268.9375 32.7375L268.9375 27.175L270.6875 27.175L270.6875 37.55L269.10938 37.55ZM280.42188 34.20625L282.23438 34.440624Q281.8125 36.01875 280.64062 36.909374Q279.48438 37.784374 277.67188 37.784374Q275.40625 37.784374 274.0625 36.39375Q272.73438 34.9875 272.73438 32.45625Q272.73438 29.83125 274.07812 28.39375Q275.42188 26.940624 277.57812 26.940624Q279.65625 26.940624 280.96875 28.3625Q282.29688 29.76875 282.29688 32.346874Q282.29688 32.503124 282.28125 32.815624L274.54688 32.815624Q274.64062 34.51875 275.51562 35.425Q276.39062 36.33125 277.6875 36.33125Q278.65625 36.33125 279.32812 35.83125Q280.01562 35.315624 280.42188 34.20625ZM274.64062 31.3625L280.4375 31.3625Q280.32812 30.065624 279.78125 29.409374Q278.9375 28.39375 277.59375 28.39375Q276.39062 28.39375 275.5625 29.20625Q274.73438 30.003124 274.64062 31.3625ZM291.10938 37.55L291.10938 36.01875Q289.90625 37.784374 287.82812 37.784374Q286.90625 37.784374 286.10938 37.440624Q285.3125 37.08125 284.92188 36.55Q284.54688 36.01875 284.39062 35.2375Q284.28125 34.721874 284.28125 33.596874L284.28125 27.175L286.03125 27.175L286.03125 32.925Q286.03125 34.3 286.14062 34.784374Q286.3125 35.471874 286.84375 35.878124Q287.39062 36.26875 288.17188 36.26875Q288.96875 36.26875 289.65625 35.8625Q290.35938 35.45625 290.64062 34.76875Q290.9375 34.065624 290.9375 32.7375L290.9375 27.175L292.6875 27.175L292.6875 37.55L291.10938 37.55ZM302.42188 34.20625L304.23438 34.440624Q303.8125 36.01875 302.64062 36.909374Q301.48438 37.784374 299.67188 37.784374Q297.40625 37.784374 296.0625 36.39375Q294.73438 34.9875 294.73438 32.45625Q294.73438 29.83125 296.07812 28.39375Q297.42188 26.940624 299.57812 26.940624Q301.65625 26.940624 302.96875 28.3625Q304.29688 29.76875 304.29688 32.346874Q304.29688 32.503124 304.28125 32.815624L296.54688 32.815624Q296.64062 34.51875 297.51562 35.425Q298.39062 36.33125 299.6875 36.33125Q300.65625 36.33125 301.32812 35.83125Q302.01562 35.315624 302.42188 34.20625ZM296.64062 31.3625L302.4375 31.3625Q302.32812 30.065624 301.78125 29.409374Q300.9375 28.39375 299.59375 28.39375Q298.39062 28.39375 297.5625 29.20625Q296.73438 30.003124 296.64062 31.3625ZM306.3125 37.55L306.3125 27.175L307.90625 27.175L307.90625 28.659374Q309.04688 26.940624 311.20312 26.940624Q312.14062 26.940624 312.92188 27.284374Q313.71875 27.6125 314.10938 28.159374Q314.5 28.70625 314.65625 29.45625Q314.75 29.95625 314.75 31.175L314.75 37.55L312.98438 37.55L312.98438 31.2375Q312.98438 30.159374 312.78125 29.628124Q312.57812 29.096874 312.04688 28.784374Q311.53125 28.471874 310.82812 28.471874Q309.70312 28.471874 308.89062 29.190624Q308.07812 29.89375 308.07812 31.878124L308.07812 37.55L306.3125 37.55ZM322.60938 34.45625L324.35938 34.175Q324.5 35.221874 325.17188 35.784374Q325.84375 36.33125 327.04688 36.33125Q328.25 36.33125 328.82812 35.846874Q329.42188 35.346874 329.42188 34.690624Q329.42188 34.096874 328.90625 33.753124Q328.54688 33.51875 327.10938 33.159374Q325.17188 32.659374 324.42188 32.315624Q323.6875 31.95625 323.29688 31.33125Q322.90625 30.690624 322.90625 29.925Q322.90625 29.2375 323.21875 28.64375Q323.54688 28.05 324.09375 27.659374Q324.5 27.3625 325.20312 27.159374Q325.92188 26.940624 326.73438 26.940624Q327.95312 26.940624 328.875 27.3Q329.79688 27.64375 330.23438 28.253124Q330.67188 28.846874 330.84375 29.846874L329.125 30.08125Q329.0 29.284374 328.4375 28.846874Q327.875 28.39375 326.85938 28.39375Q325.64062 28.39375 325.125 28.8Q324.60938 29.190624 324.60938 29.721874Q324.60938 30.065624 324.82812 30.346874Q325.03125 30.628124 325.5 30.815624Q325.76562 30.909374 327.04688 31.253124Q328.92188 31.753124 329.65625 32.08125Q330.39062 32.39375 330.8125 33.003124Q331.23438 33.596874 331.23438 34.503124Q331.23438 35.378124 330.71875 36.159374Q330.20312 36.940624 329.23438 37.3625Q328.26562 37.784374 327.04688 37.784374Q325.03125 37.784374 323.96875 36.940624Q322.90625 36.096874 322.60938 34.45625ZM340.10938 37.55L340.10938 36.01875Q338.90625 37.784374 336.82812 37.784374Q335.90625 37.784374 335.10938 37.440624Q334.3125 37.08125 333.92188 36.55Q333.54688 36.01875 333.39062 35.2375Q333.28125 34.721874 333.28125 33.596874L333.28125 27.175L335.03125 27.175L335.03125 32.925Q335.03125 34.3 335.14062 34.784374Q335.3125 35.471874 335.84375 35.878124Q336.39062 36.26875 337.17188 36.26875Q337.96875 36.26875 338.65625 35.8625Q339.35938 35.45625 339.64062 34.76875Q339.9375 34.065624 339.9375 32.7375L339.9375 27.175L341.6875 27.175L341.6875 37.55L340.10938 37.55ZM344.3125 37.55L344.3125 23.2375L346.07812 23.2375L346.07812 28.3625Q347.3125 26.940624 349.1875 26.940624Q350.32812 26.940624 351.17188 27.39375Q352.03125 27.846874 352.39062 28.659374Q352.76562 29.45625 352.76562 30.971874L352.76562 37.55L351.01562 37.55L351.01562 30.971874Q351.01562 29.659374 350.4375 29.065624Q349.85938 28.45625 348.82812 28.45625Q348.04688 28.45625 347.34375 28.8625Q346.65625 29.26875 346.35938 29.971874Q346.07812 30.659374 346.07812 31.878124L346.07812 37.55L344.3125 37.55ZM359.15625 35.971874L359.40625 37.534374Q358.67188 37.690624 358.07812 37.690624Q357.125 37.690624 356.59375 37.39375Q356.07812 37.08125 355.85938 36.596874Q355.64062 36.096874 355.64062 34.51875L355.64062 28.55L354.35938 28.55L354.35938 27.175L355.64062 27.175L355.64062 24.6125L357.39062 23.55L357.39062 27.175L359.15625 27.175L359.15625 28.55L357.39062 28.55L357.39062 34.6125Q357.39062 35.3625 357.48438 35.58125Q357.57812 35.784374 357.78125 35.925Q358.0 36.05 358.39062 36.05Q358.67188 36.05 359.15625 35.971874ZM368.42188 34.20625L370.23438 34.440624Q369.8125 36.01875 368.64062 36.909374Q367.48438 37.784374 365.67188 37.784374Q363.40625 37.784374 362.0625 36.39375Q360.73438 34.9875 360.73438 32.45625Q360.73438 29.83125 362.07812 28.39375Q363.42188 26.940624 365.57812 26.940624Q367.65625 26.940624 368.96875 28.3625Q370.29688 29.76875 370.29688 32.346874Q370.29688 32.503124 370.28125 32.815624L362.54688 32.815624Q362.64062 34.51875 363.51562 35.425Q364.39062 36.33125 365.6875 36.33125Q366.65625 36.33125 367.32812 35.83125Q368.01562 35.315624 368.42188 34.20625ZM362.64062 31.3625L368.4375 31.3625Q368.32812 30.065624 367.78125 29.409374Q366.9375 28.39375 365.59375 28.39375Q364.39062 28.39375 363.5625 29.20625Q362.73438 30.003124 362.64062 31.3625ZM379.42188 34.20625L381.23438 34.440624Q380.8125 36.01875 379.64062 36.909374Q378.48438 37.784374 376.67188 37.784374Q374.40625 37.784374 373.0625 36.39375Q371.73438 34.9875 371.73438 32.45625Q371.73438 29.83125 373.07812 28.39375Q374.42188 26.940624 376.57812 26.940624Q378.65625 26.940624 379.96875 28.3625Q381.29688 29.76875 381.29688 32.346874Q381.29688 32.503124 381.28125 32.815624L373.54688 32.815624Q373.64062 34.51875 374.51562 35.425Q375.39062 36.33125 376.6875 36.33125Q377.65625 36.33125 378.32812 35.83125Q379.01562 35.315624 379.42188 34.20625ZM373.64062 31.3625L379.4375 31.3625Q379.32812 30.065624 378.78125 29.409374Q377.9375 28.39375 376.59375 28.39375Q375.39062 28.39375 374.5625 29.20625Q373.73438 30.003124 373.64062 31.3625ZM383.28125 37.55L383.28125 23.2375L385.03125 23.2375L385.03125 37.55L383.28125 37.55ZM387.28125 37.55L387.28125 23.2375L389.03125 23.2375L389.03125 37.55L387.28125 37.55ZM391.32812 25.253124L391.32812 23.2375L393.09375 23.2375L393.09375 25.253124L391.32812 25.253124ZM391.32812 37.55L391.32812 27.175L393.09375 27.175L393.09375 37.55L391.32812 37.55ZM395.3125 37.55L395.3125 27.175L396.90625 27.175L396.90625 28.659374Q398.04688 26.940624 400.20312 26.940624Q401.14062 26.940624 401.92188 27.284374Q402.71875 27.6125 403.10938 28.159374Q403.5 28.70625 403.65625 29.45625Q403.75 29.95625 403.75 31.175L403.75 37.55L401.98438 37.55L401.98438 31.2375Q401.98438 30.159374 401.78125 29.628124Q401.57812 29.096874 401.04688 28.784374Q400.53125 28.471874 399.82812 28.471874Q398.70312 28.471874 397.89062 29.190624Q397.07812 29.89375 397.07812 31.878124L397.07812 37.55L395.3125 37.55ZM413.42188 34.20625L415.23438 34.440624Q414.8125 36.01875 413.64062 36.909374Q412.48438 37.784374 410.67188 37.784374Q408.40625 37.784374 407.0625 36.39375Q405.73438 34.9875 405.73438 32.45625Q405.73438 29.83125 407.07812 28.39375Q408.42188 26.940624 410.57812 26.940624Q412.65625 26.940624 413.96875 28.3625Q415.29688 29.76875 415.29688 32.346874Q415.29688 32.503124 415.28125 32.815624L407.54688 32.815624Q407.64062 34.51875 408.51562 35.425Q409.39062 36.33125 410.6875 36.33125Q411.65625 36.33125 412.32812 35.83125Q413.01562 35.315624 413.42188 34.20625ZM407.64062 31.3625L413.4375 31.3625Q413.32812 30.065624 412.78125 29.409374Q411.9375 28.39375 410.59375 28.39375Q409.39062 28.39375 408.5625 29.20625Q407.73438 30.003124 407.64062 31.3625ZM417.3125 37.55L417.3125 27.175L418.90625 27.175L418.90625 28.659374Q420.04688 26.940624 422.20312 26.940624Q423.14062 26.940624 423.92188 27.284374Q424.71875 27.6125 425.10938 28.159374Q425.5 28.70625 425.65625 29.45625Q425.75 29.95625 425.75 31.175L425.75 37.55L423.98438 37.55L423.98438 31.2375Q423.98438 30.159374 423.78125 29.628124Q423.57812 29.096874 423.04688 28.784374Q422.53125 28.471874 421.82812 28.471874Q420.70312 28.471874 419.89062 29.190624Q419.07812 29.89375 419.07812 31.878124L419.07812 37.55L417.3125 37.55ZM433.60938 34.45625L435.35938 34.175Q435.5 35.221874 436.17188 35.784374Q436.84375 36.33125 438.04688 36.33125Q439.25 36.33125 439.82812 35.846874Q440.42188 35.346874 440.42188 34.690624Q440.42188 34.096874 439.90625 33.753124Q439.54688 33.51875 438.10938 33.159374Q436.17188 32.659374 435.42188 32.315624Q434.6875 31.95625 434.29688 31.33125Q433.90625 30.690624 433.90625 29.925Q433.90625 29.2375 434.21875 28.64375Q434.54688 28.05 435.09375 27.659374Q435.5 27.3625 436.20312 27.159374Q436.92188 26.940624 437.73438 26.940624Q438.95312 26.940624 439.875 27.3Q440.79688 27.64375 441.23438 28.253124Q441.67188 28.846874 441.84375 29.846874L440.125 30.08125Q440.0 29.284374 439.4375 28.846874Q438.875 28.39375 437.85938 28.39375Q436.64062 28.39375 436.125 28.8Q435.60938 29.190624 435.60938 29.721874Q435.60938 30.065624 435.82812 30.346874Q436.03125 30.628124 436.5 30.815624Q436.76562 30.909374 438.04688 31.253124Q439.92188 31.753124 440.65625 32.08125Q441.39062 32.39375 441.8125 33.003124Q442.23438 33.596874 442.23438 34.503124Q442.23438 35.378124 441.71875 36.159374Q441.20312 36.940624 440.23438 37.3625Q439.26562 37.784374 438.04688 37.784374Q436.03125 37.784374 434.96875 36.940624Q433.90625 36.096874 433.60938 34.45625ZM451.10938 37.55L451.10938 36.01875Q449.90625 37.784374 447.82812 37.784374Q446.90625 37.784374 446.10938 37.440624Q445.3125 37.08125 444.92188 36.55Q444.54688 36.01875 444.39062 35.2375Q444.28125 34.721874 444.28125 33.596874L444.28125 27.175L446.03125 27.175L446.03125 32.925Q446.03125 34.3 446.14062 34.784374Q446.3125 35.471874 446.84375 35.878124Q447.39062 36.26875 448.17188 36.26875Q448.96875 36.26875 449.65625 35.8625Q450.35938 35.45625 450.64062 34.76875Q450.9375 34.065624 450.9375 32.7375L450.9375 27.175L452.6875 27.175L452.6875 37.55L451.10938 37.55ZM454.67188 32.3625Q454.67188 29.4875 456.26562 28.096874Q457.60938 26.940624 459.53125 26.940624Q461.67188 26.940624 463.01562 28.346874Q464.375 29.753124 464.375 32.221874Q464.375 34.221874 463.78125 35.378124Q463.1875 36.51875 462.03125 37.159374Q460.89062 37.784374 459.53125 37.784374Q457.34375 37.784374 456.0 36.39375Q454.67188 34.9875 454.67188 32.3625ZM456.46875 32.3625Q456.46875 34.3625 457.32812 35.346874Q458.20312 36.33125 459.53125 36.33125Q460.84375 36.33125 461.70312 35.346874Q462.57812 34.346874 462.57812 32.3Q462.57812 30.378124 461.70312 29.39375Q460.82812 28.39375 459.53125 28.39375Q458.20312 28.39375 457.32812 29.39375Q456.46875 30.378124 456.46875 32.3625ZM466.29688 37.55L466.29688 27.175L467.875 27.175L467.875 28.753124Q468.48438 27.64375 469.0 27.3Q469.51562 26.940624 470.125 26.940624Q471.01562 26.940624 471.9375 27.503124L471.32812 29.14375Q470.6875 28.753124 470.04688 28.753124Q469.46875 28.753124 469.0 29.1125Q468.54688 29.45625 468.34375 30.065624Q468.0625 31.003124 468.0625 32.1125L468.0625 37.55L466.29688 37.55ZM473.32812 25.253124L473.32812 23.2375L475.09375 23.2375L475.09375 25.253124L473.32812 25.253124ZM473.32812 37.55L473.32812 27.175L475.09375 27.175L475.09375 37.55L473.32812 37.55ZM481.15625 35.971874L481.40625 37.534374Q480.67188 37.690624 480.07812 37.690624Q479.125 37.690624 478.59375 37.39375Q478.07812 37.08125 477.85938 36.596874Q477.64062 36.096874 477.64062 34.51875L477.64062 28.55L476.35938 28.55L476.35938 27.175L477.64062 27.175L477.64062 24.6125L479.39062 23.55L479.39062 27.175L481.15625 27.175L481.15625 28.55L479.39062 28.55L479.39062 34.6125Q479.39062 35.3625 479.48438 35.58125Q479.57812 35.784374 479.78125 35.925Q480.0 36.05 480.39062 36.05Q480.67188 36.05 481.15625 35.971874ZM490.10938 37.55L490.10938 36.01875Q488.90625 37.784374 486.82812 37.784374Q485.90625 37.784374 485.10938 37.440624Q484.3125 37.08125 483.92188 36.55Q483.54688 36.01875 483.39062 35.2375Q483.28125 34.721874 483.28125 33.596874L483.28125 27.175L485.03125 27.175L485.03125 32.925Q485.03125 34.3 485.14062 34.784374Q485.3125 35.471874 485.84375 35.878124Q486.39062 36.26875 487.17188 36.26875Q487.96875 36.26875 488.65625 35.8625Q489.35938 35.45625 489.64062 34.76875Q489.9375 34.065624 489.9375 32.7375L489.9375 27.175L491.6875 27.175L491.6875 37.55L490.10938 37.55ZM493.60938 34.45625L495.35938 34.175Q495.5 35.221874 496.17188 35.784374Q496.84375 36.33125 498.04688 36.33125Q499.25 36.33125 499.82812 35.846874Q500.42188 35.346874 500.42188 34.690624Q500.42188 34.096874 499.90625 33.753124Q499.54688 33.51875 498.10938 33.159374Q496.17188 32.659374 495.42188 32.315624Q494.6875 31.95625 494.29688 31.33125Q493.90625 30.690624 493.90625 29.925Q493.90625 29.2375 494.21875 28.64375Q494.54688 28.05 495.09375 27.659374Q495.5 27.3625 496.20312 27.159374Q496.92188 26.940624 497.73438 26.940624Q498.95312 26.940624 499.875 27.3Q500.79688 27.64375 501.23438 28.253124Q501.67188 28.846874 501.84375 29.846874L500.125 30.08125Q500.0 29.284374 499.4375 28.846874Q498.875 28.39375 497.85938 28.39375Q496.64062 28.39375 496.125 28.8Q495.60938 29.190624 495.60938 29.721874Q495.60938 30.065624 495.82812 30.346874Q496.03125 30.628124 496.5 30.815624Q496.76562 30.909374 498.04688 31.253124Q499.92188 31.753124 500.65625 32.08125Q501.39062 32.39375 501.8125 33.003124Q502.23438 33.596874 502.23438 34.503124Q502.23438 35.378124 501.71875 36.159374Q501.20312 36.940624 500.23438 37.3625Q499.26562 37.784374 498.04688 37.784374Q496.03125 37.784374 494.96875 36.940624Q493.90625 36.096874 493.60938 34.45625ZM504.32812 37.55L504.32812 23.2375L506.09375 23.2375L506.09375 31.39375L510.25 27.175L512.5156 27.175L508.5625 31.01875L512.9219 37.55L510.75 37.55L507.32812 32.253124L506.09375 33.440624L506.09375 37.55L504.32812 37.55ZM514.2344 41.55L514.0469 39.89375Q514.625 40.05 515.0469 40.05Q515.6406 40.05 515.9844 39.846874Q516.34375 39.659374 516.5625 39.315624Q516.7344 39.05 517.1094 38.003124Q517.15625 37.846874 517.2656 37.565624L513.3281 27.175L515.21875 27.175L517.375 33.190624Q517.7969 34.33125 518.125 35.58125Q518.4375 34.378124 518.84375 33.221874L521.0625 27.175L522.8281 27.175L518.875 37.721874Q518.25 39.440624 517.8906 40.08125Q517.4219 40.95625 516.8125 41.346874Q516.21875 41.753124 515.375 41.753124Q514.8594 41.753124 514.2344 41.55ZM524.3281 37.55L524.3281 23.2375L526.09375 23.2375L526.09375 31.39375L530.25 27.175L532.5156 27.175L528.5625 31.01875L532.9219 37.55L530.75 37.55L527.3281 32.253124L526.09375 33.440624L526.09375 37.55L524.3281 37.55ZM534.2344 41.55L534.0469 39.89375Q534.625 40.05 535.0469 40.05Q535.6406 40.05 535.9844 39.846874Q536.34375 39.659374 536.5625 39.315624Q536.7344 39.05 537.1094 38.003124Q537.15625 37.846874 537.2656 37.565624L533.3281 27.175L535.21875 27.175L537.375 33.190624Q537.7969 34.33125 538.125 35.58125Q538.4375 34.378124 538.84375 33.221874L541.0625 27.175L542.8281 27.175L538.875 37.721874Q538.25 39.440624 537.8906 40.08125Q537.4219 40.95625 536.8125 41.346874Q536.21875 41.753124 535.375 41.753124Q534.8594 41.753124 534.2344 41.55Z" fill-rule="nonzero"/></svg>