<svg version="1.1" viewBox="0.0 0.0 600.0 371.0" fill="none" stroke="none" stroke-linecap="square" stroke-miterlimit="10" width="600" height="371" xmlns:xlink="http://www.w3.org/1999/xlink" xmlns="http://www.w3.org/2000/svg"><path fill="#ffffff" d="M0 0L600.0 0L600.0 371.0L0 371.0L0 0Z" fill-rule="nonzero"/><path stroke="#333333" stroke-width="1.0" stroke-linecap="butt" d="M45.5 306.5L581.5 306.5" fill-rule="nonzero"/><path stroke="#cccccc" stroke-width="1.0" stroke-linecap="butt" d="M45.5 224.5L581.5 224.5" fill-rule="nonzero"/><path stroke="#cccccc" stroke-width="1.0" stroke-linecap="butt" d="M45.5 143.5L581.5 143.5" fill-rule="nonzero"/><path stroke="#cccccc" stroke-width="1.0" stroke-linecap="butt" d="M45.5 61.5L581.5 61.5" fill-rule="nonzero"/><clipPath id="id_0"><path d="M45.55 61.916668L581.45 61.916668L581.45 306.08334L45.55 306.08334L45.55 61.916668Z" clip-rule="nonzero"/></clipPath><path stroke="#000000" stroke-width="2.0" stroke-linecap="butt" stroke-opacity="0.0" clip-path="url(#id_0)" d="M112.0 306.0L81.0 306.0L81.0 274.0C81.0 272.89542 81.89543 272.0 83.0 272.0L110.0 272.0C111.10457 272.0 112.0 272.89542 112.0 274.0Z" fill-rule="nonzero"/><path fill="#46bdc6" clip-path="url(#id_0)" d="M112.0 306.0L81.0 306.0L81.0 274.0C81.0 272.89542 81.89543 272.0 83.0 272.0L110.0 272.0C111.10457 272.0 112.0 272.89542 112.0 274.0Z" fill-rule="nonzero"/><path stroke="#000000" stroke-width="2.0" stroke-linecap="butt" stroke-opacity="0.0" clip-path="url(#id_0)" d="M212.0 306.0L181.0 306.0L181.0 200.0C181.0 198.89543 181.89543 198.0 183.0 198.0L210.0 198.0C211.10457 198.0 212.0 198.89543 212.0 200.0Z" fill-rule="nonzero"/><path fill="#46bdc6" clip-path="url(#id_0)" d="M212.0 306.0L181.0 306.0L181.0 200.0C181.0 198.89543 181.89543 198.0 183.0 198.0L210.0 198.0C211.10457 198.0 212.0 198.89543 212.0 200.0Z" fill-rule="nonzero"/><path stroke="#000000" stroke-width="2.0" stroke-linecap="butt" stroke-opacity="0.0" clip-path="url(#id_0)" d="M313.0 306.0L282.0 306.0L282.0 194.0C282.0 192.89543 282.89542 192.0 284.0 192.0L311.0 192.0C312.10458 192.0 313.0 192.89543 313.0 194.0Z" fill-rule="nonzero"/><path fill="#46bdc6" clip-path="url(#id_0)" d="M313.0 306.0L282.0 306.0L282.0 194.0C282.0 192.89543 282.89542 192.0 284.0 192.0L311.0 192.0C312.10458 192.0 313.0 192.89543 313.0 194.0Z" fill-rule="nonzero"/><path stroke="#000000" stroke-width="2.0" stroke-linecap="butt" stroke-opacity="0.0" clip-path="url(#id_0)" d="M413.0 306.0L382.0 306.0L382.0 80.0C382.0 78.89543 382.89542 78.0 384.0 78.0L411.0 78.0C412.10458 78.0 413.0 78.89543 413.0 80.0Z" fill-rule="nonzero"/><path fill="#46bdc6" clip-path="url(#id_0)" d="M413.0 306.0L382.0 306.0L382.0 80.0C382.0 78.89543 382.89542 78.0 384.0 78.0L411.0 78.0C412.10458 78.0 413.0 78.89543 413.0 80.0Z" fill-rule="nonzero"/><path stroke="#000000" stroke-width="2.0" stroke-linecap="butt" stroke-opacity="0.0" clip-path="url(#id_0)" d="M513.0 306.0L482.0 306.0L482.0 241.0C482.0 239.89543 482.89542 239.0 484.0 239.0L511.0 239.0C512.10455 239.0 513.0 239.89543 513.0 241.0Z" fill-rule="nonzero"/><path fill="#46bdc6" clip-path="url(#id_0)" d="M513.0 306.0L482.0 306.0L482.0 241.0C482.0 239.89543 482.89542 239.0 484.0 239.0L511.0 239.0C512.10455 239.0 513.0 239.89543 513.0 241.0Z" fill-rule="nonzero"/><path stroke="#000000" stroke-width="2.0" stroke-linecap="butt" stroke-opacity="0.0" clip-path="url(#id_0)" d="M145.0 306.0L114.0 306.0L114.0 145.0C114.0 143.89543 114.89543 143.0 116.0 143.0L143.0 143.0C144.10457 143.0 145.0 143.89543 145.0 145.0Z" fill-rule="nonzero"/><path fill="#ea4335" clip-path="url(#id_0)" d="M145.0 306.0L114.0 306.0L114.0 145.0C114.0 143.89543 114.89543 143.0 116.0 143.0L143.0 143.0C144.10457 143.0 145.0 143.89543 145.0 145.0Z" fill-rule="nonzero"/><path stroke="#000000" stroke-width="2.0" stroke-linecap="butt" stroke-opacity="0.0" clip-path="url(#id_0)" d="M245.0 306.0L214.0 306.0L214.0 145.0C214.0 143.89543 214.89543 143.0 216.0 143.0L243.0 143.0C244.10457 143.0 245.0 143.89543 245.0 145.0Z" fill-rule="nonzero"/><path fill="#ea4335" clip-path="url(#id_0)" d="M245.0 306.0L214.0 306.0L214.0 145.0C214.0 143.89543 214.89543 143.0 216.0 143.0L243.0 143.0C244.10457 143.0 245.0 143.89543 245.0 145.0Z" fill-rule="nonzero"/><path stroke="#000000" stroke-width="2.0" stroke-linecap="butt" stroke-opacity="0.0" clip-path="url(#id_0)" d="M346.0 306.0L315.0 306.0L315.0 145.0C315.0 143.89543 315.89542 143.0 317.0 143.0L344.0 143.0C345.10458 143.0 346.0 143.89543 346.0 145.0Z" fill-rule="nonzero"/><path fill="#ea4335" clip-path="url(#id_0)" d="M346.0 306.0L315.0 306.0L315.0 145.0C315.0 143.89543 315.89542 143.0 317.0 143.0L344.0 143.0C345.10458 143.0 346.0 143.89543 346.0 145.0Z" fill-rule="nonzero"/><path stroke="#000000" stroke-width="2.0" stroke-linecap="butt" stroke-opacity="0.0" clip-path="url(#id_0)" d="M446.0 306.0L415.0 306.0L415.0 145.0C415.0 143.89543 415.89542 143.0 417.0 143.0L444.0 143.0C445.10458 143.0 446.0 143.89543 446.0 145.0Z" fill-rule="nonzero"/><path fill="#ea4335" clip-path="url(#id_0)" d="M446.0 306.0L415.0 306.0L415.0 145.0C415.0 143.89543 415.89542 143.0 417.0 143.0L444.0 143.0C445.10458 143.0 446.0 143.89543 446.0 145.0Z" fill-rule="nonzero"/><path stroke="#000000" stroke-width="2.0" stroke-linecap="butt" stroke-opacity="0.0" clip-path="url(#id_0)" d="M546.0 306.0L515.0 306.0L515.0 145.0C515.0 143.89543 515.89545 143.0 517.0 143.0L544.0 143.0C545.10455 143.0 546.0 143.89543 546.0 145.0Z" fill-rule="nonzero"/><path fill="#ea4335" clip-path="url(#id_0)" d="M546.0 306.0L515.0 306.0L515.0 145.0C515.0 143.89543 515.89545 143.0 517.0 143.0L544.0 143.0C545.10455 143.0 546.0 143.89543 546.0 145.0Z" fill-rule="nonzero"/><path fill="#000000" d="M23.05 305.84897Q23.05 304.31772 23.3625 303.39584Q23.675 302.45834 24.284374 301.95834Q24.909374 301.45834 25.846874 301.45834Q26.534374 301.45834 27.05 301.7396Q27.58125 302.02084 27.925 302.5521Q28.26875 303.06772 28.45625 303.81772Q28.64375 304.56772 28.64375 305.84897Q28.64375 307.3646 28.33125 308.28647Q28.034374 309.20834 27.409374 309.72397Q26.8 310.22397 25.846874 310.22397Q24.6125 310.22397 23.89375 309.33334Q23.05 308.27084 23.05 305.84897ZM24.128124 305.84897Q24.128124 307.95834 24.628124 308.66147Q25.128124 309.3646 25.846874 309.3646Q26.58125 309.3646 27.065624 308.66147Q27.565624 307.95834 27.565624 305.84897Q27.565624 303.72397 27.065624 303.03647Q26.58125 302.33334 25.83125 302.33334Q25.1125 302.33334 24.675 302.94272Q24.128124 303.72397 24.128124 305.84897ZM30.64375 310.08334L30.64375 308.88022L31.846874 308.88022L31.846874 310.08334L30.64375 310.08334ZM33.05 305.84897Q33.05 304.31772 33.3625 303.39584Q33.675 302.45834 34.284374 301.95834Q34.909374 301.45834 35.846874 301.45834Q36.534374 301.45834 37.05 301.7396Q37.58125 302.02084 37.925 302.5521Q38.26875 303.06772 38.45625 303.81772Q38.64375 304.56772 38.64375 305.84897Q38.64375 307.3646 38.33125 308.28647Q38.034374 309.20834 37.409374 309.72397Q36.8 310.22397 35.846874 310.22397Q34.6125 310.22397 33.89375 309.33334Q33.05 308.27084 33.05 305.84897ZM34.128124 305.84897Q34.128124 307.95834 34.628124 308.66147Q35.128124 309.3646 35.846874 309.3646Q36.58125 309.3646 37.065624 308.66147Q37.565624 307.95834 37.565624 305.84897Q37.565624 303.72397 37.065624 303.03647Q36.58125 302.33334 35.83125 302.33334Q35.1125 302.33334 34.675 302.94272Q34.128124 303.72397 34.128124 305.84897Z" fill-rule="nonzero"/><path fill="#000000" d="M23.05 224.46007Q23.05 222.92882 23.3625 222.00694Q23.675 221.06944 24.284374 220.56944Q24.909374 220.06944 25.846874 220.06944Q26.534374 220.06944 27.05 220.3507Q27.58125 220.63194 27.925 221.1632Q28.26875 221.67882 28.45625 222.42882Q28.64375 223.17882 28.64375 224.46007Q28.64375 225.9757 28.33125 226.89757Q28.034374 227.81944 27.409374 228.33507Q26.8 228.83507 25.846874 228.83507Q24.6125 228.83507 23.89375 227.94444Q23.05 226.88194 23.05 224.46007ZM24.128124 224.46007Q24.128124 226.56944 24.628124 227.27257Q25.128124 227.9757 25.846874 227.9757Q26.58125 227.9757 27.065624 227.27257Q27.565624 226.56944 27.565624 224.46007Q27.565624 222.33507 27.065624 221.64757Q26.58125 220.94444 25.83125 220.94444Q25.1125 220.94444 24.675 221.55382Q24.128124 222.33507 24.128124 224.46007ZM30.64375 228.69444L30.64375 227.49132L31.846874 227.49132L31.846874 228.69444L30.64375 228.69444ZM33.05 226.44444L34.159374 226.3507Q34.284374 227.1632 34.721874 227.56944Q35.175 227.9757 35.815624 227.9757Q36.565624 227.9757 37.096874 227.39757Q37.628124 226.81944 37.628124 225.88194Q37.628124 224.9757 37.1125 224.46007Q36.6125 223.92882 35.784374 223.92882Q35.284374 223.92882 34.8625 224.1632Q34.45625 224.39757 34.221874 224.75694L33.2375 224.63194L34.065624 220.2257L38.346874 220.2257L38.346874 221.2257L34.909374 221.2257L34.45625 223.5382Q35.221874 222.99132 36.065624 222.99132Q37.190624 222.99132 37.95625 223.77257Q38.7375 224.55382 38.7375 225.7882Q38.7375 226.94444 38.065624 227.80382Q37.2375 228.83507 35.815624 228.83507Q34.64375 228.83507 33.89375 228.17882Q33.159374 227.52257 33.05 226.44444Z" fill-rule="nonzero"/><path fill="#000000" d="M27.01875 147.30556L25.971874 147.30556L25.971874 140.5868Q25.58125 140.94618 24.95625 141.32118Q24.346874 141.68056 23.8625 141.85243L23.8625 140.8368Q24.7375 140.41493 25.39375 139.8368Q26.065624 139.24306 26.346874 138.68056L27.01875 138.68056L27.01875 147.30556ZM30.64375 147.30556L30.64375 146.10243L31.846874 146.10243L31.846874 147.30556L30.64375 147.30556ZM33.05 143.07118Q33.05 141.53993 33.3625 140.61806Q33.675 139.68056 34.284374 139.18056Q34.909374 138.68056 35.846874 138.68056Q36.534374 138.68056 37.05 138.9618Q37.58125 139.24306 37.925 139.7743Q38.26875 140.28993 38.45625 141.03993Q38.64375 141.78993 38.64375 143.07118Q38.64375 144.5868 38.33125 145.50868Q38.034374 146.43056 37.409374 146.94618Q36.8 147.44618 35.846874 147.44618Q34.6125 147.44618 33.89375 146.55556Q33.05 145.49306 33.05 143.07118ZM34.128124 143.07118Q34.128124 145.18056 34.628124 145.88368Q35.128124 146.5868 35.846874 146.5868Q36.58125 146.5868 37.065624 145.88368Q37.565624 145.18056 37.565624 143.07118Q37.565624 140.94618 37.065624 140.25868Q36.58125 139.55556 35.83125 139.55556Q35.1125 139.55556 34.675 140.16493Q34.128124 140.94618 34.128124 143.07118Z" fill-rule="nonzero"/><path fill="#000000" d="M27.01875 65.916664L25.971874 65.916664L25.971874 59.197914Q25.58125 59.55729 24.95625 59.93229Q24.346874 60.291664 23.8625 60.46354L23.8625 59.447914Q24.7375 59.02604 25.39375 58.447914Q26.065624 57.854164 26.346874 57.291664L27.01875 57.291664L27.01875 65.916664ZM30.64375 65.916664L30.64375 64.71354L31.846874 64.71354L31.846874 65.916664L30.64375 65.916664ZM33.05 63.666664L34.159374 63.572914Q34.284374 64.385414 34.721874 64.791664Q35.175 65.197914 35.815624 65.197914Q36.565624 65.197914 37.096874 64.61979Q37.628124 64.041664 37.628124 63.104164Q37.628124 62.197914 37.1125 61.68229Q36.6125 61.15104 35.784374 61.15104Q35.284374 61.15104 34.8625 61.385414Q34.45625 61.61979 34.221874 61.979164L33.2375 61.854164L34.065624 57.447914L38.346874 57.447914L38.346874 58.447914L34.909374 58.447914L34.45625 60.760414Q35.221874 60.21354 36.065624 60.21354Q37.190624 60.21354 37.95625 60.99479Q38.7375 61.77604 38.7375 63.010414Q38.7375 64.166664 38.065624 65.02604Q37.2375 66.05729 35.815624 66.05729Q34.64375 66.05729 33.89375 65.40104Q33.159374 64.74479 33.05 63.666664Z" fill-rule="nonzero"/><path fill="#000000" d="M103.6323 323.08334L102.58543 323.08334L102.58543 316.3646Q102.1948 316.72397 101.5698 317.09897Q100.96043 317.45834 100.47605 317.63022L100.47605 316.6146Q101.35105 316.19272 102.0073 315.6146Q102.67918 315.02084 102.96043 314.45834L103.6323 314.45834L103.6323 323.08334ZM106.66355 318.84897Q106.66355 317.31772 106.97605 316.39584Q107.28855 315.45834 107.89793 314.95834Q108.52293 314.45834 109.46043 314.45834Q110.14793 314.45834 110.66355 314.7396Q111.1948 315.02084 111.53855 315.5521Q111.8823 316.06772 112.0698 316.81772Q112.2573 317.56772 112.2573 318.84897Q112.2573 320.3646 111.9448 321.28647Q111.64793 322.20834 111.02293 322.72397Q110.41355 323.22397 109.46043 323.22397Q108.22605 323.22397 107.5073 322.33334Q106.66355 321.27084 106.66355 318.84897ZM107.74168 318.84897Q107.74168 320.95834 108.24168 321.66147Q108.74168 322.3646 109.46043 322.3646Q110.1948 322.3646 110.67918 321.66147Q111.17918 320.95834 111.17918 318.84897Q111.17918 316.72397 110.67918 316.03647Q110.1948 315.33334 109.4448 315.33334Q108.72605 315.33334 108.28855 315.94272Q107.74168 316.72397 107.74168 318.84897ZM113.66355 318.84897Q113.66355 317.31772 113.97605 316.39584Q114.28855 315.45834 114.89793 314.95834Q115.52293 314.45834 116.46043 314.45834Q117.14793 314.45834 117.66355 314.7396Q118.1948 315.02084 118.53855 315.5521Q118.8823 316.06772 119.0698 316.81772Q119.2573 317.56772 119.2573 318.84897Q119.2573 320.3646 118.9448 321.28647Q118.64793 322.20834 118.02293 322.72397Q117.41355 323.22397 116.46043 323.22397Q115.22605 323.22397 114.5073 322.33334Q113.66355 321.27084 113.66355 318.84897ZM114.74168 318.84897Q114.74168 320.95834 115.24168 321.66147Q115.74168 322.3646 116.46043 322.3646Q117.1948 322.3646 117.67918 321.66147Q118.17918 320.95834 118.17918 318.84897Q118.17918 316.72397 117.67918 316.03647Q117.1948 315.33334 116.4448 315.33334Q115.72605 315.33334 115.28855 315.94272Q114.74168 316.72397 114.74168 318.84897ZM120.66355 318.84897Q120.66355 317.31772 120.97605 316.39584Q121.28855 315.45834 121.89793 314.95834Q122.52293 314.45834 123.46043 314.45834Q124.14793 314.45834 124.66355 314.7396Q125.1948 315.02084 125.53855 315.5521Q125.8823 316.06772 126.0698 316.81772Q126.2573 317.56772 126.2573 318.84897Q126.2573 320.3646 125.9448 321.28647Q125.64793 322.20834 125.02293 322.72397Q124.41355 323.22397 123.46043 323.22397Q122.22605 323.22397 121.5073 322.33334Q120.66355 321.27084 120.66355 318.84897ZM121.74168 318.84897Q121.74168 320.95834 122.24168 321.66147Q122.74168 322.3646 123.46043 322.3646Q124.1948 322.3646 124.67918 321.66147Q125.17918 320.95834 125.17918 318.84897Q125.17918 316.72397 124.67918 316.03647Q124.1948 315.33334 123.4448 315.33334Q122.72605 315.33334 122.28855 315.94272Q121.74168 316.72397 121.74168 318.84897Z" fill-rule="nonzero"/><path fill="#000000" d="M200.30052 323.08334L199.25365 323.08334L199.25365 316.3646Q198.86302 316.72397 198.23802 317.09897Q197.62865 317.45834 197.14427 317.63022L197.14427 316.6146Q198.01927 316.19272 198.67552 315.6146Q199.3474 315.02084 199.62865 314.45834L200.30052 314.45834L200.30052 323.08334ZM203.33177 318.84897Q203.33177 317.31772 203.64427 316.39584Q203.95677 315.45834 204.56615 314.95834Q205.19115 314.45834 206.12865 314.45834Q206.81615 314.45834 207.33177 314.7396Q207.86302 315.02084 208.20677 315.5521Q208.55052 316.06772 208.73802 316.81772Q208.92552 317.56772 208.92552 318.84897Q208.92552 320.3646 208.61302 321.28647Q208.31615 322.20834 207.69115 322.72397Q207.08177 323.22397 206.12865 323.22397Q204.89427 323.22397 204.17552 322.33334Q203.33177 321.27084 203.33177 318.84897ZM204.4099 318.84897Q204.4099 320.95834 204.9099 321.66147Q205.4099 322.3646 206.12865 322.3646Q206.86302 322.3646 207.3474 321.66147Q207.8474 320.95834 207.8474 318.84897Q207.8474 316.72397 207.3474 316.03647Q206.86302 315.33334 206.11302 315.33334Q205.39427 315.33334 204.95677 315.94272Q204.4099 316.72397 204.4099 318.84897ZM210.33177 318.84897Q210.33177 317.31772 210.64427 316.39584Q210.95677 315.45834 211.56615 314.95834Q212.19115 314.45834 213.12865 314.45834Q213.81615 314.45834 214.33177 314.7396Q214.86302 315.02084 215.20677 315.5521Q215.55052 316.06772 215.73802 316.81772Q215.92552 317.56772 215.92552 318.84897Q215.92552 320.3646 215.61302 321.28647Q215.31615 322.20834 214.69115 322.72397Q214.08177 323.22397 213.12865 323.22397Q211.89427 323.22397 211.17552 322.33334Q210.33177 321.27084 210.33177 318.84897ZM211.4099 318.84897Q211.4099 320.95834 211.9099 321.66147Q212.4099 322.3646 213.12865 322.3646Q213.86302 322.3646 214.3474 321.66147Q214.8474 320.95834 214.8474 318.84897Q214.8474 316.72397 214.3474 316.03647Q213.86302 315.33334 213.11302 315.33334Q212.39427 315.33334 211.95677 315.94272Q211.4099 316.72397 211.4099 318.84897ZM217.33177 318.84897Q217.33177 317.31772 217.64427 316.39584Q217.95677 315.45834 218.56615 314.95834Q219.19115 314.45834 220.12865 314.45834Q220.81615 314.45834 221.33177 314.7396Q221.86302 315.02084 222.20677 315.5521Q222.55052 316.06772 222.73802 316.81772Q222.92552 317.56772 222.92552 318.84897Q222.92552 320.3646 222.61302 321.28647Q222.31615 322.20834 221.69115 322.72397Q221.08177 323.22397 220.12865 323.22397Q218.89427 323.22397 218.17552 322.33334Q217.33177 321.27084 217.33177 318.84897ZM218.4099 318.84897Q218.4099 320.95834 218.9099 321.66147Q219.4099 322.3646 220.12865 322.3646Q220.86302 322.3646 221.3474 321.66147Q221.8474 320.95834 221.8474 318.84897Q221.8474 316.72397 221.3474 316.03647Q220.86302 315.33334 220.11302 315.33334Q219.39427 315.33334 218.95677 315.94272Q218.4099 316.72397 218.4099 318.84897ZM224.33177 318.84897Q224.33177 317.31772 224.64427 316.39584Q224.95677 315.45834 225.56615 314.95834Q226.19115 314.45834 227.12865 314.45834Q227.81615 314.45834 228.33177 314.7396Q228.86302 315.02084 229.20677 315.5521Q229.55052 316.06772 229.73802 316.81772Q229.92552 317.56772 229.92552 318.84897Q229.92552 320.3646 229.61302 321.28647Q229.31615 322.20834 228.69115 322.72397Q228.08177 323.22397 227.12865 323.22397Q225.89427 323.22397 225.17552 322.33334Q224.33177 321.27084 224.33177 318.84897ZM225.4099 318.84897Q225.4099 320.95834 225.9099 321.66147Q226.4099 322.3646 227.12865 322.3646Q227.86302 322.3646 228.3474 321.66147Q228.8474 320.95834 228.8474 318.84897Q228.8474 316.72397 228.3474 316.03647Q227.86302 315.33334 227.11302 315.33334Q226.39427 315.33334 225.95677 315.94272Q225.4099 316.72397 225.4099 318.84897Z" fill-rule="nonzero"/><path fill="#000000" d="M296.96875 323.08334L295.92188 323.08334L295.92188 316.3646Q295.53125 316.72397 294.90625 317.09897Q294.29688 317.45834 293.8125 317.63022L293.8125 316.6146Q294.6875 316.19272 295.34375 315.6146Q296.01562 315.02084 296.29688 314.45834L296.96875 314.45834L296.96875 323.08334ZM300.0 318.84897Q300.0 317.31772 300.3125 316.39584Q300.625 315.45834 301.23438 314.95834Q301.85938 314.45834 302.79688 314.45834Q303.48438 314.45834 304.0 314.7396Q304.53125 315.02084 304.875 315.5521Q305.21875 316.06772 305.40625 316.81772Q305.59375 317.56772 305.59375 318.84897Q305.59375 320.3646 305.28125 321.28647Q304.98438 322.20834 304.35938 322.72397Q303.75 323.22397 302.79688 323.22397Q301.5625 323.22397 300.84375 322.33334Q300.0 321.27084 300.0 318.84897ZM301.07812 318.84897Q301.07812 320.95834 301.57812 321.66147Q302.07812 322.3646 302.79688 322.3646Q303.53125 322.3646 304.01562 321.66147Q304.51562 320.95834 304.51562 318.84897Q304.51562 316.72397 304.01562 316.03647Q303.53125 315.33334 302.78125 315.33334Q302.0625 315.33334 301.625 315.94272Q301.07812 316.72397 301.07812 318.84897ZM307.0 318.84897Q307.0 317.31772 307.3125 316.39584Q307.625 315.45834 308.23438 314.95834Q308.85938 314.45834 309.79688 314.45834Q310.48438 314.45834 311.0 314.7396Q311.53125 315.02084 311.875 315.5521Q312.21875 316.06772 312.40625 316.81772Q312.59375 317.56772 312.59375 318.84897Q312.59375 320.3646 312.28125 321.28647Q311.98438 322.20834 311.35938 322.72397Q310.75 323.22397 309.79688 323.22397Q308.5625 323.22397 307.84375 322.33334Q307.0 321.27084 307.0 318.84897ZM308.07812 318.84897Q308.07812 320.95834 308.57812 321.66147Q309.07812 322.3646 309.79688 322.3646Q310.53125 322.3646 311.01562 321.66147Q311.51562 320.95834 311.51562 318.84897Q311.51562 316.72397 311.01562 316.03647Q310.53125 315.33334 309.78125 315.33334Q309.0625 315.33334 308.625 315.94272Q308.07812 316.72397 308.07812 318.84897ZM314.0 318.84897Q314.0 317.31772 314.3125 316.39584Q314.625 315.45834 315.23438 314.95834Q315.85938 314.45834 316.79688 314.45834Q317.48438 314.45834 318.0 314.7396Q318.53125 315.02084 318.875 315.5521Q319.21875 316.06772 319.40625 316.81772Q319.59375 317.56772 319.59375 318.84897Q319.59375 320.3646 319.28125 321.28647Q318.98438 322.20834 318.35938 322.72397Q317.75 323.22397 316.79688 323.22397Q315.5625 323.22397 314.84375 322.33334Q314.0 321.27084 314.0 318.84897ZM315.07812 318.84897Q315.07812 320.95834 315.57812 321.66147Q316.07812 322.3646 316.79688 322.3646Q317.53125 322.3646 318.01562 321.66147Q318.51562 320.95834 318.51562 318.84897Q318.51562 316.72397 318.01562 316.03647Q317.53125 315.33334 316.78125 315.33334Q316.0625 315.33334 315.625 315.94272Q315.07812 316.72397 315.07812 318.84897ZM321.0 318.84897Q321.0 317.31772 321.3125 316.39584Q321.625 315.45834 322.23438 314.95834Q322.85938 314.45834 323.79688 314.45834Q324.48438 314.45834 325.0 314.7396Q325.53125 315.02084 325.875 315.5521Q326.21875 316.06772 326.40625 316.81772Q326.59375 317.56772 326.59375 318.84897Q326.59375 320.3646 326.28125 321.28647Q325.98438 322.20834 325.35938 322.72397Q324.75 323.22397 323.79688 323.22397Q322.5625 323.22397 321.84375 322.33334Q321.0 321.27084 321.0 318.84897ZM322.07812 318.84897Q322.07812 320.95834 322.57812 321.66147Q323.07812 322.3646 323.79688 322.3646Q324.53125 322.3646 325.01562 321.66147Q325.51562 320.95834 325.51562 318.84897Q325.51562 316.72397 325.01562 316.03647Q324.53125 315.33334 323.78125 315.33334Q323.0625 315.33334 322.625 315.94272Q322.07812 316.72397 322.07812 318.84897ZM328.0 318.84897Q328.0 317.31772 328.3125 316.39584Q328.625 315.45834 329.23438 314.95834Q329.85938 314.45834 330.79688 314.45834Q331.48438 314.45834 332.0 314.7396Q332.53125 315.02084 332.875 315.5521Q333.21875 316.06772 333.40625 316.81772Q333.59375 317.56772 333.59375 318.84897Q333.59375 320.3646 333.28125 321.28647Q332.98438 322.20834 332.35938 322.72397Q331.75 323.22397 330.79688 323.22397Q329.5625 323.22397 328.84375 322.33334Q328.0 321.27084 328.0 318.84897ZM329.07812 318.84897Q329.07812 320.95834 329.57812 321.66147Q330.07812 322.3646 330.79688 322.3646Q331.53125 322.3646 332.01562 321.66147Q332.51562 320.95834 332.51562 318.84897Q332.51562 316.72397 332.01562 316.03647Q331.53125 315.33334 330.78125 315.33334Q330.0625 315.33334 329.625 315.94272Q329.07812 316.72397 329.07812 318.84897Z" fill-rule="nonzero"/><path fill="#000000" d="M393.63696 323.08334L392.5901 323.08334L392.5901 316.3646Q392.19946 316.72397 391.57446 317.09897Q390.9651 317.45834 390.4807 317.63022L390.4807 316.6146Q391.3557 316.19272 392.01196 315.6146Q392.68384 315.02084 392.9651 314.45834L393.63696 314.45834L393.63696 323.08334ZM396.6682 318.84897Q396.6682 317.31772 396.9807 316.39584Q397.2932 315.45834 397.9026 314.95834Q398.5276 314.45834 399.4651 314.45834Q400.1526 314.45834 400.6682 314.7396Q401.19946 315.02084 401.5432 315.5521Q401.88696 316.06772 402.07446 316.81772Q402.26196 317.56772 402.26196 318.84897Q402.26196 320.3646 401.94946 321.28647Q401.6526 322.20834 401.0276 322.72397Q400.4182 323.22397 399.4651 323.22397Q398.2307 323.22397 397.51196 322.33334Q396.6682 321.27084 396.6682 318.84897ZM397.74634 318.84897Q397.74634 320.95834 398.24634 321.66147Q398.74634 322.3646 399.4651 322.3646Q400.19946 322.3646 400.68384 321.66147Q401.18384 320.95834 401.18384 318.84897Q401.18384 316.72397 400.68384 316.03647Q400.19946 315.33334 399.44946 315.33334Q398.7307 315.33334 398.2932 315.94272Q397.74634 316.72397 397.74634 318.84897ZM403.6682 318.84897Q403.6682 317.31772 403.9807 316.39584Q404.2932 315.45834 404.9026 314.95834Q405.5276 314.45834 406.4651 314.45834Q407.1526 314.45834 407.6682 314.7396Q408.19946 315.02084 408.5432 315.5521Q408.88696 316.06772 409.07446 316.81772Q409.26196 317.56772 409.26196 318.84897Q409.26196 320.3646 408.94946 321.28647Q408.6526 322.20834 408.0276 322.72397Q407.4182 323.22397 406.4651 323.22397Q405.2307 323.22397 404.51196 322.33334Q403.6682 321.27084 403.6682 318.84897ZM404.74634 318.84897Q404.74634 320.95834 405.24634 321.66147Q405.74634 322.3646 406.4651 322.3646Q407.19946 322.3646 407.68384 321.66147Q408.18384 320.95834 408.18384 318.84897Q408.18384 316.72397 407.68384 316.03647Q407.19946 315.33334 406.44946 315.33334Q405.7307 315.33334 405.2932 315.94272Q404.74634 316.72397 404.74634 318.84897ZM410.6682 318.84897Q410.6682 317.31772 410.9807 316.39584Q411.2932 315.45834 411.9026 314.95834Q412.5276 314.45834 413.4651 314.45834Q414.1526 314.45834 414.6682 314.7396Q415.19946 315.02084 415.5432 315.5521Q415.88696 316.06772 416.07446 316.81772Q416.26196 317.56772 416.26196 318.84897Q416.26196 320.3646 415.94946 321.28647Q415.6526 322.20834 415.0276 322.72397Q414.4182 323.22397 413.4651 323.22397Q412.2307 323.22397 411.51196 322.33334Q410.6682 321.27084 410.6682 318.84897ZM411.74634 318.84897Q411.74634 320.95834 412.24634 321.66147Q412.74634 322.3646 413.4651 322.3646Q414.19946 322.3646 414.68384 321.66147Q415.18384 320.95834 415.18384 318.84897Q415.18384 316.72397 414.68384 316.03647Q414.19946 315.33334 413.44946 315.33334Q412.7307 315.33334 412.2932 315.94272Q411.74634 316.72397 411.74634 318.84897ZM417.6682 318.84897Q417.6682 317.31772 417.9807 316.39584Q418.2932 315.45834 418.9026 314.95834Q419.5276 314.45834 420.4651 314.45834Q421.1526 314.45834 421.6682 314.7396Q422.19946 315.02084 422.5432 315.5521Q422.88696 316.06772 423.07446 316.81772Q423.26196 317.56772 423.26196 318.84897Q423.26196 320.3646 422.94946 321.28647Q422.6526 322.20834 422.0276 322.72397Q421.4182 323.22397 420.4651 323.22397Q419.2307 323.22397 418.51196 322.33334Q417.6682 321.27084 417.6682 318.84897ZM418.74634 318.84897Q418.74634 320.95834 419.24634 321.66147Q419.74634 322.3646 420.4651 322.3646Q421.19946 322.3646 421.68384 321.66147Q422.18384 320.95834 422.18384 318.84897Q422.18384 316.72397 421.68384 316.03647Q421.19946 315.33334 420.44946 315.33334Q419.7307 315.33334 419.2932 315.94272Q418.74634 316.72397 418.74634 318.84897ZM424.6682 318.84897Q424.6682 317.31772 424.9807 316.39584Q425.2932 315.45834 425.9026 314.95834Q426.5276 314.45834 427.4651 314.45834Q428.1526 314.45834 428.6682 314.7396Q429.19946 315.02084 429.5432 315.5521Q429.88696 316.06772 430.07446 316.81772Q430.26196 317.56772 430.26196 318.84897Q430.26196 320.3646 429.94946 321.28647Q429.6526 322.20834 429.0276 322.72397Q428.4182 323.22397 427.4651 323.22397Q426.2307 323.22397 425.51196 322.33334Q424.6682 321.27084 424.6682 318.84897ZM425.74634 318.84897Q425.74634 320.95834 426.24634 321.66147Q426.74634 322.3646 427.4651 322.3646Q428.19946 322.3646 428.68384 321.66147Q429.18384 320.95834 429.18384 318.84897Q429.18384 316.72397 428.68384 316.03647Q428.19946 315.33334 427.44946 315.33334Q426.7307 315.33334 426.2932 315.94272Q425.74634 316.72397 425.74634 318.84897ZM431.6682 318.84897Q431.6682 317.31772 431.9807 316.39584Q432.2932 315.45834 432.9026 314.95834Q433.5276 314.45834 434.4651 314.45834Q435.1526 314.45834 435.6682 314.7396Q436.19946 315.02084 436.5432 315.5521Q436.88696 316.06772 437.07446 316.81772Q437.26196 317.56772 437.26196 318.84897Q437.26196 320.3646 436.94946 321.28647Q436.6526 322.20834 436.0276 322.72397Q435.4182 323.22397 434.4651 323.22397Q433.2307 323.22397 432.51196 322.33334Q431.6682 321.27084 431.6682 318.84897ZM432.74634 318.84897Q432.74634 320.95834 433.24634 321.66147Q433.74634 322.3646 434.4651 322.3646Q435.19946 322.3646 435.68384 321.66147Q436.18384 320.95834 436.18384 318.84897Q436.18384 316.72397 435.68384 316.03647Q435.19946 315.33334 434.44946 315.33334Q433.7307 315.33334 433.2932 315.94272Q432.74634 316.72397 432.74634 318.84897Z" fill-rule="nonzero"/><path fill="#000000" d="M490.3052 323.08334L489.25833 323.08334L489.25833 316.3646Q488.8677 316.72397 488.2427 317.09897Q487.63333 317.45834 487.14896 317.63022L487.14896 316.6146Q488.02396 316.19272 488.6802 315.6146Q489.35208 315.02084 489.63333 314.45834L490.3052 314.45834L490.3052 323.08334ZM493.33646 318.84897Q493.33646 317.31772 493.64896 316.39584Q493.96146 315.45834 494.57083 314.95834Q495.19583 314.45834 496.13333 314.45834Q496.82083 314.45834 497.33646 314.7396Q497.8677 315.02084 498.21146 315.5521Q498.5552 316.06772 498.7427 316.81772Q498.9302 317.56772 498.9302 318.84897Q498.9302 320.3646 498.6177 321.28647Q498.32083 322.20834 497.69583 322.72397Q497.08646 323.22397 496.13333 323.22397Q494.89896 323.22397 494.1802 322.33334Q493.33646 321.27084 493.33646 318.84897ZM494.41458 318.84897Q494.41458 320.95834 494.91458 321.66147Q495.41458 322.3646 496.13333 322.3646Q496.8677 322.3646 497.35208 321.66147Q497.85208 320.95834 497.85208 318.84897Q497.85208 316.72397 497.35208 316.03647Q496.8677 315.33334 496.1177 315.33334Q495.39896 315.33334 494.96146 315.94272Q494.41458 316.72397 494.41458 318.84897ZM500.33646 318.84897Q500.33646 317.31772 500.64896 316.39584Q500.96146 315.45834 501.57083 314.95834Q502.19583 314.45834 503.13333 314.45834Q503.82083 314.45834 504.33646 314.7396Q504.8677 315.02084 505.21146 315.5521Q505.5552 316.06772 505.7427 316.81772Q505.9302 317.56772 505.9302 318.84897Q505.9302 320.3646 505.6177 321.28647Q505.32083 322.20834 504.69583 322.72397Q504.08646 323.22397 503.13333 323.22397Q501.89896 323.22397 501.1802 322.33334Q500.33646 321.27084 500.33646 318.84897ZM501.41458 318.84897Q501.41458 320.95834 501.91458 321.66147Q502.41458 322.3646 503.13333 322.3646Q503.8677 322.3646 504.35208 321.66147Q504.85208 320.95834 504.85208 318.84897Q504.85208 316.72397 504.35208 316.03647Q503.8677 315.33334 503.1177 315.33334Q502.39896 315.33334 501.96146 315.94272Q501.41458 316.72397 501.41458 318.84897ZM507.33646 318.84897Q507.33646 317.31772 507.64896 316.39584Q507.96146 315.45834 508.57083 314.95834Q509.19583 314.45834 510.13333 314.45834Q510.82083 314.45834 511.33646 314.7396Q511.8677 315.02084 512.2114 315.5521Q512.5552 316.06772 512.7427 316.81772Q512.9302 317.56772 512.9302 318.84897Q512.9302 320.3646 512.6177 321.28647Q512.3208 322.20834 511.69583 322.72397Q511.08646 323.22397 510.13333 323.22397Q508.89896 323.22397 508.1802 322.33334Q507.33646 321.27084 507.33646 318.84897ZM508.41458 318.84897Q508.41458 320.95834 508.91458 321.66147Q509.41458 322.3646 510.13333 322.3646Q510.8677 322.3646 511.35208 321.66147Q511.85208 320.95834 511.85208 318.84897Q511.85208 316.72397 511.35208 316.03647Q510.8677 315.33334 510.1177 315.33334Q509.39896 315.33334 508.96146 315.94272Q508.41458 316.72397 508.41458 318.84897ZM514.3364 318.84897Q514.3364 317.31772 514.6489 316.39584Q514.9614 315.45834 515.5708 314.95834Q516.1958 314.45834 517.1333 314.45834Q517.8208 314.45834 518.3364 314.7396Q518.8677 315.02084 519.2114 315.5521Q519.5552 316.06772 519.7427 316.81772Q519.9302 317.56772 519.9302 318.84897Q519.9302 320.3646 519.6177 321.28647Q519.3208 322.20834 518.6958 322.72397Q518.0864 323.22397 517.1333 323.22397Q515.8989 323.22397 515.1802 322.33334Q514.3364 321.27084 514.3364 318.84897ZM515.41455 318.84897Q515.41455 320.95834 515.91455 321.66147Q516.41455 322.3646 517.1333 322.3646Q517.8677 322.3646 518.35205 321.66147Q518.85205 320.95834 518.85205 318.84897Q518.85205 316.72397 518.35205 316.03647Q517.8677 315.33334 517.1177 315.33334Q516.3989 315.33334 515.9614 315.94272Q515.41455 316.72397 515.41455 318.84897ZM521.3364 318.84897Q521.3364 317.31772 521.6489 316.39584Q521.9614 315.45834 522.5708 314.95834Q523.1958 314.45834 524.1333 314.45834Q524.8208 314.45834 525.3364 314.7396Q525.8677 315.02084 526.2114 315.5521Q526.5552 316.06772 526.7427 316.81772Q526.9302 317.56772 526.9302 318.84897Q526.9302 320.3646 526.6177 321.28647Q526.3208 322.20834 525.6958 322.72397Q525.0864 323.22397 524.1333 323.22397Q522.8989 323.22397 522.1802 322.33334Q521.3364 321.27084 521.3364 318.84897ZM522.41455 318.84897Q522.41455 320.95834 522.91455 321.66147Q523.41455 322.3646 524.1333 322.3646Q524.8677 322.3646 525.35205 321.66147Q525.85205 320.95834 525.85205 318.84897Q525.85205 316.72397 525.35205 316.03647Q524.8677 315.33334 524.1177 315.33334Q523.3989 315.33334 522.9614 315.94272Q522.41455 316.72397 522.41455 318.84897ZM528.3364 318.84897Q528.3364 317.31772 528.6489 316.39584Q528.9614 315.45834 529.5708 314.95834Q530.1958 314.45834 531.1333 314.45834Q531.8208 314.45834 532.3364 314.7396Q532.8677 315.02084 533.2114 315.5521Q533.5552 316.06772 533.7427 316.81772Q533.9302 317.56772 533.9302 318.84897Q533.9302 320.3646 533.6177 321.28647Q533.3208 322.20834 532.6958 322.72397Q532.0864 323.22397 531.1333 323.22397Q529.8989 323.22397 529.1802 322.33334Q528.3364 321.27084 528.3364 318.84897ZM529.41455 318.84897Q529.41455 320.95834 529.91455 321.66147Q530.41455 322.3646 531.1333 322.3646Q531.8677 322.3646 532.35205 321.66147Q532.85205 320.95834 532.85205 318.84897Q532.85205 316.72397 532.35205 316.03647Q531.8677 315.33334 531.1177 315.33334Q530.3989 315.33334 529.9614 315.94272Q529.41455 316.72397 529.41455 318.84897ZM535.3364 318.84897Q535.3364 317.31772 535.6489 316.39584Q535.9614 315.45834 536.5708 314.95834Q537.1958 314.45834 538.1333 314.45834Q538.8208 314.45834 539.3364 314.7396Q539.8677 315.02084 540.2114 315.5521Q540.5552 316.06772 540.7427 316.81772Q540.9302 317.56772 540.9302 318.84897Q540.9302 320.3646 540.6177 321.28647Q540.3208 322.20834 539.6958 322.72397Q539.0864 323.22397 538.1333 323.22397Q536.8989 323.22397 536.1802 322.33334Q535.3364 321.27084 535.3364 318.84897ZM536.41455 318.84897Q536.41455 320.95834 536.91455 321.66147Q537.41455 322.3646 538.1333 322.3646Q538.8677 322.3646 539.35205 321.66147Q539.85205 320.95834 539.85205 318.84897Q539.85205 316.72397 539.35205 316.03647Q538.8677 315.33334 538.1177 315.33334Q537.3989 315.33334 536.9614 315.94272Q536.41455 316.72397 536.41455 318.84897Z" fill-rule="nonzero"/><path fill="#46bdc6" d="M209.0 340.45C209.0 339.8977 209.44771 339.45 210.0 339.45L220.0 339.45C220.55229 339.45 221.0 339.8977 221.0 340.45L221.0 350.45C221.0 351.0023 220.55229 351.45 220.0 351.45L210.0 351.45C209.44771 351.45 209.0 351.0023 209.0 350.45Z" fill-rule="nonzero"/><path fill="#1a1a1a" d="M229.9375 349.45L229.9375 340.85626L233.75 340.85626Q234.90625 340.85626 235.5 341.09064Q236.09375 341.325 236.45312 341.91876Q236.8125 342.4969 236.8125 343.2Q236.8125 344.1219 236.21875 344.7469Q235.625 345.3719 234.39062 345.54376Q234.84375 345.7625 235.07812 345.96564Q235.57812 346.41876 236.01562 347.10626L237.51562 349.45L236.07812 349.45L234.95312 347.66876Q234.45312 346.8875 234.125 346.48126Q233.8125 346.075 233.54688 345.91876Q233.29688 345.7469 233.03125 345.66876Q232.84375 345.6375 232.40625 345.6375L231.07812 345.6375L231.07812 349.45L229.9375 349.45ZM231.07812 344.65314L233.53125 344.65314Q234.29688 344.65314 234.73438 344.4969Q235.1875 344.325 235.40625 343.98126Q235.64062 343.6219 235.64062 343.2Q235.64062 342.59064 235.1875 342.2Q234.75 341.8094 233.79688 341.8094L231.07812 341.8094L231.07812 344.65314ZM242.875 349.45L242.875 348.52814Q242.14062 349.59064 240.89062 349.59064Q240.34375 349.59064 239.85938 349.3875Q239.39062 349.16876 239.15625 348.85626Q238.92188 348.52814 238.82812 348.0594Q238.76562 347.7625 238.76562 347.075L238.76562 343.23126L239.82812 343.23126L239.82812 346.6844Q239.82812 347.4969 239.89062 347.79376Q239.98438 348.2 240.29688 348.45Q240.625 348.6844 241.10938 348.6844Q241.57812 348.6844 241.98438 348.45Q242.40625 348.2 242.57812 347.77814Q242.76562 347.35626 242.76562 346.5594L242.76562 343.23126L243.8125 343.23126L243.8125 349.45L242.875 349.45ZM249.875 349.45L249.875 348.52814Q249.14062 349.59064 247.89062 349.59064Q247.34375 349.59064 246.85938 349.3875Q246.39062 349.16876 246.15625 348.85626Q245.92188 348.52814 245.82812 348.0594Q245.76562 347.7625 245.76562 347.075L245.76562 343.23126L246.82812 343.23126L246.82812 346.6844Q246.82812 347.4969 246.89062 347.79376Q246.98438 348.2 247.29688 348.45Q247.625 348.6844 248.10938 348.6844Q248.57812 348.6844 248.98438 348.45Q249.40625 348.2 249.57812 347.77814Q249.76562 347.35626 249.76562 346.5594L249.76562 343.23126L250.8125 343.23126L250.8125 349.45L249.875 349.45ZM255.09375 348.5125L255.25 349.4344Q254.79688 349.52814 254.45312 349.52814Q253.875 349.52814 253.5625 349.35626Q253.25 349.16876 253.10938 348.8719Q252.98438 348.575 252.98438 347.6219L252.98438 344.04376L252.21875 344.04376L252.21875 343.23126L252.98438 343.23126L252.98438 341.6844L254.03125 341.0594L254.03125 343.23126L255.09375 343.23126L255.09375 344.04376L254.03125 344.04376L254.03125 347.6844Q254.03125 348.1375 254.07812 348.2625Q254.14062 348.3875 254.26562 348.46564Q254.39062 348.54376 254.625 348.54376Q254.8125 348.54376 255.09375 348.5125ZM259.875 349.45L259.875 348.52814Q259.14062 349.59064 257.89062 349.59064Q257.34375 349.59064 256.85938 349.3875Q256.39062 349.16876 256.15625 348.85626Q255.92188 348.52814 255.82812 348.0594Q255.76562 347.7625 255.76562 347.075L255.76562 343.23126L256.82812 343.23126L256.82812 346.6844Q256.82812 347.4969 256.89062 347.79376Q256.98438 348.2 257.29688 348.45Q257.625 348.6844 258.10938 348.6844Q258.57812 348.6844 258.98438 348.45Q259.40625 348.2 259.57812 347.77814Q259.76562 347.35626 259.76562 346.5594L259.76562 343.23126L260.8125 343.23126L260.8125 349.45L259.875 349.45ZM262.34375 347.0125L263.375 346.8719Q263.40625 347.85626 263.73438 348.21564Q264.0625 348.575 264.65625 348.575Q265.07812 348.575 265.39062 348.3875Q265.70312 348.1844 265.8125 347.85626Q265.9375 347.5125 265.9375 346.77814L265.9375 340.85626L267.0625 340.85626L267.0625 346.71564Q267.0625 347.79376 266.79688 348.3875Q266.54688 348.98126 265.98438 349.29376Q265.42188 349.59064 264.65625 349.59064Q263.53125 349.59064 262.92188 348.95Q262.32812 348.29376 262.34375 347.0125ZM268.40625 346.34064Q268.40625 344.60626 269.35938 343.77814Q270.15625 343.09064 271.3125 343.09064Q272.59375 343.09064 273.40625 343.9344Q274.23438 344.7625 274.23438 346.2469Q274.23438 347.45 273.875 348.1375Q273.51562 348.825 272.8125 349.21564Q272.125 349.59064 271.3125 349.59064Q270.01562 349.59064 269.20312 348.7625Q268.40625 347.91876 268.40625 346.34064ZM269.48438 346.34064Q269.48438 347.52814 270.0 348.1219Q270.53125 348.71564 271.3125 348.71564Q272.10938 348.71564 272.625 348.1219Q273.14062 347.52814 273.14062 346.3094Q273.14062 345.15314 272.60938 344.5594Q272.09375 343.96564 271.3125 343.96564Q270.53125 343.96564 270.0 344.5594Q269.48438 345.1375 269.48438 346.34064ZM275.79688 349.45L275.79688 343.23126L276.73438 343.23126L276.73438 344.10626Q277.42188 343.09064 278.71875 343.09064Q279.28125 343.09064 279.75 343.29376Q280.23438 343.4969 280.46875 343.825Q280.70312 344.15314 280.79688 344.59064Q280.84375 344.8875 280.84375 345.6219L280.84375 349.45L279.79688 349.45L279.79688 345.66876Q279.79688 345.0125 279.67188 344.7Q279.54688 344.3875 279.23438 344.2Q278.92188 343.9969 278.5 343.9969Q277.82812 343.9969 277.32812 344.4344Q276.84375 344.85626 276.84375 346.04376L276.84375 349.45L275.79688 349.45ZM282.40625 346.34064Q282.40625 344.60626 283.35938 343.77814Q284.15625 343.09064 285.3125 343.09064Q286.59375 343.09064 287.40625 343.9344Q288.23438 344.7625 288.23438 346.2469Q288.23438 347.45 287.875 348.1375Q287.51562 348.825 286.8125 349.21564Q286.125 349.59064 285.3125 349.59064Q284.01562 349.59064 283.20312 348.7625Q282.40625 347.91876 282.40625 346.34064ZM283.48438 346.34064Q283.48438 347.52814 284.0 348.1219Q284.53125 348.71564 285.3125 348.71564Q286.10938 348.71564 286.625 348.1219Q287.14062 347.52814 287.14062 346.3094Q287.14062 345.15314 286.60938 344.5594Q286.09375 343.96564 285.3125 343.96564Q284.53125 343.96564 284.0 344.5594Q283.48438 345.1375 283.48438 346.34064Z" fill-rule="nonzero"/><path fill="#ea4335" d="M305.0 340.45C305.0 339.8977 305.44772 339.45 306.0 339.45L316.0 339.45C316.55228 339.45 317.0 339.8977 317.0 340.45L317.0 350.45C317.0 351.0023 316.55228 351.45 316.0 351.45L306.0 351.45C305.44772 351.45 305.0 351.0023 305.0 350.45Z" fill-rule="nonzero"/><path fill="#1a1a1a" d="M324.98438 349.45L328.28125 340.85626L329.5 340.85626L333.01562 349.45L331.73438 349.45L330.71875 346.84064L327.14062 346.84064L326.1875 349.45L324.98438 349.45ZM327.46875 345.91876L330.375 345.91876L329.48438 343.54376Q329.0625 342.46564 328.875 341.7625Q328.70312 342.59064 328.40625 343.40314L327.46875 345.91876ZM333.78125 349.45L333.78125 343.23126L334.73438 343.23126L334.73438 344.16876Q335.09375 343.5125 335.39062 343.3094Q335.70312 343.09064 336.07812 343.09064Q336.60938 343.09064 337.15625 343.41876L336.79688 344.40314Q336.40625 344.16876 336.03125 344.16876Q335.67188 344.16876 335.39062 344.3875Q335.125 344.59064 335.01562 344.96564Q334.82812 345.52814 334.82812 346.1844L334.82812 349.45L333.78125 349.45ZM337.78125 349.45L337.78125 343.23126L338.73438 343.23126L338.73438 344.16876Q339.09375 343.5125 339.39062 343.3094Q339.70312 343.09064 340.07812 343.09064Q340.60938 343.09064 341.15625 343.41876L340.79688 344.40314Q340.40625 344.16876 340.03125 344.16876Q339.67188 344.16876 339.39062 344.3875Q339.125 344.59064 339.01562 344.96564Q338.82812 345.52814 338.82812 346.1844L338.82812 349.45L337.78125 349.45ZM345.85938 348.6844Q345.26562 349.1844 344.71875 349.3875Q344.1875 349.59064 343.5625 349.59064Q342.53125 349.59064 341.98438 349.09064Q341.4375 348.59064 341.4375 347.8094Q341.4375 347.35626 341.64062 346.98126Q341.84375 346.59064 342.1875 346.3719Q342.53125 346.1375 342.95312 346.02814Q343.25 345.9344 343.89062 345.85626Q345.15625 345.71564 345.76562 345.4969Q345.76562 345.27814 345.76562 345.23126Q345.76562 344.575 345.46875 344.3094Q345.0625 343.96564 344.26562 343.96564Q343.53125 343.96564 343.17188 344.23126Q342.8125 344.48126 342.64062 345.1375L341.60938 344.9969Q341.75 344.34064 342.07812 343.9344Q342.40625 343.52814 343.01562 343.3094Q343.625 343.09064 344.42188 343.09064Q345.21875 343.09064 345.71875 343.27814Q346.21875 343.46564 346.45312 343.7469Q346.6875 344.02814 346.78125 344.46564Q346.82812 344.73126 346.82812 345.4344L346.82812 346.84064Q346.82812 348.3094 346.89062 348.7Q346.96875 349.09064 347.17188 349.45L346.0625 349.45Q345.90625 349.1219 345.85938 348.6844ZM345.76562 346.325Q345.1875 346.5594 344.04688 346.73126Q343.39062 346.825 343.125 346.95Q342.85938 347.0594 342.70312 347.27814Q342.5625 347.4969 342.5625 347.77814Q342.5625 348.2 342.875 348.48126Q343.20312 348.7625 343.8125 348.7625Q344.42188 348.7625 344.89062 348.4969Q345.375 348.23126 345.59375 347.7625Q345.76562 347.40314 345.76562 346.71564L345.76562 346.325ZM348.75 351.84064L348.625 350.85626Q348.96875 350.95 349.23438 350.95Q349.57812 350.95 349.78125 350.825Q350.0 350.71564 350.14062 350.5125Q350.23438 350.34064 350.46875 349.71564Q350.48438 349.6375 350.5625 349.46564L348.1875 343.23126L349.32812 343.23126L350.625 346.825Q350.875 347.5125 351.07812 348.27814Q351.26562 347.54376 351.51562 346.85626L352.84375 343.23126L353.89062 343.23126L351.53125 349.5594Q351.14062 350.575 350.9375 350.96564Q350.65625 351.4969 350.28125 351.73126Q349.92188 351.98126 349.42188 351.98126Q349.125 351.98126 348.75 351.84064ZM354.92188 349.45L354.92188 340.85626L357.89062 340.85626Q358.89062 340.85626 359.42188 340.98126Q360.15625 341.15314 360.67188 341.59064Q361.35938 342.16876 361.6875 343.075Q362.03125 343.96564 362.03125 345.10626Q362.03125 346.09064 361.79688 346.84064Q361.57812 347.59064 361.21875 348.09064Q360.85938 348.59064 360.42188 348.8719Q360.0 349.15314 359.40625 349.3094Q358.8125 349.45 358.03125 349.45L354.92188 349.45ZM356.0625 348.4344L357.89062 348.4344Q358.75 348.4344 359.23438 348.27814Q359.71875 348.1219 360.0 347.825Q360.40625 347.4344 360.625 346.7469Q360.85938 346.0594 360.85938 345.09064Q360.85938 343.7469 360.40625 343.02814Q359.96875 342.29376 359.34375 342.04376Q358.875 341.8719 357.875 341.8719L356.0625 341.8719L356.0625 348.4344ZM368.04688 347.45L369.14062 347.575Q368.89062 348.52814 368.1875 349.0594Q367.48438 349.59064 366.40625 349.59064Q365.04688 349.59064 364.23438 348.7469Q363.4375 347.90314 363.4375 346.3875Q363.4375 344.825 364.25 343.96564Q365.0625 343.09064 366.34375 343.09064Q367.59375 343.09064 368.375 343.9344Q369.17188 344.77814 369.17188 346.325Q369.17188 346.41876 369.17188 346.60626L364.53125 346.60626Q364.59375 347.6375 365.10938 348.1844Q365.625 348.71564 366.40625 348.71564Q366.98438 348.71564 367.39062 348.41876Q367.8125 348.10626 368.04688 347.45ZM364.59375 345.7469L368.0625 345.7469Q368.0 344.95 367.67188 344.5594Q367.15625 343.95 366.35938 343.95Q365.625 343.95 365.125 344.4344Q364.64062 344.91876 364.59375 345.7469ZM374.76562 351.84064L374.76562 348.79376Q374.51562 349.1375 374.0625 349.3719Q373.625 349.59064 373.125 349.59064Q372.01562 349.59064 371.21875 348.71564Q370.42188 347.825 370.42188 346.27814Q370.42188 345.34064 370.75 344.60626Q371.07812 343.85626 371.6875 343.48126Q372.3125 343.09064 373.04688 343.09064Q374.20312 343.09064 374.85938 344.0594L374.85938 343.23126L375.8125 343.23126L375.8125 351.84064L374.76562 351.84064ZM371.5 346.325Q371.5 347.52814 372.0 348.1219Q372.51562 348.71564 373.21875 348.71564Q373.89062 348.71564 374.375 348.15314Q374.85938 347.575 374.85938 346.41876Q374.85938 345.16876 374.34375 344.54376Q373.84375 343.91876 373.14062 343.91876Q372.46875 343.91876 371.98438 344.5125Q371.5 345.09064 371.5 346.325ZM381.875 349.45L381.875 348.52814Q381.14062 349.59064 379.89062 349.59064Q379.34375 349.59064 378.85938 349.3875Q378.39062 349.16876 378.15625 348.85626Q377.92188 348.52814 377.82812 348.0594Q377.76562 347.7625 377.76562 347.075L377.76562 343.23126L378.82812 343.23126L378.82812 346.6844Q378.82812 347.4969 378.89062 347.79376Q378.98438 348.2 379.29688 348.45Q379.625 348.6844 380.10938 348.6844Q380.57812 348.6844 380.98438 348.45Q381.40625 348.2 381.57812 347.77814Q381.76562 347.35626 381.76562 346.5594L381.76562 343.23126L382.8125 343.23126L382.8125 349.45L381.875 349.45ZM389.04688 347.45L390.14062 347.575Q389.89062 348.52814 389.1875 349.0594Q388.48438 349.59064 387.40625 349.59064Q386.04688 349.59064 385.23438 348.7469Q384.4375 347.90314 384.4375 346.3875Q384.4375 344.825 385.25 343.96564Q386.0625 343.09064 387.34375 343.09064Q388.59375 343.09064 389.375 343.9344Q390.17188 344.77814 390.17188 346.325Q390.17188 346.41876 390.17188 346.60626L385.53125 346.60626Q385.59375 347.6375 386.10938 348.1844Q386.625 348.71564 387.40625 348.71564Q387.98438 348.71564 388.39062 348.41876Q388.8125 348.10626 389.04688 347.45ZM385.59375 345.7469L389.0625 345.7469Q389.0 344.95 388.67188 344.5594Q388.15625 343.95 387.35938 343.95Q386.625 343.95 386.125 344.4344Q385.64062 344.91876 385.59375 345.7469Z" fill-rule="nonzero"/><path fill="#757575" d="M64.578125 37.55L64.578125 23.2375L70.921875 23.2375Q72.828125 23.2375 73.828125 23.628124Q74.828125 24.003124 75.421875 24.9875Q76.015625 25.95625 76.015625 27.14375Q76.015625 28.659374 75.03125 29.70625Q74.046875 30.753124 71.984375 31.034374Q72.734375 31.39375 73.125 31.753124Q73.953125 32.503124 74.703125 33.659374L77.1875 37.55L74.8125 37.55L72.90625 34.565624Q72.078125 33.284374 71.546875 32.596874Q71.015625 31.909374 70.578125 31.64375Q70.15625 31.3625 69.71875 31.253124Q69.390625 31.190624 68.671875 31.190624L66.46875 31.190624L66.46875 37.55L64.578125 37.55ZM66.46875 29.55L70.546875 29.55Q71.84375 29.55 72.5625 29.284374Q73.296875 29.01875 73.671875 28.425Q74.0625 27.83125 74.0625 27.14375Q74.0625 26.128124 73.328125 25.471874Q72.59375 24.815624 71.0 24.815624L66.46875 24.815624L66.46875 29.55ZM85.109375 37.55L85.109375 36.01875Q83.90625 37.784374 81.828125 37.784374Q80.90625 37.784374 80.109375 37.440624Q79.3125 37.08125 78.921875 36.55Q78.546875 36.01875 78.390625 35.2375Q78.28125 34.721874 78.28125 33.596874L78.28125 27.175L80.03125 27.175L80.03125 32.925Q80.03125 34.3 80.140625 34.784374Q80.3125 35.471874 80.84375 35.878124Q81.390625 36.26875 82.171875 36.26875Q82.96875 36.26875 83.65625 35.8625Q84.359375 35.45625 84.640625 34.76875Q84.9375 34.065624 84.9375 32.7375L84.9375 27.175L86.6875 27.175L86.6875 37.55L85.109375 37.55ZM96.109375 37.55L96.109375 36.01875Q94.90625 37.784374 92.828125 37.784374Q91.90625 37.784374 91.109375 37.440624Q90.3125 37.08125 89.921875 36.55Q89.546875 36.01875 89.390625 35.2375Q89.28125 34.721874 89.28125 33.596874L89.28125 27.175L91.03125 27.175L91.03125 32.925Q91.03125 34.3 91.140625 34.784374Q91.3125 35.471874 91.84375 35.878124Q92.390625 36.26875 93.171875 36.26875Q93.96875 36.26875 94.65625 35.8625Q95.359375 35.45625 95.640625 34.76875Q95.9375 34.065624 95.9375 32.7375L95.9375 27.175L97.6875 27.175L97.6875 37.55L96.109375 37.55ZM104.15625 35.971874L104.40625 37.534374Q103.671875 37.690624 103.078125 37.690624Q102.125 37.690624 101.59375 37.39375Q101.078125 37.08125 100.859375 36.596874Q100.640625 36.096874 100.640625 34.51875L100.640625 28.55L99.359375 28.55L99.359375 27.175L100.640625 27.175L100.640625 24.6125L102.390625 23.55L102.390625 27.175L104.15625 27.175L104.15625 28.55L102.390625 28.55L102.390625 34.6125Q102.390625 35.3625 102.484375 35.58125Q102.578125 35.784374 102.78125 35.925Q103.0 36.05 103.390625 36.05Q103.671875 36.05 104.15625 35.971874ZM113.109375 37.55L113.109375 36.01875Q111.90625 37.784374 109.828125 37.784374Q108.90625 37.784374 108.109375 37.440624Q107.3125 37.08125 106.921875 36.55Q106.546875 36.01875 106.390625 35.2375Q106.28125 34.721874 106.28125 33.596874L106.28125 27.175L108.03125 27.175L108.03125 32.925Q108.03125 34.3 108.140625 34.784374Q108.3125 35.471874 108.84375 35.878124Q109.390625 36.26875 110.171875 36.26875Q110.96875 36.26875 111.65625 35.8625Q112.359375 35.45625 112.640625 34.76875Q112.9375 34.065624 112.9375 32.7375L112.9375 27.175L114.6875 27.175L114.6875 37.55L113.109375 37.55ZM116.578125 33.4875L118.28125 33.253124Q118.359375 34.89375 118.90625 35.503124Q119.453125 36.096874 120.421875 36.096874Q121.125 36.096874 121.640625 35.784374Q122.15625 35.45625 122.34375 34.89375Q122.546875 34.33125 122.546875 33.096874L122.546875 23.2375L124.453125 23.2375L124.453125 32.9875Q124.453125 34.784374 124.015625 35.76875Q123.578125 36.753124 122.625 37.284374Q121.6875 37.8 120.421875 37.8Q118.546875 37.8 117.53125 36.721874Q116.53125 35.628124 116.578125 33.4875ZM126.671875 32.3625Q126.671875 29.4875 128.26562 28.096874Q129.60938 26.940624 131.53125 26.940624Q133.67188 26.940624 135.01562 28.346874Q136.375 29.753124 136.375 32.221874Q136.375 34.221874 135.78125 35.378124Q135.1875 36.51875 134.03125 37.159374Q132.89062 37.784374 131.53125 37.784374Q129.34375 37.784374 128.0 36.39375Q126.671875 34.9875 126.671875 32.3625ZM128.46875 32.3625Q128.46875 34.3625 129.32812 35.346874Q130.20312 36.33125 131.53125 36.33125Q132.84375 36.33125 133.70312 35.346874Q134.57812 34.346874 134.57812 32.3Q134.57812 30.378124 133.70312 29.39375Q132.82812 28.39375 131.53125 28.39375Q130.20312 28.39375 129.32812 29.39375Q128.46875 30.378124 128.46875 32.3625ZM138.3125 37.55L138.3125 27.175L139.90625 27.175L139.90625 28.659374Q141.04688 26.940624 143.20312 26.940624Q144.14062 26.940624 144.92188 27.284374Q145.71875 27.6125 146.10938 28.159374Q146.5 28.70625 146.65625 29.45625Q146.75 29.95625 146.75 31.175L146.75 37.55L144.98438 37.55L144.98438 31.2375Q144.98438 30.159374 144.78125 29.628124Q144.57812 29.096874 144.04688 28.784374Q143.53125 28.471874 142.82812 28.471874Q141.70312 28.471874 140.89062 29.190624Q140.07812 29.89375 140.07812 31.878124L140.07812 37.55L138.3125 37.55ZM148.67188 32.3625Q148.67188 29.4875 150.26562 28.096874Q151.60938 26.940624 153.53125 26.940624Q155.67188 26.940624 157.01562 28.346874Q158.375 29.753124 158.375 32.221874Q158.375 34.221874 157.78125 35.378124Q157.1875 36.51875 156.03125 37.159374Q154.89062 37.784374 153.53125 37.784374Q151.34375 37.784374 150.0 36.39375Q148.67188 34.9875 148.67188 32.3625ZM150.46875 32.3625Q150.46875 34.3625 151.32812 35.346874Q152.20312 36.33125 153.53125 36.33125Q154.84375 36.33125 155.70312 35.346874Q156.57812 34.346874 156.57812 32.3Q156.57812 30.378124 155.70312 29.39375Q154.82812 28.39375 153.53125 28.39375Q152.20312 28.39375 151.32812 29.39375Q150.46875 30.378124 150.46875 32.3625ZM160.3125 37.55L160.3125 27.175L161.90625 27.175L161.90625 28.659374Q163.04688 26.940624 165.20312 26.940624Q166.14062 26.940624 166.92188 27.284374Q167.71875 27.6125 168.10938 28.159374Q168.5 28.70625 168.65625 29.45625Q168.75 29.95625 168.75 31.175L168.75 37.55L166.98438 37.55L166.98438 31.2375Q166.98438 30.159374 166.78125 29.628124Q166.57812 29.096874 166.04688 28.784374Q165.53125 28.471874 164.82812 28.471874Q163.70312 28.471874 162.89062 29.190624Q162.07812 29.89375 162.07812 31.878124L162.07812 37.55L160.3125 37.55ZM177.3125 25.26875L177.3125 23.2375L179.0625 23.2375L179.0625 25.26875L177.3125 25.26875ZM175.07812 41.58125L175.40625 40.08125Q175.9375 40.221874 176.25 40.221874Q176.78125 40.221874 177.04688 39.8625Q177.3125 39.503124 177.3125 38.08125L177.3125 27.175L179.0625 27.175L179.0625 38.1125Q179.0625 40.034374 178.5625 40.784374Q177.9375 41.753124 176.45312 41.753124Q175.75 41.753124 175.07812 41.58125ZM188.09375 36.26875Q187.10938 37.096874 186.20312 37.440624Q185.29688 37.784374 184.26562 37.784374Q182.5625 37.784374 181.64062 36.95625Q180.71875 36.1125 180.71875 34.815624Q180.71875 34.05 181.0625 33.425Q181.42188 32.8 181.98438 32.425Q182.54688 32.034374 183.25 31.83125Q183.76562 31.70625 184.8125 31.565624Q186.9375 31.315624 187.9375 30.971874Q187.95312 30.6125 187.95312 30.503124Q187.95312 29.440624 187.45312 28.9875Q186.78125 28.39375 185.45312 28.39375Q184.20312 28.39375 183.60938 28.83125Q183.03125 29.26875 182.75 30.378124L181.03125 30.14375Q181.26562 29.034374 181.79688 28.3625Q182.32812 27.675 183.34375 27.315624Q184.35938 26.940624 185.70312 26.940624Q187.03125 26.940624 187.85938 27.253124Q188.6875 27.565624 189.07812 28.05Q189.46875 28.51875 189.625 29.2375Q189.71875 29.690624 189.71875 30.8625L189.71875 33.20625Q189.71875 35.659374 189.82812 36.315624Q189.9375 36.95625 190.28125 37.55L188.4375 37.55Q188.17188 37.003124 188.09375 36.26875ZM187.9375 32.346874Q186.98438 32.7375 185.0625 33.003124Q183.98438 33.159374 183.53125 33.3625Q183.09375 33.55 182.84375 33.925Q182.59375 34.3 182.59375 34.76875Q182.59375 35.471874 183.125 35.940624Q183.65625 36.409374 184.6875 36.409374Q185.70312 36.409374 186.48438 35.971874Q187.28125 35.51875 187.65625 34.753124Q187.9375 34.14375 187.9375 32.9875L187.9375 32.346874ZM196.96875 37.55L202.46875 23.2375L204.51562 23.2375L210.375 37.55L208.21875 37.55L206.54688 33.20625L200.5625 33.20625L198.98438 37.55L196.96875 37.55ZM201.10938 31.675L205.95312 31.675L204.46875 27.70625Q203.78125 25.89375 203.45312 24.7375Q203.17188 26.1125 202.67188 27.471874L201.10938 31.675ZM211.29688 37.55L211.29688 27.175L212.875 27.175L212.875 28.753124Q213.48438 27.64375 214.0 27.3Q214.51562 26.940624 215.125 26.940624Q216.01562 26.940624 216.9375 27.503124L216.32812 29.14375Q215.6875 28.753124 215.04688 28.753124Q214.46875 28.753124 214.0 29.1125Q213.54688 29.45625 213.34375 30.065624Q213.0625 31.003124 213.0625 32.1125L213.0625 37.55L211.29688 37.55ZM218.29688 37.55L218.29688 27.175L219.875 27.175L219.875 28.753124Q220.48438 27.64375 221.0 27.3Q221.51562 26.940624 222.125 26.940624Q223.01562 26.940624 223.9375 27.503124L223.32812 29.14375Q222.6875 28.753124 222.04688 28.753124Q221.46875 28.753124 221.0 29.1125Q220.54688 29.45625 220.34375 30.065624Q220.0625 31.003124 220.0625 32.1125L220.0625 37.55L218.29688 37.55ZM232.09375 36.26875Q231.10938 37.096874 230.20312 37.440624Q229.29688 37.784374 228.26562 37.784374Q226.5625 37.784374 225.64062 36.95625Q224.71875 36.1125 224.71875 34.815624Q224.71875 34.05 225.0625 33.425Q225.42188 32.8 225.98438 32.425Q226.54688 32.034374 227.25 31.83125Q227.76562 31.70625 228.8125 31.565624Q230.9375 31.315624 231.9375 30.971874Q231.95312 30.6125 231.95312 30.503124Q231.95312 29.440624 231.45312 28.9875Q230.78125 28.39375 229.45312 28.39375Q228.20312 28.39375 227.60938 28.83125Q227.03125 29.26875 226.75 30.378124L225.03125 30.14375Q225.26562 29.034374 225.79688 28.3625Q226.32812 27.675 227.34375 27.315624Q228.35938 26.940624 229.70312 26.940624Q231.03125 26.940624 231.85938 27.253124Q232.6875 27.565624 233.07812 28.05Q233.46875 28.51875 233.625 29.2375Q233.71875 29.690624 233.71875 30.8625L233.71875 33.20625Q233.71875 35.659374 233.82812 36.315624Q233.9375 36.95625 234.28125 37.55L232.4375 37.55Q232.17188 37.003124 232.09375 36.26875ZM231.9375 32.346874Q230.98438 32.7375 229.0625 33.003124Q227.98438 33.159374 227.53125 33.3625Q227.09375 33.55 226.84375 33.925Q226.59375 34.3 226.59375 34.76875Q226.59375 35.471874 227.125 35.940624Q227.65625 36.409374 228.6875 36.409374Q229.70312 36.409374 230.48438 35.971874Q231.28125 35.51875 231.65625 34.753124Q231.9375 34.14375 231.9375 32.9875L231.9375 32.346874ZM236.23438 41.55L236.04688 39.89375Q236.625 40.05 237.04688 40.05Q237.64062 40.05 237.98438 39.846874Q238.34375 39.659374 238.5625 39.315624Q238.73438 39.05 239.10938 38.003124Q239.15625 37.846874 239.26562 37.565624L235.32812 27.175L237.21875 27.175L239.375 33.190624Q239.79688 34.33125 240.125 35.58125Q240.4375 34.378124 240.84375 33.221874L243.0625 27.175L244.82812 27.175L240.875 37.721874Q240.25 39.440624 239.89062 40.08125Q239.42188 40.95625 238.8125 41.346874Q238.21875 41.753124 237.375 41.753124Q236.85938 41.753124 236.23438 41.55ZM246.54688 37.55L246.54688 23.2375L251.46875 23.2375Q253.14062 23.2375 254.03125 23.440624Q255.25 23.721874 256.125 24.45625Q257.25 25.425 257.8125 26.909374Q258.375 28.39375 258.375 30.315624Q258.375 31.940624 258.0 33.20625Q257.625 34.45625 257.01562 35.284374Q256.42188 36.1125 255.71875 36.596874Q255.01562 37.065624 254.01562 37.315624Q253.01562 37.55 251.70312 37.55L246.54688 37.55ZM248.4375 35.8625L251.5 35.8625Q252.90625 35.8625 253.70312 35.596874Q254.51562 35.33125 255.0 34.846874Q255.67188 34.175 256.04688 33.05Q256.42188 31.909374 256.42188 30.284374Q256.42188 28.034374 255.6875 26.83125Q254.95312 25.628124 253.89062 25.221874Q253.14062 24.925 251.45312 24.925L248.4375 24.925L248.4375 35.8625ZM267.42188 34.20625L269.23438 34.440624Q268.8125 36.01875 267.64062 36.909374Q266.48438 37.784374 264.67188 37.784374Q262.40625 37.784374 261.0625 36.39375Q259.73438 34.9875 259.73438 32.45625Q259.73438 29.83125 261.07812 28.39375Q262.42188 26.940624 264.57812 26.940624Q266.65625 26.940624 267.96875 28.3625Q269.29688 29.76875 269.29688 32.346874Q269.29688 32.503124 269.28125 32.815624L261.54688 32.815624Q261.64062 34.51875 262.51562 35.425Q263.39062 36.33125 264.6875 36.33125Q265.65625 36.33125 266.32812 35.83125Q267.01562 35.315624 267.42188 34.20625ZM261.64062 31.3625L267.4375 31.3625Q267.32812 30.065624 266.78125 29.409374Q265.9375 28.39375 264.59375 28.39375Q263.39062 28.39375 262.5625 29.20625Q261.73438 30.003124 261.64062 31.3625ZM277.9375 41.51875L277.9375 36.440624Q277.51562 37.01875 276.78125 37.409374Q276.04688 37.784374 275.21875 37.784374Q273.375 37.784374 272.03125 36.315624Q270.70312 34.83125 270.70312 32.26875Q270.70312 30.70625 271.23438 29.471874Q271.78125 28.221874 272.8125 27.58125Q273.84375 26.940624 275.07812 26.940624Q277.0 26.940624 278.10938 28.565624L278.10938 27.175L279.6875 27.175L279.6875 41.51875L277.9375 41.51875ZM272.51562 32.33125Q272.51562 34.33125 273.34375 35.33125Q274.1875 36.33125 275.35938 36.33125Q276.48438 36.33125 277.29688 35.39375Q278.10938 34.440624 278.10938 32.4875Q278.10938 30.425 277.25 29.378124Q276.39062 28.33125 275.25 28.33125Q274.10938 28.33125 273.3125 29.3Q272.51562 30.26875 272.51562 32.33125ZM289.10938 37.55L289.10938 36.01875Q287.90625 37.784374 285.82812 37.784374Q284.90625 37.784374 284.10938 37.440624Q283.3125 37.08125 282.92188 36.55Q282.54688 36.01875 282.39062 35.2375Q282.28125 34.721874 282.28125 33.596874L282.28125 27.175L284.03125 27.175L284.03125 32.925Q284.03125 34.3 284.14062 34.784374Q284.3125 35.471874 284.84375 35.878124Q285.39062 36.26875 286.17188 36.26875Q286.96875 36.26875 287.65625 35.8625Q288.35938 35.45625 288.64062 34.76875Q288.9375 34.065624 288.9375 32.7375L288.9375 27.175L290.6875 27.175L290.6875 37.55L289.10938 37.55ZM300.42188 34.20625L302.23438 34.440624Q301.8125 36.01875 300.64062 36.909374Q299.48438 37.784374 297.67188 37.784374Q295.40625 37.784374 294.0625 36.39375Q292.73438 34.9875 292.73438 32.45625Q292.73438 29.83125 294.07812 28.39375Q295.42188 26.940624 297.57812 26.940624Q299.65625 26.940624 300.96875 28.3625Q302.29688 29.76875 302.29688 32.346874Q302.29688 32.503124 302.28125 32.815624L294.54688 32.815624Q294.64062 34.51875 295.51562 35.425Q296.39062 36.33125 297.6875 36.33125Q298.65625 36.33125 299.32812 35.83125Q300.01562 35.315624 300.42188 34.20625ZM294.64062 31.3625L300.4375 31.3625Q300.32812 30.065624 299.78125 29.409374Q298.9375 28.39375 297.59375 28.39375Q296.39062 28.39375 295.5625 29.20625Q294.73438 30.003124 294.64062 31.3625ZM304.3125 37.55L304.3125 27.175L305.90625 27.175L305.90625 28.659374Q307.04688 26.940624 309.20312 26.940624Q310.14062 26.940624 310.92188 27.284374Q311.71875 27.6125 312.10938 28.159374Q312.5 28.70625 312.65625 29.45625Q312.75 29.95625 312.75 31.175L312.75 37.55L310.98438 37.55L310.98438 31.2375Q310.98438 30.159374 310.78125 29.628124Q310.57812 29.096874 310.04688 28.784374Q309.53125 28.471874 308.82812 28.471874Q307.70312 28.471874 306.89062 29.190624Q306.07812 29.89375 306.07812 31.878124L306.07812 37.55L304.3125 37.55ZM320.60938 34.45625L322.35938 34.175Q322.5 35.221874 323.17188 35.784374Q323.84375 36.33125 325.04688 36.33125Q326.25 36.33125 326.82812 35.846874Q327.42188 35.346874 327.42188 34.690624Q327.42188 34.096874 326.90625 33.753124Q326.54688 33.51875 325.10938 33.159374Q323.17188 32.659374 322.42188 32.315624Q321.6875 31.95625 321.29688 31.33125Q320.90625 30.690624 320.90625 29.925Q320.90625 29.2375 321.21875 28.64375Q321.54688 28.05 322.09375 27.659374Q322.5 27.3625 323.20312 27.159374Q323.92188 26.940624 324.73438 26.940624Q325.95312 26.940624 326.875 27.3Q327.79688 27.64375 328.23438 28.253124Q328.67188 28.846874 328.84375 29.846874L327.125 30.08125Q327.0 29.284374 326.4375 28.846874Q325.875 28.39375 324.85938 28.39375Q323.64062 28.39375 323.125 28.8Q322.60938 29.190624 322.60938 29.721874Q322.60938 30.065624 322.82812 30.346874Q323.03125 30.628124 323.5 30.815624Q323.76562 30.909374 325.04688 31.253124Q326.92188 31.753124 327.65625 32.08125Q328.39062 32.39375 328.8125 33.003124Q329.23438 33.596874 329.23438 34.503124Q329.23438 35.378124 328.71875 36.159374Q328.20312 36.940624 327.23438 37.3625Q326.26562 37.784374 325.04688 37.784374Q323.03125 37.784374 321.96875 36.940624Q320.90625 36.096874 320.60938 34.45625ZM338.10938 37.55L338.10938 36.01875Q336.90625 37.784374 334.82812 37.784374Q333.90625 37.784374 333.10938 37.440624Q332.3125 37.08125 331.92188 36.55Q331.54688 36.01875 331.39062 35.2375Q331.28125 34.721874 331.28125 33.596874L331.28125 27.175L333.03125 27.175L333.03125 32.925Q333.03125 34.3 333.14062 34.784374Q333.3125 35.471874 333.84375 35.878124Q334.39062 36.26875 335.17188 36.26875Q335.96875 36.26875 336.65625 35.8625Q337.35938 35.45625 337.64062 34.76875Q337.9375 34.065624 337.9375 32.7375L337.9375 27.175L339.6875 27.175L339.6875 37.55L338.10938 37.55ZM342.3125 37.55L342.3125 23.2375L344.07812 23.2375L344.07812 28.3625Q345.3125 26.940624 347.1875 26.940624Q348.32812 26.940624 349.17188 27.39375Q350.03125 27.846874 350.39062 28.659374Q350.76562 29.45625 350.76562 30.971874L350.76562 37.55L349.01562 37.55L349.01562 30.971874Q349.01562 29.659374 348.4375 29.065624Q347.85938 28.45625 346.82812 28.45625Q346.04688 28.45625 345.34375 28.8625Q344.65625 29.26875 344.35938 29.971874Q344.07812 30.659374 344.07812 31.878124L344.07812 37.55L342.3125 37.55ZM357.15625 35.971874L357.40625 37.534374Q356.67188 37.690624 356.07812 37.690624Q355.125 37.690624 354.59375 37.39375Q354.07812 37.08125 353.85938 36.596874Q353.64062 36.096874 353.64062 34.51875L353.64062 28.55L352.35938 28.55L352.35938 27.175L353.64062 27.175L353.64062 24.6125L355.39062 23.55L355.39062 27.175L357.15625 27.175L357.15625 28.55L355.39062 28.55L355.39062 34.6125Q355.39062 35.3625 355.48438 35.58125Q355.57812 35.784374 355.78125 35.925Q356.0 36.05 356.39062 36.05Q356.67188 36.05 357.15625 35.971874ZM366.42188 34.20625L368.23438 34.440624Q367.8125 36.01875 366.64062 36.909374Q365.48438 37.784374 363.67188 37.784374Q361.40625 37.784374 360.0625 36.39375Q358.73438 34.9875 358.73438 32.45625Q358.73438 29.83125 360.07812 28.39375Q361.42188 26.940624 363.57812 26.940624Q365.65625 26.940624 366.96875 28.3625Q368.29688 29.76875 368.29688 32.346874Q368.29688 32.503124 368.28125 32.815624L360.54688 32.815624Q360.64062 34.51875 361.51562 35.425Q362.39062 36.33125 363.6875 36.33125Q364.65625 36.33125 365.32812 35.83125Q366.01562 35.315624 366.42188 34.20625ZM360.64062 31.3625L366.4375 31.3625Q366.32812 30.065624 365.78125 29.409374Q364.9375 28.39375 363.59375 28.39375Q362.39062 28.39375 361.5625 29.20625Q360.73438 30.003124 360.64062 31.3625ZM377.42188 34.20625L379.23438 34.440624Q378.8125 36.01875 377.64062 36.909374Q376.48438 37.784374 374.67188 37.784374Q372.40625 37.784374 371.0625 36.39375Q369.73438 34.9875 369.73438 32.45625Q369.73438 29.83125 371.07812 28.39375Q372.42188 26.940624 374.57812 26.940624Q376.65625 26.940624 377.96875 28.3625Q379.29688 29.76875 379.29688 32.346874Q379.29688 32.503124 379.28125 32.815624L371.54688 32.815624Q371.64062 34.51875 372.51562 35.425Q373.39062 36.33125 374.6875 36.33125Q375.65625 36.33125 376.32812 35.83125Q377.01562 35.315624 377.42188 34.20625ZM371.64062 31.3625L377.4375 31.3625Q377.32812 30.065624 376.78125 29.409374Q375.9375 28.39375 374.59375 28.39375Q373.39062 28.39375 372.5625 29.20625Q371.73438 30.003124 371.64062 31.3625ZM381.28125 37.55L381.28125 23.2375L383.03125 23.2375L383.03125 37.55L381.28125 37.55ZM385.28125 37.55L385.28125 23.2375L387.03125 23.2375L387.03125 37.55L385.28125 37.55ZM389.32812 25.253124L389.32812 23.2375L391.09375 23.2375L391.09375 25.253124L389.32812 25.253124ZM389.32812 37.55L389.32812 27.175L391.09375 27.175L391.09375 37.55L389.32812 37.55ZM393.3125 37.55L393.3125 27.175L394.90625 27.175L394.90625 28.659374Q396.04688 26.940624 398.20312 26.940624Q399.14062 26.940624 399.92188 27.284374Q400.71875 27.6125 401.10938 28.159374Q401.5 28.70625 401.65625 29.45625Q401.75 29.95625 401.75 31.175L401.75 37.55L399.98438 37.55L399.98438 31.2375Q399.98438 30.159374 399.78125 29.628124Q399.57812 29.096874 399.04688 28.784374Q398.53125 28.471874 397.82812 28.471874Q396.70312 28.471874 395.89062 29.190624Q395.07812 29.89375 395.07812 31.878124L395.07812 37.55L393.3125 37.55ZM411.42188 34.20625L413.23438 34.440624Q412.8125 36.01875 411.64062 36.909374Q410.48438 37.784374 408.67188 37.784374Q406.40625 37.784374 405.0625 36.39375Q403.73438 34.9875 403.73438 32.45625Q403.73438 29.83125 405.07812 28.39375Q406.42188 26.940624 408.57812 26.940624Q410.65625 26.940624 411.96875 28.3625Q413.29688 29.76875 413.29688 32.346874Q413.29688 32.503124 413.28125 32.815624L405.54688 32.815624Q405.64062 34.51875 406.51562 35.425Q407.39062 36.33125 408.6875 36.33125Q409.65625 36.33125 410.32812 35.83125Q411.01562 35.315624 411.42188 34.20625ZM405.64062 31.3625L411.4375 31.3625Q411.32812 30.065624 410.78125 29.409374Q409.9375 28.39375 408.59375 28.39375Q407.39062 28.39375 406.5625 29.20625Q405.73438 30.003124 405.64062 31.3625ZM415.3125 37.55L415.3125 27.175L416.90625 27.175L416.90625 28.659374Q418.04688 26.940624 420.20312 26.940624Q421.14062 26.940624 421.92188 27.284374Q422.71875 27.6125 423.10938 28.159374Q423.5 28.70625 423.65625 29.45625Q423.75 29.95625 423.75 31.175L423.75 37.55L421.98438 37.55L421.98438 31.2375Q421.98438 30.159374 421.78125 29.628124Q421.57812 29.096874 421.04688 28.784374Q420.53125 28.471874 419.82812 28.471874Q418.70312 28.471874 417.89062 29.190624Q417.07812 29.89375 417.07812 31.878124L417.07812 37.55L415.3125 37.55ZM431.60938 34.45625L433.35938 34.175Q433.5 35.221874 434.17188 35.784374Q434.84375 36.33125 436.04688 36.33125Q437.25 36.33125 437.82812 35.846874Q438.42188 35.346874 438.42188 34.690624Q438.42188 34.096874 437.90625 33.753124Q437.54688 33.51875 436.10938 33.159374Q434.17188 32.659374 433.42188 32.315624Q432.6875 31.95625 432.29688 31.33125Q431.90625 30.690624 431.90625 29.925Q431.90625 29.2375 432.21875 28.64375Q432.54688 28.05 433.09375 27.659374Q433.5 27.3625 434.20312 27.159374Q434.92188 26.940624 435.73438 26.940624Q436.95312 26.940624 437.875 27.3Q438.79688 27.64375 439.23438 28.253124Q439.67188 28.846874 439.84375 29.846874L438.125 30.08125Q438.0 29.284374 437.4375 28.846874Q436.875 28.39375 435.85938 28.39375Q434.64062 28.39375 434.125 28.8Q433.60938 29.190624 433.60938 29.721874Q433.60938 30.065624 433.82812 30.346874Q434.03125 30.628124 434.5 30.815624Q434.76562 30.909374 436.04688 31.253124Q437.92188 31.753124 438.65625 32.08125Q439.39062 32.39375 439.8125 33.003124Q440.23438 33.596874 440.23438 34.503124Q440.23438 35.378124 439.71875 36.159374Q439.20312 36.940624 438.23438 37.3625Q437.26562 37.784374 436.04688 37.784374Q434.03125 37.784374 432.96875 36.940624Q431.90625 36.096874 431.60938 34.45625ZM449.10938 37.55L449.10938 36.01875Q447.90625 37.784374 445.82812 37.784374Q444.90625 37.784374 444.10938 37.440624Q443.3125 37.08125 442.92188 36.55Q442.54688 36.01875 442.39062 35.2375Q442.28125 34.721874 442.28125 33.596874L442.28125 27.175L444.03125 27.175L444.03125 32.925Q444.03125 34.3 444.14062 34.784374Q444.3125 35.471874 444.84375 35.878124Q445.39062 36.26875 446.17188 36.26875Q446.96875 36.26875 447.65625 35.8625Q448.35938 35.45625 448.64062 34.76875Q448.9375 34.065624 448.9375 32.7375L448.9375 27.175L450.6875 27.175L450.6875 37.55L449.10938 37.55ZM452.67188 32.3625Q452.67188 29.4875 454.26562 28.096874Q455.60938 26.940624 457.53125 26.940624Q459.67188 26.940624 461.01562 28.346874Q462.375 29.753124 462.375 32.221874Q462.375 34.221874 461.78125 35.378124Q461.1875 36.51875 460.03125 37.159374Q458.89062 37.784374 457.53125 37.784374Q455.34375 37.784374 454.0 36.39375Q452.67188 34.9875 452.67188 32.3625ZM454.46875 32.3625Q454.46875 34.3625 455.32812 35.346874Q456.20312 36.33125 457.53125 36.33125Q458.84375 36.33125 459.70312 35.346874Q460.57812 34.346874 460.57812 32.3Q460.57812 30.378124 459.70312 29.39375Q458.82812 28.39375 457.53125 28.39375Q456.20312 28.39375 455.32812 29.39375Q454.46875 30.378124 454.46875 32.3625ZM464.29688 37.55L464.29688 27.175L465.875 27.175L465.875 28.753124Q466.48438 27.64375 467.0 27.3Q467.51562 26.940624 468.125 26.940624Q469.01562 26.940624 469.9375 27.503124L469.32812 29.14375Q468.6875 28.753124 468.04688 28.753124Q467.46875 28.753124 467.0 29.1125Q466.54688 29.45625 466.34375 30.065624Q466.0625 31.003124 466.0625 32.1125L466.0625 37.55L464.29688 37.55ZM471.32812 25.253124L471.32812 23.2375L473.09375 23.2375L473.09375 25.253124L471.32812 25.253124ZM471.32812 37.55L471.32812 27.175L473.09375 27.175L473.09375 37.55L471.32812 37.55ZM479.15625 35.971874L479.40625 37.534374Q478.67188 37.690624 478.07812 37.690624Q477.125 37.690624 476.59375 37.39375Q476.07812 37.08125 475.85938 36.596874Q475.64062 36.096874 475.64062 34.51875L475.64062 28.55L474.35938 28.55L474.35938 27.175L475.64062 27.175L475.64062 24.6125L477.39062 23.55L477.39062 27.175L479.15625 27.175L479.15625 28.55L477.39062 28.55L477.39062 34.6125Q477.39062 35.3625 477.48438 35.58125Q477.57812 35.784374 477.78125 35.925Q478.0 36.05 478.39062 36.05Q478.67188 36.05 479.15625 35.971874ZM488.10938 37.55L488.10938 36.01875Q486.90625 37.784374 484.82812 37.784374Q483.90625 37.784374 483.10938 37.440624Q482.3125 37.08125 481.92188 36.55Q481.54688 36.01875 481.39062 35.2375Q481.28125 34.721874 481.28125 33.596874L481.28125 27.175L483.03125 27.175L483.03125 32.925Q483.03125 34.3 483.14062 34.784374Q483.3125 35.471874 483.84375 35.878124Q484.39062 36.26875 485.17188 36.26875Q485.96875 36.26875 486.65625 35.8625Q487.35938 35.45625 487.64062 34.76875Q487.9375 34.065624 487.9375 32.7375L487.9375 27.175L489.6875 27.175L489.6875 37.55L488.10938 37.55ZM491.60938 34.45625L493.35938 34.175Q493.5 35.221874 494.17188 35.784374Q494.84375 36.33125 496.04688 36.33125Q497.25 36.33125 497.82812 35.846874Q498.42188 35.346874 498.42188 34.690624Q498.42188 34.096874 497.90625 33.753124Q497.54688 33.51875 496.10938 33.159374Q494.17188 32.659374 493.42188 32.315624Q492.6875 31.95625 492.29688 31.33125Q491.90625 30.690624 491.90625 29.925Q491.90625 29.2375 492.21875 28.64375Q492.54688 28.05 493.09375 27.659374Q493.5 27.3625 494.20312 27.159374Q494.92188 26.940624 495.73438 26.940624Q496.95312 26.940624 497.875 27.3Q498.79688 27.64375 499.23438 28.253124Q499.67188 28.846874 499.84375 29.846874L498.125 30.08125Q498.0 29.284374 497.4375 28.846874Q496.875 28.39375 495.85938 28.39375Q494.64062 28.39375 494.125 28.8Q493.60938 29.190624 493.60938 29.721874Q493.60938 30.065624 493.82812 30.346874Q494.03125 30.628124 494.5 30.815624Q494.76562 30.909374 496.04688 31.253124Q497.92188 31.753124 498.65625 32.08125Q499.39062 32.39375 499.8125 33.003124Q500.23438 33.596874 500.23438 34.503124Q500.23438 35.378124 499.71875 36.159374Q499.20312 36.940624 498.23438 37.3625Q497.26562 37.784374 496.04688 37.784374Q494.03125 37.784374 492.96875 36.940624Q491.90625 36.096874 491.60938 34.45625ZM509.09375 36.26875Q508.10938 37.096874 507.20312 37.440624Q506.29688 37.784374 505.26562 37.784374Q503.5625 37.784374 502.64062 36.95625Q501.71875 36.1125 501.71875 34.815624Q501.71875 34.05 502.0625 33.425Q502.42188 32.8 502.98438 32.425Q503.54688 32.034374 504.25 31.83125Q504.76562 31.70625 505.8125 31.565624Q507.9375 31.315624 508.9375 30.971874Q508.95312 30.6125 508.95312 30.503124Q508.95312 29.440624 508.45312 28.9875Q507.78125 28.39375 506.45312 28.39375Q505.20312 28.39375 504.60938 28.83125Q504.03125 29.26875 503.75 30.378124L502.03125 30.14375Q502.26562 29.034374 502.79688 28.3625Q503.32812 27.675 504.34375 27.315624Q505.35938 26.940624 506.70312 26.940624Q508.03125 26.940624 508.85938 27.253124Q509.6875 27.565624 510.07812 28.05Q510.46875 28.51875 510.625 29.2375Q510.71875 29.690624 510.71875 30.8625L510.71875 33.20625Q510.71875 35.659374 510.82812 36.315624Q510.9375 36.95625 511.28125 37.55L509.4375 37.55Q509.17188 37.003124 509.09375 36.26875ZM508.9375 32.346874Q507.98438 32.7375 506.0625 33.003124Q504.98438 33.159374 504.53125 33.3625Q504.09375 33.55 503.84375 33.925Q503.59375 34.3 503.59375 34.76875Q503.59375 35.471874 504.125 35.940624Q504.65625 36.409374 505.6875 36.409374Q506.70312 36.409374 507.48438 35.971874Q508.28125 35.51875 508.65625 34.753124Q508.9375 34.14375 508.9375 32.9875L508.9375 32.346874ZM513.3281 25.253124L513.3281 23.2375L515.09375 23.2375L515.09375 25.253124L513.3281 25.253124ZM513.3281 37.55L513.3281 27.175L515.09375 27.175L515.09375 37.55L513.3281 37.55ZM517.3281 37.55L517.3281 23.2375L519.09375 23.2375L519.09375 31.39375L523.25 27.175L525.5156 27.175L521.5625 31.01875L525.9219 37.55L523.75 37.55L520.3281 32.253124L519.09375 33.440624L519.09375 37.55L517.3281 37.55ZM534.09375 36.26875Q533.1094 37.096874 532.2031 37.440624Q531.2969 37.784374 530.2656 37.784374Q528.5625 37.784374 527.6406 36.95625Q526.71875 36.1125 526.71875 34.815624Q526.71875 34.05 527.0625 33.425Q527.4219 32.8 527.9844 32.425Q528.5469 32.034374 529.25 31.83125Q529.7656 31.70625 530.8125 31.565624Q532.9375 31.315624 533.9375 30.971874Q533.9531 30.6125 533.9531 30.503124Q533.9531 29.440624 533.4531 28.9875Q532.78125 28.39375 531.4531 28.39375Q530.2031 28.39375 529.6094 28.83125Q529.03125 29.26875 528.75 30.378124L527.03125 30.14375Q527.2656 29.034374 527.7969 28.3625Q528.3281 27.675 529.34375 27.315624Q530.3594 26.940624 531.7031 26.940624Q533.03125 26.940624 533.8594 27.253124Q534.6875 27.565624 535.0781 28.05Q535.46875 28.51875 535.625 29.2375Q535.71875 29.690624 535.71875 30.8625L535.71875 33.20625Q535.71875 35.659374 535.8281 36.315624Q535.9375 36.95625 536.28125 37.55L534.4375 37.55Q534.1719 37.003124 534.09375 36.26875ZM533.9375 32.346874Q532.9844 32.7375 531.0625 33.003124Q529.9844 33.159374 529.53125 33.3625Q529.09375 33.55 528.84375 33.925Q528.59375 34.3 528.59375 34.76875Q528.59375 35.471874 529.125 35.940624Q529.65625 36.409374 530.6875 36.409374Q531.7031 36.409374 532.4844 35.971874Q533.28125 35.51875 533.65625 34.753124Q533.9375 34.14375 533.9375 32.9875L533.9375 32.346874Z" fill-rule="nonzero"/></svg>