<svg version="1.1" viewBox="0.0 0.0 600.0 371.0" fill="none" stroke="none" stroke-linecap="square" stroke-miterlimit="10" width="600" height="371" xmlns:xlink="http://www.w3.org/1999/xlink" xmlns="http://www.w3.org/2000/svg"><path fill="#ffffff" d="M0 0L600.0 0L600.0 371.0L0 371.0L0 0Z" fill-rule="nonzero"/><path stroke="#333333" stroke-width="1.0" stroke-linecap="butt" d="M45.5 306.5L581.5 306.5" fill-rule="nonzero"/><path stroke="#cccccc" stroke-width="1.0" stroke-linecap="butt" d="M45.5 224.5L581.5 224.5" fill-rule="nonzero"/><path stroke="#cccccc" stroke-width="1.0" stroke-linecap="butt" d="M45.5 143.5L581.5 143.5" fill-rule="nonzero"/><path stroke="#cccccc" stroke-width="1.0" stroke-linecap="butt" d="M45.5 61.5L581.5 61.5" fill-rule="nonzero"/><clipPath id="id_0"><path d="M45.55 61.916668L581.45 61.916668L581.45 306.08334L45.55 306.08334L45.55 61.916668Z" clip-rule="nonzero"/></clipPath><path stroke="#000000" stroke-width="2.0" stroke-linecap="butt" stroke-opacity="0.0" clip-path="url(#id_0)" d="M112.0 306.0L81.0 306.0L81.0 274.0C81.0 272.89542 81.89543 272.0 83.0 272.0L110.0 272.0C111.10457 272.0 112.0 272.89542 112.0 274.0Z" fill-rule="nonzero"/><path fill="#46bdc6" clip-path="url(#id_0)" d="M112.0 306.0L81.0 306.0L81.0 274.0C81.0 272.89542 81.89543 272.0 83.0 272.0L110.0 272.0C111.10457 272.0 112.0 272.89542 112.0 274.0Z" fill-rule="nonzero"/><path stroke="#000000" stroke-width="2.0" stroke-linecap="butt" stroke-opacity="0.0" clip-path="url(#id_0)" d="M212.0 306.0L181.0 306.0L181.0 200.0C181.0 198.89543 181.89543 198.0 183.0 198.0L210.0 198.0C211.10457 198.0 212.0 198.89543 212.0 200.0Z" fill-rule="nonzero"/><path fill="#46bdc6" clip-path="url(#id_0)" d="M212.0 306.0L181.0 306.0L181.0 200.0C181.0 198.89543 181.89543 198.0 183.0 198.0L210.0 198.0C211.10457 198.0 212.0 198.89543 212.0 200.0Z" fill-rule="nonzero"/><path stroke="#000000" stroke-width="2.0" stroke-linecap="butt" stroke-opacity="0.0" clip-path="url(#id_0)" d="M313.0 306.0L282.0 306.0L282.0 194.0C282.0 192.89543 282.89542 192.0 284.0 192.0L311.0 192.0C312.10458 192.0 313.0 192.89543 313.0 194.0Z" fill-rule="nonzero"/><path fill="#46bdc6" clip-path="url(#id_0)" d="M313.0 306.0L282.0 306.0L282.0 194.0C282.0 192.89543 282.89542 192.0 284.0 192.0L311.0 192.0C312.10458 192.0 313.0 192.89543 313.0 194.0Z" fill-rule="nonzero"/><path stroke="#000000" stroke-width="2.0" stroke-linecap="butt" stroke-opacity="0.0" clip-path="url(#id_0)" d="M413.0 306.0L382.0 306.0L382.0 80.0C382.0 78.89543 382.89542 78.0 384.0 78.0L411.0 78.0C412.10458 78.0 413.0 78.89543 413.0 80.0Z" fill-rule="nonzero"/><path fill="#46bdc6" clip-path="url(#id_0)" d="M413.0 306.0L382.0 306.0L382.0 80.0C382.0 78.89543 382.89542 78.0 384.0 78.0L411.0 78.0C412.10458 78.0 413.0 78.89543 413.0 80.0Z" fill-rule="nonzero"/><path stroke="#000000" stroke-width="2.0" stroke-linecap="butt" stroke-opacity="0.0" clip-path="url(#id_0)" d="M513.0 306.0L482.0 306.0L482.0 241.0C482.0 239.89543 482.89542 239.0 484.0 239.0L511.0 239.0C512.10455 239.0 513.0 239.89543 513.0 241.0Z" fill-rule="nonzero"/><path fill="#46bdc6" clip-path="url(#id_0)" d="M513.0 306.0L482.0 306.0L482.0 241.0C482.0 239.89543 482.89542 239.0 484.0 239.0L511.0 239.0C512.10455 239.0 513.0 239.89543 513.0 241.0Z" fill-rule="nonzero"/><path stroke="#000000" stroke-width="2.0" stroke-linecap="butt" stroke-opacity="0.0" clip-path="url(#id_0)" d="M145.0 306.0L114.0 306.0L114.0 145.0C114.0 143.89543 114.89543 143.0 116.0 143.0L143.0 143.0C144.10457 143.0 145.0 143.89543 145.0 145.0Z" fill-rule="nonzero"/><path fill="#ea4335" clip-path="url(#id_0)" d="M145.0 306.0L114.0 306.0L114.0 145.0C114.0 143.89543 114.89543 143.0 116.0 143.0L143.0 143.0C144.10457 143.0 145.0 143.89543 145.0 145.0Z" fill-rule="nonzero"/><path stroke="#000000" stroke-width="2.0" stroke-linecap="butt" stroke-opacity="0.0" clip-path="url(#id_0)" d="M245.0 306.0L214.0 306.0L214.0 145.0C214.0 143.89543 214.89543 143.0 216.0 143.0L243.0 143.0C244.10457 143.0 245.0 143.89543 245.0 145.0Z" fill-rule="nonzero"/><path fill="#ea4335" clip-path="url(#id_0)" d="M245.0 306.0L214.0 306.0L214.0 145.0C214.0 143.89543 214.89543 143.0 216.0 143.0L243.0 143.0C244.10457 143.0 245.0 143.89543 245.0 145.0Z" fill-rule="nonzero"/><path stroke="#000000" stroke-width="2.0" stroke-linecap="butt" stroke-opacity="0.0" clip-path="url(#id_0)" d="M346.0 306.0L315.0 306.0L315.0 145.0C315.0 143.89543 315.89542 143.0 317.0 143.0L344.0 143.0C345.10458 143.0 346.0 143.89543 346.0 145.0Z" fill-rule="nonzero"/><path fill="#ea4335" clip-path="url(#id_0)" d="M346.0 306.0L315.0 306.0L315.0 145.0C315.0 143.89543 315.89542 143.0 317.0 143.0L344.0 143.0C345.10458 143.0 346.0 143.89543 346.0 145.0Z" fill-rule="nonzero"/><path stroke="#000000" stroke-width="2.0" stroke-linecap="butt" stroke-opacity="0.0" clip-path="url(#id_0)" d="M446.0 306.0L415.0 306.0L415.0 145.0C415.0 143.89543 415.89542 143.0 417.0 143.0L444.0 143.0C445.10458 143.0 446.0 143.89543 446.0 145.0Z" fill-rule="nonzero"/><path fill="#ea4335" clip-path="url(#id_0)" d="M446.0 306.0L415.0 306.0L415.0 145.0C415.0 143.89543 415.89542 143.0 417.0 143.0L444.0 143.0C445.10458 143.0 446.0 143.89543 446.0 145.0Z" fill-rule="nonzero"/><path stroke="#000000" stroke-width="2.0" stroke-linecap="butt" stroke-opacity="0.0" clip-path="url(#id_0)" d="M546.0 306.0L515.0 306.0L515.0 145.0C515.0 143.89543 515.89545 143.0 517.0 143.0L544.0 143.0C545.10455 143.0 546.0 143.89543 546.0 145.0Z" fill-rule="nonzero"/><path fill="#ea4335" clip-path="url(#id_0)" d="M546.0 306.0L515.0 306.0L515.0 145.0C515.0 143.89543 515.89545 143.0 517.0 143.0L544.0 143.0C545.10455 143.0 546.0 143.89543 546.0 145.0Z" fill-rule="nonzero"/><path fill="#000000" d="M23.05 305.84897Q23.05 304.31772 23.3625 303.39584Q23.675 302.45834 24.284374 301.95834Q24.909374 301.45834 25.846874 301.45834Q26.534374 301.45834 27.05 301.7396Q27.58125 302.02084 27.925 302.5521Q28.26875 303.06772 28.45625 303.81772Q28.64375 304.56772 28.64375 305.84897Q28.64375 307.3646 28.33125 308.28647Q28.034374 309.20834 27.409374 309.72397Q26.8 310.22397 25.846874 310.22397Q24.6125 310.22397 23.89375 309.33334Q23.05 308.27084 23.05 305.84897ZM24.128124 305.84897Q24.128124 307.95834 24.628124 308.66147Q25.128124 309.3646 25.846874 309.3646Q26.58125 309.3646 27.065624 308.66147Q27.565624 307.95834 27.565624 305.84897Q27.565624 303.72397 27.065624 303.03647Q26.58125 302.33334 25.83125 302.33334Q25.1125 302.33334 24.675 302.94272Q24.128124 303.72397 24.128124 305.84897ZM30.64375 310.08334L30.64375 308.88022L31.846874 308.88022L31.846874 310.08334L30.64375 310.08334ZM33.05 305.84897Q33.05 304.31772 33.3625 303.39584Q33.675 302.45834 34.284374 301.95834Q34.909374 301.45834 35.846874 301.45834Q36.534374 301.45834 37.05 301.7396Q37.58125 302.02084 37.925 302.5521Q38.26875 303.06772 38.45625 303.81772Q38.64375 304.56772 38.64375 305.84897Q38.64375 307.3646 38.33125 308.28647Q38.034374 309.20834 37.409374 309.72397Q36.8 310.22397 35.846874 310.22397Q34.6125 310.22397 33.89375 309.33334Q33.05 308.27084 33.05 305.84897ZM34.128124 305.84897Q34.128124 307.95834 34.628124 308.66147Q35.128124 309.3646 35.846874 309.3646Q36.58125 309.3646 37.065624 308.66147Q37.565624 307.95834 37.565624 305.84897Q37.565624 303.72397 37.065624 303.03647Q36.58125 302.33334 35.83125 302.33334Q35.1125 302.33334 34.675 302.94272Q34.128124 303.72397 34.128124 305.84897Z" fill-rule="nonzero"/><path fill="#000000" d="M23.05 224.46007Q23.05 222.92882 23.3625 222.00694Q23.675 221.06944 24.284374 220.56944Q24.909374 220.06944 25.846874 220.06944Q26.534374 220.06944 27.05 220.3507Q27.58125 220.63194 27.925 221.1632Q28.26875 221.67882 28.45625 222.42882Q28.64375 223.17882 28.64375 224.46007Q28.64375 225.9757 28.33125 226.89757Q28.034374 227.81944 27.409374 228.33507Q26.8 228.83507 25.846874 228.83507Q24.6125 228.83507 23.89375 227.94444Q23.05 226.88194 23.05 224.46007ZM24.128124 224.46007Q24.128124 226.56944 24.628124 227.27257Q25.128124 227.9757 25.846874 227.9757Q26.58125 227.9757 27.065624 227.27257Q27.565624 226.56944 27.565624 224.46007Q27.565624 222.33507 27.065624 221.64757Q26.58125 220.94444 25.83125 220.94444Q25.1125 220.94444 24.675 221.55382Q24.128124 222.33507 24.128124 224.46007ZM30.64375 228.69444L30.64375 227.49132L31.846874 227.49132L31.846874 228.69444L30.64375 228.69444ZM33.05 226.44444L34.159374 226.3507Q34.284374 227.1632 34.721874 227.56944Q35.175 227.9757 35.815624 227.9757Q36.565624 227.9757 37.096874 227.39757Q37.628124 226.81944 37.628124 225.88194Q37.628124 224.9757 37.1125 224.46007Q36.6125 223.92882 35.784374 223.92882Q35.284374 223.92882 34.8625 224.1632Q34.45625 224.39757 34.221874 224.75694L33.2375 224.63194L34.065624 220.2257L38.346874 220.2257L38.346874 221.2257L34.909374 221.2257L34.45625 223.5382Q35.221874 222.99132 36.065624 222.99132Q37.190624 222.99132 37.95625 223.77257Q38.7375 224.55382 38.7375 225.7882Q38.7375 226.94444 38.065624 227.80382Q37.2375 228.83507 35.815624 228.83507Q34.64375 228.83507 33.89375 228.17882Q33.159374 227.52257 33.05 226.44444Z" fill-rule="nonzero"/><path fill="#000000" d="M27.01875 147.30556L25.971874 147.30556L25.971874 140.5868Q25.58125 140.94618 24.95625 141.32118Q24.346874 141.68056 23.8625 141.85243L23.8625 140.8368Q24.7375 140.41493 25.39375 139.8368Q26.065624 139.24306 26.346874 138.68056L27.01875 138.68056L27.01875 147.30556ZM30.64375 147.30556L30.64375 146.10243L31.846874 146.10243L31.846874 147.30556L30.64375 147.30556ZM33.05 143.07118Q33.05 141.53993 33.3625 140.61806Q33.675 139.68056 34.284374 139.18056Q34.909374 138.68056 35.846874 138.68056Q36.534374 138.68056 37.05 138.9618Q37.58125 139.24306 37.925 139.7743Q38.26875 140.28993 38.45625 141.03993Q38.64375 141.78993 38.64375 143.07118Q38.64375 144.5868 38.33125 145.50868Q38.034374 146.43056 37.409374 146.94618Q36.8 147.44618 35.846874 147.44618Q34.6125 147.44618 33.89375 146.55556Q33.05 145.49306 33.05 143.07118ZM34.128124 143.07118Q34.128124 145.18056 34.628124 145.88368Q35.128124 146.5868 35.846874 146.5868Q36.58125 146.5868 37.065624 145.88368Q37.565624 145.18056 37.565624 143.07118Q37.565624 140.94618 37.065624 140.25868Q36.58125 139.55556 35.83125 139.55556Q35.1125 139.55556 34.675 140.16493Q34.128124 140.94618 34.128124 143.07118Z" fill-rule="nonzero"/><path fill="#000000" d="M27.01875 65.916664L25.971874 65.916664L25.971874 59.197914Q25.58125 59.55729 24.95625 59.93229Q24.346874 60.291664 23.8625 60.46354L23.8625 59.447914Q24.7375 59.02604 25.39375 58.447914Q26.065624 57.854164 26.346874 57.291664L27.01875 57.291664L27.01875 65.916664ZM30.64375 65.916664L30.64375 64.71354L31.846874 64.71354L31.846874 65.916664L30.64375 65.916664ZM33.05 63.666664L34.159374 63.572914Q34.284374 64.385414 34.721874 64.791664Q35.175 65.197914 35.815624 65.197914Q36.565624 65.197914 37.096874 64.61979Q37.628124 64.041664 37.628124 63.104164Q37.628124 62.197914 37.1125 61.68229Q36.6125 61.15104 35.784374 61.15104Q35.284374 61.15104 34.8625 61.385414Q34.45625 61.61979 34.221874 61.979164L33.2375 61.854164L34.065624 57.447914L38.346874 57.447914L38.346874 58.447914L34.909374 58.447914L34.45625 60.760414Q35.221874 60.21354 36.065624 60.21354Q37.190624 60.21354 37.95625 60.99479Q38.7375 61.77604 38.7375 63.010414Q38.7375 64.166664 38.065624 65.02604Q37.2375 66.05729 35.815624 66.05729Q34.64375 66.05729 33.89375 65.40104Q33.159374 64.74479 33.05 63.666664Z" fill-rule="nonzero"/><path fill="#000000" d="M103.6323 323.08334L102.58543 323.08334L102.58543 316.3646Q102.1948 316.72397 101.5698 317.09897Q100.96043 317.45834 100.47605 317.63022L100.47605 316.6146Q101.35105 316.19272 102.0073 315.6146Q102.67918 315.02084 102.96043 314.45834L103.6323 314.45834L103.6323 323.08334ZM106.66355 318.84897Q106.66355 317.31772 106.97605 316.39584Q107.28855 315.45834 107.89793 314.95834Q108.52293 314.45834 109.46043 314.45834Q110.14793 314.45834 110.66355 314.7396Q111.1948 315.02084 111.53855 315.5521Q111.8823 316.06772 112.0698 316.81772Q112.2573 317.56772 112.2573 318.84897Q112.2573 320.3646 111.9448 321.28647Q111.64793 322.20834 111.02293 322.72397Q110.41355 323.22397 109.46043 323.22397Q108.22605 323.22397 107.5073 322.33334Q106.66355 321.27084 106.66355 318.84897ZM107.74168 318.84897Q107.74168 320.95834 108.24168 321.66147Q108.74168 322.3646 109.46043 322.3646Q110.1948 322.3646 110.67918 321.66147Q111.17918 320.95834 111.17918 318.84897Q111.17918 316.72397 110.67918 316.03647Q110.1948 315.33334 109.4448 315.33334Q108.72605 315.33334 108.28855 315.94272Q107.74168 316.72397 107.74168 318.84897ZM113.66355 318.84897Q113.66355 317.31772 113.97605 316.39584Q114.28855 315.45834 114.89793 314.95834Q115.52293 314.45834 116.46043 314.45834Q117.14793 314.45834 117.66355 314.7396Q118.1948 315.02084 118.53855 315.5521Q118.8823 316.06772 119.0698 316.81772Q119.2573 317.56772 119.2573 318.84897Q119.2573 320.3646 118.9448 321.28647Q118.64793 322.20834 118.02293 322.72397Q117.41355 323.22397 116.46043 323.22397Q115.22605 323.22397 114.5073 322.33334Q113.66355 321.27084 113.66355 318.84897ZM114.74168 318.84897Q114.74168 320.95834 115.24168 321.66147Q115.74168 322.3646 116.46043 322.3646Q117.1948 322.3646 117.67918 321.66147Q118.17918 320.95834 118.17918 318.84897Q118.17918 316.72397 117.67918 316.03647Q117.1948 315.33334 116.4448 315.33334Q115.72605 315.33334 115.28855 315.94272Q114.74168 316.72397 114.74168 318.84897ZM120.66355 318.84897Q120.66355 317.31772 120.97605 316.39584Q121.28855 315.45834 121.89793 314.95834Q122.52293 314.45834 123.46043 314.45834Q124.14793 314.45834 124.66355 314.7396Q125.1948 315.02084 125.53855 315.5521Q125.8823 316.06772 126.0698 316.81772Q126.2573 317.56772 126.2573 318.84897Q126.2573 320.3646 125.9448 321.28647Q125.64793 322.20834 125.02293 322.72397Q124.41355 323.22397 123.46043 323.22397Q122.22605 323.22397 121.5073 322.33334Q120.66355 321.27084 120.66355 318.84897ZM121.74168 318.84897Q121.74168 320.95834 122.24168 321.66147Q122.74168 322.3646 123.46043 322.3646Q124.1948 322.3646 124.67918 321.66147Q125.17918 320.95834 125.17918 318.84897Q125.17918 316.72397 124.67918 316.03647Q124.1948 315.33334 123.4448 315.33334Q122.72605 315.33334 122.28855 315.94272Q121.74168 316.72397 121.74168 318.84897Z" fill-rule="nonzero"/><path fill="#000000" d="M200.30052 323.08334L199.25365 323.08334L199.25365 316.3646Q198.86302 316.72397 198.23802 317.09897Q197.62865 317.45834 197.14427 317.63022L197.14427 316.6146Q198.01927 316.19272 198.67552 315.6146Q199.3474 315.02084 199.62865 314.45834L200.30052 314.45834L200.30052 323.08334ZM203.33177 318.84897Q203.33177 317.31772 203.64427 316.39584Q203.95677 315.45834 204.56615 314.95834Q205.19115 314.45834 206.12865 314.45834Q206.81615 314.45834 207.33177 314.7396Q207.86302 315.02084 208.20677 315.5521Q208.55052 316.06772 208.73802 316.81772Q208.92552 317.56772 208.92552 318.84897Q208.92552 320.3646 208.61302 321.28647Q208.31615 322.20834 207.69115 322.72397Q207.08177 323.22397 206.12865 323.22397Q204.89427 323.22397 204.17552 322.33334Q203.33177 321.27084 203.33177 318.84897ZM204.4099 318.84897Q204.4099 320.95834 204.9099 321.66147Q205.4099 322.3646 206.12865 322.3646Q206.86302 322.3646 207.3474 321.66147Q207.8474 320.95834 207.8474 318.84897Q207.8474 316.72397 207.3474 316.03647Q206.86302 315.33334 206.11302 315.33334Q205.39427 315.33334 204.95677 315.94272Q204.4099 316.72397 204.4099 318.84897ZM210.33177 318.84897Q210.33177 317.31772 210.64427 316.39584Q210.95677 315.45834 211.56615 314.95834Q212.19115 314.45834 213.12865 314.45834Q213.81615 314.45834 214.33177 314.7396Q214.86302 315.02084 215.20677 315.5521Q215.55052 316.06772 215.73802 316.81772Q215.92552 317.56772 215.92552 318.84897Q215.92552 320.3646 215.61302 321.28647Q215.31615 322.20834 214.69115 322.72397Q214.08177 323.22397 213.12865 323.22397Q211.89427 323.22397 211.17552 322.33334Q210.33177 321.27084 210.33177 318.84897ZM211.4099 318.84897Q211.4099 320.95834 211.9099 321.66147Q212.4099 322.3646 213.12865 322.3646Q213.86302 322.3646 214.3474 321.66147Q214.8474 320.95834 214.8474 318.84897Q214.8474 316.72397 214.3474 316.03647Q213.86302 315.33334 213.11302 315.33334Q212.39427 315.33334 211.95677 315.94272Q211.4099 316.72397 211.4099 318.84897ZM217.33177 318.84897Q217.33177 317.31772 217.64427 316.39584Q217.95677 315.45834 218.56615 314.95834Q219.19115 314.45834 220.12865 314.45834Q220.81615 314.45834 221.33177 314.7396Q221.86302 315.02084 222.20677 315.5521Q222.55052 316.06772 222.73802 316.81772Q222.92552 317.56772 222.92552 318.84897Q222.92552 320.3646 222.61302 321.28647Q222.31615 322.20834 221.69115 322.72397Q221.08177 323.22397 220.12865 323.22397Q218.89427 323.22397 218.17552 322.33334Q217.33177 321.27084 217.33177 318.84897ZM218.4099 318.84897Q218.4099 320.95834 218.9099 321.66147Q219.4099 322.3646 220.12865 322.3646Q220.86302 322.3646 221.3474 321.66147Q221.8474 320.95834 221.8474 318.84897Q221.8474 316.72397 221.3474 316.03647Q220.86302 315.33334 220.11302 315.33334Q219.39427 315.33334 218.95677 315.94272Q218.4099 316.72397 218.4099 318.84897ZM224.33177 318.84897Q224.33177 317.31772 224.64427 316.39584Q224.95677 315.45834 225.56615 314.95834Q226.19115 314.45834 227.12865 314.45834Q227.81615 314.45834 228.33177 314.7396Q228.86302 315.02084 229.20677 315.5521Q229.55052 316.06772 229.73802 316.81772Q229.92552 317.56772 229.92552 318.84897Q229.92552 320.3646 229.61302 321.28647Q229.31615 322.20834 228.69115 322.72397Q228.08177 323.22397 227.12865 323.22397Q225.89427 323.22397 225.17552 322.33334Q224.33177 321.27084 224.33177 318.84897ZM225.4099 318.84897Q225.4099 320.95834 225.9099 321.66147Q226.4099 322.3646 227.12865 322.3646Q227.86302 322.3646 228.3474 321.66147Q228.8474 320.95834 228.8474 318.84897Q228.8474 316.72397 228.3474 316.03647Q227.86302 315.33334 227.11302 315.33334Q226.39427 315.33334 225.95677 315.94272Q225.4099 316.72397 225.4099 318.84897Z" fill-rule="nonzero"/><path fill="#000000" d="M296.96875 323.08334L295.92188 323.08334L295.92188 316.3646Q295.53125 316.72397 294.90625 317.09897Q294.29688 317.45834 293.8125 317.63022L293.8125 316.6146Q294.6875 316.19272 295.34375 315.6146Q296.01562 315.02084 296.29688 314.45834L296.96875 314.45834L296.96875 323.08334ZM300.0 318.84897Q300.0 317.31772 300.3125 316.39584Q300.625 315.45834 301.23438 314.95834Q301.85938 314.45834 302.79688 314.45834Q303.48438 314.45834 304.0 314.7396Q304.53125 315.02084 304.875 315.5521Q305.21875 316.06772 305.40625 316.81772Q305.59375 317.56772 305.59375 318.84897Q305.59375 320.3646 305.28125 321.28647Q304.98438 322.20834 304.35938 322.72397Q303.75 323.22397 302.79688 323.22397Q301.5625 323.22397 300.84375 322.33334Q300.0 321.27084 300.0 318.84897ZM301.07812 318.84897Q301.07812 320.95834 301.57812 321.66147Q302.07812 322.3646 302.79688 322.3646Q303.53125 322.3646 304.01562 321.66147Q304.51562 320.95834 304.51562 318.84897Q304.51562 316.72397 304.01562 316.03647Q303.53125 315.33334 302.78125 315.33334Q302.0625 315.33334 301.625 315.94272Q301.07812 316.72397 301.07812 318.84897ZM307.0 318.84897Q307.0 317.31772 307.3125 316.39584Q307.625 315.45834 308.23438 314.95834Q308.85938 314.45834 309.79688 314.45834Q310.48438 314.45834 311.0 314.7396Q311.53125 315.02084 311.875 315.5521Q312.21875 316.06772 312.40625 316.81772Q312.59375 317.56772 312.59375 318.84897Q312.59375 320.3646 312.28125 321.28647Q311.98438 322.20834 311.35938 322.72397Q310.75 323.22397 309.79688 323.22397Q308.5625 323.22397 307.84375 322.33334Q307.0 321.27084 307.0 318.84897ZM308.07812 318.84897Q308.07812 320.95834 308.57812 321.66147Q309.07812 322.3646 309.79688 322.3646Q310.53125 322.3646 311.01562 321.66147Q311.51562 320.95834 311.51562 318.84897Q311.51562 316.72397 311.01562 316.03647Q310.53125 315.33334 309.78125 315.33334Q309.0625 315.33334 308.625 315.94272Q308.07812 316.72397 308.07812 318.84897ZM314.0 318.84897Q314.0 317.31772 314.3125 316.39584Q314.625 315.45834 315.23438 314.95834Q315.85938 314.45834 316.79688 314.45834Q317.48438 314.45834 318.0 314.7396Q318.53125 315.02084 318.875 315.5521Q319.21875 316.06772 319.40625 316.81772Q319.59375 317.56772 319.59375 318.84897Q319.59375 320.3646 319.28125 321.28647Q318.98438 322.20834 318.35938 322.72397Q317.75 323.22397 316.79688 323.22397Q315.5625 323.22397 314.84375 322.33334Q314.0 321.27084 314.0 318.84897ZM315.07812 318.84897Q315.07812 320.95834 315.57812 321.66147Q316.07812 322.3646 316.79688 322.3646Q317.53125 322.3646 318.01562 321.66147Q318.51562 320.95834 318.51562 318.84897Q318.51562 316.72397 318.01562 316.03647Q317.53125 315.33334 316.78125 315.33334Q316.0625 315.33334 315.625 315.94272Q315.07812 316.72397 315.07812 318.84897ZM321.0 318.84897Q321.0 317.31772 321.3125 316.39584Q321.625 315.45834 322.23438 314.95834Q322.85938 314.45834 323.79688 314.45834Q324.48438 314.45834 325.0 314.7396Q325.53125 315.02084 325.875 315.5521Q326.21875 316.06772 326.40625 316.81772Q326.59375 317.56772 326.59375 318.84897Q326.59375 320.3646 326.28125 321.28647Q325.98438 322.20834 325.35938 322.72397Q324.75 323.22397 323.79688 323.22397Q322.5625 323.22397 321.84375 322.33334Q321.0 321.27084 321.0 318.84897ZM322.07812 318.84897Q322.07812 320.95834 322.57812 321.66147Q323.07812 322.3646 323.79688 322.3646Q324.53125 322.3646 325.01562 321.66147Q325.51562 320.95834 325.51562 318.84897Q325.51562 316.72397 325.01562 316.03647Q324.53125 315.33334 323.78125 315.33334Q323.0625 315.33334 322.625 315.94272Q322.07812 316.72397 322.07812 318.84897ZM328.0 318.84897Q328.0 317.31772 328.3125 316.39584Q328.625 315.45834 329.23438 314.95834Q329.85938 314.45834 330.79688 314.45834Q331.48438 314.45834 332.0 314.7396Q332.53125 315.02084 332.875 315.5521Q333.21875 316.06772 333.40625 316.81772Q333.59375 317.56772 333.59375 318.84897Q333.59375 320.3646 333.28125 321.28647Q332.98438 322.20834 332.35938 322.72397Q331.75 323.22397 330.79688 323.22397Q329.5625 323.22397 328.84375 322.33334Q328.0 321.27084 328.0 318.84897ZM329.07812 318.84897Q329.07812 320.95834 329.57812 321.66147Q330.07812 322.3646 330.79688 322.3646Q331.53125 322.3646 332.01562 321.66147Q332.51562 320.95834 332.51562 318.84897Q332.51562 316.72397 332.01562 316.03647Q331.53125 315.33334 330.78125 315.33334Q330.0625 315.33334 329.625 315.94272Q329.07812 316.72397 329.07812 318.84897Z" fill-rule="nonzero"/><path fill="#000000" d="M393.63696 323.08334L392.5901 323.08334L392.5901 316.3646Q392.19946 316.72397 391.57446 317.09897Q390.9651 317.45834 390.4807 317.63022L390.4807 316.6146Q391.3557 316.19272 392.01196 315.6146Q392.68384 315.02084 392.9651 314.45834L393.63696 314.45834L393.63696 323.08334ZM396.6682 318.84897Q396.6682 317.31772 396.9807 316.39584Q397.2932 315.45834 397.9026 314.95834Q398.5276 314.45834 399.4651 314.45834Q400.1526 314.45834 400.6682 314.7396Q401.19946 315.02084 401.5432 315.5521Q401.88696 316.06772 402.07446 316.81772Q402.26196 317.56772 402.26196 318.84897Q402.26196 320.3646 401.94946 321.28647Q401.6526 322.20834 401.0276 322.72397Q400.4182 323.22397 399.4651 323.22397Q398.2307 323.22397 397.51196 322.33334Q396.6682 321.27084 396.6682 318.84897ZM397.74634 318.84897Q397.74634 320.95834 398.24634 321.66147Q398.74634 322.3646 399.4651 322.3646Q400.19946 322.3646 400.68384 321.66147Q401.18384 320.95834 401.18384 318.84897Q401.18384 316.72397 400.68384 316.03647Q400.19946 315.33334 399.44946 315.33334Q398.7307 315.33334 398.2932 315.94272Q397.74634 316.72397 397.74634 318.84897ZM403.6682 318.84897Q403.6682 317.31772 403.9807 316.39584Q404.2932 315.45834 404.9026 314.95834Q405.5276 314.45834 406.4651 314.45834Q407.1526 314.45834 407.6682 314.7396Q408.19946 315.02084 408.5432 315.5521Q408.88696 316.06772 409.07446 316.81772Q409.26196 317.56772 409.26196 318.84897Q409.26196 320.3646 408.94946 321.28647Q408.6526 322.20834 408.0276 322.72397Q407.4182 323.22397 406.4651 323.22397Q405.2307 323.22397 404.51196 322.33334Q403.6682 321.27084 403.6682 318.84897ZM404.74634 318.84897Q404.74634 320.95834 405.24634 321.66147Q405.74634 322.3646 406.4651 322.3646Q407.19946 322.3646 407.68384 321.66147Q408.18384 320.95834 408.18384 318.84897Q408.18384 316.72397 407.68384 316.03647Q407.19946 315.33334 406.44946 315.33334Q405.7307 315.33334 405.2932 315.94272Q404.74634 316.72397 404.74634 318.84897ZM410.6682 318.84897Q410.6682 317.31772 410.9807 316.39584Q411.2932 315.45834 411.9026 314.95834Q412.5276 314.45834 413.4651 314.45834Q414.1526 314.45834 414.6682 314.7396Q415.19946 315.02084 415.5432 315.5521Q415.88696 316.06772 416.07446 316.81772Q416.26196 317.56772 416.26196 318.84897Q416.26196 320.3646 415.94946 321.28647Q415.6526 322.20834 415.0276 322.72397Q414.4182 323.22397 413.4651 323.22397Q412.2307 323.22397 411.51196 322.33334Q410.6682 321.27084 410.6682 318.84897ZM411.74634 318.84897Q411.74634 320.95834 412.24634 321.66147Q412.74634 322.3646 413.4651 322.3646Q414.19946 322.3646 414.68384 321.66147Q415.18384 320.95834 415.18384 318.84897Q415.18384 316.72397 414.68384 316.03647Q414.19946 315.33334 413.44946 315.33334Q412.7307 315.33334 412.2932 315.94272Q411.74634 316.72397 411.74634 318.84897ZM417.6682 318.84897Q417.6682 317.31772 417.9807 316.39584Q418.2932 315.45834 418.9026 314.95834Q419.5276 314.45834 420.4651 314.45834Q421.1526 314.45834 421.6682 314.7396Q422.19946 315.02084 422.5432 315.5521Q422.88696 316.06772 423.07446 316.81772Q423.26196 317.56772 423.26196 318.84897Q423.26196 320.3646 422.94946 321.28647Q422.6526 322.20834 422.0276 322.72397Q421.4182 323.22397 420.4651 323.22397Q419.2307 323.22397 418.51196 322.33334Q417.6682 321.27084 417.6682 318.84897ZM418.74634 318.84897Q418.74634 320.95834 419.24634 321.66147Q419.74634 322.3646 420.4651 322.3646Q421.19946 322.3646 421.68384 321.66147Q422.18384 320.95834 422.18384 318.84897Q422.18384 316.72397 421.68384 316.03647Q421.19946 315.33334 420.44946 315.33334Q419.7307 315.33334 419.2932 315.94272Q418.74634 316.72397 418.74634 318.84897ZM424.6682 318.84897Q424.6682 317.31772 424.9807 316.39584Q425.2932 315.45834 425.9026 314.95834Q426.5276 314.45834 427.4651 314.45834Q428.1526 314.45834 428.6682 314.7396Q429.19946 315.02084 429.5432 315.5521Q429.88696 316.06772 430.07446 316.81772Q430.26196 317.56772 430.26196 318.84897Q430.26196 320.3646 429.94946 321.28647Q429.6526 322.20834 429.0276 322.72397Q428.4182 323.22397 427.4651 323.22397Q426.2307 323.22397 425.51196 322.33334Q424.6682 321.27084 424.6682 318.84897ZM425.74634 318.84897Q425.74634 320.95834 426.24634 321.66147Q426.74634 322.3646 427.4651 322.3646Q428.19946 322.3646 428.68384 321.66147Q429.18384 320.95834 429.18384 318.84897Q429.18384 316.72397 428.68384 316.03647Q428.19946 315.33334 427.44946 315.33334Q426.7307 315.33334 426.2932 315.94272Q425.74634 316.72397 425.74634 318.84897ZM431.6682 318.84897Q431.6682 317.31772 431.9807 316.39584Q432.2932 315.45834 432.9026 314.95834Q433.5276 314.45834 434.4651 314.45834Q435.1526 314.45834 435.6682 314.7396Q436.19946 315.02084 436.5432 315.5521Q436.88696 316.06772 437.07446 316.81772Q437.26196 317.56772 437.26196 318.84897Q437.26196 320.3646 436.94946 321.28647Q436.6526 322.20834 436.0276 322.72397Q435.4182 323.22397 434.4651 323.22397Q433.2307 323.22397 432.51196 322.33334Q431.6682 321.27084 431.6682 318.84897ZM432.74634 318.84897Q432.74634 320.95834 433.24634 321.66147Q433.74634 322.3646 434.4651 322.3646Q435.19946 322.3646 435.68384 321.66147Q436.18384 320.95834 436.18384 318.84897Q436.18384 316.72397 435.68384 316.03647Q435.19946 315.33334 434.44946 315.33334Q433.7307 315.33334 433.2932 315.94272Q432.74634 316.72397 432.74634 318.84897Z" fill-rule="nonzero"/><path fill="#000000" d="M490.3052 323.08334L489.25833 323.08334L489.25833 316.3646Q488.8677 316.72397 488.2427 317.09897Q487.63333 317.45834 487.14896 317.63022L487.14896 316.6146Q488.02396 316.19272 488.6802 315.6146Q489.35208 315.02084 489.63333 314.45834L490.3052 314.45834L490.3052 323.08334ZM493.33646 318.84897Q493.33646 317.31772 493.64896 316.39584Q493.96146 315.45834 494.57083 314.95834Q495.19583 314.45834 496.13333 314.45834Q496.82083 314.45834 497.33646 314.7396Q497.8677 315.02084 498.21146 315.5521Q498.5552 316.06772 498.7427 316.81772Q498.9302 317.56772 498.9302 318.84897Q498.9302 320.3646 498.6177 321.28647Q498.32083 322.20834 497.69583 322.72397Q497.08646 323.22397 496.13333 323.22397Q494.89896 323.22397 494.1802 322.33334Q493.33646 321.27084 493.33646 318.84897ZM494.41458 318.84897Q494.41458 320.95834 494.91458 321.66147Q495.41458 322.3646 496.13333 322.3646Q496.8677 322.3646 497.35208 321.66147Q497.85208 320.95834 497.85208 318.84897Q497.85208 316.72397 497.35208 316.03647Q496.8677 315.33334 496.1177 315.33334Q495.39896 315.33334 494.96146 315.94272Q494.41458 316.72397 494.41458 318.84897ZM500.33646 318.84897Q500.33646 317.31772 500.64896 316.39584Q500.96146 315.45834 501.57083 314.95834Q502.19583 314.45834 503.13333 314.45834Q503.82083 314.45834 504.33646 314.7396Q504.8677 315.02084 505.21146 315.5521Q505.5552 316.06772 505.7427 316.81772Q505.9302 317.56772 505.9302 318.84897Q505.9302 320.3646 505.6177 321.28647Q505.32083 322.20834 504.69583 322.72397Q504.08646 323.22397 503.13333 323.22397Q501.89896 323.22397 501.1802 322.33334Q500.33646 321.27084 500.33646 318.84897ZM501.41458 318.84897Q501.41458 320.95834 501.91458 321.66147Q502.41458 322.3646 503.13333 322.3646Q503.8677 322.3646 504.35208 321.66147Q504.85208 320.95834 504.85208 318.84897Q504.85208 316.72397 504.35208 316.03647Q503.8677 315.33334 503.1177 315.33334Q502.39896 315.33334 501.96146 315.94272Q501.41458 316.72397 501.41458 318.84897ZM507.33646 318.84897Q507.33646 317.31772 507.64896 316.39584Q507.96146 315.45834 508.57083 314.95834Q509.19583 314.45834 510.13333 314.45834Q510.82083 314.45834 511.33646 314.7396Q511.8677 315.02084 512.2114 315.5521Q512.5552 316.06772 512.7427 316.81772Q512.9302 317.56772 512.9302 318.84897Q512.9302 320.3646 512.6177 321.28647Q512.3208 322.20834 511.69583 322.72397Q511.08646 323.22397 510.13333 323.22397Q508.89896 323.22397 508.1802 322.33334Q507.33646 321.27084 507.33646 318.84897ZM508.41458 318.84897Q508.41458 320.95834 508.91458 321.66147Q509.41458 322.3646 510.13333 322.3646Q510.8677 322.3646 511.35208 321.66147Q511.85208 320.95834 511.85208 318.84897Q511.85208 316.72397 511.35208 316.03647Q510.8677 315.33334 510.1177 315.33334Q509.39896 315.33334 508.96146 315.94272Q508.41458 316.72397 508.41458 318.84897ZM514.3364 318.84897Q514.3364 317.31772 514.6489 316.39584Q514.9614 315.45834 515.5708 314.95834Q516.1958 314.45834 517.1333 314.45834Q517.8208 314.45834 518.3364 314.7396Q518.8677 315.02084 519.2114 315.5521Q519.5552 316.06772 519.7427 316.81772Q519.9302 317.56772 519.9302 318.84897Q519.9302 320.3646 519.6177 321.28647Q519.3208 322.20834 518.6958 322.72397Q518.0864 323.22397 517.1333 323.22397Q515.8989 323.22397 515.1802 322.33334Q514.3364 321.27084 514.3364 318.84897ZM515.41455 318.84897Q515.41455 320.95834 515.91455 321.66147Q516.41455 322.3646 517.1333 322.3646Q517.8677 322.3646 518.35205 321.66147Q518.85205 320.95834 518.85205 318.84897Q518.85205 316.72397 518.35205 316.03647Q517.8677 315.33334 517.1177 315.33334Q516.3989 315.33334 515.9614 315.94272Q515.41455 316.72397 515.41455 318.84897ZM521.3364 318.84897Q521.3364 317.31772 521.6489 316.39584Q521.9614 315.45834 522.5708 314.95834Q523.1958 314.45834 524.1333 314.45834Q524.8208 314.45834 525.3364 314.7396Q525.8677 315.02084 526.2114 315.5521Q526.5552 316.06772 526.7427 316.81772Q526.9302 317.56772 526.9302 318.84897Q526.9302 320.3646 526.6177 321.28647Q526.3208 322.20834 525.6958 322.72397Q525.0864 323.22397 524.1333 323.22397Q522.8989 323.22397 522.1802 322.33334Q521.3364 321.27084 521.3364 318.84897ZM522.41455 318.84897Q522.41455 320.95834 522.91455 321.66147Q523.41455 322.3646 524.1333 322.3646Q524.8677 322.3646 525.35205 321.66147Q525.85205 320.95834 525.85205 318.84897Q525.85205 316.72397 525.35205 316.03647Q524.8677 315.33334 524.1177 315.33334Q523.3989 315.33334 522.9614 315.94272Q522.41455 316.72397 522.41455 318.84897ZM528.3364 318.84897Q528.3364 317.31772 528.6489 316.39584Q528.9614 315.45834 529.5708 314.95834Q530.1958 314.45834 531.1333 314.45834Q531.8208 314.45834 532.3364 314.7396Q532.8677 315.02084 533.2114 315.5521Q533.5552 316.06772 533.7427 316.81772Q533.9302 317.56772 533.9302 318.84897Q533.9302 320.3646 533.6177 321.28647Q533.3208 322.20834 532.6958 322.72397Q532.0864 323.22397 531.1333 323.22397Q529.8989 323.22397 529.1802 322.33334Q528.3364 321.27084 528.3364 318.84897ZM529.41455 318.84897Q529.41455 320.95834 529.91455 321.66147Q530.41455 322.3646 531.1333 322.3646Q531.8677 322.3646 532.35205 321.66147Q532.85205 320.95834 532.85205 318.84897Q532.85205 316.72397 532.35205 316.03647Q531.8677 315.33334 531.1177 315.33334Q530.3989 315.33334 529.9614 315.94272Q529.41455 316.72397 529.41455 318.84897ZM535.3364 318.84897Q535.3364 317.31772 535.6489 316.39584Q535.9614 315.45834 536.5708 314.95834Q537.1958 314.45834 538.1333 314.45834Q538.8208 314.45834 539.3364 314.7396Q539.8677 315.02084 540.2114 315.5521Q540.5552 316.06772 540.7427 316.81772Q540.9302 317.56772 540.9302 318.84897Q540.9302 320.3646 540.6177 321.28647Q540.3208 322.20834 539.6958 322.72397Q539.0864 323.22397 538.1333 323.22397Q536.8989 323.22397 536.1802 322.33334Q535.3364 321.27084 535.3364 318.84897ZM536.41455 318.84897Q536.41455 320.95834 536.91455 321.66147Q537.41455 322.3646 538.1333 322.3646Q538.8677 322.3646 539.35205 321.66147Q539.85205 320.95834 539.85205 318.84897Q539.85205 316.72397 539.35205 316.03647Q538.8677 315.33334 538.1177 315.33334Q537.3989 315.33334 536.9614 315.94272Q536.41455 316.72397 536.41455 318.84897Z" fill-rule="nonzero"/><path fill="#46bdc6" d="M209.0 340.45C209.0 339.8977 209.44771 339.45 210.0 339.45L220.0 339.45C220.55229 339.45 221.0 339.8977 221.0 340.45L221.0 350.45C221.0 351.0023 220.55229 351.45 220.0 351.45L210.0 351.45C209.44771 351.45 209.0 351.0023 209.0 350.45Z" fill-rule="nonzero"/><path fill="#1a1a1a" d="M229.9375 349.45L229.9375 340.85626L233.75 340.85626Q234.90625 340.85626 235.5 341.09064Q236.09375 341.325 236.45312 341.91876Q236.8125 342.4969 236.8125 343.2Q236.8125 344.1219 236.21875 344.7469Q235.625 345.3719 234.39062 345.54376Q234.84375 345.7625 235.07812 345.96564Q235.57812 346.41876 236.01562 347.10626L237.51562 349.45L236.07812 349.45L234.95312 347.66876Q234.45312 346.8875 234.125 346.48126Q233.8125 346.075 233.54688 345.91876Q233.29688 345.7469 233.03125 345.66876Q232.84375 345.6375 232.40625 345.6375L231.07812 345.6375L231.07812 349.45L229.9375 349.45ZM231.07812 344.65314L233.53125 344.65314Q234.29688 344.65314 234.73438 344.4969Q235.1875 344.325 235.40625 343.98126Q235.64062 343.6219 235.64062 343.2Q235.64062 342.59064 235.1875 342.2Q234.75 341.8094 233.79688 341.8094L231.07812 341.8094L231.07812 344.65314ZM242.875 349.45L242.875 348.52814Q242.14062 349.59064 240.89062 349.59064Q240.34375 349.59064 239.85938 349.3875Q239.39062 349.16876 239.15625 348.85626Q238.92188 348.52814 238.82812 348.0594Q238.76562 347.7625 238.76562 347.075L238.76562 343.23126L239.82812 343.23126L239.82812 346.6844Q239.82812 347.4969 239.89062 347.79376Q239.98438 348.2 240.29688 348.45Q240.625 348.6844 241.10938 348.6844Q241.57812 348.6844 241.98438 348.45Q242.40625 348.2 242.57812 347.77814Q242.76562 347.35626 242.76562 346.5594L242.76562 343.23126L243.8125 343.23126L243.8125 349.45L242.875 349.45ZM249.875 349.45L249.875 348.52814Q249.14062 349.59064 247.89062 349.59064Q247.34375 349.59064 246.85938 349.3875Q246.39062 349.16876 246.15625 348.85626Q245.92188 348.52814 245.82812 348.0594Q245.76562 347.7625 245.76562 347.075L245.76562 343.23126L246.82812 343.23126L246.82812 346.6844Q246.82812 347.4969 246.89062 347.79376Q246.98438 348.2 247.29688 348.45Q247.625 348.6844 248.10938 348.6844Q248.57812 348.6844 248.98438 348.45Q249.40625 348.2 249.57812 347.77814Q249.76562 347.35626 249.76562 346.5594L249.76562 343.23126L250.8125 343.23126L250.8125 349.45L249.875 349.45ZM255.09375 348.5125L255.25 349.4344Q254.79688 349.52814 254.45312 349.52814Q253.875 349.52814 253.5625 349.35626Q253.25 349.16876 253.10938 348.8719Q252.98438 348.575 252.98438 347.6219L252.98438 344.04376L252.21875 344.04376L252.21875 343.23126L252.98438 343.23126L252.98438 341.6844L254.03125 341.0594L254.03125 343.23126L255.09375 343.23126L255.09375 344.04376L254.03125 344.04376L254.03125 347.6844Q254.03125 348.1375 254.07812 348.2625Q254.14062 348.3875 254.26562 348.46564Q254.39062 348.54376 254.625 348.54376Q254.8125 348.54376 255.09375 348.5125ZM259.875 349.45L259.875 348.52814Q259.14062 349.59064 257.89062 349.59064Q257.34375 349.59064 256.85938 349.3875Q256.39062 349.16876 256.15625 348.85626Q255.92188 348.52814 255.82812 348.0594Q255.76562 347.7625 255.76562 347.075L255.76562 343.23126L256.82812 343.23126L256.82812 346.6844Q256.82812 347.4969 256.89062 347.79376Q256.98438 348.2 257.29688 348.45Q257.625 348.6844 258.10938 348.6844Q258.57812 348.6844 258.98438 348.45Q259.40625 348.2 259.57812 347.77814Q259.76562 347.35626 259.76562 346.5594L259.76562 343.23126L260.8125 343.23126L260.8125 349.45L259.875 349.45ZM262.34375 347.0125L263.375 346.8719Q263.40625 347.85626 263.73438 348.21564Q264.0625 348.575 264.65625 348.575Q265.07812 348.575 265.39062 348.3875Q265.70312 348.1844 265.8125 347.85626Q265.9375 347.5125 265.9375 346.77814L265.9375 340.85626L267.0625 340.85626L267.0625 346.71564Q267.0625 347.79376 266.79688 348.3875Q266.54688 348.98126 265.98438 349.29376Q265.42188 349.59064 264.65625 349.59064Q263.53125 349.59064 262.92188 348.95Q262.32812 348.29376 262.34375 347.0125ZM268.40625 346.34064Q268.40625 344.60626 269.35938 343.77814Q270.15625 343.09064 271.3125 343.09064Q272.59375 343.09064 273.40625 343.9344Q274.23438 344.7625 274.23438 346.2469Q274.23438 347.45 273.875 348.1375Q273.51562 348.825 272.8125 349.21564Q272.125 349.59064 271.3125 349.59064Q270.01562 349.59064 269.20312 348.7625Q268.40625 347.91876 268.40625 346.34064ZM269.48438 346.34064Q269.48438 347.52814 270.0 348.1219Q270.53125 348.71564 271.3125 348.71564Q272.10938 348.71564 272.625 348.1219Q273.14062 347.52814 273.14062 346.3094Q273.14062 345.15314 272.60938 344.5594Q272.09375 343.96564 271.3125 343.96564Q270.53125 343.96564 270.0 344.5594Q269.48438 345.1375 269.48438 346.34064ZM275.79688 349.45L275.79688 343.23126L276.73438 343.23126L276.73438 344.10626Q277.42188 343.09064 278.71875 343.09064Q279.28125 343.09064 279.75 343.29376Q280.23438 343.4969 280.46875 343.825Q280.70312 344.15314 280.79688 344.59064Q280.84375 344.8875 280.84375 345.6219L280.84375 349.45L279.79688 349.45L279.79688 345.66876Q279.79688 345.0125 279.67188 344.7Q279.54688 344.3875 279.23438 344.2Q278.92188 343.9969 278.5 343.9969Q277.82812 343.9969 277.32812 344.4344Q276.84375 344.85626 276.84375 346.04376L276.84375 349.45L275.79688 349.45ZM282.40625 346.34064Q282.40625 344.60626 283.35938 343.77814Q284.15625 343.09064 285.3125 343.09064Q286.59375 343.09064 287.40625 343.9344Q288.23438 344.7625 288.23438 346.2469Q288.23438 347.45 287.875 348.1375Q287.51562 348.825 286.8125 349.21564Q286.125 349.59064 285.3125 349.59064Q284.01562 349.59064 283.20312 348.7625Q282.40625 347.91876 282.40625 346.34064ZM283.48438 346.34064Q283.48438 347.52814 284.0 348.1219Q284.53125 348.71564 285.3125 348.71564Q286.10938 348.71564 286.625 348.1219Q287.14062 347.52814 287.14062 346.3094Q287.14062 345.15314 286.60938 344.5594Q286.09375 343.96564 285.3125 343.96564Q284.53125 343.96564 284.0 344.5594Q283.48438 345.1375 283.48438 346.34064Z" fill-rule="nonzero"/><path fill="#ea4335" d="M305.0 340.45C305.0 339.8977 305.44772 339.45 306.0 339.45L316.0 339.45C316.55228 339.45 317.0 339.8977 317.0 340.45L317.0 350.45C317.0 351.0023 316.55228 351.45 316.0 351.45L306.0 351.45C305.44772 351.45 305.0 351.0023 305.0 350.45Z" fill-rule="nonzero"/><path fill="#1a1a1a" d="M324.98438 349.45L328.28125 340.85626L329.5 340.85626L333.01562 349.45L331.73438 349.45L330.71875 346.84064L327.14062 346.84064L326.1875 349.45L324.98438 349.45ZM327.46875 345.91876L330.375 345.91876L329.48438 343.54376Q329.0625 342.46564 328.875 341.7625Q328.70312 342.59064 328.40625 343.40314L327.46875 345.91876ZM333.78125 349.45L333.78125 343.23126L334.73438 343.23126L334.73438 344.16876Q335.09375 343.5125 335.39062 343.3094Q335.70312 343.09064 336.07812 343.09064Q336.60938 343.09064 337.15625 343.41876L336.79688 344.40314Q336.40625 344.16876 336.03125 344.16876Q335.67188 344.16876 335.39062 344.3875Q335.125 344.59064 335.01562 344.96564Q334.82812 345.52814 334.82812 346.1844L334.82812 349.45L333.78125 349.45ZM337.78125 349.45L337.78125 343.23126L338.73438 343.23126L338.73438 344.16876Q339.09375 343.5125 339.39062 343.3094Q339.70312 343.09064 340.07812 343.09064Q340.60938 343.09064 341.15625 343.41876L340.79688 344.40314Q340.40625 344.16876 340.03125 344.16876Q339.67188 344.16876 339.39062 344.3875Q339.125 344.59064 339.01562 344.96564Q338.82812 345.52814 338.82812 346.1844L338.82812 349.45L337.78125 349.45ZM345.85938 348.6844Q345.26562 349.1844 344.71875 349.3875Q344.1875 349.59064 343.5625 349.59064Q342.53125 349.59064 341.98438 349.09064Q341.4375 348.59064 341.4375 347.8094Q341.4375 347.35626 341.64062 346.98126Q341.84375 346.59064 342.1875 346.3719Q342.53125 346.1375 342.95312 346.02814Q343.25 345.9344 343.89062 345.85626Q345.15625 345.71564 345.76562 345.4969Q345.76562 345.27814 345.76562 345.23126Q345.76562 344.575 345.46875 344.3094Q345.0625 343.96564 344.26562 343.96564Q343.53125 343.96564 343.17188 344.23126Q342.8125 344.48126 342.64062 345.1375L341.60938 344.9969Q341.75 344.34064 342.07812 343.9344Q342.40625 343.52814 343.01562 343.3094Q343.625 343.09064 344.42188 343.09064Q345.21875 343.09064 345.71875 343.27814Q346.21875 343.46564 346.45312 343.7469Q346.6875 344.02814 346.78125 344.46564Q346.82812 344.73126 346.82812 345.4344L346.82812 346.84064Q346.82812 348.3094 346.89062 348.7Q346.96875 349.09064 347.17188 349.45L346.0625 349.45Q345.90625 349.1219 345.85938 348.6844ZM345.76562 346.325Q345.1875 346.5594 344.04688 346.73126Q343.39062 346.825 343.125 346.95Q342.85938 347.0594 342.70312 347.27814Q342.5625 347.4969 342.5625 347.77814Q342.5625 348.2 342.875 348.48126Q343.20312 348.7625 343.8125 348.7625Q344.42188 348.7625 344.89062 348.4969Q345.375 348.23126 345.59375 347.7625Q345.76562 347.40314 345.76562 346.71564L345.76562 346.325ZM348.75 351.84064L348.625 350.85626Q348.96875 350.95 349.23438 350.95Q349.57812 350.95 349.78125 350.825Q350.0 350.71564 350.14062 350.5125Q350.23438 350.34064 350.46875 349.71564Q350.48438 349.6375 350.5625 349.46564L348.1875 343.23126L349.32812 343.23126L350.625 346.825Q350.875 347.5125 351.07812 348.27814Q351.26562 347.54376 351.51562 346.85626L352.84375 343.23126L353.89062 343.23126L351.53125 349.5594Q351.14062 350.575 350.9375 350.96564Q350.65625 351.4969 350.28125 351.73126Q349.92188 351.98126 349.42188 351.98126Q349.125 351.98126 348.75 351.84064ZM354.92188 349.45L354.92188 340.85626L357.89062 340.85626Q358.89062 340.85626 359.42188 340.98126Q360.15625 341.15314 360.67188 341.59064Q361.35938 342.16876 361.6875 343.075Q362.03125 343.96564 362.03125 345.10626Q362.03125 346.09064 361.79688 346.84064Q361.57812 347.59064 361.21875 348.09064Q360.85938 348.59064 360.42188 348.8719Q360.0 349.15314 359.40625 349.3094Q358.8125 349.45 358.03125 349.45L354.92188 349.45ZM356.0625 348.4344L357.89062 348.4344Q358.75 348.4344 359.23438 348.27814Q359.71875 348.1219 360.0 347.825Q360.40625 347.4344 360.625 346.7469Q360.85938 346.0594 360.85938 345.09064Q360.85938 343.7469 360.40625 343.02814Q359.96875 342.29376 359.34375 342.04376Q358.875 341.8719 357.875 341.8719L356.0625 341.8719L356.0625 348.4344ZM368.04688 347.45L369.14062 347.575Q368.89062 348.52814 368.1875 349.0594Q367.48438 349.59064 366.40625 349.59064Q365.04688 349.59064 364.23438 348.7469Q363.4375 347.90314 363.4375 346.3875Q363.4375 344.825 364.25 343.96564Q365.0625 343.09064 366.34375 343.09064Q367.59375 343.09064 368.375 343.9344Q369.17188 344.77814 369.17188 346.325Q369.17188 346.41876 369.17188 346.60626L364.53125 346.60626Q364.59375 347.6375 365.10938 348.1844Q365.625 348.71564 366.40625 348.71564Q366.98438 348.71564 367.39062 348.41876Q367.8125 348.10626 368.04688 347.45ZM364.59375 345.7469L368.0625 345.7469Q368.0 344.95 367.67188 344.5594Q367.15625 343.95 366.35938 343.95Q365.625 343.95 365.125 344.4344Q364.64062 344.91876 364.59375 345.7469ZM374.76562 351.84064L374.76562 348.79376Q374.51562 349.1375 374.0625 349.3719Q373.625 349.59064 373.125 349.59064Q372.01562 349.59064 371.21875 348.71564Q370.42188 347.825 370.42188 346.27814Q370.42188 345.34064 370.75 344.60626Q371.07812 343.85626 371.6875 343.48126Q372.3125 343.09064 373.04688 343.09064Q374.20312 343.09064 374.85938 344.0594L374.85938 343.23126L375.8125 343.23126L375.8125 351.84064L374.76562 351.84064ZM371.5 346.325Q371.5 347.52814 372.0 348.1219Q372.51562 348.71564 373.21875 348.71564Q373.89062 348.71564 374.375 348.15314Q374.85938 347.575 374.85938 346.41876Q374.85938 345.16876 374.34375 344.54376Q373.84375 343.91876 373.14062 343.91876Q372.46875 343.91876 371.98438 344.5125Q371.5 345.09064 371.5 346.325ZM381.875 349.45L381.875 348.52814Q381.14062 349.59064 379.89062 349.59064Q379.34375 349.59064 378.85938 349.3875Q378.39062 349.16876 378.15625 348.85626Q377.92188 348.52814 377.82812 348.0594Q377.76562 347.7625 377.76562 347.075L377.76562 343.23126L378.82812 343.23126L378.82812 346.6844Q378.82812 347.4969 378.89062 347.79376Q378.98438 348.2 379.29688 348.45Q379.625 348.6844 380.10938 348.6844Q380.57812 348.6844 380.98438 348.45Q381.40625 348.2 381.57812 347.77814Q381.76562 347.35626 381.76562 346.5594L381.76562 343.23126L382.8125 343.23126L382.8125 349.45L381.875 349.45ZM389.04688 347.45L390.14062 347.575Q389.89062 348.52814 389.1875 349.0594Q388.48438 349.59064 387.40625 349.59064Q386.04688 349.59064 385.23438 348.7469Q384.4375 347.90314 384.4375 346.3875Q384.4375 344.825 385.25 343.96564Q386.0625 343.09064 387.34375 343.09064Q388.59375 343.09064 389.375 343.9344Q390.17188 344.77814 390.17188 346.325Q390.17188 346.41876 390.17188 346.60626L385.53125 346.60626Q385.59375 347.6375 386.10938 348.1844Q386.625 348.71564 387.40625 348.71564Q387.98438 348.71564 388.39062 348.41876Q388.8125 348.10626 389.04688 347.45ZM385.59375 345.7469L389.0625 345.7469Q389.0 344.95 388.67188 344.5594Q388.15625 343.95 387.35938 343.95Q386.625 343.95 386.125 344.4344Q385.64062 344.91876 385.59375 345.7469Z" fill-rule="nonzero"/><path fill="#757575" d="M62.578125 37.55L62.578125 23.2375L68.921875 23.2375Q70.828125 23.2375 71.828125 23.628124Q72.828125 24.003124 73.421875 24.9875Q74.015625 25.95625 74.015625 27.14375Q74.015625 28.659374 73.03125 29.70625Q72.046875 30.753124 69.984375 31.034374Q70.734375 31.39375 71.125 31.753124Q71.953125 32.503124 72.703125 33.659374L75.1875 37.55L72.8125 37.55L70.90625 34.565624Q70.078125 33.284374 69.546875 32.596874Q69.015625 31.909374 68.578125 31.64375Q68.15625 31.3625 67.71875 31.253124Q67.390625 31.190624 66.671875 31.190624L64.46875 31.190624L64.46875 37.55L62.578125 37.55ZM64.46875 29.55L68.546875 29.55Q69.84375 29.55 70.5625 29.284374Q71.296875 29.01875 71.671875 28.425Q72.0625 27.83125 72.0625 27.14375Q72.0625 26.128124 71.328125 25.471874Q70.59375 24.815624 69.0 24.815624L64.46875 24.815624L64.46875 29.55ZM83.109375 37.55L83.109375 36.01875Q81.90625 37.784374 79.828125 37.784374Q78.90625 37.784374 78.109375 37.440624Q77.3125 37.08125 76.921875 36.55Q76.546875 36.01875 76.390625 35.2375Q76.28125 34.721874 76.28125 33.596874L76.28125 27.175L78.03125 27.175L78.03125 32.925Q78.03125 34.3 78.140625 34.784374Q78.3125 35.471874 78.84375 35.878124Q79.390625 36.26875 80.171875 36.26875Q80.96875 36.26875 81.65625 35.8625Q82.359375 35.45625 82.640625 34.76875Q82.9375 34.065624 82.9375 32.7375L82.9375 27.175L84.6875 27.175L84.6875 37.55L83.109375 37.55ZM94.109375 37.55L94.109375 36.01875Q92.90625 37.784374 90.828125 37.784374Q89.90625 37.784374 89.109375 37.440624Q88.3125 37.08125 87.921875 36.55Q87.546875 36.01875 87.390625 35.2375Q87.28125 34.721874 87.28125 33.596874L87.28125 27.175L89.03125 27.175L89.03125 32.925Q89.03125 34.3 89.140625 34.784374Q89.3125 35.471874 89.84375 35.878124Q90.390625 36.26875 91.171875 36.26875Q91.96875 36.26875 92.65625 35.8625Q93.359375 35.45625 93.640625 34.76875Q93.9375 34.065624 93.9375 32.7375L93.9375 27.175L95.6875 27.175L95.6875 37.55L94.109375 37.55ZM102.15625 35.971874L102.40625 37.534374Q101.671875 37.690624 101.078125 37.690624Q100.125 37.690624 99.59375 37.39375Q99.078125 37.08125 98.859375 36.596874Q98.640625 36.096874 98.640625 34.51875L98.640625 28.55L97.359375 28.55L97.359375 27.175L98.640625 27.175L98.640625 24.6125L100.390625 23.55L100.390625 27.175L102.15625 27.175L102.15625 28.55L100.390625 28.55L100.390625 34.6125Q100.390625 35.3625 100.484375 35.58125Q100.578125 35.784374 100.78125 35.925Q101.0 36.05 101.390625 36.05Q101.671875 36.05 102.15625 35.971874ZM111.109375 37.55L111.109375 36.01875Q109.90625 37.784374 107.828125 37.784374Q106.90625 37.784374 106.109375 37.440624Q105.3125 37.08125 104.921875 36.55Q104.546875 36.01875 104.390625 35.2375Q104.28125 34.721874 104.28125 33.596874L104.28125 27.175L106.03125 27.175L106.03125 32.925Q106.03125 34.3 106.140625 34.784374Q106.3125 35.471874 106.84375 35.878124Q107.390625 36.26875 108.171875 36.26875Q108.96875 36.26875 109.65625 35.8625Q110.359375 35.45625 110.640625 34.76875Q110.9375 34.065624 110.9375 32.7375L110.9375 27.175L112.6875 27.175L112.6875 37.55L111.109375 37.55ZM114.578125 33.4875L116.28125 33.253124Q116.359375 34.89375 116.90625 35.503124Q117.453125 36.096874 118.421875 36.096874Q119.125 36.096874 119.640625 35.784374Q120.15625 35.45625 120.34375 34.89375Q120.546875 34.33125 120.546875 33.096874L120.546875 23.2375L122.453125 23.2375L122.453125 32.9875Q122.453125 34.784374 122.015625 35.76875Q121.578125 36.753124 120.625 37.284374Q119.6875 37.8 118.421875 37.8Q116.546875 37.8 115.53125 36.721874Q114.53125 35.628124 114.578125 33.4875ZM124.671875 32.3625Q124.671875 29.4875 126.265625 28.096874Q127.609375 26.940624 129.53125 26.940624Q131.67188 26.940624 133.01562 28.346874Q134.375 29.753124 134.375 32.221874Q134.375 34.221874 133.78125 35.378124Q133.1875 36.51875 132.03125 37.159374Q130.89062 37.784374 129.53125 37.784374Q127.34375 37.784374 126.0 36.39375Q124.671875 34.9875 124.671875 32.3625ZM126.46875 32.3625Q126.46875 34.3625 127.328125 35.346874Q128.20312 36.33125 129.53125 36.33125Q130.84375 36.33125 131.70312 35.346874Q132.57812 34.346874 132.57812 32.3Q132.57812 30.378124 131.70312 29.39375Q130.82812 28.39375 129.53125 28.39375Q128.20312 28.39375 127.328125 29.39375Q126.46875 30.378124 126.46875 32.3625ZM136.3125 37.55L136.3125 27.175L137.90625 27.175L137.90625 28.659374Q139.04688 26.940624 141.20312 26.940624Q142.14062 26.940624 142.92188 27.284374Q143.71875 27.6125 144.10938 28.159374Q144.5 28.70625 144.65625 29.45625Q144.75 29.95625 144.75 31.175L144.75 37.55L142.98438 37.55L142.98438 31.2375Q142.98438 30.159374 142.78125 29.628124Q142.57812 29.096874 142.04688 28.784374Q141.53125 28.471874 140.82812 28.471874Q139.70312 28.471874 138.89062 29.190624Q138.07812 29.89375 138.07812 31.878124L138.07812 37.55L136.3125 37.55ZM146.67188 32.3625Q146.67188 29.4875 148.26562 28.096874Q149.60938 26.940624 151.53125 26.940624Q153.67188 26.940624 155.01562 28.346874Q156.375 29.753124 156.375 32.221874Q156.375 34.221874 155.78125 35.378124Q155.1875 36.51875 154.03125 37.159374Q152.89062 37.784374 151.53125 37.784374Q149.34375 37.784374 148.0 36.39375Q146.67188 34.9875 146.67188 32.3625ZM148.46875 32.3625Q148.46875 34.3625 149.32812 35.346874Q150.20312 36.33125 151.53125 36.33125Q152.84375 36.33125 153.70312 35.346874Q154.57812 34.346874 154.57812 32.3Q154.57812 30.378124 153.70312 29.39375Q152.82812 28.39375 151.53125 28.39375Q150.20312 28.39375 149.32812 29.39375Q148.46875 30.378124 148.46875 32.3625ZM158.3125 37.55L158.3125 27.175L159.90625 27.175L159.90625 28.659374Q161.04688 26.940624 163.20312 26.940624Q164.14062 26.940624 164.92188 27.284374Q165.71875 27.6125 166.10938 28.159374Q166.5 28.70625 166.65625 29.45625Q166.75 29.95625 166.75 31.175L166.75 37.55L164.98438 37.55L164.98438 31.2375Q164.98438 30.159374 164.78125 29.628124Q164.57812 29.096874 164.04688 28.784374Q163.53125 28.471874 162.82812 28.471874Q161.70312 28.471874 160.89062 29.190624Q160.07812 29.89375 160.07812 31.878124L160.07812 37.55L158.3125 37.55ZM175.3125 25.26875L175.3125 23.2375L177.0625 23.2375L177.0625 25.26875L175.3125 25.26875ZM173.07812 41.58125L173.40625 40.08125Q173.9375 40.221874 174.25 40.221874Q174.78125 40.221874 175.04688 39.8625Q175.3125 39.503124 175.3125 38.08125L175.3125 27.175L177.0625 27.175L177.0625 38.1125Q177.0625 40.034374 176.5625 40.784374Q175.9375 41.753124 174.45312 41.753124Q173.75 41.753124 173.07812 41.58125ZM186.09375 36.26875Q185.10938 37.096874 184.20312 37.440624Q183.29688 37.784374 182.26562 37.784374Q180.5625 37.784374 179.64062 36.95625Q178.71875 36.1125 178.71875 34.815624Q178.71875 34.05 179.0625 33.425Q179.42188 32.8 179.98438 32.425Q180.54688 32.034374 181.25 31.83125Q181.76562 31.70625 182.8125 31.565624Q184.9375 31.315624 185.9375 30.971874Q185.95312 30.6125 185.95312 30.503124Q185.95312 29.440624 185.45312 28.9875Q184.78125 28.39375 183.45312 28.39375Q182.20312 28.39375 181.60938 28.83125Q181.03125 29.26875 180.75 30.378124L179.03125 30.14375Q179.26562 29.034374 179.79688 28.3625Q180.32812 27.675 181.34375 27.315624Q182.35938 26.940624 183.70312 26.940624Q185.03125 26.940624 185.85938 27.253124Q186.6875 27.565624 187.07812 28.05Q187.46875 28.51875 187.625 29.2375Q187.71875 29.690624 187.71875 30.8625L187.71875 33.20625Q187.71875 35.659374 187.82812 36.315624Q187.9375 36.95625 188.28125 37.55L186.4375 37.55Q186.17188 37.003124 186.09375 36.26875ZM185.9375 32.346874Q184.98438 32.7375 183.0625 33.003124Q181.98438 33.159374 181.53125 33.3625Q181.09375 33.55 180.84375 33.925Q180.59375 34.3 180.59375 34.76875Q180.59375 35.471874 181.125 35.940624Q181.65625 36.409374 182.6875 36.409374Q183.70312 36.409374 184.48438 35.971874Q185.28125 35.51875 185.65625 34.753124Q185.9375 34.14375 185.9375 32.9875L185.9375 32.346874ZM194.96875 37.55L200.46875 23.2375L202.51562 23.2375L208.375 37.55L206.21875 37.55L204.54688 33.20625L198.5625 33.20625L196.98438 37.55L194.96875 37.55ZM199.10938 31.675L203.95312 31.675L202.46875 27.70625Q201.78125 25.89375 201.45312 24.7375Q201.17188 26.1125 200.67188 27.471874L199.10938 31.675ZM209.29688 37.55L209.29688 27.175L210.875 27.175L210.875 28.753124Q211.48438 27.64375 212.0 27.3Q212.51562 26.940624 213.125 26.940624Q214.01562 26.940624 214.9375 27.503124L214.32812 29.14375Q213.6875 28.753124 213.04688 28.753124Q212.46875 28.753124 212.0 29.1125Q211.54688 29.45625 211.34375 30.065624Q211.0625 31.003124 211.0625 32.1125L211.0625 37.55L209.29688 37.55ZM216.29688 37.55L216.29688 27.175L217.875 27.175L217.875 28.753124Q218.48438 27.64375 219.0 27.3Q219.51562 26.940624 220.125 26.940624Q221.01562 26.940624 221.9375 27.503124L221.32812 29.14375Q220.6875 28.753124 220.04688 28.753124Q219.46875 28.753124 219.0 29.1125Q218.54688 29.45625 218.34375 30.065624Q218.0625 31.003124 218.0625 32.1125L218.0625 37.55L216.29688 37.55ZM230.09375 36.26875Q229.10938 37.096874 228.20312 37.440624Q227.29688 37.784374 226.26562 37.784374Q224.5625 37.784374 223.64062 36.95625Q222.71875 36.1125 222.71875 34.815624Q222.71875 34.05 223.0625 33.425Q223.42188 32.8 223.98438 32.425Q224.54688 32.034374 225.25 31.83125Q225.76562 31.70625 226.8125 31.565624Q228.9375 31.315624 229.9375 30.971874Q229.95312 30.6125 229.95312 30.503124Q229.95312 29.440624 229.45312 28.9875Q228.78125 28.39375 227.45312 28.39375Q226.20312 28.39375 225.60938 28.83125Q225.03125 29.26875 224.75 30.378124L223.03125 30.14375Q223.26562 29.034374 223.79688 28.3625Q224.32812 27.675 225.34375 27.315624Q226.35938 26.940624 227.70312 26.940624Q229.03125 26.940624 229.85938 27.253124Q230.6875 27.565624 231.07812 28.05Q231.46875 28.51875 231.625 29.2375Q231.71875 29.690624 231.71875 30.8625L231.71875 33.20625Q231.71875 35.659374 231.82812 36.315624Q231.9375 36.95625 232.28125 37.55L230.4375 37.55Q230.17188 37.003124 230.09375 36.26875ZM229.9375 32.346874Q228.98438 32.7375 227.0625 33.003124Q225.98438 33.159374 225.53125 33.3625Q225.09375 33.55 224.84375 33.925Q224.59375 34.3 224.59375 34.76875Q224.59375 35.471874 225.125 35.940624Q225.65625 36.409374 226.6875 36.409374Q227.70312 36.409374 228.48438 35.971874Q229.28125 35.51875 229.65625 34.753124Q229.9375 34.14375 229.9375 32.9875L229.9375 32.346874ZM234.23438 41.55L234.04688 39.89375Q234.625 40.05 235.04688 40.05Q235.64062 40.05 235.98438 39.846874Q236.34375 39.659374 236.5625 39.315624Q236.73438 39.05 237.10938 38.003124Q237.15625 37.846874 237.26562 37.565624L233.32812 27.175L235.21875 27.175L237.375 33.190624Q237.79688 34.33125 238.125 35.58125Q238.4375 34.378124 238.84375 33.221874L241.0625 27.175L242.82812 27.175L238.875 37.721874Q238.25 39.440624 237.89062 40.08125Q237.42188 40.95625 236.8125 41.346874Q236.21875 41.753124 235.375 41.753124Q234.85938 41.753124 234.23438 41.55ZM244.54688 37.55L244.54688 23.2375L249.46875 23.2375Q251.14062 23.2375 252.03125 23.440624Q253.25 23.721874 254.125 24.45625Q255.25 25.425 255.8125 26.909374Q256.375 28.39375 256.375 30.315624Q256.375 31.940624 256.0 33.20625Q255.625 34.45625 255.01562 35.284374Q254.42188 36.1125 253.71875 36.596874Q253.01562 37.065624 252.01562 37.315624Q251.01562 37.55 249.70312 37.55L244.54688 37.55ZM246.4375 35.8625L249.5 35.8625Q250.90625 35.8625 251.70312 35.596874Q252.51562 35.33125 253.0 34.846874Q253.67188 34.175 254.04688 33.05Q254.42188 31.909374 254.42188 30.284374Q254.42188 28.034374 253.6875 26.83125Q252.95312 25.628124 251.89062 25.221874Q251.14062 24.925 249.45312 24.925L246.4375 24.925L246.4375 35.8625ZM265.42188 34.20625L267.23438 34.440624Q266.8125 36.01875 265.64062 36.909374Q264.48438 37.784374 262.67188 37.784374Q260.40625 37.784374 259.0625 36.39375Q257.73438 34.9875 257.73438 32.45625Q257.73438 29.83125 259.07812 28.39375Q260.42188 26.940624 262.57812 26.940624Q264.65625 26.940624 265.96875 28.3625Q267.29688 29.76875 267.29688 32.346874Q267.29688 32.503124 267.28125 32.815624L259.54688 32.815624Q259.64062 34.51875 260.51562 35.425Q261.39062 36.33125 262.6875 36.33125Q263.65625 36.33125 264.32812 35.83125Q265.01562 35.315624 265.42188 34.20625ZM259.64062 31.3625L265.4375 31.3625Q265.32812 30.065624 264.78125 29.409374Q263.9375 28.39375 262.59375 28.39375Q261.39062 28.39375 260.5625 29.20625Q259.73438 30.003124 259.64062 31.3625ZM275.9375 41.51875L275.9375 36.440624Q275.51562 37.01875 274.78125 37.409374Q274.04688 37.784374 273.21875 37.784374Q271.375 37.784374 270.03125 36.315624Q268.70312 34.83125 268.70312 32.26875Q268.70312 30.70625 269.23438 29.471874Q269.78125 28.221874 270.8125 27.58125Q271.84375 26.940624 273.07812 26.940624Q275.0 26.940624 276.10938 28.565624L276.10938 27.175L277.6875 27.175L277.6875 41.51875L275.9375 41.51875ZM270.51562 32.33125Q270.51562 34.33125 271.34375 35.33125Q272.1875 36.33125 273.35938 36.33125Q274.48438 36.33125 275.29688 35.39375Q276.10938 34.440624 276.10938 32.4875Q276.10938 30.425 275.25 29.378124Q274.39062 28.33125 273.25 28.33125Q272.10938 28.33125 271.3125 29.3Q270.51562 30.26875 270.51562 32.33125ZM287.10938 37.55L287.10938 36.01875Q285.90625 37.784374 283.82812 37.784374Q282.90625 37.784374 282.10938 37.440624Q281.3125 37.08125 280.92188 36.55Q280.54688 36.01875 280.39062 35.2375Q280.28125 34.721874 280.28125 33.596874L280.28125 27.175L282.03125 27.175L282.03125 32.925Q282.03125 34.3 282.14062 34.784374Q282.3125 35.471874 282.84375 35.878124Q283.39062 36.26875 284.17188 36.26875Q284.96875 36.26875 285.65625 35.8625Q286.35938 35.45625 286.64062 34.76875Q286.9375 34.065624 286.9375 32.7375L286.9375 27.175L288.6875 27.175L288.6875 37.55L287.10938 37.55ZM298.42188 34.20625L300.23438 34.440624Q299.8125 36.01875 298.64062 36.909374Q297.48438 37.784374 295.67188 37.784374Q293.40625 37.784374 292.0625 36.39375Q290.73438 34.9875 290.73438 32.45625Q290.73438 29.83125 292.07812 28.39375Q293.42188 26.940624 295.57812 26.940624Q297.65625 26.940624 298.96875 28.3625Q300.29688 29.76875 300.29688 32.346874Q300.29688 32.503124 300.28125 32.815624L292.54688 32.815624Q292.64062 34.51875 293.51562 35.425Q294.39062 36.33125 295.6875 36.33125Q296.65625 36.33125 297.32812 35.83125Q298.01562 35.315624 298.42188 34.20625ZM292.64062 31.3625L298.4375 31.3625Q298.32812 30.065624 297.78125 29.409374Q296.9375 28.39375 295.59375 28.39375Q294.39062 28.39375 293.5625 29.20625Q292.73438 30.003124 292.64062 31.3625ZM302.3125 37.55L302.3125 27.175L303.90625 27.175L303.90625 28.659374Q305.04688 26.940624 307.20312 26.940624Q308.14062 26.940624 308.92188 27.284374Q309.71875 27.6125 310.10938 28.159374Q310.5 28.70625 310.65625 29.45625Q310.75 29.95625 310.75 31.175L310.75 37.55L308.98438 37.55L308.98438 31.2375Q308.98438 30.159374 308.78125 29.628124Q308.57812 29.096874 308.04688 28.784374Q307.53125 28.471874 306.82812 28.471874Q305.70312 28.471874 304.89062 29.190624Q304.07812 29.89375 304.07812 31.878124L304.07812 37.55L302.3125 37.55ZM318.60938 34.45625L320.35938 34.175Q320.5 35.221874 321.17188 35.784374Q321.84375 36.33125 323.04688 36.33125Q324.25 36.33125 324.82812 35.846874Q325.42188 35.346874 325.42188 34.690624Q325.42188 34.096874 324.90625 33.753124Q324.54688 33.51875 323.10938 33.159374Q321.17188 32.659374 320.42188 32.315624Q319.6875 31.95625 319.29688 31.33125Q318.90625 30.690624 318.90625 29.925Q318.90625 29.2375 319.21875 28.64375Q319.54688 28.05 320.09375 27.659374Q320.5 27.3625 321.20312 27.159374Q321.92188 26.940624 322.73438 26.940624Q323.95312 26.940624 324.875 27.3Q325.79688 27.64375 326.23438 28.253124Q326.67188 28.846874 326.84375 29.846874L325.125 30.08125Q325.0 29.284374 324.4375 28.846874Q323.875 28.39375 322.85938 28.39375Q321.64062 28.39375 321.125 28.8Q320.60938 29.190624 320.60938 29.721874Q320.60938 30.065624 320.82812 30.346874Q321.03125 30.628124 321.5 30.815624Q321.76562 30.909374 323.04688 31.253124Q324.92188 31.753124 325.65625 32.08125Q326.39062 32.39375 326.8125 33.003124Q327.23438 33.596874 327.23438 34.503124Q327.23438 35.378124 326.71875 36.159374Q326.20312 36.940624 325.23438 37.3625Q324.26562 37.784374 323.04688 37.784374Q321.03125 37.784374 319.96875 36.940624Q318.90625 36.096874 318.60938 34.45625ZM336.10938 37.55L336.10938 36.01875Q334.90625 37.784374 332.82812 37.784374Q331.90625 37.784374 331.10938 37.440624Q330.3125 37.08125 329.92188 36.55Q329.54688 36.01875 329.39062 35.2375Q329.28125 34.721874 329.28125 33.596874L329.28125 27.175L331.03125 27.175L331.03125 32.925Q331.03125 34.3 331.14062 34.784374Q331.3125 35.471874 331.84375 35.878124Q332.39062 36.26875 333.17188 36.26875Q333.96875 36.26875 334.65625 35.8625Q335.35938 35.45625 335.64062 34.76875Q335.9375 34.065624 335.9375 32.7375L335.9375 27.175L337.6875 27.175L337.6875 37.55L336.10938 37.55ZM340.3125 37.55L340.3125 23.2375L342.07812 23.2375L342.07812 28.3625Q343.3125 26.940624 345.1875 26.940624Q346.32812 26.940624 347.17188 27.39375Q348.03125 27.846874 348.39062 28.659374Q348.76562 29.45625 348.76562 30.971874L348.76562 37.55L347.01562 37.55L347.01562 30.971874Q347.01562 29.659374 346.4375 29.065624Q345.85938 28.45625 344.82812 28.45625Q344.04688 28.45625 343.34375 28.8625Q342.65625 29.26875 342.35938 29.971874Q342.07812 30.659374 342.07812 31.878124L342.07812 37.55L340.3125 37.55ZM355.15625 35.971874L355.40625 37.534374Q354.67188 37.690624 354.07812 37.690624Q353.125 37.690624 352.59375 37.39375Q352.07812 37.08125 351.85938 36.596874Q351.64062 36.096874 351.64062 34.51875L351.64062 28.55L350.35938 28.55L350.35938 27.175L351.64062 27.175L351.64062 24.6125L353.39062 23.55L353.39062 27.175L355.15625 27.175L355.15625 28.55L353.39062 28.55L353.39062 34.6125Q353.39062 35.3625 353.48438 35.58125Q353.57812 35.784374 353.78125 35.925Q354.0 36.05 354.39062 36.05Q354.67188 36.05 355.15625 35.971874ZM364.42188 34.20625L366.23438 34.440624Q365.8125 36.01875 364.64062 36.909374Q363.48438 37.784374 361.67188 37.784374Q359.40625 37.784374 358.0625 36.39375Q356.73438 34.9875 356.73438 32.45625Q356.73438 29.83125 358.07812 28.39375Q359.42188 26.940624 361.57812 26.940624Q363.65625 26.940624 364.96875 28.3625Q366.29688 29.76875 366.29688 32.346874Q366.29688 32.503124 366.28125 32.815624L358.54688 32.815624Q358.64062 34.51875 359.51562 35.425Q360.39062 36.33125 361.6875 36.33125Q362.65625 36.33125 363.32812 35.83125Q364.01562 35.315624 364.42188 34.20625ZM358.64062 31.3625L364.4375 31.3625Q364.32812 30.065624 363.78125 29.409374Q362.9375 28.39375 361.59375 28.39375Q360.39062 28.39375 359.5625 29.20625Q358.73438 30.003124 358.64062 31.3625ZM375.42188 34.20625L377.23438 34.440624Q376.8125 36.01875 375.64062 36.909374Q374.48438 37.784374 372.67188 37.784374Q370.40625 37.784374 369.0625 36.39375Q367.73438 34.9875 367.73438 32.45625Q367.73438 29.83125 369.07812 28.39375Q370.42188 26.940624 372.57812 26.940624Q374.65625 26.940624 375.96875 28.3625Q377.29688 29.76875 377.29688 32.346874Q377.29688 32.503124 377.28125 32.815624L369.54688 32.815624Q369.64062 34.51875 370.51562 35.425Q371.39062 36.33125 372.6875 36.33125Q373.65625 36.33125 374.32812 35.83125Q375.01562 35.315624 375.42188 34.20625ZM369.64062 31.3625L375.4375 31.3625Q375.32812 30.065624 374.78125 29.409374Q373.9375 28.39375 372.59375 28.39375Q371.39062 28.39375 370.5625 29.20625Q369.73438 30.003124 369.64062 31.3625ZM379.28125 37.55L379.28125 23.2375L381.03125 23.2375L381.03125 37.55L379.28125 37.55ZM383.28125 37.55L383.28125 23.2375L385.03125 23.2375L385.03125 37.55L383.28125 37.55ZM387.32812 25.253124L387.32812 23.2375L389.09375 23.2375L389.09375 25.253124L387.32812 25.253124ZM387.32812 37.55L387.32812 27.175L389.09375 27.175L389.09375 37.55L387.32812 37.55ZM391.3125 37.55L391.3125 27.175L392.90625 27.175L392.90625 28.659374Q394.04688 26.940624 396.20312 26.940624Q397.14062 26.940624 397.92188 27.284374Q398.71875 27.6125 399.10938 28.159374Q399.5 28.70625 399.65625 29.45625Q399.75 29.95625 399.75 31.175L399.75 37.55L397.98438 37.55L397.98438 31.2375Q397.98438 30.159374 397.78125 29.628124Q397.57812 29.096874 397.04688 28.784374Q396.53125 28.471874 395.82812 28.471874Q394.70312 28.471874 393.89062 29.190624Q393.07812 29.89375 393.07812 31.878124L393.07812 37.55L391.3125 37.55ZM409.42188 34.20625L411.23438 34.440624Q410.8125 36.01875 409.64062 36.909374Q408.48438 37.784374 406.67188 37.784374Q404.40625 37.784374 403.0625 36.39375Q401.73438 34.9875 401.73438 32.45625Q401.73438 29.83125 403.07812 28.39375Q404.42188 26.940624 406.57812 26.940624Q408.65625 26.940624 409.96875 28.3625Q411.29688 29.76875 411.29688 32.346874Q411.29688 32.503124 411.28125 32.815624L403.54688 32.815624Q403.64062 34.51875 404.51562 35.425Q405.39062 36.33125 406.6875 36.33125Q407.65625 36.33125 408.32812 35.83125Q409.01562 35.315624 409.42188 34.20625ZM403.64062 31.3625L409.4375 31.3625Q409.32812 30.065624 408.78125 29.409374Q407.9375 28.39375 406.59375 28.39375Q405.39062 28.39375 404.5625 29.20625Q403.73438 30.003124 403.64062 31.3625ZM413.3125 37.55L413.3125 27.175L414.90625 27.175L414.90625 28.659374Q416.04688 26.940624 418.20312 26.940624Q419.14062 26.940624 419.92188 27.284374Q420.71875 27.6125 421.10938 28.159374Q421.5 28.70625 421.65625 29.45625Q421.75 29.95625 421.75 31.175L421.75 37.55L419.98438 37.55L419.98438 31.2375Q419.98438 30.159374 419.78125 29.628124Q419.57812 29.096874 419.04688 28.784374Q418.53125 28.471874 417.82812 28.471874Q416.70312 28.471874 415.89062 29.190624Q415.07812 29.89375 415.07812 31.878124L415.07812 37.55L413.3125 37.55ZM429.60938 34.45625L431.35938 34.175Q431.5 35.221874 432.17188 35.784374Q432.84375 36.33125 434.04688 36.33125Q435.25 36.33125 435.82812 35.846874Q436.42188 35.346874 436.42188 34.690624Q436.42188 34.096874 435.90625 33.753124Q435.54688 33.51875 434.10938 33.159374Q432.17188 32.659374 431.42188 32.315624Q430.6875 31.95625 430.29688 31.33125Q429.90625 30.690624 429.90625 29.925Q429.90625 29.2375 430.21875 28.64375Q430.54688 28.05 431.09375 27.659374Q431.5 27.3625 432.20312 27.159374Q432.92188 26.940624 433.73438 26.940624Q434.95312 26.940624 435.875 27.3Q436.79688 27.64375 437.23438 28.253124Q437.67188 28.846874 437.84375 29.846874L436.125 30.08125Q436.0 29.284374 435.4375 28.846874Q434.875 28.39375 433.85938 28.39375Q432.64062 28.39375 432.125 28.8Q431.60938 29.190624 431.60938 29.721874Q431.60938 30.065624 431.82812 30.346874Q432.03125 30.628124 432.5 30.815624Q432.76562 30.909374 434.04688 31.253124Q435.92188 31.753124 436.65625 32.08125Q437.39062 32.39375 437.8125 33.003124Q438.23438 33.596874 438.23438 34.503124Q438.23438 35.378124 437.71875 36.159374Q437.20312 36.940624 436.23438 37.3625Q435.26562 37.784374 434.04688 37.784374Q432.03125 37.784374 430.96875 36.940624Q429.90625 36.096874 429.60938 34.45625ZM447.10938 37.55L447.10938 36.01875Q445.90625 37.784374 443.82812 37.784374Q442.90625 37.784374 442.10938 37.440624Q441.3125 37.08125 440.92188 36.55Q440.54688 36.01875 440.39062 35.2375Q440.28125 34.721874 440.28125 33.596874L440.28125 27.175L442.03125 27.175L442.03125 32.925Q442.03125 34.3 442.14062 34.784374Q442.3125 35.471874 442.84375 35.878124Q443.39062 36.26875 444.17188 36.26875Q444.96875 36.26875 445.65625 35.8625Q446.35938 35.45625 446.64062 34.76875Q446.9375 34.065624 446.9375 32.7375L446.9375 27.175L448.6875 27.175L448.6875 37.55L447.10938 37.55ZM450.67188 32.3625Q450.67188 29.4875 452.26562 28.096874Q453.60938 26.940624 455.53125 26.940624Q457.67188 26.940624 459.01562 28.346874Q460.375 29.753124 460.375 32.221874Q460.375 34.221874 459.78125 35.378124Q459.1875 36.51875 458.03125 37.159374Q456.89062 37.784374 455.53125 37.784374Q453.34375 37.784374 452.0 36.39375Q450.67188 34.9875 450.67188 32.3625ZM452.46875 32.3625Q452.46875 34.3625 453.32812 35.346874Q454.20312 36.33125 455.53125 36.33125Q456.84375 36.33125 457.70312 35.346874Q458.57812 34.346874 458.57812 32.3Q458.57812 30.378124 457.70312 29.39375Q456.82812 28.39375 455.53125 28.39375Q454.20312 28.39375 453.32812 29.39375Q452.46875 30.378124 452.46875 32.3625ZM462.29688 37.55L462.29688 27.175L463.875 27.175L463.875 28.753124Q464.48438 27.64375 465.0 27.3Q465.51562 26.940624 466.125 26.940624Q467.01562 26.940624 467.9375 27.503124L467.32812 29.14375Q466.6875 28.753124 466.04688 28.753124Q465.46875 28.753124 465.0 29.1125Q464.54688 29.45625 464.34375 30.065624Q464.0625 31.003124 464.0625 32.1125L464.0625 37.55L462.29688 37.55ZM469.32812 25.253124L469.32812 23.2375L471.09375 23.2375L471.09375 25.253124L469.32812 25.253124ZM469.32812 37.55L469.32812 27.175L471.09375 27.175L471.09375 37.55L469.32812 37.55ZM477.15625 35.971874L477.40625 37.534374Q476.67188 37.690624 476.07812 37.690624Q475.125 37.690624 474.59375 37.39375Q474.07812 37.08125 473.85938 36.596874Q473.64062 36.096874 473.64062 34.51875L473.64062 28.55L472.35938 28.55L472.35938 27.175L473.64062 27.175L473.64062 24.6125L475.39062 23.55L475.39062 27.175L477.15625 27.175L477.15625 28.55L475.39062 28.55L475.39062 34.6125Q475.39062 35.3625 475.48438 35.58125Q475.57812 35.784374 475.78125 35.925Q476.0 36.05 476.39062 36.05Q476.67188 36.05 477.15625 35.971874ZM486.10938 37.55L486.10938 36.01875Q484.90625 37.784374 482.82812 37.784374Q481.90625 37.784374 481.10938 37.440624Q480.3125 37.08125 479.92188 36.55Q479.54688 36.01875 479.39062 35.2375Q479.28125 34.721874 479.28125 33.596874L479.28125 27.175L481.03125 27.175L481.03125 32.925Q481.03125 34.3 481.14062 34.784374Q481.3125 35.471874 481.84375 35.878124Q482.39062 36.26875 483.17188 36.26875Q483.96875 36.26875 484.65625 35.8625Q485.35938 35.45625 485.64062 34.76875Q485.9375 34.065624 485.9375 32.7375L485.9375 27.175L487.6875 27.175L487.6875 37.55L486.10938 37.55ZM489.60938 34.45625L491.35938 34.175Q491.5 35.221874 492.17188 35.784374Q492.84375 36.33125 494.04688 36.33125Q495.25 36.33125 495.82812 35.846874Q496.42188 35.346874 496.42188 34.690624Q496.42188 34.096874 495.90625 33.753124Q495.54688 33.51875 494.10938 33.159374Q492.17188 32.659374 491.42188 32.315624Q490.6875 31.95625 490.29688 31.33125Q489.90625 30.690624 489.90625 29.925Q489.90625 29.2375 490.21875 28.64375Q490.54688 28.05 491.09375 27.659374Q491.5 27.3625 492.20312 27.159374Q492.92188 26.940624 493.73438 26.940624Q494.95312 26.940624 495.875 27.3Q496.79688 27.64375 497.23438 28.253124Q497.67188 28.846874 497.84375 29.846874L496.125 30.08125Q496.0 29.284374 495.4375 28.846874Q494.875 28.39375 493.85938 28.39375Q492.64062 28.39375 492.125 28.8Q491.60938 29.190624 491.60938 29.721874Q491.60938 30.065624 491.82812 30.346874Q492.03125 30.628124 492.5 30.815624Q492.76562 30.909374 494.04688 31.253124Q495.92188 31.753124 496.65625 32.08125Q497.39062 32.39375 497.8125 33.003124Q498.23438 33.596874 498.23438 34.503124Q498.23438 35.378124 497.71875 36.159374Q497.20312 36.940624 496.23438 37.3625Q495.26562 37.784374 494.04688 37.784374Q492.03125 37.784374 490.96875 36.940624Q489.90625 36.096874 489.60938 34.45625ZM500.32812 37.55L500.32812 23.2375L502.09375 23.2375L502.09375 31.39375L506.25 27.175L508.51562 27.175L504.5625 31.01875L508.92188 37.55L506.75 37.55L503.32812 32.253124L502.09375 33.440624L502.09375 37.55L500.32812 37.55ZM510.23438 41.55L510.04688 39.89375Q510.625 40.05 511.04688 40.05Q511.64062 40.05 511.98438 39.846874Q512.34375 39.659374 512.5625 39.315624Q512.7344 39.05 513.1094 38.003124Q513.15625 37.846874 513.2656 37.565624L509.32812 27.175L511.21875 27.175L513.375 33.190624Q513.7969 34.33125 514.125 35.58125Q514.4375 34.378124 514.84375 33.221874L517.0625 27.175L518.8281 27.175L514.875 37.721874Q514.25 39.440624 513.8906 40.08125Q513.4219 40.95625 512.8125 41.346874Q512.21875 41.753124 511.375 41.753124Q510.85938 41.753124 510.23438 41.55ZM520.3281 37.55L520.3281 23.2375L522.09375 23.2375L522.09375 31.39375L526.25 27.175L528.5156 27.175L524.5625 31.01875L528.9219 37.55L526.75 37.55L523.3281 32.253124L522.09375 33.440624L522.09375 37.55L520.3281 37.55ZM530.2344 41.55L530.0469 39.89375Q530.625 40.05 531.0469 40.05Q531.6406 40.05 531.9844 39.846874Q532.34375 39.659374 532.5625 39.315624Q532.7344 39.05 533.1094 38.003124Q533.15625 37.846874 533.2656 37.565624L529.3281 27.175L531.21875 27.175L533.375 33.190624Q533.7969 34.33125 534.125 35.58125Q534.4375 34.378124 534.84375 33.221874L537.0625 27.175L538.8281 27.175L534.875 37.721874Q534.25 39.440624 533.8906 40.08125Q533.4219 40.95625 532.8125 41.346874Q532.21875 41.753124 531.375 41.753124Q530.8594 41.753124 530.2344 41.55Z" fill-rule="nonzero"/></svg>