<svg version="1.1" viewBox="0.0 0.0 600.0 371.0" fill="none" stroke="none" stroke-linecap="square" stroke-miterlimit="10" width="600" height="371" xmlns:xlink="http://www.w3.org/1999/xlink" xmlns="http://www.w3.org/2000/svg"><path fill="#ffffff" d="M0 0L600.0 0L600.0 371.0L0 371.0L0 0Z" fill-rule="nonzero"/><path stroke="#333333" stroke-width="1.0" stroke-linecap="butt" d="M45.5 306.5L581.5 306.5" fill-rule="nonzero"/><path stroke="#cccccc" stroke-width="1.0" stroke-linecap="butt" d="M45.5 245.5L581.5 245.5" fill-rule="nonzero"/><path stroke="#cccccc" stroke-width="1.0" stroke-linecap="butt" d="M45.5 184.5L581.5 184.5" fill-rule="nonzero"/><path stroke="#cccccc" stroke-width="1.0" stroke-linecap="butt" d="M45.5 122.5L581.5 122.5" fill-rule="nonzero"/><path stroke="#cccccc" stroke-width="1.0" stroke-linecap="butt" d="M45.5 61.5L581.5 61.5" fill-rule="nonzero"/><clipPath id="id_0"><path d="M45.55 61.916668L581.45 61.916668L581.45 306.08334L45.55 306.08334L45.55 61.916668Z" clip-rule="nonzero"/></clipPath><path stroke="#000000" stroke-width="2.0" stroke-linecap="butt" stroke-opacity="0.0" clip-path="url(#id_0)" d="M112.0 306.0L81.0 306.0L81.0 176.0C81.0 174.89543 81.89543 174.0 83.0 174.0L110.0 174.0C111.10457 174.0 112.0 174.89543 112.0 176.0Z" fill-rule="nonzero"/><path fill="#46bdc6" clip-path="url(#id_0)" d="M112.0 306.0L81.0 306.0L81.0 176.0C81.0 174.89543 81.89543 174.0 83.0 174.0L110.0 174.0C111.10457 174.0 112.0 174.89543 112.0 176.0Z" fill-rule="nonzero"/><path stroke="#000000" stroke-width="2.0" stroke-linecap="butt" stroke-opacity="0.0" clip-path="url(#id_0)" d="M212.0 306.0L181.0 306.0L181.0 176.0C181.0 174.89543 181.89543 174.0 183.0 174.0L210.0 174.0C211.10457 174.0 212.0 174.89543 212.0 176.0Z" fill-rule="nonzero"/><path fill="#46bdc6" clip-path="url(#id_0)" d="M212.0 306.0L181.0 306.0L181.0 176.0C181.0 174.89543 181.89543 174.0 183.0 174.0L210.0 174.0C211.10457 174.0 212.0 174.89543 212.0 176.0Z" fill-rule="nonzero"/><path stroke="#000000" stroke-width="2.0" stroke-linecap="butt" stroke-opacity="0.0" clip-path="url(#id_0)" d="M313.0 306.0L282.0 306.0L282.0 183.0C282.0 181.89543 282.89542 181.0 284.0 181.0L311.0 181.0C312.10458 181.0 313.0 181.89543 313.0 183.0Z" fill-rule="nonzero"/><path fill="#46bdc6" clip-path="url(#id_0)" d="M313.0 306.0L282.0 306.0L282.0 183.0C282.0 181.89543 282.89542 181.0 284.0 181.0L311.0 181.0C312.10458 181.0 313.0 181.89543 313.0 183.0Z" fill-rule="nonzero"/><path stroke="#000000" stroke-width="2.0" stroke-linecap="butt" stroke-opacity="0.0" clip-path="url(#id_0)" d="M413.0 306.0L382.0 306.0L382.0 116.0C382.0 114.89543 382.89542 114.0 384.0 114.0L411.0 114.0C412.10458 114.0 413.0 114.89543 413.0 116.0Z" fill-rule="nonzero"/><path fill="#46bdc6" clip-path="url(#id_0)" d="M413.0 306.0L382.0 306.0L382.0 116.0C382.0 114.89543 382.89542 114.0 384.0 114.0L411.0 114.0C412.10458 114.0 413.0 114.89543 413.0 116.0Z" fill-rule="nonzero"/><path stroke="#000000" stroke-width="2.0" stroke-linecap="butt" stroke-opacity="0.0" clip-path="url(#id_0)" d="M513.0 306.0L482.0 306.0L482.0 159.0C482.0 157.89543 482.89542 157.0 484.0 157.0L511.0 157.0C512.10455 157.0 513.0 157.89543 513.0 159.0Z" fill-rule="nonzero"/><path fill="#46bdc6" clip-path="url(#id_0)" d="M513.0 306.0L482.0 306.0L482.0 159.0C482.0 157.89543 482.89542 157.0 484.0 157.0L511.0 157.0C512.10455 157.0 513.0 157.89543 513.0 159.0Z" fill-rule="nonzero"/><path stroke="#000000" stroke-width="2.0" stroke-linecap="butt" stroke-opacity="0.0" clip-path="url(#id_0)" d="M145.0 306.0L114.0 306.0L114.0 186.0C114.0 184.89543 114.89543 184.0 116.0 184.0L143.0 184.0C144.10457 184.0 145.0 184.89543 145.0 186.0Z" fill-rule="nonzero"/><path fill="#ea4335" clip-path="url(#id_0)" d="M145.0 306.0L114.0 306.0L114.0 186.0C114.0 184.89543 114.89543 184.0 116.0 184.0L143.0 184.0C144.10457 184.0 145.0 184.89543 145.0 186.0Z" fill-rule="nonzero"/><path stroke="#000000" stroke-width="2.0" stroke-linecap="butt" stroke-opacity="0.0" clip-path="url(#id_0)" d="M245.0 306.0L214.0 306.0L214.0 186.0C214.0 184.89543 214.89543 184.0 216.0 184.0L243.0 184.0C244.10457 184.0 245.0 184.89543 245.0 186.0Z" fill-rule="nonzero"/><path fill="#ea4335" clip-path="url(#id_0)" d="M245.0 306.0L214.0 306.0L214.0 186.0C214.0 184.89543 214.89543 184.0 216.0 184.0L243.0 184.0C244.10457 184.0 245.0 184.89543 245.0 186.0Z" fill-rule="nonzero"/><path stroke="#000000" stroke-width="2.0" stroke-linecap="butt" stroke-opacity="0.0" clip-path="url(#id_0)" d="M346.0 306.0L315.0 306.0L315.0 186.0C315.0 184.89543 315.89542 184.0 317.0 184.0L344.0 184.0C345.10458 184.0 346.0 184.89543 346.0 186.0Z" fill-rule="nonzero"/><path fill="#ea4335" clip-path="url(#id_0)" d="M346.0 306.0L315.0 306.0L315.0 186.0C315.0 184.89543 315.89542 184.0 317.0 184.0L344.0 184.0C345.10458 184.0 346.0 184.89543 346.0 186.0Z" fill-rule="nonzero"/><path stroke="#000000" stroke-width="2.0" stroke-linecap="butt" stroke-opacity="0.0" clip-path="url(#id_0)" d="M446.0 306.0L415.0 306.0L415.0 186.0C415.0 184.89543 415.89542 184.0 417.0 184.0L444.0 184.0C445.10458 184.0 446.0 184.89543 446.0 186.0Z" fill-rule="nonzero"/><path fill="#ea4335" clip-path="url(#id_0)" d="M446.0 306.0L415.0 306.0L415.0 186.0C415.0 184.89543 415.89542 184.0 417.0 184.0L444.0 184.0C445.10458 184.0 446.0 184.89543 446.0 186.0Z" fill-rule="nonzero"/><path stroke="#000000" stroke-width="2.0" stroke-linecap="butt" stroke-opacity="0.0" clip-path="url(#id_0)" d="M546.0 306.0L515.0 306.0L515.0 186.0C515.0 184.89543 515.89545 184.0 517.0 184.0L544.0 184.0C545.10455 184.0 546.0 184.89543 546.0 186.0Z" fill-rule="nonzero"/><path fill="#ea4335" clip-path="url(#id_0)" d="M546.0 306.0L515.0 306.0L515.0 186.0C515.0 184.89543 515.89545 184.0 517.0 184.0L544.0 184.0C545.10455 184.0 546.0 184.89543 546.0 186.0Z" fill-rule="nonzero"/><path fill="#000000" d="M23.05 305.84897Q23.05 304.31772 23.3625 303.39584Q23.675 302.45834 24.284374 301.95834Q24.909374 301.45834 25.846874 301.45834Q26.534374 301.45834 27.05 301.7396Q27.58125 302.02084 27.925 302.5521Q28.26875 303.06772 28.45625 303.81772Q28.64375 304.56772 28.64375 305.84897Q28.64375 307.3646 28.33125 308.28647Q28.034374 309.20834 27.409374 309.72397Q26.8 310.22397 25.846874 310.22397Q24.6125 310.22397 23.89375 309.33334Q23.05 308.27084 23.05 305.84897ZM24.128124 305.84897Q24.128124 307.95834 24.628124 308.66147Q25.128124 309.3646 25.846874 309.3646Q26.58125 309.3646 27.065624 308.66147Q27.565624 307.95834 27.565624 305.84897Q27.565624 303.72397 27.065624 303.03647Q26.58125 302.33334 25.83125 302.33334Q25.1125 302.33334 24.675 302.94272Q24.128124 303.72397 24.128124 305.84897ZM30.64375 310.08334L30.64375 308.88022L31.846874 308.88022L31.846874 310.08334L30.64375 310.08334ZM33.05 305.84897Q33.05 304.31772 33.3625 303.39584Q33.675 302.45834 34.284374 301.95834Q34.909374 301.45834 35.846874 301.45834Q36.534374 301.45834 37.05 301.7396Q37.58125 302.02084 37.925 302.5521Q38.26875 303.06772 38.45625 303.81772Q38.64375 304.56772 38.64375 305.84897Q38.64375 307.3646 38.33125 308.28647Q38.034374 309.20834 37.409374 309.72397Q36.8 310.22397 35.846874 310.22397Q34.6125 310.22397 33.89375 309.33334Q33.05 308.27084 33.05 305.84897ZM34.128124 305.84897Q34.128124 307.95834 34.628124 308.66147Q35.128124 309.3646 35.846874 309.3646Q36.58125 309.3646 37.065624 308.66147Q37.565624 307.95834 37.565624 305.84897Q37.565624 303.72397 37.065624 303.03647Q36.58125 302.33334 35.83125 302.33334Q35.1125 302.33334 34.675 302.94272Q34.128124 303.72397 34.128124 305.84897Z" fill-rule="nonzero"/><path fill="#000000" d="M23.05 244.8073Q23.05 243.27605 23.3625 242.35417Q23.675 241.41667 24.284374 240.91667Q24.909374 240.41667 25.846874 240.41667Q26.534374 240.41667 27.05 240.69792Q27.58125 240.97917 27.925 241.51042Q28.26875 242.02605 28.45625 242.77605Q28.64375 243.52605 28.64375 244.8073Q28.64375 246.32292 28.33125 247.2448Q28.034374 248.16667 27.409374 248.6823Q26.8 249.1823 25.846874 249.1823Q24.6125 249.1823 23.89375 248.29167Q23.05 247.22917 23.05 244.8073ZM24.128124 244.8073Q24.128124 246.91667 24.628124 247.6198Q25.128124 248.32292 25.846874 248.32292Q26.58125 248.32292 27.065624 247.6198Q27.565624 246.91667 27.565624 244.8073Q27.565624 242.6823 27.065624 241.9948Q26.58125 241.29167 25.83125 241.29167Q25.1125 241.29167 24.675 241.90105Q24.128124 242.6823 24.128124 244.8073ZM30.64375 249.04167L30.64375 247.83855L31.846874 247.83855L31.846874 249.04167L30.64375 249.04167ZM33.05 246.79167L34.159374 246.69792Q34.284374 247.51042 34.721874 247.91667Q35.175 248.32292 35.815624 248.32292Q36.565624 248.32292 37.096874 247.7448Q37.628124 247.16667 37.628124 246.22917Q37.628124 245.32292 37.1125 244.8073Q36.6125 244.27605 35.784374 244.27605Q35.284374 244.27605 34.8625 244.51042Q34.45625 244.7448 34.221874 245.10417L33.2375 244.97917L34.065624 240.57292L38.346874 240.57292L38.346874 241.57292L34.909374 241.57292L34.45625 243.88542Q35.221874 243.33855 36.065624 243.33855Q37.190624 243.33855 37.95625 244.1198Q38.7375 244.90105 38.7375 246.13542Q38.7375 247.29167 38.065624 248.15105Q37.2375 249.1823 35.815624 249.1823Q34.64375 249.1823 33.89375 248.52605Q33.159374 247.8698 33.05 246.79167Z" fill-rule="nonzero"/><path fill="#000000" d="M27.01875 188.0L25.971874 188.0L25.971874 181.28125Q25.58125 181.64062 24.95625 182.01562Q24.346874 182.375 23.8625 182.54688L23.8625 181.53125Q24.7375 181.10938 25.39375 180.53125Q26.065624 179.9375 26.346874 179.375L27.01875 179.375L27.01875 188.0ZM30.64375 188.0L30.64375 186.79688L31.846874 186.79688L31.846874 188.0L30.64375 188.0ZM33.05 183.76562Q33.05 182.23438 33.3625 181.3125Q33.675 180.375 34.284374 179.875Q34.909374 179.375 35.846874 179.375Q36.534374 179.375 37.05 179.65625Q37.58125 179.9375 37.925 180.46875Q38.26875 180.98438 38.45625 181.73438Q38.64375 182.48438 38.64375 183.76562Q38.64375 185.28125 38.33125 186.20312Q38.034374 187.125 37.409374 187.64062Q36.8 188.14062 35.846874 188.14062Q34.6125 188.14062 33.89375 187.25Q33.05 186.1875 33.05 183.76562ZM34.128124 183.76562Q34.128124 185.875 34.628124 186.57812Q35.128124 187.28125 35.846874 187.28125Q36.58125 187.28125 37.065624 186.57812Q37.565624 185.875 37.565624 183.76562Q37.565624 181.64062 37.065624 180.95312Q36.58125 180.25 35.83125 180.25Q35.1125 180.25 34.675 180.85938Q34.128124 181.64062 34.128124 183.76562Z" fill-rule="nonzero"/><path fill="#000000" d="M27.01875 126.958336L25.971874 126.958336L25.971874 120.239586Q25.58125 120.59896 24.95625 120.97396Q24.346874 121.333336 23.8625 121.50521L23.8625 120.489586Q24.7375 120.06771 25.39375 119.489586Q26.065624 118.895836 26.346874 118.333336L27.01875 118.333336L27.01875 126.958336ZM30.64375 126.958336L30.64375 125.75521L31.846874 125.75521L31.846874 126.958336L30.64375 126.958336ZM33.05 124.708336L34.159374 124.614586Q34.284374 125.427086 34.721874 125.833336Q35.175 126.239586 35.815624 126.239586Q36.565624 126.239586 37.096874 125.66146Q37.628124 125.083336 37.628124 124.145836Q37.628124 123.239586 37.1125 122.72396Q36.6125 122.19271 35.784374 122.19271Q35.284374 122.19271 34.8625 122.427086Q34.45625 122.66146 34.221874 123.020836L33.2375 122.895836L34.065624 118.489586L38.346874 118.489586L38.346874 119.489586L34.909374 119.489586L34.45625 121.802086Q35.221874 121.25521 36.065624 121.25521Q37.190624 121.25521 37.95625 122.03646Q38.7375 122.81771 38.7375 124.052086Q38.7375 125.208336 38.065624 126.06771Q37.2375 127.09896 35.815624 127.09896Q34.64375 127.09896 33.89375 126.44271Q33.159374 125.78646 33.05 124.708336Z" fill-rule="nonzero"/><path fill="#000000" d="M28.596874 64.90104L28.596874 65.916664L22.909374 65.916664Q22.909374 65.541664 23.034374 65.18229Q23.253124 64.604164 23.721874 64.041664Q24.20625 63.479164 25.1125 62.74479Q26.51875 61.58854 27.003124 60.916664Q27.503124 60.24479 27.503124 59.65104Q27.503124 59.02604 27.05 58.604164Q26.596874 58.166664 25.878124 58.166664Q25.1125 58.166664 24.659374 58.61979Q24.20625 59.072914 24.190624 59.885414L23.1125 59.77604Q23.221874 58.55729 23.940624 57.93229Q24.675 57.291664 25.909374 57.291664Q27.14375 57.291664 27.8625 57.979164Q28.58125 58.666664 28.58125 59.68229Q28.58125 60.197914 28.3625 60.697914Q28.159374 61.18229 27.659374 61.74479Q27.175 62.291664 26.05 63.24479Q25.096874 64.041664 24.815624 64.33854Q24.55 64.61979 24.378124 64.90104L28.596874 64.90104ZM30.64375 65.916664L30.64375 64.71354L31.846874 64.71354L31.846874 65.916664L30.64375 65.916664ZM33.05 61.68229Q33.05 60.15104 33.3625 59.229164Q33.675 58.291664 34.284374 57.791664Q34.909374 57.291664 35.846874 57.291664Q36.534374 57.291664 37.05 57.572914Q37.58125 57.854164 37.925 58.385414Q38.26875 58.90104 38.45625 59.65104Q38.64375 60.40104 38.64375 61.68229Q38.64375 63.197914 38.33125 64.11979Q38.034374 65.041664 37.409374 65.55729Q36.8 66.05729 35.846874 66.05729Q34.6125 66.05729 33.89375 65.166664Q33.05 64.104164 33.05 61.68229ZM34.128124 61.68229Q34.128124 63.791664 34.628124 64.49479Q35.128124 65.197914 35.846874 65.197914Q36.58125 65.197914 37.065624 64.49479Q37.565624 63.791664 37.565624 61.68229Q37.565624 59.55729 37.065624 58.86979Q36.58125 58.166664 35.83125 58.166664Q35.1125 58.166664 34.675 58.77604Q34.128124 59.55729 34.128124 61.68229Z" fill-rule="nonzero"/><path fill="#000000" d="M103.6323 323.08334L102.58543 323.08334L102.58543 316.3646Q102.1948 316.72397 101.5698 317.09897Q100.96043 317.45834 100.47605 317.63022L100.47605 316.6146Q101.35105 316.19272 102.0073 315.6146Q102.67918 315.02084 102.96043 314.45834L103.6323 314.45834L103.6323 323.08334ZM106.66355 318.84897Q106.66355 317.31772 106.97605 316.39584Q107.28855 315.45834 107.89793 314.95834Q108.52293 314.45834 109.46043 314.45834Q110.14793 314.45834 110.66355 314.7396Q111.1948 315.02084 111.53855 315.5521Q111.8823 316.06772 112.0698 316.81772Q112.2573 317.56772 112.2573 318.84897Q112.2573 320.3646 111.9448 321.28647Q111.64793 322.20834 111.02293 322.72397Q110.41355 323.22397 109.46043 323.22397Q108.22605 323.22397 107.5073 322.33334Q106.66355 321.27084 106.66355 318.84897ZM107.74168 318.84897Q107.74168 320.95834 108.24168 321.66147Q108.74168 322.3646 109.46043 322.3646Q110.1948 322.3646 110.67918 321.66147Q111.17918 320.95834 111.17918 318.84897Q111.17918 316.72397 110.67918 316.03647Q110.1948 315.33334 109.4448 315.33334Q108.72605 315.33334 108.28855 315.94272Q107.74168 316.72397 107.74168 318.84897ZM113.66355 318.84897Q113.66355 317.31772 113.97605 316.39584Q114.28855 315.45834 114.89793 314.95834Q115.52293 314.45834 116.46043 314.45834Q117.14793 314.45834 117.66355 314.7396Q118.1948 315.02084 118.53855 315.5521Q118.8823 316.06772 119.0698 316.81772Q119.2573 317.56772 119.2573 318.84897Q119.2573 320.3646 118.9448 321.28647Q118.64793 322.20834 118.02293 322.72397Q117.41355 323.22397 116.46043 323.22397Q115.22605 323.22397 114.5073 322.33334Q113.66355 321.27084 113.66355 318.84897ZM114.74168 318.84897Q114.74168 320.95834 115.24168 321.66147Q115.74168 322.3646 116.46043 322.3646Q117.1948 322.3646 117.67918 321.66147Q118.17918 320.95834 118.17918 318.84897Q118.17918 316.72397 117.67918 316.03647Q117.1948 315.33334 116.4448 315.33334Q115.72605 315.33334 115.28855 315.94272Q114.74168 316.72397 114.74168 318.84897ZM120.66355 318.84897Q120.66355 317.31772 120.97605 316.39584Q121.28855 315.45834 121.89793 314.95834Q122.52293 314.45834 123.46043 314.45834Q124.14793 314.45834 124.66355 314.7396Q125.1948 315.02084 125.53855 315.5521Q125.8823 316.06772 126.0698 316.81772Q126.2573 317.56772 126.2573 318.84897Q126.2573 320.3646 125.9448 321.28647Q125.64793 322.20834 125.02293 322.72397Q124.41355 323.22397 123.46043 323.22397Q122.22605 323.22397 121.5073 322.33334Q120.66355 321.27084 120.66355 318.84897ZM121.74168 318.84897Q121.74168 320.95834 122.24168 321.66147Q122.74168 322.3646 123.46043 322.3646Q124.1948 322.3646 124.67918 321.66147Q125.17918 320.95834 125.17918 318.84897Q125.17918 316.72397 124.67918 316.03647Q124.1948 315.33334 123.4448 315.33334Q122.72605 315.33334 122.28855 315.94272Q121.74168 316.72397 121.74168 318.84897Z" fill-rule="nonzero"/><path fill="#000000" d="M200.30052 323.08334L199.25365 323.08334L199.25365 316.3646Q198.86302 316.72397 198.23802 317.09897Q197.62865 317.45834 197.14427 317.63022L197.14427 316.6146Q198.01927 316.19272 198.67552 315.6146Q199.3474 315.02084 199.62865 314.45834L200.30052 314.45834L200.30052 323.08334ZM203.33177 318.84897Q203.33177 317.31772 203.64427 316.39584Q203.95677 315.45834 204.56615 314.95834Q205.19115 314.45834 206.12865 314.45834Q206.81615 314.45834 207.33177 314.7396Q207.86302 315.02084 208.20677 315.5521Q208.55052 316.06772 208.73802 316.81772Q208.92552 317.56772 208.92552 318.84897Q208.92552 320.3646 208.61302 321.28647Q208.31615 322.20834 207.69115 322.72397Q207.08177 323.22397 206.12865 323.22397Q204.89427 323.22397 204.17552 322.33334Q203.33177 321.27084 203.33177 318.84897ZM204.4099 318.84897Q204.4099 320.95834 204.9099 321.66147Q205.4099 322.3646 206.12865 322.3646Q206.86302 322.3646 207.3474 321.66147Q207.8474 320.95834 207.8474 318.84897Q207.8474 316.72397 207.3474 316.03647Q206.86302 315.33334 206.11302 315.33334Q205.39427 315.33334 204.95677 315.94272Q204.4099 316.72397 204.4099 318.84897ZM210.33177 318.84897Q210.33177 317.31772 210.64427 316.39584Q210.95677 315.45834 211.56615 314.95834Q212.19115 314.45834 213.12865 314.45834Q213.81615 314.45834 214.33177 314.7396Q214.86302 315.02084 215.20677 315.5521Q215.55052 316.06772 215.73802 316.81772Q215.92552 317.56772 215.92552 318.84897Q215.92552 320.3646 215.61302 321.28647Q215.31615 322.20834 214.69115 322.72397Q214.08177 323.22397 213.12865 323.22397Q211.89427 323.22397 211.17552 322.33334Q210.33177 321.27084 210.33177 318.84897ZM211.4099 318.84897Q211.4099 320.95834 211.9099 321.66147Q212.4099 322.3646 213.12865 322.3646Q213.86302 322.3646 214.3474 321.66147Q214.8474 320.95834 214.8474 318.84897Q214.8474 316.72397 214.3474 316.03647Q213.86302 315.33334 213.11302 315.33334Q212.39427 315.33334 211.95677 315.94272Q211.4099 316.72397 211.4099 318.84897ZM217.33177 318.84897Q217.33177 317.31772 217.64427 316.39584Q217.95677 315.45834 218.56615 314.95834Q219.19115 314.45834 220.12865 314.45834Q220.81615 314.45834 221.33177 314.7396Q221.86302 315.02084 222.20677 315.5521Q222.55052 316.06772 222.73802 316.81772Q222.92552 317.56772 222.92552 318.84897Q222.92552 320.3646 222.61302 321.28647Q222.31615 322.20834 221.69115 322.72397Q221.08177 323.22397 220.12865 323.22397Q218.89427 323.22397 218.17552 322.33334Q217.33177 321.27084 217.33177 318.84897ZM218.4099 318.84897Q218.4099 320.95834 218.9099 321.66147Q219.4099 322.3646 220.12865 322.3646Q220.86302 322.3646 221.3474 321.66147Q221.8474 320.95834 221.8474 318.84897Q221.8474 316.72397 221.3474 316.03647Q220.86302 315.33334 220.11302 315.33334Q219.39427 315.33334 218.95677 315.94272Q218.4099 316.72397 218.4099 318.84897ZM224.33177 318.84897Q224.33177 317.31772 224.64427 316.39584Q224.95677 315.45834 225.56615 314.95834Q226.19115 314.45834 227.12865 314.45834Q227.81615 314.45834 228.33177 314.7396Q228.86302 315.02084 229.20677 315.5521Q229.55052 316.06772 229.73802 316.81772Q229.92552 317.56772 229.92552 318.84897Q229.92552 320.3646 229.61302 321.28647Q229.31615 322.20834 228.69115 322.72397Q228.08177 323.22397 227.12865 323.22397Q225.89427 323.22397 225.17552 322.33334Q224.33177 321.27084 224.33177 318.84897ZM225.4099 318.84897Q225.4099 320.95834 225.9099 321.66147Q226.4099 322.3646 227.12865 322.3646Q227.86302 322.3646 228.3474 321.66147Q228.8474 320.95834 228.8474 318.84897Q228.8474 316.72397 228.3474 316.03647Q227.86302 315.33334 227.11302 315.33334Q226.39427 315.33334 225.95677 315.94272Q225.4099 316.72397 225.4099 318.84897Z" fill-rule="nonzero"/><path fill="#000000" d="M296.96875 323.08334L295.92188 323.08334L295.92188 316.3646Q295.53125 316.72397 294.90625 317.09897Q294.29688 317.45834 293.8125 317.63022L293.8125 316.6146Q294.6875 316.19272 295.34375 315.6146Q296.01562 315.02084 296.29688 314.45834L296.96875 314.45834L296.96875 323.08334ZM300.0 318.84897Q300.0 317.31772 300.3125 316.39584Q300.625 315.45834 301.23438 314.95834Q301.85938 314.45834 302.79688 314.45834Q303.48438 314.45834 304.0 314.7396Q304.53125 315.02084 304.875 315.5521Q305.21875 316.06772 305.40625 316.81772Q305.59375 317.56772 305.59375 318.84897Q305.59375 320.3646 305.28125 321.28647Q304.98438 322.20834 304.35938 322.72397Q303.75 323.22397 302.79688 323.22397Q301.5625 323.22397 300.84375 322.33334Q300.0 321.27084 300.0 318.84897ZM301.07812 318.84897Q301.07812 320.95834 301.57812 321.66147Q302.07812 322.3646 302.79688 322.3646Q303.53125 322.3646 304.01562 321.66147Q304.51562 320.95834 304.51562 318.84897Q304.51562 316.72397 304.01562 316.03647Q303.53125 315.33334 302.78125 315.33334Q302.0625 315.33334 301.625 315.94272Q301.07812 316.72397 301.07812 318.84897ZM307.0 318.84897Q307.0 317.31772 307.3125 316.39584Q307.625 315.45834 308.23438 314.95834Q308.85938 314.45834 309.79688 314.45834Q310.48438 314.45834 311.0 314.7396Q311.53125 315.02084 311.875 315.5521Q312.21875 316.06772 312.40625 316.81772Q312.59375 317.56772 312.59375 318.84897Q312.59375 320.3646 312.28125 321.28647Q311.98438 322.20834 311.35938 322.72397Q310.75 323.22397 309.79688 323.22397Q308.5625 323.22397 307.84375 322.33334Q307.0 321.27084 307.0 318.84897ZM308.07812 318.84897Q308.07812 320.95834 308.57812 321.66147Q309.07812 322.3646 309.79688 322.3646Q310.53125 322.3646 311.01562 321.66147Q311.51562 320.95834 311.51562 318.84897Q311.51562 316.72397 311.01562 316.03647Q310.53125 315.33334 309.78125 315.33334Q309.0625 315.33334 308.625 315.94272Q308.07812 316.72397 308.07812 318.84897ZM314.0 318.84897Q314.0 317.31772 314.3125 316.39584Q314.625 315.45834 315.23438 314.95834Q315.85938 314.45834 316.79688 314.45834Q317.48438 314.45834 318.0 314.7396Q318.53125 315.02084 318.875 315.5521Q319.21875 316.06772 319.40625 316.81772Q319.59375 317.56772 319.59375 318.84897Q319.59375 320.3646 319.28125 321.28647Q318.98438 322.20834 318.35938 322.72397Q317.75 323.22397 316.79688 323.22397Q315.5625 323.22397 314.84375 322.33334Q314.0 321.27084 314.0 318.84897ZM315.07812 318.84897Q315.07812 320.95834 315.57812 321.66147Q316.07812 322.3646 316.79688 322.3646Q317.53125 322.3646 318.01562 321.66147Q318.51562 320.95834 318.51562 318.84897Q318.51562 316.72397 318.01562 316.03647Q317.53125 315.33334 316.78125 315.33334Q316.0625 315.33334 315.625 315.94272Q315.07812 316.72397 315.07812 318.84897ZM321.0 318.84897Q321.0 317.31772 321.3125 316.39584Q321.625 315.45834 322.23438 314.95834Q322.85938 314.45834 323.79688 314.45834Q324.48438 314.45834 325.0 314.7396Q325.53125 315.02084 325.875 315.5521Q326.21875 316.06772 326.40625 316.81772Q326.59375 317.56772 326.59375 318.84897Q326.59375 320.3646 326.28125 321.28647Q325.98438 322.20834 325.35938 322.72397Q324.75 323.22397 323.79688 323.22397Q322.5625 323.22397 321.84375 322.33334Q321.0 321.27084 321.0 318.84897ZM322.07812 318.84897Q322.07812 320.95834 322.57812 321.66147Q323.07812 322.3646 323.79688 322.3646Q324.53125 322.3646 325.01562 321.66147Q325.51562 320.95834 325.51562 318.84897Q325.51562 316.72397 325.01562 316.03647Q324.53125 315.33334 323.78125 315.33334Q323.0625 315.33334 322.625 315.94272Q322.07812 316.72397 322.07812 318.84897ZM328.0 318.84897Q328.0 317.31772 328.3125 316.39584Q328.625 315.45834 329.23438 314.95834Q329.85938 314.45834 330.79688 314.45834Q331.48438 314.45834 332.0 314.7396Q332.53125 315.02084 332.875 315.5521Q333.21875 316.06772 333.40625 316.81772Q333.59375 317.56772 333.59375 318.84897Q333.59375 320.3646 333.28125 321.28647Q332.98438 322.20834 332.35938 322.72397Q331.75 323.22397 330.79688 323.22397Q329.5625 323.22397 328.84375 322.33334Q328.0 321.27084 328.0 318.84897ZM329.07812 318.84897Q329.07812 320.95834 329.57812 321.66147Q330.07812 322.3646 330.79688 322.3646Q331.53125 322.3646 332.01562 321.66147Q332.51562 320.95834 332.51562 318.84897Q332.51562 316.72397 332.01562 316.03647Q331.53125 315.33334 330.78125 315.33334Q330.0625 315.33334 329.625 315.94272Q329.07812 316.72397 329.07812 318.84897Z" fill-rule="nonzero"/><path fill="#000000" d="M393.63696 323.08334L392.5901 323.08334L392.5901 316.3646Q392.19946 316.72397 391.57446 317.09897Q390.9651 317.45834 390.4807 317.63022L390.4807 316.6146Q391.3557 316.19272 392.01196 315.6146Q392.68384 315.02084 392.9651 314.45834L393.63696 314.45834L393.63696 323.08334ZM396.6682 318.84897Q396.6682 317.31772 396.9807 316.39584Q397.2932 315.45834 397.9026 314.95834Q398.5276 314.45834 399.4651 314.45834Q400.1526 314.45834 400.6682 314.7396Q401.19946 315.02084 401.5432 315.5521Q401.88696 316.06772 402.07446 316.81772Q402.26196 317.56772 402.26196 318.84897Q402.26196 320.3646 401.94946 321.28647Q401.6526 322.20834 401.0276 322.72397Q400.4182 323.22397 399.4651 323.22397Q398.2307 323.22397 397.51196 322.33334Q396.6682 321.27084 396.6682 318.84897ZM397.74634 318.84897Q397.74634 320.95834 398.24634 321.66147Q398.74634 322.3646 399.4651 322.3646Q400.19946 322.3646 400.68384 321.66147Q401.18384 320.95834 401.18384 318.84897Q401.18384 316.72397 400.68384 316.03647Q400.19946 315.33334 399.44946 315.33334Q398.7307 315.33334 398.2932 315.94272Q397.74634 316.72397 397.74634 318.84897ZM403.6682 318.84897Q403.6682 317.31772 403.9807 316.39584Q404.2932 315.45834 404.9026 314.95834Q405.5276 314.45834 406.4651 314.45834Q407.1526 314.45834 407.6682 314.7396Q408.19946 315.02084 408.5432 315.5521Q408.88696 316.06772 409.07446 316.81772Q409.26196 317.56772 409.26196 318.84897Q409.26196 320.3646 408.94946 321.28647Q408.6526 322.20834 408.0276 322.72397Q407.4182 323.22397 406.4651 323.22397Q405.2307 323.22397 404.51196 322.33334Q403.6682 321.27084 403.6682 318.84897ZM404.74634 318.84897Q404.74634 320.95834 405.24634 321.66147Q405.74634 322.3646 406.4651 322.3646Q407.19946 322.3646 407.68384 321.66147Q408.18384 320.95834 408.18384 318.84897Q408.18384 316.72397 407.68384 316.03647Q407.19946 315.33334 406.44946 315.33334Q405.7307 315.33334 405.2932 315.94272Q404.74634 316.72397 404.74634 318.84897ZM410.6682 318.84897Q410.6682 317.31772 410.9807 316.39584Q411.2932 315.45834 411.9026 314.95834Q412.5276 314.45834 413.4651 314.45834Q414.1526 314.45834 414.6682 314.7396Q415.19946 315.02084 415.5432 315.5521Q415.88696 316.06772 416.07446 316.81772Q416.26196 317.56772 416.26196 318.84897Q416.26196 320.3646 415.94946 321.28647Q415.6526 322.20834 415.0276 322.72397Q414.4182 323.22397 413.4651 323.22397Q412.2307 323.22397 411.51196 322.33334Q410.6682 321.27084 410.6682 318.84897ZM411.74634 318.84897Q411.74634 320.95834 412.24634 321.66147Q412.74634 322.3646 413.4651 322.3646Q414.19946 322.3646 414.68384 321.66147Q415.18384 320.95834 415.18384 318.84897Q415.18384 316.72397 414.68384 316.03647Q414.19946 315.33334 413.44946 315.33334Q412.7307 315.33334 412.2932 315.94272Q411.74634 316.72397 411.74634 318.84897ZM417.6682 318.84897Q417.6682 317.31772 417.9807 316.39584Q418.2932 315.45834 418.9026 314.95834Q419.5276 314.45834 420.4651 314.45834Q421.1526 314.45834 421.6682 314.7396Q422.19946 315.02084 422.5432 315.5521Q422.88696 316.06772 423.07446 316.81772Q423.26196 317.56772 423.26196 318.84897Q423.26196 320.3646 422.94946 321.28647Q422.6526 322.20834 422.0276 322.72397Q421.4182 323.22397 420.4651 323.22397Q419.2307 323.22397 418.51196 322.33334Q417.6682 321.27084 417.6682 318.84897ZM418.74634 318.84897Q418.74634 320.95834 419.24634 321.66147Q419.74634 322.3646 420.4651 322.3646Q421.19946 322.3646 421.68384 321.66147Q422.18384 320.95834 422.18384 318.84897Q422.18384 316.72397 421.68384 316.03647Q421.19946 315.33334 420.44946 315.33334Q419.7307 315.33334 419.2932 315.94272Q418.74634 316.72397 418.74634 318.84897ZM424.6682 318.84897Q424.6682 317.31772 424.9807 316.39584Q425.2932 315.45834 425.9026 314.95834Q426.5276 314.45834 427.4651 314.45834Q428.1526 314.45834 428.6682 314.7396Q429.19946 315.02084 429.5432 315.5521Q429.88696 316.06772 430.07446 316.81772Q430.26196 317.56772 430.26196 318.84897Q430.26196 320.3646 429.94946 321.28647Q429.6526 322.20834 429.0276 322.72397Q428.4182 323.22397 427.4651 323.22397Q426.2307 323.22397 425.51196 322.33334Q424.6682 321.27084 424.6682 318.84897ZM425.74634 318.84897Q425.74634 320.95834 426.24634 321.66147Q426.74634 322.3646 427.4651 322.3646Q428.19946 322.3646 428.68384 321.66147Q429.18384 320.95834 429.18384 318.84897Q429.18384 316.72397 428.68384 316.03647Q428.19946 315.33334 427.44946 315.33334Q426.7307 315.33334 426.2932 315.94272Q425.74634 316.72397 425.74634 318.84897ZM431.6682 318.84897Q431.6682 317.31772 431.9807 316.39584Q432.2932 315.45834 432.9026 314.95834Q433.5276 314.45834 434.4651 314.45834Q435.1526 314.45834 435.6682 314.7396Q436.19946 315.02084 436.5432 315.5521Q436.88696 316.06772 437.07446 316.81772Q437.26196 317.56772 437.26196 318.84897Q437.26196 320.3646 436.94946 321.28647Q436.6526 322.20834 436.0276 322.72397Q435.4182 323.22397 434.4651 323.22397Q433.2307 323.22397 432.51196 322.33334Q431.6682 321.27084 431.6682 318.84897ZM432.74634 318.84897Q432.74634 320.95834 433.24634 321.66147Q433.74634 322.3646 434.4651 322.3646Q435.19946 322.3646 435.68384 321.66147Q436.18384 320.95834 436.18384 318.84897Q436.18384 316.72397 435.68384 316.03647Q435.19946 315.33334 434.44946 315.33334Q433.7307 315.33334 433.2932 315.94272Q432.74634 316.72397 432.74634 318.84897Z" fill-rule="nonzero"/><path fill="#000000" d="M490.3052 323.08334L489.25833 323.08334L489.25833 316.3646Q488.8677 316.72397 488.2427 317.09897Q487.63333 317.45834 487.14896 317.63022L487.14896 316.6146Q488.02396 316.19272 488.6802 315.6146Q489.35208 315.02084 489.63333 314.45834L490.3052 314.45834L490.3052 323.08334ZM493.33646 318.84897Q493.33646 317.31772 493.64896 316.39584Q493.96146 315.45834 494.57083 314.95834Q495.19583 314.45834 496.13333 314.45834Q496.82083 314.45834 497.33646 314.7396Q497.8677 315.02084 498.21146 315.5521Q498.5552 316.06772 498.7427 316.81772Q498.9302 317.56772 498.9302 318.84897Q498.9302 320.3646 498.6177 321.28647Q498.32083 322.20834 497.69583 322.72397Q497.08646 323.22397 496.13333 323.22397Q494.89896 323.22397 494.1802 322.33334Q493.33646 321.27084 493.33646 318.84897ZM494.41458 318.84897Q494.41458 320.95834 494.91458 321.66147Q495.41458 322.3646 496.13333 322.3646Q496.8677 322.3646 497.35208 321.66147Q497.85208 320.95834 497.85208 318.84897Q497.85208 316.72397 497.35208 316.03647Q496.8677 315.33334 496.1177 315.33334Q495.39896 315.33334 494.96146 315.94272Q494.41458 316.72397 494.41458 318.84897ZM500.33646 318.84897Q500.33646 317.31772 500.64896 316.39584Q500.96146 315.45834 501.57083 314.95834Q502.19583 314.45834 503.13333 314.45834Q503.82083 314.45834 504.33646 314.7396Q504.8677 315.02084 505.21146 315.5521Q505.5552 316.06772 505.7427 316.81772Q505.9302 317.56772 505.9302 318.84897Q505.9302 320.3646 505.6177 321.28647Q505.32083 322.20834 504.69583 322.72397Q504.08646 323.22397 503.13333 323.22397Q501.89896 323.22397 501.1802 322.33334Q500.33646 321.27084 500.33646 318.84897ZM501.41458 318.84897Q501.41458 320.95834 501.91458 321.66147Q502.41458 322.3646 503.13333 322.3646Q503.8677 322.3646 504.35208 321.66147Q504.85208 320.95834 504.85208 318.84897Q504.85208 316.72397 504.35208 316.03647Q503.8677 315.33334 503.1177 315.33334Q502.39896 315.33334 501.96146 315.94272Q501.41458 316.72397 501.41458 318.84897ZM507.33646 318.84897Q507.33646 317.31772 507.64896 316.39584Q507.96146 315.45834 508.57083 314.95834Q509.19583 314.45834 510.13333 314.45834Q510.82083 314.45834 511.33646 314.7396Q511.8677 315.02084 512.2114 315.5521Q512.5552 316.06772 512.7427 316.81772Q512.9302 317.56772 512.9302 318.84897Q512.9302 320.3646 512.6177 321.28647Q512.3208 322.20834 511.69583 322.72397Q511.08646 323.22397 510.13333 323.22397Q508.89896 323.22397 508.1802 322.33334Q507.33646 321.27084 507.33646 318.84897ZM508.41458 318.84897Q508.41458 320.95834 508.91458 321.66147Q509.41458 322.3646 510.13333 322.3646Q510.8677 322.3646 511.35208 321.66147Q511.85208 320.95834 511.85208 318.84897Q511.85208 316.72397 511.35208 316.03647Q510.8677 315.33334 510.1177 315.33334Q509.39896 315.33334 508.96146 315.94272Q508.41458 316.72397 508.41458 318.84897ZM514.3364 318.84897Q514.3364 317.31772 514.6489 316.39584Q514.9614 315.45834 515.5708 314.95834Q516.1958 314.45834 517.1333 314.45834Q517.8208 314.45834 518.3364 314.7396Q518.8677 315.02084 519.2114 315.5521Q519.5552 316.06772 519.7427 316.81772Q519.9302 317.56772 519.9302 318.84897Q519.9302 320.3646 519.6177 321.28647Q519.3208 322.20834 518.6958 322.72397Q518.0864 323.22397 517.1333 323.22397Q515.8989 323.22397 515.1802 322.33334Q514.3364 321.27084 514.3364 318.84897ZM515.41455 318.84897Q515.41455 320.95834 515.91455 321.66147Q516.41455 322.3646 517.1333 322.3646Q517.8677 322.3646 518.35205 321.66147Q518.85205 320.95834 518.85205 318.84897Q518.85205 316.72397 518.35205 316.03647Q517.8677 315.33334 517.1177 315.33334Q516.3989 315.33334 515.9614 315.94272Q515.41455 316.72397 515.41455 318.84897ZM521.3364 318.84897Q521.3364 317.31772 521.6489 316.39584Q521.9614 315.45834 522.5708 314.95834Q523.1958 314.45834 524.1333 314.45834Q524.8208 314.45834 525.3364 314.7396Q525.8677 315.02084 526.2114 315.5521Q526.5552 316.06772 526.7427 316.81772Q526.9302 317.56772 526.9302 318.84897Q526.9302 320.3646 526.6177 321.28647Q526.3208 322.20834 525.6958 322.72397Q525.0864 323.22397 524.1333 323.22397Q522.8989 323.22397 522.1802 322.33334Q521.3364 321.27084 521.3364 318.84897ZM522.41455 318.84897Q522.41455 320.95834 522.91455 321.66147Q523.41455 322.3646 524.1333 322.3646Q524.8677 322.3646 525.35205 321.66147Q525.85205 320.95834 525.85205 318.84897Q525.85205 316.72397 525.35205 316.03647Q524.8677 315.33334 524.1177 315.33334Q523.3989 315.33334 522.9614 315.94272Q522.41455 316.72397 522.41455 318.84897ZM528.3364 318.84897Q528.3364 317.31772 528.6489 316.39584Q528.9614 315.45834 529.5708 314.95834Q530.1958 314.45834 531.1333 314.45834Q531.8208 314.45834 532.3364 314.7396Q532.8677 315.02084 533.2114 315.5521Q533.5552 316.06772 533.7427 316.81772Q533.9302 317.56772 533.9302 318.84897Q533.9302 320.3646 533.6177 321.28647Q533.3208 322.20834 532.6958 322.72397Q532.0864 323.22397 531.1333 323.22397Q529.8989 323.22397 529.1802 322.33334Q528.3364 321.27084 528.3364 318.84897ZM529.41455 318.84897Q529.41455 320.95834 529.91455 321.66147Q530.41455 322.3646 531.1333 322.3646Q531.8677 322.3646 532.35205 321.66147Q532.85205 320.95834 532.85205 318.84897Q532.85205 316.72397 532.35205 316.03647Q531.8677 315.33334 531.1177 315.33334Q530.3989 315.33334 529.9614 315.94272Q529.41455 316.72397 529.41455 318.84897ZM535.3364 318.84897Q535.3364 317.31772 535.6489 316.39584Q535.9614 315.45834 536.5708 314.95834Q537.1958 314.45834 538.1333 314.45834Q538.8208 314.45834 539.3364 314.7396Q539.8677 315.02084 540.2114 315.5521Q540.5552 316.06772 540.7427 316.81772Q540.9302 317.56772 540.9302 318.84897Q540.9302 320.3646 540.6177 321.28647Q540.3208 322.20834 539.6958 322.72397Q539.0864 323.22397 538.1333 323.22397Q536.8989 323.22397 536.1802 322.33334Q535.3364 321.27084 535.3364 318.84897ZM536.41455 318.84897Q536.41455 320.95834 536.91455 321.66147Q537.41455 322.3646 538.1333 322.3646Q538.8677 322.3646 539.35205 321.66147Q539.85205 320.95834 539.85205 318.84897Q539.85205 316.72397 539.35205 316.03647Q538.8677 315.33334 538.1177 315.33334Q537.3989 315.33334 536.9614 315.94272Q536.41455 316.72397 536.41455 318.84897Z" fill-rule="nonzero"/><path fill="#46bdc6" d="M218.5 340.45C218.5 339.8977 218.94771 339.45 219.5 339.45L229.5 339.45C230.05229 339.45 230.5 339.8977 230.5 340.45L230.5 350.45C230.5 351.0023 230.05229 351.45 229.5 351.45L219.5 351.45C218.94771 351.45 218.5 351.0023 218.5 350.45Z" fill-rule="nonzero"/><path fill="#1a1a1a" d="M239.4375 349.45L239.4375 340.85626L243.25 340.85626Q244.40625 340.85626 245.0 341.09064Q245.59375 341.325 245.95312 341.91876Q246.3125 342.4969 246.3125 343.2Q246.3125 344.1219 245.71875 344.7469Q245.125 345.3719 243.89062 345.54376Q244.34375 345.7625 244.57812 345.96564Q245.07812 346.41876 245.51562 347.10626L247.01562 349.45L245.57812 349.45L244.45312 347.66876Q243.95312 346.8875 243.625 346.48126Q243.3125 346.075 243.04688 345.91876Q242.79688 345.7469 242.53125 345.66876Q242.34375 345.6375 241.90625 345.6375L240.57812 345.6375L240.57812 349.45L239.4375 349.45ZM240.57812 344.65314L243.03125 344.65314Q243.79688 344.65314 244.23438 344.4969Q244.6875 344.325 244.90625 343.98126Q245.14062 343.6219 245.14062 343.2Q245.14062 342.59064 244.6875 342.2Q244.25 341.8094 243.29688 341.8094L240.57812 341.8094L240.57812 344.65314ZM252.375 349.45L252.375 348.52814Q251.64062 349.59064 250.39062 349.59064Q249.84375 349.59064 249.35938 349.3875Q248.89062 349.16876 248.65625 348.85626Q248.42188 348.52814 248.32812 348.0594Q248.26562 347.7625 248.26562 347.075L248.26562 343.23126L249.32812 343.23126L249.32812 346.6844Q249.32812 347.4969 249.39062 347.79376Q249.48438 348.2 249.79688 348.45Q250.125 348.6844 250.60938 348.6844Q251.07812 348.6844 251.48438 348.45Q251.90625 348.2 252.07812 347.77814Q252.26562 347.35626 252.26562 346.5594L252.26562 343.23126L253.3125 343.23126L253.3125 349.45L252.375 349.45ZM259.375 349.45L259.375 348.52814Q258.64062 349.59064 257.39062 349.59064Q256.84375 349.59064 256.35938 349.3875Q255.89062 349.16876 255.65625 348.85626Q255.42188 348.52814 255.32812 348.0594Q255.26562 347.7625 255.26562 347.075L255.26562 343.23126L256.32812 343.23126L256.32812 346.6844Q256.32812 347.4969 256.39062 347.79376Q256.48438 348.2 256.79688 348.45Q257.125 348.6844 257.60938 348.6844Q258.07812 348.6844 258.48438 348.45Q258.90625 348.2 259.07812 347.77814Q259.26562 347.35626 259.26562 346.5594L259.26562 343.23126L260.3125 343.23126L260.3125 349.45L259.375 349.45ZM264.59375 348.5125L264.75 349.4344Q264.29688 349.52814 263.95312 349.52814Q263.375 349.52814 263.0625 349.35626Q262.75 349.16876 262.60938 348.8719Q262.48438 348.575 262.48438 347.6219L262.48438 344.04376L261.71875 344.04376L261.71875 343.23126L262.48438 343.23126L262.48438 341.6844L263.53125 341.0594L263.53125 343.23126L264.59375 343.23126L264.59375 344.04376L263.53125 344.04376L263.53125 347.6844Q263.53125 348.1375 263.57812 348.2625Q263.64062 348.3875 263.76562 348.46564Q263.89062 348.54376 264.125 348.54376Q264.3125 348.54376 264.59375 348.5125ZM269.375 349.45L269.375 348.52814Q268.64062 349.59064 267.39062 349.59064Q266.84375 349.59064 266.35938 349.3875Q265.89062 349.16876 265.65625 348.85626Q265.42188 348.52814 265.32812 348.0594Q265.26562 347.7625 265.26562 347.075L265.26562 343.23126L266.32812 343.23126L266.32812 346.6844Q266.32812 347.4969 266.39062 347.79376Q266.48438 348.2 266.79688 348.45Q267.125 348.6844 267.60938 348.6844Q268.07812 348.6844 268.48438 348.45Q268.90625 348.2 269.07812 347.77814Q269.26562 347.35626 269.26562 346.5594L269.26562 343.23126L270.3125 343.23126L270.3125 349.45L269.375 349.45ZM272.375 349.45L272.375 340.85626L273.51562 340.85626L273.51562 348.4344L277.75 348.4344L277.75 349.45L272.375 349.45ZM279.29688 342.075L279.29688 340.85626L280.35938 340.85626L280.35938 342.075L279.29688 342.075ZM279.29688 349.45L279.29688 343.23126L280.35938 343.23126L280.35938 349.45L279.29688 349.45ZM281.875 347.59064L282.90625 347.4344Q283.0 348.0594 283.39062 348.3875Q283.79688 348.71564 284.53125 348.71564Q285.25 348.71564 285.59375 348.4344Q285.95312 348.1375 285.95312 347.73126Q285.95312 347.3719 285.64062 347.16876Q285.42188 347.02814 284.5625 346.8094Q283.40625 346.5125 282.95312 346.3094Q282.51562 346.09064 282.28125 345.71564Q282.04688 345.34064 282.04688 344.8719Q282.04688 344.46564 282.23438 344.10626Q282.42188 343.7469 282.75 343.5125Q283.0 343.34064 283.42188 343.21564Q283.84375 343.09064 284.34375 343.09064Q285.0625 343.09064 285.60938 343.3094Q286.17188 343.5125 286.4375 343.8719Q286.70312 344.23126 286.79688 344.825L285.76562 344.96564Q285.70312 344.4969 285.35938 344.23126Q285.03125 343.95 284.40625 343.95Q283.6875 343.95 283.375 344.2Q283.0625 344.4344 283.0625 344.7625Q283.0625 344.96564 283.1875 345.1219Q283.32812 345.29376 283.59375 345.40314Q283.75 345.46564 284.53125 345.66876Q285.65625 345.98126 286.09375 346.16876Q286.53125 346.35626 286.78125 346.71564Q287.03125 347.075 287.03125 347.6219Q287.03125 348.15314 286.71875 348.6219Q286.42188 349.075 285.84375 349.34064Q285.26562 349.59064 284.53125 349.59064Q283.3125 349.59064 282.67188 349.09064Q282.04688 348.575 281.875 347.59064ZM290.59375 348.5125L290.75 349.4344Q290.29688 349.52814 289.95312 349.52814Q289.375 349.52814 289.0625 349.35626Q288.75 349.16876 288.60938 348.8719Q288.48438 348.575 288.48438 347.6219L288.48438 344.04376L287.71875 344.04376L287.71875 343.23126L288.48438 343.23126L288.48438 341.6844L289.53125 341.0594L289.53125 343.23126L290.59375 343.23126L290.59375 344.04376L289.53125 344.04376L289.53125 347.6844Q289.53125 348.1375 289.57812 348.2625Q289.64062 348.3875 289.76562 348.46564Q289.89062 348.54376 290.125 348.54376Q290.3125 348.54376 290.59375 348.5125ZM295.35938 348.6844Q294.76562 349.1844 294.21875 349.3875Q293.6875 349.59064 293.0625 349.59064Q292.03125 349.59064 291.48438 349.09064Q290.9375 348.59064 290.9375 347.8094Q290.9375 347.35626 291.14062 346.98126Q291.34375 346.59064 291.6875 346.3719Q292.03125 346.1375 292.45312 346.02814Q292.75 345.9344 293.39062 345.85626Q294.65625 345.71564 295.26562 345.4969Q295.26562 345.27814 295.26562 345.23126Q295.26562 344.575 294.96875 344.3094Q294.5625 343.96564 293.76562 343.96564Q293.03125 343.96564 292.67188 344.23126Q292.3125 344.48126 292.14062 345.1375L291.10938 344.9969Q291.25 344.34064 291.57812 343.9344Q291.90625 343.52814 292.51562 343.3094Q293.125 343.09064 293.92188 343.09064Q294.71875 343.09064 295.21875 343.27814Q295.71875 343.46564 295.95312 343.7469Q296.1875 344.02814 296.28125 344.46564Q296.32812 344.73126 296.32812 345.4344L296.32812 346.84064Q296.32812 348.3094 296.39062 348.7Q296.46875 349.09064 296.67188 349.45L295.5625 349.45Q295.40625 349.1219 295.35938 348.6844ZM295.26562 346.325Q294.6875 346.5594 293.54688 346.73126Q292.89062 346.825 292.625 346.95Q292.35938 347.0594 292.20312 347.27814Q292.0625 347.4969 292.0625 347.77814Q292.0625 348.2 292.375 348.48126Q292.70312 348.7625 293.3125 348.7625Q293.92188 348.7625 294.39062 348.4969Q294.875 348.23126 295.09375 347.7625Q295.26562 347.40314 295.26562 346.71564L295.26562 346.325Z" fill-rule="nonzero"/><path fill="#ea4335" d="M313.5 340.45C313.5 339.8977 313.94772 339.45 314.5 339.45L324.5 339.45C325.05228 339.45 325.5 339.8977 325.5 340.45L325.5 350.45C325.5 351.0023 325.05228 351.45 324.5 351.45L314.5 351.45C313.94772 351.45 313.5 351.0023 313.5 350.45Z" fill-rule="nonzero"/><path fill="#1a1a1a" d="M333.48438 349.45L336.78125 340.85626L338.0 340.85626L341.51562 349.45L340.23438 349.45L339.21875 346.84064L335.64062 346.84064L334.6875 349.45L333.48438 349.45ZM335.96875 345.91876L338.875 345.91876L337.98438 343.54376Q337.5625 342.46564 337.375 341.7625Q337.20312 342.59064 336.90625 343.40314L335.96875 345.91876ZM342.28125 349.45L342.28125 343.23126L343.23438 343.23126L343.23438 344.16876Q343.59375 343.5125 343.89062 343.3094Q344.20312 343.09064 344.57812 343.09064Q345.10938 343.09064 345.65625 343.41876L345.29688 344.40314Q344.90625 344.16876 344.53125 344.16876Q344.17188 344.16876 343.89062 344.3875Q343.625 344.59064 343.51562 344.96564Q343.32812 345.52814 343.32812 346.1844L343.32812 349.45L342.28125 349.45ZM346.28125 349.45L346.28125 343.23126L347.23438 343.23126L347.23438 344.16876Q347.59375 343.5125 347.89062 343.3094Q348.20312 343.09064 348.57812 343.09064Q349.10938 343.09064 349.65625 343.41876L349.29688 344.40314Q348.90625 344.16876 348.53125 344.16876Q348.17188 344.16876 347.89062 344.3875Q347.625 344.59064 347.51562 344.96564Q347.32812 345.52814 347.32812 346.1844L347.32812 349.45L346.28125 349.45ZM354.35938 348.6844Q353.76562 349.1844 353.21875 349.3875Q352.6875 349.59064 352.0625 349.59064Q351.03125 349.59064 350.48438 349.09064Q349.9375 348.59064 349.9375 347.8094Q349.9375 347.35626 350.14062 346.98126Q350.34375 346.59064 350.6875 346.3719Q351.03125 346.1375 351.45312 346.02814Q351.75 345.9344 352.39062 345.85626Q353.65625 345.71564 354.26562 345.4969Q354.26562 345.27814 354.26562 345.23126Q354.26562 344.575 353.96875 344.3094Q353.5625 343.96564 352.76562 343.96564Q352.03125 343.96564 351.67188 344.23126Q351.3125 344.48126 351.14062 345.1375L350.10938 344.9969Q350.25 344.34064 350.57812 343.9344Q350.90625 343.52814 351.51562 343.3094Q352.125 343.09064 352.92188 343.09064Q353.71875 343.09064 354.21875 343.27814Q354.71875 343.46564 354.95312 343.7469Q355.1875 344.02814 355.28125 344.46564Q355.32812 344.73126 355.32812 345.4344L355.32812 346.84064Q355.32812 348.3094 355.39062 348.7Q355.46875 349.09064 355.67188 349.45L354.5625 349.45Q354.40625 349.1219 354.35938 348.6844ZM354.26562 346.325Q353.6875 346.5594 352.54688 346.73126Q351.89062 346.825 351.625 346.95Q351.35938 347.0594 351.20312 347.27814Q351.0625 347.4969 351.0625 347.77814Q351.0625 348.2 351.375 348.48126Q351.70312 348.7625 352.3125 348.7625Q352.92188 348.7625 353.39062 348.4969Q353.875 348.23126 354.09375 347.7625Q354.26562 347.40314 354.26562 346.71564L354.26562 346.325ZM357.25 351.84064L357.125 350.85626Q357.46875 350.95 357.73438 350.95Q358.07812 350.95 358.28125 350.825Q358.5 350.71564 358.64062 350.5125Q358.73438 350.34064 358.96875 349.71564Q358.98438 349.6375 359.0625 349.46564L356.6875 343.23126L357.82812 343.23126L359.125 346.825Q359.375 347.5125 359.57812 348.27814Q359.76562 347.54376 360.01562 346.85626L361.34375 343.23126L362.39062 343.23126L360.03125 349.5594Q359.64062 350.575 359.4375 350.96564Q359.15625 351.4969 358.78125 351.73126Q358.42188 351.98126 357.92188 351.98126Q357.625 351.98126 357.25 351.84064ZM363.375 349.45L363.375 340.85626L364.51562 340.85626L364.51562 348.4344L368.75 348.4344L368.75 349.45L363.375 349.45ZM370.29688 342.075L370.29688 340.85626L371.35938 340.85626L371.35938 342.075L370.29688 342.075ZM370.29688 349.45L370.29688 343.23126L371.35938 343.23126L371.35938 349.45L370.29688 349.45ZM372.875 347.59064L373.90625 347.4344Q374.0 348.0594 374.39062 348.3875Q374.79688 348.71564 375.53125 348.71564Q376.25 348.71564 376.59375 348.4344Q376.95312 348.1375 376.95312 347.73126Q376.95312 347.3719 376.64062 347.16876Q376.42188 347.02814 375.5625 346.8094Q374.40625 346.5125 373.95312 346.3094Q373.51562 346.09064 373.28125 345.71564Q373.04688 345.34064 373.04688 344.8719Q373.04688 344.46564 373.23438 344.10626Q373.42188 343.7469 373.75 343.5125Q374.0 343.34064 374.42188 343.21564Q374.84375 343.09064 375.34375 343.09064Q376.0625 343.09064 376.60938 343.3094Q377.17188 343.5125 377.4375 343.8719Q377.70312 344.23126 377.79688 344.825L376.76562 344.96564Q376.70312 344.4969 376.35938 344.23126Q376.03125 343.95 375.40625 343.95Q374.6875 343.95 374.375 344.2Q374.0625 344.4344 374.0625 344.7625Q374.0625 344.96564 374.1875 345.1219Q374.32812 345.29376 374.59375 345.40314Q374.75 345.46564 375.53125 345.66876Q376.65625 345.98126 377.09375 346.16876Q377.53125 346.35626 377.78125 346.71564Q378.03125 347.075 378.03125 347.6219Q378.03125 348.15314 377.71875 348.6219Q377.42188 349.075 376.84375 349.34064Q376.26562 349.59064 375.53125 349.59064Q374.3125 349.59064 373.67188 349.09064Q373.04688 348.575 372.875 347.59064ZM381.59375 348.5125L381.75 349.4344Q381.29688 349.52814 380.95312 349.52814Q380.375 349.52814 380.0625 349.35626Q379.75 349.16876 379.60938 348.8719Q379.48438 348.575 379.48438 347.6219L379.48438 344.04376L378.71875 344.04376L378.71875 343.23126L379.48438 343.23126L379.48438 341.6844L380.53125 341.0594L380.53125 343.23126L381.59375 343.23126L381.59375 344.04376L380.53125 344.04376L380.53125 347.6844Q380.53125 348.1375 380.57812 348.2625Q380.64062 348.3875 380.76562 348.46564Q380.89062 348.54376 381.125 348.54376Q381.3125 348.54376 381.59375 348.5125Z" fill-rule="nonzero"/><path fill="#757575" d="M74.578125 37.55L74.578125 23.2375L80.921875 23.2375Q82.828125 23.2375 83.828125 23.628124Q84.828125 24.003124 85.421875 24.9875Q86.015625 25.95625 86.015625 27.14375Q86.015625 28.659374 85.03125 29.70625Q84.046875 30.753124 81.984375 31.034374Q82.734375 31.39375 83.125 31.753124Q83.953125 32.503124 84.703125 33.659374L87.1875 37.55L84.8125 37.55L82.90625 34.565624Q82.078125 33.284374 81.546875 32.596874Q81.015625 31.909374 80.578125 31.64375Q80.15625 31.3625 79.71875 31.253124Q79.390625 31.190624 78.671875 31.190624L76.46875 31.190624L76.46875 37.55L74.578125 37.55ZM76.46875 29.55L80.546875 29.55Q81.84375 29.55 82.5625 29.284374Q83.296875 29.01875 83.671875 28.425Q84.0625 27.83125 84.0625 27.14375Q84.0625 26.128124 83.328125 25.471874Q82.59375 24.815624 81.0 24.815624L76.46875 24.815624L76.46875 29.55ZM95.109375 37.55L95.109375 36.01875Q93.90625 37.784374 91.828125 37.784374Q90.90625 37.784374 90.109375 37.440624Q89.3125 37.08125 88.921875 36.55Q88.546875 36.01875 88.390625 35.2375Q88.28125 34.721874 88.28125 33.596874L88.28125 27.175L90.03125 27.175L90.03125 32.925Q90.03125 34.3 90.140625 34.784374Q90.3125 35.471874 90.84375 35.878124Q91.390625 36.26875 92.171875 36.26875Q92.96875 36.26875 93.65625 35.8625Q94.359375 35.45625 94.640625 34.76875Q94.9375 34.065624 94.9375 32.7375L94.9375 27.175L96.6875 27.175L96.6875 37.55L95.109375 37.55ZM106.109375 37.55L106.109375 36.01875Q104.90625 37.784374 102.828125 37.784374Q101.90625 37.784374 101.109375 37.440624Q100.3125 37.08125 99.921875 36.55Q99.546875 36.01875 99.390625 35.2375Q99.28125 34.721874 99.28125 33.596874L99.28125 27.175L101.03125 27.175L101.03125 32.925Q101.03125 34.3 101.140625 34.784374Q101.3125 35.471874 101.84375 35.878124Q102.390625 36.26875 103.171875 36.26875Q103.96875 36.26875 104.65625 35.8625Q105.359375 35.45625 105.640625 34.76875Q105.9375 34.065624 105.9375 32.7375L105.9375 27.175L107.6875 27.175L107.6875 37.55L106.109375 37.55ZM114.15625 35.971874L114.40625 37.534374Q113.671875 37.690624 113.078125 37.690624Q112.125 37.690624 111.59375 37.39375Q111.078125 37.08125 110.859375 36.596874Q110.640625 36.096874 110.640625 34.51875L110.640625 28.55L109.359375 28.55L109.359375 27.175L110.640625 27.175L110.640625 24.6125L112.390625 23.55L112.390625 27.175L114.15625 27.175L114.15625 28.55L112.390625 28.55L112.390625 34.6125Q112.390625 35.3625 112.484375 35.58125Q112.578125 35.784374 112.78125 35.925Q113.0 36.05 113.390625 36.05Q113.671875 36.05 114.15625 35.971874ZM123.109375 37.55L123.109375 36.01875Q121.90625 37.784374 119.828125 37.784374Q118.90625 37.784374 118.109375 37.440624Q117.3125 37.08125 116.921875 36.55Q116.546875 36.01875 116.390625 35.2375Q116.28125 34.721874 116.28125 33.596874L116.28125 27.175L118.03125 27.175L118.03125 32.925Q118.03125 34.3 118.140625 34.784374Q118.3125 35.471874 118.84375 35.878124Q119.390625 36.26875 120.171875 36.26875Q120.96875 36.26875 121.65625 35.8625Q122.359375 35.45625 122.640625 34.76875Q122.9375 34.065624 122.9375 32.7375L122.9375 27.175L124.6875 27.175L124.6875 37.55L123.109375 37.55ZM127.46875 37.55L127.46875 23.2375L129.35938 23.2375L129.35938 35.8625L136.40625 35.8625L136.40625 37.55L127.46875 37.55ZM138.32812 25.253124L138.32812 23.2375L140.09375 23.2375L140.09375 25.253124L138.32812 25.253124ZM138.32812 37.55L138.32812 27.175L140.09375 27.175L140.09375 37.55L138.32812 37.55ZM141.60938 34.45625L143.35938 34.175Q143.5 35.221874 144.17188 35.784374Q144.84375 36.33125 146.04688 36.33125Q147.25 36.33125 147.82812 35.846874Q148.42188 35.346874 148.42188 34.690624Q148.42188 34.096874 147.90625 33.753124Q147.54688 33.51875 146.10938 33.159374Q144.17188 32.659374 143.42188 32.315624Q142.6875 31.95625 142.29688 31.33125Q141.90625 30.690624 141.90625 29.925Q141.90625 29.2375 142.21875 28.64375Q142.54688 28.05 143.09375 27.659374Q143.5 27.3625 144.20312 27.159374Q144.92188 26.940624 145.73438 26.940624Q146.95312 26.940624 147.875 27.3Q148.79688 27.64375 149.23438 28.253124Q149.67188 28.846874 149.84375 29.846874L148.125 30.08125Q148.0 29.284374 147.4375 28.846874Q146.875 28.39375 145.85938 28.39375Q144.64062 28.39375 144.125 28.8Q143.60938 29.190624 143.60938 29.721874Q143.60938 30.065624 143.82812 30.346874Q144.03125 30.628124 144.5 30.815624Q144.76562 30.909374 146.04688 31.253124Q147.92188 31.753124 148.65625 32.08125Q149.39062 32.39375 149.8125 33.003124Q150.23438 33.596874 150.23438 34.503124Q150.23438 35.378124 149.71875 36.159374Q149.20312 36.940624 148.23438 37.3625Q147.26562 37.784374 146.04688 37.784374Q144.03125 37.784374 142.96875 36.940624Q141.90625 36.096874 141.60938 34.45625ZM156.15625 35.971874L156.40625 37.534374Q155.67188 37.690624 155.07812 37.690624Q154.125 37.690624 153.59375 37.39375Q153.07812 37.08125 152.85938 36.596874Q152.64062 36.096874 152.64062 34.51875L152.64062 28.55L151.35938 28.55L151.35938 27.175L152.64062 27.175L152.64062 24.6125L154.39062 23.55L154.39062 27.175L156.15625 27.175L156.15625 28.55L154.39062 28.55L154.39062 34.6125Q154.39062 35.3625 154.48438 35.58125Q154.57812 35.784374 154.78125 35.925Q155.0 36.05 155.39062 36.05Q155.67188 36.05 156.15625 35.971874ZM165.09375 36.26875Q164.10938 37.096874 163.20312 37.440624Q162.29688 37.784374 161.26562 37.784374Q159.5625 37.784374 158.64062 36.95625Q157.71875 36.1125 157.71875 34.815624Q157.71875 34.05 158.0625 33.425Q158.42188 32.8 158.98438 32.425Q159.54688 32.034374 160.25 31.83125Q160.76562 31.70625 161.8125 31.565624Q163.9375 31.315624 164.9375 30.971874Q164.95312 30.6125 164.95312 30.503124Q164.95312 29.440624 164.45312 28.9875Q163.78125 28.39375 162.45312 28.39375Q161.20312 28.39375 160.60938 28.83125Q160.03125 29.26875 159.75 30.378124L158.03125 30.14375Q158.26562 29.034374 158.79688 28.3625Q159.32812 27.675 160.34375 27.315624Q161.35938 26.940624 162.70312 26.940624Q164.03125 26.940624 164.85938 27.253124Q165.6875 27.565624 166.07812 28.05Q166.46875 28.51875 166.625 29.2375Q166.71875 29.690624 166.71875 30.8625L166.71875 33.20625Q166.71875 35.659374 166.82812 36.315624Q166.9375 36.95625 167.28125 37.55L165.4375 37.55Q165.17188 37.003124 165.09375 36.26875ZM164.9375 32.346874Q163.98438 32.7375 162.0625 33.003124Q160.98438 33.159374 160.53125 33.3625Q160.09375 33.55 159.84375 33.925Q159.59375 34.3 159.59375 34.76875Q159.59375 35.471874 160.125 35.940624Q160.65625 36.409374 161.6875 36.409374Q162.70312 36.409374 163.48438 35.971874Q164.28125 35.51875 164.65625 34.753124Q164.9375 34.14375 164.9375 32.9875L164.9375 32.346874ZM169.3125 37.55L169.3125 27.175L170.90625 27.175L170.90625 28.659374Q172.04688 26.940624 174.20312 26.940624Q175.14062 26.940624 175.92188 27.284374Q176.71875 27.6125 177.10938 28.159374Q177.5 28.70625 177.65625 29.45625Q177.75 29.95625 177.75 31.175L177.75 37.55L175.98438 37.55L175.98438 31.2375Q175.98438 30.159374 175.78125 29.628124Q175.57812 29.096874 175.04688 28.784374Q174.53125 28.471874 173.82812 28.471874Q172.70312 28.471874 171.89062 29.190624Q171.07812 29.89375 171.07812 31.878124L171.07812 37.55L169.3125 37.55ZM186.3125 25.26875L186.3125 23.2375L188.0625 23.2375L188.0625 25.26875L186.3125 25.26875ZM184.07812 41.58125L184.40625 40.08125Q184.9375 40.221874 185.25 40.221874Q185.78125 40.221874 186.04688 39.8625Q186.3125 39.503124 186.3125 38.08125L186.3125 27.175L188.0625 27.175L188.0625 38.1125Q188.0625 40.034374 187.5625 40.784374Q186.9375 41.753124 185.45312 41.753124Q184.75 41.753124 184.07812 41.58125ZM197.09375 36.26875Q196.10938 37.096874 195.20312 37.440624Q194.29688 37.784374 193.26562 37.784374Q191.5625 37.784374 190.64062 36.95625Q189.71875 36.1125 189.71875 34.815624Q189.71875 34.05 190.0625 33.425Q190.42188 32.8 190.98438 32.425Q191.54688 32.034374 192.25 31.83125Q192.76562 31.70625 193.8125 31.565624Q195.9375 31.315624 196.9375 30.971874Q196.95312 30.6125 196.95312 30.503124Q196.95312 29.440624 196.45312 28.9875Q195.78125 28.39375 194.45312 28.39375Q193.20312 28.39375 192.60938 28.83125Q192.03125 29.26875 191.75 30.378124L190.03125 30.14375Q190.26562 29.034374 190.79688 28.3625Q191.32812 27.675 192.34375 27.315624Q193.35938 26.940624 194.70312 26.940624Q196.03125 26.940624 196.85938 27.253124Q197.6875 27.565624 198.07812 28.05Q198.46875 28.51875 198.625 29.2375Q198.71875 29.690624 198.71875 30.8625L198.71875 33.20625Q198.71875 35.659374 198.82812 36.315624Q198.9375 36.95625 199.28125 37.55L197.4375 37.55Q197.17188 37.003124 197.09375 36.26875ZM196.9375 32.346874Q195.98438 32.7375 194.0625 33.003124Q192.98438 33.159374 192.53125 33.3625Q192.09375 33.55 191.84375 33.925Q191.59375 34.3 191.59375 34.76875Q191.59375 35.471874 192.125 35.940624Q192.65625 36.409374 193.6875 36.409374Q194.70312 36.409374 195.48438 35.971874Q196.28125 35.51875 196.65625 34.753124Q196.9375 34.14375 196.9375 32.9875L196.9375 32.346874ZM205.96875 37.55L211.46875 23.2375L213.51562 23.2375L219.375 37.55L217.21875 37.55L215.54688 33.20625L209.5625 33.20625L207.98438 37.55L205.96875 37.55ZM210.10938 31.675L214.95312 31.675L213.46875 27.70625Q212.78125 25.89375 212.45312 24.7375Q212.17188 26.1125 211.67188 27.471874L210.10938 31.675ZM220.29688 37.55L220.29688 27.175L221.875 27.175L221.875 28.753124Q222.48438 27.64375 223.0 27.3Q223.51562 26.940624 224.125 26.940624Q225.01562 26.940624 225.9375 27.503124L225.32812 29.14375Q224.6875 28.753124 224.04688 28.753124Q223.46875 28.753124 223.0 29.1125Q222.54688 29.45625 222.34375 30.065624Q222.0625 31.003124 222.0625 32.1125L222.0625 37.55L220.29688 37.55ZM227.29688 37.55L227.29688 27.175L228.875 27.175L228.875 28.753124Q229.48438 27.64375 230.0 27.3Q230.51562 26.940624 231.125 26.940624Q232.01562 26.940624 232.9375 27.503124L232.32812 29.14375Q231.6875 28.753124 231.04688 28.753124Q230.46875 28.753124 230.0 29.1125Q229.54688 29.45625 229.34375 30.065624Q229.0625 31.003124 229.0625 32.1125L229.0625 37.55L227.29688 37.55ZM241.09375 36.26875Q240.10938 37.096874 239.20312 37.440624Q238.29688 37.784374 237.26562 37.784374Q235.5625 37.784374 234.64062 36.95625Q233.71875 36.1125 233.71875 34.815624Q233.71875 34.05 234.0625 33.425Q234.42188 32.8 234.98438 32.425Q235.54688 32.034374 236.25 31.83125Q236.76562 31.70625 237.8125 31.565624Q239.9375 31.315624 240.9375 30.971874Q240.95312 30.6125 240.95312 30.503124Q240.95312 29.440624 240.45312 28.9875Q239.78125 28.39375 238.45312 28.39375Q237.20312 28.39375 236.60938 28.83125Q236.03125 29.26875 235.75 30.378124L234.03125 30.14375Q234.26562 29.034374 234.79688 28.3625Q235.32812 27.675 236.34375 27.315624Q237.35938 26.940624 238.70312 26.940624Q240.03125 26.940624 240.85938 27.253124Q241.6875 27.565624 242.07812 28.05Q242.46875 28.51875 242.625 29.2375Q242.71875 29.690624 242.71875 30.8625L242.71875 33.20625Q242.71875 35.659374 242.82812 36.315624Q242.9375 36.95625 243.28125 37.55L241.4375 37.55Q241.17188 37.003124 241.09375 36.26875ZM240.9375 32.346874Q239.98438 32.7375 238.0625 33.003124Q236.98438 33.159374 236.53125 33.3625Q236.09375 33.55 235.84375 33.925Q235.59375 34.3 235.59375 34.76875Q235.59375 35.471874 236.125 35.940624Q236.65625 36.409374 237.6875 36.409374Q238.70312 36.409374 239.48438 35.971874Q240.28125 35.51875 240.65625 34.753124Q240.9375 34.14375 240.9375 32.9875L240.9375 32.346874ZM245.23438 41.55L245.04688 39.89375Q245.625 40.05 246.04688 40.05Q246.64062 40.05 246.98438 39.846874Q247.34375 39.659374 247.5625 39.315624Q247.73438 39.05 248.10938 38.003124Q248.15625 37.846874 248.26562 37.565624L244.32812 27.175L246.21875 27.175L248.375 33.190624Q248.79688 34.33125 249.125 35.58125Q249.4375 34.378124 249.84375 33.221874L252.0625 27.175L253.82812 27.175L249.875 37.721874Q249.25 39.440624 248.89062 40.08125Q248.42188 40.95625 247.8125 41.346874Q247.21875 41.753124 246.375 41.753124Q245.85938 41.753124 245.23438 41.55ZM255.46875 37.55L255.46875 23.2375L257.35938 23.2375L257.35938 35.8625L264.40625 35.8625L264.40625 37.55L255.46875 37.55ZM266.32812 25.253124L266.32812 23.2375L268.09375 23.2375L268.09375 25.253124L266.32812 25.253124ZM266.32812 37.55L266.32812 27.175L268.09375 27.175L268.09375 37.55L266.32812 37.55ZM269.60938 34.45625L271.35938 34.175Q271.5 35.221874 272.17188 35.784374Q272.84375 36.33125 274.04688 36.33125Q275.25 36.33125 275.82812 35.846874Q276.42188 35.346874 276.42188 34.690624Q276.42188 34.096874 275.90625 33.753124Q275.54688 33.51875 274.10938 33.159374Q272.17188 32.659374 271.42188 32.315624Q270.6875 31.95625 270.29688 31.33125Q269.90625 30.690624 269.90625 29.925Q269.90625 29.2375 270.21875 28.64375Q270.54688 28.05 271.09375 27.659374Q271.5 27.3625 272.20312 27.159374Q272.92188 26.940624 273.73438 26.940624Q274.95312 26.940624 275.875 27.3Q276.79688 27.64375 277.23438 28.253124Q277.67188 28.846874 277.84375 29.846874L276.125 30.08125Q276.0 29.284374 275.4375 28.846874Q274.875 28.39375 273.85938 28.39375Q272.64062 28.39375 272.125 28.8Q271.60938 29.190624 271.60938 29.721874Q271.60938 30.065624 271.82812 30.346874Q272.03125 30.628124 272.5 30.815624Q272.76562 30.909374 274.04688 31.253124Q275.92188 31.753124 276.65625 32.08125Q277.39062 32.39375 277.8125 33.003124Q278.23438 33.596874 278.23438 34.503124Q278.23438 35.378124 277.71875 36.159374Q277.20312 36.940624 276.23438 37.3625Q275.26562 37.784374 274.04688 37.784374Q272.03125 37.784374 270.96875 36.940624Q269.90625 36.096874 269.60938 34.45625ZM284.15625 35.971874L284.40625 37.534374Q283.67188 37.690624 283.07812 37.690624Q282.125 37.690624 281.59375 37.39375Q281.07812 37.08125 280.85938 36.596874Q280.64062 36.096874 280.64062 34.51875L280.64062 28.55L279.35938 28.55L279.35938 27.175L280.64062 27.175L280.64062 24.6125L282.39062 23.55L282.39062 27.175L284.15625 27.175L284.15625 28.55L282.39062 28.55L282.39062 34.6125Q282.39062 35.3625 282.48438 35.58125Q282.57812 35.784374 282.78125 35.925Q283.0 36.05 283.39062 36.05Q283.67188 36.05 284.15625 35.971874ZM286.32812 25.253124L286.32812 23.2375L288.09375 23.2375L288.09375 25.253124L286.32812 25.253124ZM286.32812 37.55L286.32812 27.175L288.09375 27.175L288.09375 37.55L286.32812 37.55ZM290.3125 37.55L290.3125 27.175L291.90625 27.175L291.90625 28.659374Q293.04688 26.940624 295.20312 26.940624Q296.14062 26.940624 296.92188 27.284374Q297.71875 27.6125 298.10938 28.159374Q298.5 28.70625 298.65625 29.45625Q298.75 29.95625 298.75 31.175L298.75 37.55L296.98438 37.55L296.98438 31.2375Q296.98438 30.159374 296.78125 29.628124Q296.57812 29.096874 296.04688 28.784374Q295.53125 28.471874 294.82812 28.471874Q293.70312 28.471874 292.89062 29.190624Q292.07812 29.89375 292.07812 31.878124L292.07812 37.55L290.3125 37.55ZM306.60938 34.45625L308.35938 34.175Q308.5 35.221874 309.17188 35.784374Q309.84375 36.33125 311.04688 36.33125Q312.25 36.33125 312.82812 35.846874Q313.42188 35.346874 313.42188 34.690624Q313.42188 34.096874 312.90625 33.753124Q312.54688 33.51875 311.10938 33.159374Q309.17188 32.659374 308.42188 32.315624Q307.6875 31.95625 307.29688 31.33125Q306.90625 30.690624 306.90625 29.925Q306.90625 29.2375 307.21875 28.64375Q307.54688 28.05 308.09375 27.659374Q308.5 27.3625 309.20312 27.159374Q309.92188 26.940624 310.73438 26.940624Q311.95312 26.940624 312.875 27.3Q313.79688 27.64375 314.23438 28.253124Q314.67188 28.846874 314.84375 29.846874L313.125 30.08125Q313.0 29.284374 312.4375 28.846874Q311.875 28.39375 310.85938 28.39375Q309.64062 28.39375 309.125 28.8Q308.60938 29.190624 308.60938 29.721874Q308.60938 30.065624 308.82812 30.346874Q309.03125 30.628124 309.5 30.815624Q309.76562 30.909374 311.04688 31.253124Q312.92188 31.753124 313.65625 32.08125Q314.39062 32.39375 314.8125 33.003124Q315.23438 33.596874 315.23438 34.503124Q315.23438 35.378124 314.71875 36.159374Q314.20312 36.940624 313.23438 37.3625Q312.26562 37.784374 311.04688 37.784374Q309.03125 37.784374 307.96875 36.940624Q306.90625 36.096874 306.60938 34.45625ZM324.10938 37.55L324.10938 36.01875Q322.90625 37.784374 320.82812 37.784374Q319.90625 37.784374 319.10938 37.440624Q318.3125 37.08125 317.92188 36.55Q317.54688 36.01875 317.39062 35.2375Q317.28125 34.721874 317.28125 33.596874L317.28125 27.175L319.03125 27.175L319.03125 32.925Q319.03125 34.3 319.14062 34.784374Q319.3125 35.471874 319.84375 35.878124Q320.39062 36.26875 321.17188 36.26875Q321.96875 36.26875 322.65625 35.8625Q323.35938 35.45625 323.64062 34.76875Q323.9375 34.065624 323.9375 32.7375L323.9375 27.175L325.6875 27.175L325.6875 37.55L324.10938 37.55ZM328.3125 37.55L328.3125 23.2375L330.07812 23.2375L330.07812 28.3625Q331.3125 26.940624 333.1875 26.940624Q334.32812 26.940624 335.17188 27.39375Q336.03125 27.846874 336.39062 28.659374Q336.76562 29.45625 336.76562 30.971874L336.76562 37.55L335.01562 37.55L335.01562 30.971874Q335.01562 29.659374 334.4375 29.065624Q333.85938 28.45625 332.82812 28.45625Q332.04688 28.45625 331.34375 28.8625Q330.65625 29.26875 330.35938 29.971874Q330.07812 30.659374 330.07812 31.878124L330.07812 37.55L328.3125 37.55ZM343.15625 35.971874L343.40625 37.534374Q342.67188 37.690624 342.07812 37.690624Q341.125 37.690624 340.59375 37.39375Q340.07812 37.08125 339.85938 36.596874Q339.64062 36.096874 339.64062 34.51875L339.64062 28.55L338.35938 28.55L338.35938 27.175L339.64062 27.175L339.64062 24.6125L341.39062 23.55L341.39062 27.175L343.15625 27.175L343.15625 28.55L341.39062 28.55L341.39062 34.6125Q341.39062 35.3625 341.48438 35.58125Q341.57812 35.784374 341.78125 35.925Q342.0 36.05 342.39062 36.05Q342.67188 36.05 343.15625 35.971874ZM352.42188 34.20625L354.23438 34.440624Q353.8125 36.01875 352.64062 36.909374Q351.48438 37.784374 349.67188 37.784374Q347.40625 37.784374 346.0625 36.39375Q344.73438 34.9875 344.73438 32.45625Q344.73438 29.83125 346.07812 28.39375Q347.42188 26.940624 349.57812 26.940624Q351.65625 26.940624 352.96875 28.3625Q354.29688 29.76875 354.29688 32.346874Q354.29688 32.503124 354.28125 32.815624L346.54688 32.815624Q346.64062 34.51875 347.51562 35.425Q348.39062 36.33125 349.6875 36.33125Q350.65625 36.33125 351.32812 35.83125Q352.01562 35.315624 352.42188 34.20625ZM346.64062 31.3625L352.4375 31.3625Q352.32812 30.065624 351.78125 29.409374Q350.9375 28.39375 349.59375 28.39375Q348.39062 28.39375 347.5625 29.20625Q346.73438 30.003124 346.64062 31.3625ZM363.42188 34.20625L365.23438 34.440624Q364.8125 36.01875 363.64062 36.909374Q362.48438 37.784374 360.67188 37.784374Q358.40625 37.784374 357.0625 36.39375Q355.73438 34.9875 355.73438 32.45625Q355.73438 29.83125 357.07812 28.39375Q358.42188 26.940624 360.57812 26.940624Q362.65625 26.940624 363.96875 28.3625Q365.29688 29.76875 365.29688 32.346874Q365.29688 32.503124 365.28125 32.815624L357.54688 32.815624Q357.64062 34.51875 358.51562 35.425Q359.39062 36.33125 360.6875 36.33125Q361.65625 36.33125 362.32812 35.83125Q363.01562 35.315624 363.42188 34.20625ZM357.64062 31.3625L363.4375 31.3625Q363.32812 30.065624 362.78125 29.409374Q361.9375 28.39375 360.59375 28.39375Q359.39062 28.39375 358.5625 29.20625Q357.73438 30.003124 357.64062 31.3625ZM367.28125 37.55L367.28125 23.2375L369.03125 23.2375L369.03125 37.55L367.28125 37.55ZM371.28125 37.55L371.28125 23.2375L373.03125 23.2375L373.03125 37.55L371.28125 37.55ZM375.32812 25.253124L375.32812 23.2375L377.09375 23.2375L377.09375 25.253124L375.32812 25.253124ZM375.32812 37.55L375.32812 27.175L377.09375 27.175L377.09375 37.55L375.32812 37.55ZM379.3125 37.55L379.3125 27.175L380.90625 27.175L380.90625 28.659374Q382.04688 26.940624 384.20312 26.940624Q385.14062 26.940624 385.92188 27.284374Q386.71875 27.6125 387.10938 28.159374Q387.5 28.70625 387.65625 29.45625Q387.75 29.95625 387.75 31.175L387.75 37.55L385.98438 37.55L385.98438 31.2375Q385.98438 30.159374 385.78125 29.628124Q385.57812 29.096874 385.04688 28.784374Q384.53125 28.471874 383.82812 28.471874Q382.70312 28.471874 381.89062 29.190624Q381.07812 29.89375 381.07812 31.878124L381.07812 37.55L379.3125 37.55ZM397.42188 34.20625L399.23438 34.440624Q398.8125 36.01875 397.64062 36.909374Q396.48438 37.784374 394.67188 37.784374Q392.40625 37.784374 391.0625 36.39375Q389.73438 34.9875 389.73438 32.45625Q389.73438 29.83125 391.07812 28.39375Q392.42188 26.940624 394.57812 26.940624Q396.65625 26.940624 397.96875 28.3625Q399.29688 29.76875 399.29688 32.346874Q399.29688 32.503124 399.28125 32.815624L391.54688 32.815624Q391.64062 34.51875 392.51562 35.425Q393.39062 36.33125 394.6875 36.33125Q395.65625 36.33125 396.32812 35.83125Q397.01562 35.315624 397.42188 34.20625ZM391.64062 31.3625L397.4375 31.3625Q397.32812 30.065624 396.78125 29.409374Q395.9375 28.39375 394.59375 28.39375Q393.39062 28.39375 392.5625 29.20625Q391.73438 30.003124 391.64062 31.3625ZM401.3125 37.55L401.3125 27.175L402.90625 27.175L402.90625 28.659374Q404.04688 26.940624 406.20312 26.940624Q407.14062 26.940624 407.92188 27.284374Q408.71875 27.6125 409.10938 28.159374Q409.5 28.70625 409.65625 29.45625Q409.75 29.95625 409.75 31.175L409.75 37.55L407.98438 37.55L407.98438 31.2375Q407.98438 30.159374 407.78125 29.628124Q407.57812 29.096874 407.04688 28.784374Q406.53125 28.471874 405.82812 28.471874Q404.70312 28.471874 403.89062 29.190624Q403.07812 29.89375 403.07812 31.878124L403.07812 37.55L401.3125 37.55ZM417.60938 34.45625L419.35938 34.175Q419.5 35.221874 420.17188 35.784374Q420.84375 36.33125 422.04688 36.33125Q423.25 36.33125 423.82812 35.846874Q424.42188 35.346874 424.42188 34.690624Q424.42188 34.096874 423.90625 33.753124Q423.54688 33.51875 422.10938 33.159374Q420.17188 32.659374 419.42188 32.315624Q418.6875 31.95625 418.29688 31.33125Q417.90625 30.690624 417.90625 29.925Q417.90625 29.2375 418.21875 28.64375Q418.54688 28.05 419.09375 27.659374Q419.5 27.3625 420.20312 27.159374Q420.92188 26.940624 421.73438 26.940624Q422.95312 26.940624 423.875 27.3Q424.79688 27.64375 425.23438 28.253124Q425.67188 28.846874 425.84375 29.846874L424.125 30.08125Q424.0 29.284374 423.4375 28.846874Q422.875 28.39375 421.85938 28.39375Q420.64062 28.39375 420.125 28.8Q419.60938 29.190624 419.60938 29.721874Q419.60938 30.065624 419.82812 30.346874Q420.03125 30.628124 420.5 30.815624Q420.76562 30.909374 422.04688 31.253124Q423.92188 31.753124 424.65625 32.08125Q425.39062 32.39375 425.8125 33.003124Q426.23438 33.596874 426.23438 34.503124Q426.23438 35.378124 425.71875 36.159374Q425.20312 36.940624 424.23438 37.3625Q423.26562 37.784374 422.04688 37.784374Q420.03125 37.784374 418.96875 36.940624Q417.90625 36.096874 417.60938 34.45625ZM435.10938 37.55L435.10938 36.01875Q433.90625 37.784374 431.82812 37.784374Q430.90625 37.784374 430.10938 37.440624Q429.3125 37.08125 428.92188 36.55Q428.54688 36.01875 428.39062 35.2375Q428.28125 34.721874 428.28125 33.596874L428.28125 27.175L430.03125 27.175L430.03125 32.925Q430.03125 34.3 430.14062 34.784374Q430.3125 35.471874 430.84375 35.878124Q431.39062 36.26875 432.17188 36.26875Q432.96875 36.26875 433.65625 35.8625Q434.35938 35.45625 434.64062 34.76875Q434.9375 34.065624 434.9375 32.7375L434.9375 27.175L436.6875 27.175L436.6875 37.55L435.10938 37.55ZM438.67188 32.3625Q438.67188 29.4875 440.26562 28.096874Q441.60938 26.940624 443.53125 26.940624Q445.67188 26.940624 447.01562 28.346874Q448.375 29.753124 448.375 32.221874Q448.375 34.221874 447.78125 35.378124Q447.1875 36.51875 446.03125 37.159374Q444.89062 37.784374 443.53125 37.784374Q441.34375 37.784374 440.0 36.39375Q438.67188 34.9875 438.67188 32.3625ZM440.46875 32.3625Q440.46875 34.3625 441.32812 35.346874Q442.20312 36.33125 443.53125 36.33125Q444.84375 36.33125 445.70312 35.346874Q446.57812 34.346874 446.57812 32.3Q446.57812 30.378124 445.70312 29.39375Q444.82812 28.39375 443.53125 28.39375Q442.20312 28.39375 441.32812 29.39375Q440.46875 30.378124 440.46875 32.3625ZM450.29688 37.55L450.29688 27.175L451.875 27.175L451.875 28.753124Q452.48438 27.64375 453.0 27.3Q453.51562 26.940624 454.125 26.940624Q455.01562 26.940624 455.9375 27.503124L455.32812 29.14375Q454.6875 28.753124 454.04688 28.753124Q453.46875 28.753124 453.0 29.1125Q452.54688 29.45625 452.34375 30.065624Q452.0625 31.003124 452.0625 32.1125L452.0625 37.55L450.29688 37.55ZM457.32812 25.253124L457.32812 23.2375L459.09375 23.2375L459.09375 25.253124L457.32812 25.253124ZM457.32812 37.55L457.32812 27.175L459.09375 27.175L459.09375 37.55L457.32812 37.55ZM465.15625 35.971874L465.40625 37.534374Q464.67188 37.690624 464.07812 37.690624Q463.125 37.690624 462.59375 37.39375Q462.07812 37.08125 461.85938 36.596874Q461.64062 36.096874 461.64062 34.51875L461.64062 28.55L460.35938 28.55L460.35938 27.175L461.64062 27.175L461.64062 24.6125L463.39062 23.55L463.39062 27.175L465.15625 27.175L465.15625 28.55L463.39062 28.55L463.39062 34.6125Q463.39062 35.3625 463.48438 35.58125Q463.57812 35.784374 463.78125 35.925Q464.0 36.05 464.39062 36.05Q464.67188 36.05 465.15625 35.971874ZM474.10938 37.55L474.10938 36.01875Q472.90625 37.784374 470.82812 37.784374Q469.90625 37.784374 469.10938 37.440624Q468.3125 37.08125 467.92188 36.55Q467.54688 36.01875 467.39062 35.2375Q467.28125 34.721874 467.28125 33.596874L467.28125 27.175L469.03125 27.175L469.03125 32.925Q469.03125 34.3 469.14062 34.784374Q469.3125 35.471874 469.84375 35.878124Q470.39062 36.26875 471.17188 36.26875Q471.96875 36.26875 472.65625 35.8625Q473.35938 35.45625 473.64062 34.76875Q473.9375 34.065624 473.9375 32.7375L473.9375 27.175L475.6875 27.175L475.6875 37.55L474.10938 37.55ZM477.60938 34.45625L479.35938 34.175Q479.5 35.221874 480.17188 35.784374Q480.84375 36.33125 482.04688 36.33125Q483.25 36.33125 483.82812 35.846874Q484.42188 35.346874 484.42188 34.690624Q484.42188 34.096874 483.90625 33.753124Q483.54688 33.51875 482.10938 33.159374Q480.17188 32.659374 479.42188 32.315624Q478.6875 31.95625 478.29688 31.33125Q477.90625 30.690624 477.90625 29.925Q477.90625 29.2375 478.21875 28.64375Q478.54688 28.05 479.09375 27.659374Q479.5 27.3625 480.20312 27.159374Q480.92188 26.940624 481.73438 26.940624Q482.95312 26.940624 483.875 27.3Q484.79688 27.64375 485.23438 28.253124Q485.67188 28.846874 485.84375 29.846874L484.125 30.08125Q484.0 29.284374 483.4375 28.846874Q482.875 28.39375 481.85938 28.39375Q480.64062 28.39375 480.125 28.8Q479.60938 29.190624 479.60938 29.721874Q479.60938 30.065624 479.82812 30.346874Q480.03125 30.628124 480.5 30.815624Q480.76562 30.909374 482.04688 31.253124Q483.92188 31.753124 484.65625 32.08125Q485.39062 32.39375 485.8125 33.003124Q486.23438 33.596874 486.23438 34.503124Q486.23438 35.378124 485.71875 36.159374Q485.20312 36.940624 484.23438 37.3625Q483.26562 37.784374 482.04688 37.784374Q480.03125 37.784374 478.96875 36.940624Q477.90625 36.096874 477.60938 34.45625ZM488.32812 37.55L488.32812 23.2375L490.09375 23.2375L490.09375 31.39375L494.25 27.175L496.51562 27.175L492.5625 31.01875L496.92188 37.55L494.75 37.55L491.32812 32.253124L490.09375 33.440624L490.09375 37.55L488.32812 37.55ZM498.23438 41.55L498.04688 39.89375Q498.625 40.05 499.04688 40.05Q499.64062 40.05 499.98438 39.846874Q500.34375 39.659374 500.5625 39.315624Q500.73438 39.05 501.10938 38.003124Q501.15625 37.846874 501.26562 37.565624L497.32812 27.175L499.21875 27.175L501.375 33.190624Q501.79688 34.33125 502.125 35.58125Q502.4375 34.378124 502.84375 33.221874L505.0625 27.175L506.82812 27.175L502.875 37.721874Q502.25 39.440624 501.89062 40.08125Q501.42188 40.95625 500.8125 41.346874Q500.21875 41.753124 499.375 41.753124Q498.85938 41.753124 498.23438 41.55ZM508.32812 37.55L508.32812 23.2375L510.09375 23.2375L510.09375 31.39375L514.25 27.175L516.5156 27.175L512.5625 31.01875L516.9219 37.55L514.75 37.55L511.32812 32.253124L510.09375 33.440624L510.09375 37.55L508.32812 37.55ZM518.2344 41.55L518.0469 39.89375Q518.625 40.05 519.0469 40.05Q519.6406 40.05 519.9844 39.846874Q520.34375 39.659374 520.5625 39.315624Q520.7344 39.05 521.1094 38.003124Q521.15625 37.846874 521.2656 37.565624L517.3281 27.175L519.21875 27.175L521.375 33.190624Q521.7969 34.33125 522.125 35.58125Q522.4375 34.378124 522.84375 33.221874L525.0625 27.175L526.8281 27.175L522.875 37.721874Q522.25 39.440624 521.8906 40.08125Q521.4219 40.95625 520.8125 41.346874Q520.21875 41.753124 519.375 41.753124Q518.8594 41.753124 518.2344 41.55Z" fill-rule="nonzero"/></svg>