<svg version="1.1" viewBox="0.0 0.0 600.0 371.0" fill="none" stroke="none" stroke-linecap="square" stroke-miterlimit="10" width="600" height="371" xmlns:xlink="http://www.w3.org/1999/xlink" xmlns="http://www.w3.org/2000/svg"><path fill="#ffffff" d="M0 0L600.0 0L600.0 371.0L0 371.0L0 0Z" fill-rule="nonzero"/><path stroke="#333333" stroke-width="1.0" stroke-linecap="butt" d="M44.5 310.5L582.5 310.5" fill-rule="nonzero"/><path stroke="#cccccc" stroke-width="1.0" stroke-linecap="butt" d="M44.5 259.5L582.5 259.5" fill-rule="nonzero"/><path stroke="#cccccc" stroke-width="1.0" stroke-linecap="butt" d="M44.5 208.5L582.5 208.5" fill-rule="nonzero"/><path stroke="#cccccc" stroke-width="1.0" stroke-linecap="butt" d="M44.5 157.5L582.5 157.5" fill-rule="nonzero"/><path stroke="#cccccc" stroke-width="1.0" stroke-linecap="butt" d="M44.5 107.5L582.5 107.5" fill-rule="nonzero"/><path stroke="#cccccc" stroke-width="1.0" stroke-linecap="butt" d="M44.5 56.5L582.5 56.5" fill-rule="nonzero"/><clipPath id="id_0"><path d="M44.571484 56.5L582.3336 56.5L582.3336 310.08334L44.571484 310.08334L44.571484 56.5Z" clip-rule="nonzero"/></clipPath><path stroke="#000000" stroke-width="2.0" stroke-linecap="butt" stroke-opacity="0.0" clip-path="url(#id_0)" d="M111.0 310.0L80.0 310.0L80.0 195.0C80.0 193.89543 80.89543 193.0 82.0 193.0L109.0 193.0C110.10457 193.0 111.0 193.89543 111.0 195.0Z" fill-rule="nonzero"/><path fill="#46bdc6" clip-path="url(#id_0)" d="M111.0 310.0L80.0 310.0L80.0 195.0C80.0 193.89543 80.89543 193.0 82.0 193.0L109.0 193.0C110.10457 193.0 111.0 193.89543 111.0 195.0Z" fill-rule="nonzero"/><path stroke="#000000" stroke-width="2.0" stroke-linecap="butt" stroke-opacity="0.0" clip-path="url(#id_0)" d="M212.0 310.0L181.0 310.0L181.0 185.0C181.0 183.89543 181.89543 183.0 183.0 183.0L210.0 183.0C211.10457 183.0 212.0 183.89543 212.0 185.0Z" fill-rule="nonzero"/><path fill="#46bdc6" clip-path="url(#id_0)" d="M212.0 310.0L181.0 310.0L181.0 185.0C181.0 183.89543 181.89543 183.0 183.0 183.0L210.0 183.0C211.10457 183.0 212.0 183.89543 212.0 185.0Z" fill-rule="nonzero"/><path stroke="#000000" stroke-width="2.0" stroke-linecap="butt" stroke-opacity="0.0" clip-path="url(#id_0)" d="M312.0 310.0L281.0 310.0L281.0 219.0C281.0 217.89543 281.89542 217.0 283.0 217.0L310.0 217.0C311.10458 217.0 312.0 217.89543 312.0 219.0Z" fill-rule="nonzero"/><path fill="#46bdc6" clip-path="url(#id_0)" d="M312.0 310.0L281.0 310.0L281.0 219.0C281.0 217.89543 281.89542 217.0 283.0 217.0L310.0 217.0C311.10458 217.0 312.0 217.89543 312.0 219.0Z" fill-rule="nonzero"/><path stroke="#000000" stroke-width="2.0" stroke-linecap="butt" stroke-opacity="0.0" clip-path="url(#id_0)" d="M413.0 310.0L382.0 310.0L382.0 70.0C382.0 68.89543 382.89542 68.0 384.0 68.0L411.0 68.0C412.10458 68.0 413.0 68.89543 413.0 70.0Z" fill-rule="nonzero"/><path fill="#46bdc6" clip-path="url(#id_0)" d="M413.0 310.0L382.0 310.0L382.0 70.0C382.0 68.89543 382.89542 68.0 384.0 68.0L411.0 68.0C412.10458 68.0 413.0 68.89543 413.0 70.0Z" fill-rule="nonzero"/><path stroke="#000000" stroke-width="2.0" stroke-linecap="butt" stroke-opacity="0.0" clip-path="url(#id_0)" d="M513.0 310.0L482.0 310.0L482.0 63.0C482.0 61.89543 482.89542 61.0 484.0 61.0L511.0 61.0C512.10455 61.0 513.0 61.89543 513.0 63.0Z" fill-rule="nonzero"/><path fill="#46bdc6" clip-path="url(#id_0)" d="M513.0 310.0L482.0 310.0L482.0 63.0C482.0 61.89543 482.89542 61.0 484.0 61.0L511.0 61.0C512.10455 61.0 513.0 61.89543 513.0 63.0Z" fill-rule="nonzero"/><path stroke="#000000" stroke-width="2.0" stroke-linecap="butt" stroke-opacity="0.0" clip-path="url(#id_0)" d="M144.0 310.0L113.0 310.0L113.0 211.0C113.0 209.89543 113.89543 209.0 115.0 209.0L142.0 209.0C143.10457 209.0 144.0 209.89543 144.0 211.0Z" fill-rule="nonzero"/><path fill="#ea4335" clip-path="url(#id_0)" d="M144.0 310.0L113.0 310.0L113.0 211.0C113.0 209.89543 113.89543 209.0 115.0 209.0L142.0 209.0C143.10457 209.0 144.0 209.89543 144.0 211.0Z" fill-rule="nonzero"/><path stroke="#000000" stroke-width="2.0" stroke-linecap="butt" stroke-opacity="0.0" clip-path="url(#id_0)" d="M245.0 310.0L214.0 310.0L214.0 211.0C214.0 209.89543 214.89543 209.0 216.0 209.0L243.0 209.0C244.10457 209.0 245.0 209.89543 245.0 211.0Z" fill-rule="nonzero"/><path fill="#ea4335" clip-path="url(#id_0)" d="M245.0 310.0L214.0 310.0L214.0 211.0C214.0 209.89543 214.89543 209.0 216.0 209.0L243.0 209.0C244.10457 209.0 245.0 209.89543 245.0 211.0Z" fill-rule="nonzero"/><path stroke="#000000" stroke-width="2.0" stroke-linecap="butt" stroke-opacity="0.0" clip-path="url(#id_0)" d="M345.0 310.0L314.0 310.0L314.0 211.0C314.0 209.89543 314.89542 209.0 316.0 209.0L343.0 209.0C344.10458 209.0 345.0 209.89543 345.0 211.0Z" fill-rule="nonzero"/><path fill="#ea4335" clip-path="url(#id_0)" d="M345.0 310.0L314.0 310.0L314.0 211.0C314.0 209.89543 314.89542 209.0 316.0 209.0L343.0 209.0C344.10458 209.0 345.0 209.89543 345.0 211.0Z" fill-rule="nonzero"/><path stroke="#000000" stroke-width="2.0" stroke-linecap="butt" stroke-opacity="0.0" clip-path="url(#id_0)" d="M446.0 310.0L415.0 310.0L415.0 211.0C415.0 209.89543 415.89542 209.0 417.0 209.0L444.0 209.0C445.10458 209.0 446.0 209.89543 446.0 211.0Z" fill-rule="nonzero"/><path fill="#ea4335" clip-path="url(#id_0)" d="M446.0 310.0L415.0 310.0L415.0 211.0C415.0 209.89543 415.89542 209.0 417.0 209.0L444.0 209.0C445.10458 209.0 446.0 209.89543 446.0 211.0Z" fill-rule="nonzero"/><path stroke="#000000" stroke-width="2.0" stroke-linecap="butt" stroke-opacity="0.0" clip-path="url(#id_0)" d="M546.0 310.0L515.0 310.0L515.0 211.0C515.0 209.89543 515.89545 209.0 517.0 209.0L544.0 209.0C545.10455 209.0 546.0 209.89543 546.0 211.0Z" fill-rule="nonzero"/><path fill="#ea4335" clip-path="url(#id_0)" d="M546.0 310.0L515.0 310.0L515.0 211.0C515.0 209.89543 515.89545 209.0 517.0 209.0L544.0 209.0C545.10455 209.0 546.0 209.89543 546.0 211.0Z" fill-rule="nonzero"/><path fill="#000000" d="M22.071484 309.84897Q22.071484 308.31772 22.383984 307.39584Q22.696484 306.45834 23.305859 305.95834Q23.930859 305.45834 24.868359 305.45834Q25.555859 305.45834 26.071484 305.7396Q26.602734 306.02084 26.946484 306.5521Q27.290234 307.06772 27.477734 307.81772Q27.665234 308.56772 27.665234 309.84897Q27.665234 311.3646 27.352734 312.28647Q27.055859 313.20834 26.430859 313.72397Q25.821484 314.22397 24.868359 314.22397Q23.633984 314.22397 22.915234 313.33334Q22.071484 312.27084 22.071484 309.84897ZM23.149609 309.84897Q23.149609 311.95834 23.649609 312.66147Q24.149609 313.3646 24.868359 313.3646Q25.602734 313.3646 26.087109 312.66147Q26.587109 311.95834 26.587109 309.84897Q26.587109 307.72397 26.087109 307.03647Q25.602734 306.33334 24.852734 306.33334Q24.133984 306.33334 23.696484 306.94272Q23.149609 307.72397 23.149609 309.84897ZM29.665234 314.08334L29.665234 312.88022L30.868359 312.88022L30.868359 314.08334L29.665234 314.08334ZM32.071484 309.84897Q32.071484 308.31772 32.383984 307.39584Q32.696484 306.45834 33.30586 305.95834Q33.93086 305.45834 34.86836 305.45834Q35.55586 305.45834 36.071484 305.7396Q36.602734 306.02084 36.946484 306.5521Q37.290234 307.06772 37.477734 307.81772Q37.665234 308.56772 37.665234 309.84897Q37.665234 311.3646 37.352734 312.28647Q37.05586 313.20834 36.43086 313.72397Q35.821484 314.22397 34.86836 314.22397Q33.633984 314.22397 32.915234 313.33334Q32.071484 312.27084 32.071484 309.84897ZM33.14961 309.84897Q33.14961 311.95834 33.64961 312.66147Q34.14961 313.3646 34.86836 313.3646Q35.602734 313.3646 36.08711 312.66147Q36.58711 311.95834 36.58711 309.84897Q36.58711 307.72397 36.08711 307.03647Q35.602734 306.33334 34.852734 306.33334Q34.133984 306.33334 33.696484 306.94272Q33.14961 307.72397 33.14961 309.84897Z" fill-rule="nonzero"/><path fill="#000000" d="M22.071484 259.1323Q22.071484 257.60104 22.383984 256.67917Q22.696484 255.74167 23.305859 255.24167Q23.930859 254.74167 24.868359 254.74167Q25.555859 254.74167 26.071484 255.02292Q26.602734 255.30417 26.946484 255.83542Q27.290234 256.35104 27.477734 257.10104Q27.665234 257.85104 27.665234 259.1323Q27.665234 260.64792 27.352734 261.5698Q27.055859 262.49167 26.430859 263.0073Q25.821484 263.5073 24.868359 263.5073Q23.633984 263.5073 22.915234 262.61667Q22.071484 261.55417 22.071484 259.1323ZM23.149609 259.1323Q23.149609 261.24167 23.649609 261.9448Q24.149609 262.64792 24.868359 262.64792Q25.602734 262.64792 26.087109 261.9448Q26.587109 261.24167 26.587109 259.1323Q26.587109 257.0073 26.087109 256.3198Q25.602734 255.61667 24.852734 255.61667Q24.133984 255.61667 23.696484 256.22604Q23.149609 257.0073 23.149609 259.1323ZM29.665234 263.36667L29.665234 262.16354L30.868359 262.16354L30.868359 263.36667L29.665234 263.36667ZM32.071484 261.11667L33.18086 261.02292Q33.30586 261.83542 33.74336 262.24167Q34.196484 262.64792 34.83711 262.64792Q35.58711 262.64792 36.11836 262.0698Q36.64961 261.49167 36.64961 260.55417Q36.64961 259.64792 36.133984 259.1323Q35.633984 258.60104 34.80586 258.60104Q34.30586 258.60104 33.883984 258.83542Q33.477734 259.0698 33.24336 259.42917L32.258984 259.30417L33.08711 254.89792L37.36836 254.89792L37.36836 255.89792L33.93086 255.89792L33.477734 258.21042Q34.24336 257.66354 35.08711 257.66354Q36.21211 257.66354 36.977734 258.4448Q37.758984 259.22604 37.758984 260.46042Q37.758984 261.61667 37.08711 262.47604Q36.258984 263.5073 34.83711 263.5073Q33.665234 263.5073 32.915234 262.85104Q32.18086 262.1948 32.071484 261.11667Z" fill-rule="nonzero"/><path fill="#000000" d="M26.040234 212.65L24.993359 212.65L24.993359 205.93124Q24.602734 206.29062 23.977734 206.66562Q23.368359 207.025 22.883984 207.19687L22.883984 206.18124Q23.758984 205.75937 24.415234 205.18124Q25.087109 204.5875 25.368359 204.025L26.040234 204.025L26.040234 212.65ZM29.665234 212.65L29.665234 211.44687L30.868359 211.44687L30.868359 212.65L29.665234 212.65ZM32.071484 208.41562Q32.071484 206.88437 32.383984 205.9625Q32.696484 205.025 33.30586 204.525Q33.93086 204.025 34.86836 204.025Q35.55586 204.025 36.071484 204.30624Q36.602734 204.5875 36.946484 205.11874Q37.290234 205.63437 37.477734 206.38437Q37.665234 207.13437 37.665234 208.41562Q37.665234 209.93124 37.352734 210.85312Q37.05586 211.775 36.43086 212.29062Q35.821484 212.79062 34.86836 212.79062Q33.633984 212.79062 32.915234 211.9Q32.071484 210.8375 32.071484 208.41562ZM33.14961 208.41562Q33.14961 210.525 33.64961 211.22812Q34.14961 211.93124 34.86836 211.93124Q35.602734 211.93124 36.08711 211.22812Q36.58711 210.525 36.58711 208.41562Q36.58711 206.29062 36.08711 205.60312Q35.602734 204.9 34.852734 204.9Q34.133984 204.9 33.696484 205.50937Q33.14961 206.29062 33.14961 208.41562Z" fill-rule="nonzero"/><path fill="#000000" d="M26.040234 161.93333L24.993359 161.93333L24.993359 155.21458Q24.602734 155.57396 23.977734 155.94896Q23.368359 156.30833 22.883984 156.48021L22.883984 155.46458Q23.758984 155.04271 24.415234 154.46458Q25.087109 153.87083 25.368359 153.30833L26.040234 153.30833L26.040234 161.93333ZM29.665234 161.93333L29.665234 160.73021L30.868359 160.73021L30.868359 161.93333L29.665234 161.93333ZM32.071484 159.68333L33.18086 159.58958Q33.30586 160.40208 33.74336 160.80833Q34.196484 161.21458 34.83711 161.21458Q35.58711 161.21458 36.11836 160.63646Q36.64961 160.05833 36.64961 159.12083Q36.64961 158.21458 36.133984 157.69896Q35.633984 157.16771 34.80586 157.16771Q34.30586 157.16771 33.883984 157.40208Q33.477734 157.63646 33.24336 157.99583L32.258984 157.87083L33.08711 153.46458L37.36836 153.46458L37.36836 154.46458L33.93086 154.46458L33.477734 156.77708Q34.24336 156.23021 35.08711 156.23021Q36.21211 156.23021 36.977734 157.01146Q37.758984 157.79271 37.758984 159.02708Q37.758984 160.18333 37.08711 161.04271Q36.258984 162.07396 34.83711 162.07396Q33.665234 162.07396 32.915234 161.41771Q32.18086 160.76146 32.071484 159.68333Z" fill-rule="nonzero"/><path fill="#000000" d="M27.618359 110.20104L27.618359 111.21667L21.930859 111.21667Q21.930859 110.84167 22.055859 110.48229Q22.274609 109.90417 22.743359 109.34167Q23.227734 108.77917 24.133984 108.04479Q25.540234 106.88854 26.024609 106.21667Q26.524609 105.54479 26.524609 104.95104Q26.524609 104.32604 26.071484 103.90417Q25.618359 103.46667 24.899609 103.46667Q24.133984 103.46667 23.680859 103.91979Q23.227734 104.37292 23.212109 105.18542L22.133984 105.07604Q22.243359 103.85729 22.962109 103.23229Q23.696484 102.59167 24.930859 102.59167Q26.165234 102.59167 26.883984 103.27917Q27.602734 103.96667 27.602734 104.98229Q27.602734 105.49792 27.383984 105.99792Q27.180859 106.48229 26.680859 107.04479Q26.196484 107.59167 25.071484 108.54479Q24.118359 109.34167 23.837109 109.63854Q23.571484 109.91979 23.399609 110.20104L27.618359 110.20104ZM29.665234 111.21667L29.665234 110.01354L30.868359 110.01354L30.868359 111.21667L29.665234 111.21667ZM32.071484 106.98229Q32.071484 105.45104 32.383984 104.52917Q32.696484 103.59167 33.30586 103.09167Q33.93086 102.59167 34.86836 102.59167Q35.55586 102.59167 36.071484 102.87292Q36.602734 103.15417 36.946484 103.68542Q37.290234 104.20104 37.477734 104.95104Q37.665234 105.70104 37.665234 106.98229Q37.665234 108.49792 37.352734 109.41979Q37.05586 110.34167 36.43086 110.85729Q35.821484 111.35729 34.86836 111.35729Q33.633984 111.35729 32.915234 110.46667Q32.071484 109.40417 32.071484 106.98229ZM33.14961 106.98229Q33.14961 109.09167 33.64961 109.79479Q34.14961 110.49792 34.86836 110.49792Q35.602734 110.49792 36.08711 109.79479Q36.58711 109.09167 36.58711 106.98229Q36.58711 104.85729 36.08711 104.16979Q35.602734 103.46667 34.852734 103.46667Q34.133984 103.46667 33.696484 104.07604Q33.14961 104.85729 33.14961 106.98229Z" fill-rule="nonzero"/><path fill="#000000" d="M27.618359 59.484375L27.618359 60.5L21.930859 60.5Q21.930859 60.125 22.055859 59.765625Q22.274609 59.1875 22.743359 58.625Q23.227734 58.0625 24.133984 57.328125Q25.540234 56.171875 26.024609 55.5Q26.524609 54.828125 26.524609 54.234375Q26.524609 53.609375 26.071484 53.1875Q25.618359 52.75 24.899609 52.75Q24.133984 52.75 23.680859 53.203125Q23.227734 53.65625 23.212109 54.46875L22.133984 54.359375Q22.243359 53.140625 22.962109 52.515625Q23.696484 51.875 24.930859 51.875Q26.165234 51.875 26.883984 52.5625Q27.602734 53.25 27.602734 54.265625Q27.602734 54.78125 27.383984 55.28125Q27.180859 55.765625 26.680859 56.328125Q26.196484 56.875 25.071484 57.828125Q24.118359 58.625 23.837109 58.921875Q23.571484 59.203125 23.399609 59.484375L27.618359 59.484375ZM29.665234 60.5L29.665234 59.296875L30.868359 59.296875L30.868359 60.5L29.665234 60.5ZM32.071484 58.25L33.18086 58.15625Q33.30586 58.96875 33.74336 59.375Q34.196484 59.78125 34.83711 59.78125Q35.58711 59.78125 36.11836 59.203125Q36.64961 58.625 36.64961 57.6875Q36.64961 56.78125 36.133984 56.265625Q35.633984 55.734375 34.80586 55.734375Q34.30586 55.734375 33.883984 55.96875Q33.477734 56.203125 33.24336 56.5625L32.258984 56.4375L33.08711 52.03125L37.36836 52.03125L37.36836 53.03125L33.93086 53.03125L33.477734 55.34375Q34.24336 54.796875 35.08711 54.796875Q36.21211 54.796875 36.977734 55.578125Q37.758984 56.359375 37.758984 57.59375Q37.758984 58.75 37.08711 59.609375Q36.258984 60.640625 34.83711 60.640625Q33.665234 60.640625 32.915234 59.984375Q32.18086 59.328125 32.071484 58.25Z" fill-rule="nonzero"/><path fill="#000000" d="M102.888725 327.08334L101.84185 327.08334L101.84185 320.3646Q101.451225 320.72397 100.826225 321.09897Q100.21685 321.45834 99.732475 321.63022L99.732475 320.6146Q100.607475 320.19272 101.263725 319.6146Q101.9356 319.02084 102.21685 318.45834L102.888725 318.45834L102.888725 327.08334ZM105.919975 322.84897Q105.919975 321.31772 106.232475 320.39584Q106.544975 319.45834 107.15435 318.95834Q107.77935 318.45834 108.71685 318.45834Q109.40435 318.45834 109.919975 318.7396Q110.451225 319.02084 110.794975 319.5521Q111.138725 320.06772 111.326225 320.81772Q111.513725 321.56772 111.513725 322.84897Q111.513725 324.3646 111.201225 325.28647Q110.90435 326.20834 110.27935 326.72397Q109.669975 327.22397 108.71685 327.22397Q107.482475 327.22397 106.763725 326.33334Q105.919975 325.27084 105.919975 322.84897ZM106.9981 322.84897Q106.9981 324.95834 107.4981 325.66147Q107.9981 326.3646 108.71685 326.3646Q109.451225 326.3646 109.9356 325.66147Q110.4356 324.95834 110.4356 322.84897Q110.4356 320.72397 109.9356 320.03647Q109.451225 319.33334 108.701225 319.33334Q107.982475 319.33334 107.544975 319.94272Q106.9981 320.72397 106.9981 322.84897ZM112.919975 322.84897Q112.919975 321.31772 113.232475 320.39584Q113.544975 319.45834 114.15435 318.95834Q114.77935 318.45834 115.71685 318.45834Q116.40435 318.45834 116.919975 318.7396Q117.451225 319.02084 117.794975 319.5521Q118.138725 320.06772 118.326225 320.81772Q118.513725 321.56772 118.513725 322.84897Q118.513725 324.3646 118.201225 325.28647Q117.90435 326.20834 117.27935 326.72397Q116.669975 327.22397 115.71685 327.22397Q114.482475 327.22397 113.763725 326.33334Q112.919975 325.27084 112.919975 322.84897ZM113.9981 322.84897Q113.9981 324.95834 114.4981 325.66147Q114.9981 326.3646 115.71685 326.3646Q116.451225 326.3646 116.9356 325.66147Q117.4356 324.95834 117.4356 322.84897Q117.4356 320.72397 116.9356 320.03647Q116.451225 319.33334 115.701225 319.33334Q114.982475 319.33334 114.544975 319.94272Q113.9981 320.72397 113.9981 322.84897ZM119.919975 322.84897Q119.919975 321.31772 120.232475 320.39584Q120.544975 319.45834 121.15435 318.95834Q121.77935 318.45834 122.71685 318.45834Q123.40435 318.45834 123.919975 318.7396Q124.451225 319.02084 124.794975 319.5521Q125.138725 320.06772 125.326225 320.81772Q125.513725 321.56772 125.513725 322.84897Q125.513725 324.3646 125.201225 325.28647Q124.90435 326.20834 124.27935 326.72397Q123.669975 327.22397 122.71685 327.22397Q121.482475 327.22397 120.763725 326.33334Q119.919975 325.27084 119.919975 322.84897ZM120.9981 322.84897Q120.9981 324.95834 121.4981 325.66147Q121.9981 326.3646 122.71685 326.3646Q123.451225 326.3646 123.9356 325.66147Q124.4356 324.95834 124.4356 322.84897Q124.4356 320.72397 123.9356 320.03647Q123.451225 319.33334 122.701225 319.33334Q121.982475 319.33334 121.544975 319.94272Q120.9981 320.72397 120.9981 322.84897Z" fill-rule="nonzero"/><path fill="#000000" d="M199.90501 327.08334L198.85814 327.08334L198.85814 320.3646Q198.46751 320.72397 197.84251 321.09897Q197.23314 321.45834 196.74876 321.63022L196.74876 320.6146Q197.62376 320.19272 198.28001 319.6146Q198.95189 319.02084 199.23314 318.45834L199.90501 318.45834L199.90501 327.08334ZM202.93626 322.84897Q202.93626 321.31772 203.24876 320.39584Q203.56126 319.45834 204.17064 318.95834Q204.79564 318.45834 205.73314 318.45834Q206.42064 318.45834 206.93626 318.7396Q207.46751 319.02084 207.81126 319.5521Q208.15501 320.06772 208.34251 320.81772Q208.53001 321.56772 208.53001 322.84897Q208.53001 324.3646 208.21751 325.28647Q207.92064 326.20834 207.29564 326.72397Q206.68626 327.22397 205.73314 327.22397Q204.49876 327.22397 203.78001 326.33334Q202.93626 325.27084 202.93626 322.84897ZM204.01439 322.84897Q204.01439 324.95834 204.51439 325.66147Q205.01439 326.3646 205.73314 326.3646Q206.46751 326.3646 206.95189 325.66147Q207.45189 324.95834 207.45189 322.84897Q207.45189 320.72397 206.95189 320.03647Q206.46751 319.33334 205.71751 319.33334Q204.99876 319.33334 204.56126 319.94272Q204.01439 320.72397 204.01439 322.84897ZM209.93626 322.84897Q209.93626 321.31772 210.24876 320.39584Q210.56126 319.45834 211.17064 318.95834Q211.79564 318.45834 212.73314 318.45834Q213.42064 318.45834 213.93626 318.7396Q214.46751 319.02084 214.81126 319.5521Q215.15501 320.06772 215.34251 320.81772Q215.53001 321.56772 215.53001 322.84897Q215.53001 324.3646 215.21751 325.28647Q214.92064 326.20834 214.29564 326.72397Q213.68626 327.22397 212.73314 327.22397Q211.49876 327.22397 210.78001 326.33334Q209.93626 325.27084 209.93626 322.84897ZM211.01439 322.84897Q211.01439 324.95834 211.51439 325.66147Q212.01439 326.3646 212.73314 326.3646Q213.46751 326.3646 213.95189 325.66147Q214.45189 324.95834 214.45189 322.84897Q214.45189 320.72397 213.95189 320.03647Q213.46751 319.33334 212.71751 319.33334Q211.99876 319.33334 211.56126 319.94272Q211.01439 320.72397 211.01439 322.84897ZM216.93626 322.84897Q216.93626 321.31772 217.24876 320.39584Q217.56126 319.45834 218.17064 318.95834Q218.79564 318.45834 219.73314 318.45834Q220.42064 318.45834 220.93626 318.7396Q221.46751 319.02084 221.81126 319.5521Q222.15501 320.06772 222.34251 320.81772Q222.53001 321.56772 222.53001 322.84897Q222.53001 324.3646 222.21751 325.28647Q221.92064 326.20834 221.29564 326.72397Q220.68626 327.22397 219.73314 327.22397Q218.49876 327.22397 217.78001 326.33334Q216.93626 325.27084 216.93626 322.84897ZM218.01439 322.84897Q218.01439 324.95834 218.51439 325.66147Q219.01439 326.3646 219.73314 326.3646Q220.46751 326.3646 220.95189 325.66147Q221.45189 324.95834 221.45189 322.84897Q221.45189 320.72397 220.95189 320.03647Q220.46751 319.33334 219.71751 319.33334Q218.99876 319.33334 218.56126 319.94272Q218.01439 320.72397 218.01439 322.84897ZM223.93626 322.84897Q223.93626 321.31772 224.24876 320.39584Q224.56126 319.45834 225.17064 318.95834Q225.79564 318.45834 226.73314 318.45834Q227.42064 318.45834 227.93626 318.7396Q228.46751 319.02084 228.81126 319.5521Q229.15501 320.06772 229.34251 320.81772Q229.53001 321.56772 229.53001 322.84897Q229.53001 324.3646 229.21751 325.28647Q228.92064 326.20834 228.29564 326.72397Q227.68626 327.22397 226.73314 327.22397Q225.49876 327.22397 224.78001 326.33334Q223.93626 325.27084 223.93626 322.84897ZM225.01439 322.84897Q225.01439 324.95834 225.51439 325.66147Q226.01439 326.3646 226.73314 326.3646Q227.46751 326.3646 227.95189 325.66147Q228.45189 324.95834 228.45189 322.84897Q228.45189 320.72397 227.95189 320.03647Q227.46751 319.33334 226.71751 319.33334Q225.99876 319.33334 225.56126 319.94272Q225.01439 320.72397 225.01439 322.84897Z" fill-rule="nonzero"/><path fill="#000000" d="M296.9213 327.08334L295.87442 327.08334L295.87442 320.3646Q295.4838 320.72397 294.8588 321.09897Q294.24942 321.45834 293.76505 321.63022L293.76505 320.6146Q294.64005 320.19272 295.2963 319.6146Q295.96817 319.02084 296.24942 318.45834L296.9213 318.45834L296.9213 327.08334ZM299.95255 322.84897Q299.95255 321.31772 300.26505 320.39584Q300.57755 319.45834 301.18692 318.95834Q301.81192 318.45834 302.74942 318.45834Q303.43692 318.45834 303.95255 318.7396Q304.4838 319.02084 304.82755 319.5521Q305.1713 320.06772 305.3588 320.81772Q305.5463 321.56772 305.5463 322.84897Q305.5463 324.3646 305.2338 325.28647Q304.93692 326.20834 304.31192 326.72397Q303.70255 327.22397 302.74942 327.22397Q301.51505 327.22397 300.7963 326.33334Q299.95255 325.27084 299.95255 322.84897ZM301.03067 322.84897Q301.03067 324.95834 301.53067 325.66147Q302.03067 326.3646 302.74942 326.3646Q303.4838 326.3646 303.96817 325.66147Q304.46817 324.95834 304.46817 322.84897Q304.46817 320.72397 303.96817 320.03647Q303.4838 319.33334 302.7338 319.33334Q302.01505 319.33334 301.57755 319.94272Q301.03067 320.72397 301.03067 322.84897ZM306.95255 322.84897Q306.95255 321.31772 307.26505 320.39584Q307.57755 319.45834 308.18692 318.95834Q308.81192 318.45834 309.74942 318.45834Q310.43692 318.45834 310.95255 318.7396Q311.4838 319.02084 311.82755 319.5521Q312.1713 320.06772 312.3588 320.81772Q312.5463 321.56772 312.5463 322.84897Q312.5463 324.3646 312.2338 325.28647Q311.93692 326.20834 311.31192 326.72397Q310.70255 327.22397 309.74942 327.22397Q308.51505 327.22397 307.7963 326.33334Q306.95255 325.27084 306.95255 322.84897ZM308.03067 322.84897Q308.03067 324.95834 308.53067 325.66147Q309.03067 326.3646 309.74942 326.3646Q310.4838 326.3646 310.96817 325.66147Q311.46817 324.95834 311.46817 322.84897Q311.46817 320.72397 310.96817 320.03647Q310.4838 319.33334 309.7338 319.33334Q309.01505 319.33334 308.57755 319.94272Q308.03067 320.72397 308.03067 322.84897ZM313.95255 322.84897Q313.95255 321.31772 314.26505 320.39584Q314.57755 319.45834 315.18692 318.95834Q315.81192 318.45834 316.74942 318.45834Q317.43692 318.45834 317.95255 318.7396Q318.4838 319.02084 318.82755 319.5521Q319.1713 320.06772 319.3588 320.81772Q319.5463 321.56772 319.5463 322.84897Q319.5463 324.3646 319.2338 325.28647Q318.93692 326.20834 318.31192 326.72397Q317.70255 327.22397 316.74942 327.22397Q315.51505 327.22397 314.7963 326.33334Q313.95255 325.27084 313.95255 322.84897ZM315.03067 322.84897Q315.03067 324.95834 315.53067 325.66147Q316.03067 326.3646 316.74942 326.3646Q317.4838 326.3646 317.96817 325.66147Q318.46817 324.95834 318.46817 322.84897Q318.46817 320.72397 317.96817 320.03647Q317.4838 319.33334 316.7338 319.33334Q316.01505 319.33334 315.57755 319.94272Q315.03067 320.72397 315.03067 322.84897ZM320.95255 322.84897Q320.95255 321.31772 321.26505 320.39584Q321.57755 319.45834 322.18692 318.95834Q322.81192 318.45834 323.74942 318.45834Q324.43692 318.45834 324.95255 318.7396Q325.4838 319.02084 325.82755 319.5521Q326.1713 320.06772 326.3588 320.81772Q326.5463 321.56772 326.5463 322.84897Q326.5463 324.3646 326.2338 325.28647Q325.93692 326.20834 325.31192 326.72397Q324.70255 327.22397 323.74942 327.22397Q322.51505 327.22397 321.7963 326.33334Q320.95255 325.27084 320.95255 322.84897ZM322.03067 322.84897Q322.03067 324.95834 322.53067 325.66147Q323.03067 326.3646 323.74942 326.3646Q324.4838 326.3646 324.96817 325.66147Q325.46817 324.95834 325.46817 322.84897Q325.46817 320.72397 324.96817 320.03647Q324.4838 319.33334 323.7338 319.33334Q323.01505 319.33334 322.57755 319.94272Q322.03067 320.72397 322.03067 322.84897ZM327.95255 322.84897Q327.95255 321.31772 328.26505 320.39584Q328.57755 319.45834 329.18692 318.95834Q329.81192 318.45834 330.74942 318.45834Q331.43692 318.45834 331.95255 318.7396Q332.4838 319.02084 332.82755 319.5521Q333.1713 320.06772 333.3588 320.81772Q333.5463 321.56772 333.5463 322.84897Q333.5463 324.3646 333.2338 325.28647Q332.93692 326.20834 332.31192 326.72397Q331.70255 327.22397 330.74942 327.22397Q329.51505 327.22397 328.7963 326.33334Q327.95255 325.27084 327.95255 322.84897ZM329.03067 322.84897Q329.03067 324.95834 329.53067 325.66147Q330.03067 326.3646 330.74942 326.3646Q331.4838 326.3646 331.96817 325.66147Q332.46817 324.95834 332.46817 322.84897Q332.46817 320.72397 331.96817 320.03647Q331.4838 319.33334 330.7338 319.33334Q330.01505 319.33334 329.57755 319.94272Q329.03067 320.72397 329.03067 322.84897Z" fill-rule="nonzero"/><path fill="#000000" d="M393.9376 327.08334L392.89072 327.08334L392.89072 320.3646Q392.5001 320.72397 391.8751 321.09897Q391.26572 321.45834 390.78134 321.63022L390.78134 320.6146Q391.65634 320.19272 392.3126 319.6146Q392.98447 319.02084 393.26572 318.45834L393.9376 318.45834L393.9376 327.08334ZM396.96884 322.84897Q396.96884 321.31772 397.28134 320.39584Q397.59384 319.45834 398.20322 318.95834Q398.82822 318.45834 399.76572 318.45834Q400.45322 318.45834 400.96884 318.7396Q401.5001 319.02084 401.84384 319.5521Q402.1876 320.06772 402.3751 320.81772Q402.5626 321.56772 402.5626 322.84897Q402.5626 324.3646 402.2501 325.28647Q401.95322 326.20834 401.32822 326.72397Q400.71884 327.22397 399.76572 327.22397Q398.53134 327.22397 397.8126 326.33334Q396.96884 325.27084 396.96884 322.84897ZM398.04697 322.84897Q398.04697 324.95834 398.54697 325.66147Q399.04697 326.3646 399.76572 326.3646Q400.5001 326.3646 400.98447 325.66147Q401.48447 324.95834 401.48447 322.84897Q401.48447 320.72397 400.98447 320.03647Q400.5001 319.33334 399.7501 319.33334Q399.03134 319.33334 398.59384 319.94272Q398.04697 320.72397 398.04697 322.84897ZM403.96884 322.84897Q403.96884 321.31772 404.28134 320.39584Q404.59384 319.45834 405.20322 318.95834Q405.82822 318.45834 406.76572 318.45834Q407.45322 318.45834 407.96884 318.7396Q408.5001 319.02084 408.84384 319.5521Q409.1876 320.06772 409.3751 320.81772Q409.5626 321.56772 409.5626 322.84897Q409.5626 324.3646 409.2501 325.28647Q408.95322 326.20834 408.32822 326.72397Q407.71884 327.22397 406.76572 327.22397Q405.53134 327.22397 404.8126 326.33334Q403.96884 325.27084 403.96884 322.84897ZM405.04697 322.84897Q405.04697 324.95834 405.54697 325.66147Q406.04697 326.3646 406.76572 326.3646Q407.5001 326.3646 407.98447 325.66147Q408.48447 324.95834 408.48447 322.84897Q408.48447 320.72397 407.98447 320.03647Q407.5001 319.33334 406.7501 319.33334Q406.03134 319.33334 405.59384 319.94272Q405.04697 320.72397 405.04697 322.84897ZM410.96884 322.84897Q410.96884 321.31772 411.28134 320.39584Q411.59384 319.45834 412.20322 318.95834Q412.82822 318.45834 413.76572 318.45834Q414.45322 318.45834 414.96884 318.7396Q415.5001 319.02084 415.84384 319.5521Q416.1876 320.06772 416.3751 320.81772Q416.5626 321.56772 416.5626 322.84897Q416.5626 324.3646 416.2501 325.28647Q415.95322 326.20834 415.32822 326.72397Q414.71884 327.22397 413.76572 327.22397Q412.53134 327.22397 411.8126 326.33334Q410.96884 325.27084 410.96884 322.84897ZM412.04697 322.84897Q412.04697 324.95834 412.54697 325.66147Q413.04697 326.3646 413.76572 326.3646Q414.5001 326.3646 414.98447 325.66147Q415.48447 324.95834 415.48447 322.84897Q415.48447 320.72397 414.98447 320.03647Q414.5001 319.33334 413.7501 319.33334Q413.03134 319.33334 412.59384 319.94272Q412.04697 320.72397 412.04697 322.84897ZM417.96884 322.84897Q417.96884 321.31772 418.28134 320.39584Q418.59384 319.45834 419.20322 318.95834Q419.82822 318.45834 420.76572 318.45834Q421.45322 318.45834 421.96884 318.7396Q422.5001 319.02084 422.84384 319.5521Q423.1876 320.06772 423.3751 320.81772Q423.5626 321.56772 423.5626 322.84897Q423.5626 324.3646 423.2501 325.28647Q422.95322 326.20834 422.32822 326.72397Q421.71884 327.22397 420.76572 327.22397Q419.53134 327.22397 418.8126 326.33334Q417.96884 325.27084 417.96884 322.84897ZM419.04697 322.84897Q419.04697 324.95834 419.54697 325.66147Q420.04697 326.3646 420.76572 326.3646Q421.5001 326.3646 421.98447 325.66147Q422.48447 324.95834 422.48447 322.84897Q422.48447 320.72397 421.98447 320.03647Q421.5001 319.33334 420.7501 319.33334Q420.03134 319.33334 419.59384 319.94272Q419.04697 320.72397 419.04697 322.84897ZM424.96884 322.84897Q424.96884 321.31772 425.28134 320.39584Q425.59384 319.45834 426.20322 318.95834Q426.82822 318.45834 427.76572 318.45834Q428.45322 318.45834 428.96884 318.7396Q429.5001 319.02084 429.84384 319.5521Q430.1876 320.06772 430.3751 320.81772Q430.5626 321.56772 430.5626 322.84897Q430.5626 324.3646 430.2501 325.28647Q429.95322 326.20834 429.32822 326.72397Q428.71884 327.22397 427.76572 327.22397Q426.53134 327.22397 425.8126 326.33334Q424.96884 325.27084 424.96884 322.84897ZM426.04697 322.84897Q426.04697 324.95834 426.54697 325.66147Q427.04697 326.3646 427.76572 326.3646Q428.5001 326.3646 428.98447 325.66147Q429.48447 324.95834 429.48447 322.84897Q429.48447 320.72397 428.98447 320.03647Q428.5001 319.33334 427.7501 319.33334Q427.03134 319.33334 426.59384 319.94272Q426.04697 320.72397 426.04697 322.84897ZM431.96884 322.84897Q431.96884 321.31772 432.28134 320.39584Q432.59384 319.45834 433.20322 318.95834Q433.82822 318.45834 434.76572 318.45834Q435.45322 318.45834 435.96884 318.7396Q436.5001 319.02084 436.84384 319.5521Q437.1876 320.06772 437.3751 320.81772Q437.5626 321.56772 437.5626 322.84897Q437.5626 324.3646 437.2501 325.28647Q436.95322 326.20834 436.32822 326.72397Q435.71884 327.22397 434.76572 327.22397Q433.53134 327.22397 432.8126 326.33334Q431.96884 325.27084 431.96884 322.84897ZM433.04697 322.84897Q433.04697 324.95834 433.54697 325.66147Q434.04697 326.3646 434.76572 326.3646Q435.5001 326.3646 435.98447 325.66147Q436.48447 324.95834 436.48447 322.84897Q436.48447 320.72397 435.98447 320.03647Q435.5001 319.33334 434.7501 319.33334Q434.03134 319.33334 433.59384 319.94272Q433.04697 320.72397 433.04697 322.84897Z" fill-rule="nonzero"/><path fill="#000000" d="M490.95386 327.08334L489.90698 327.08334L489.90698 320.3646Q489.51636 320.72397 488.89136 321.09897Q488.28198 321.45834 487.7976 321.63022L487.7976 320.6146Q488.6726 320.19272 489.32886 319.6146Q490.00073 319.02084 490.28198 318.45834L490.95386 318.45834L490.95386 327.08334ZM493.9851 322.84897Q493.9851 321.31772 494.2976 320.39584Q494.6101 319.45834 495.21948 318.95834Q495.84448 318.45834 496.78198 318.45834Q497.46948 318.45834 497.9851 318.7396Q498.51636 319.02084 498.8601 319.5521Q499.20386 320.06772 499.39136 320.81772Q499.57886 321.56772 499.57886 322.84897Q499.57886 324.3646 499.26636 325.28647Q498.96948 326.20834 498.34448 326.72397Q497.7351 327.22397 496.78198 327.22397Q495.5476 327.22397 494.82886 326.33334Q493.9851 325.27084 493.9851 322.84897ZM495.06323 322.84897Q495.06323 324.95834 495.56323 325.66147Q496.06323 326.3646 496.78198 326.3646Q497.51636 326.3646 498.00073 325.66147Q498.50073 324.95834 498.50073 322.84897Q498.50073 320.72397 498.00073 320.03647Q497.51636 319.33334 496.76636 319.33334Q496.0476 319.33334 495.6101 319.94272Q495.06323 320.72397 495.06323 322.84897ZM500.9851 322.84897Q500.9851 321.31772 501.2976 320.39584Q501.6101 319.45834 502.21948 318.95834Q502.84448 318.45834 503.78198 318.45834Q504.46948 318.45834 504.9851 318.7396Q505.51636 319.02084 505.8601 319.5521Q506.20386 320.06772 506.39136 320.81772Q506.57886 321.56772 506.57886 322.84897Q506.57886 324.3646 506.26636 325.28647Q505.96948 326.20834 505.34448 326.72397Q504.7351 327.22397 503.78198 327.22397Q502.5476 327.22397 501.82886 326.33334Q500.9851 325.27084 500.9851 322.84897ZM502.06323 322.84897Q502.06323 324.95834 502.56323 325.66147Q503.06323 326.3646 503.78198 326.3646Q504.51636 326.3646 505.00073 325.66147Q505.50073 324.95834 505.50073 322.84897Q505.50073 320.72397 505.00073 320.03647Q504.51636 319.33334 503.76636 319.33334Q503.0476 319.33334 502.6101 319.94272Q502.06323 320.72397 502.06323 322.84897ZM507.9851 322.84897Q507.9851 321.31772 508.2976 320.39584Q508.6101 319.45834 509.21948 318.95834Q509.84448 318.45834 510.78198 318.45834Q511.46948 318.45834 511.9851 318.7396Q512.51636 319.02084 512.8601 319.5521Q513.20386 320.06772 513.39136 320.81772Q513.57886 321.56772 513.57886 322.84897Q513.57886 324.3646 513.26636 325.28647Q512.9695 326.20834 512.3445 326.72397Q511.7351 327.22397 510.78198 327.22397Q509.5476 327.22397 508.82886 326.33334Q507.9851 325.27084 507.9851 322.84897ZM509.06323 322.84897Q509.06323 324.95834 509.56323 325.66147Q510.06323 326.3646 510.78198 326.3646Q511.51636 326.3646 512.00073 325.66147Q512.50073 324.95834 512.50073 322.84897Q512.50073 320.72397 512.00073 320.03647Q511.51636 319.33334 510.76636 319.33334Q510.0476 319.33334 509.6101 319.94272Q509.06323 320.72397 509.06323 322.84897ZM514.9851 322.84897Q514.9851 321.31772 515.2976 320.39584Q515.6101 319.45834 516.2195 318.95834Q516.8445 318.45834 517.782 318.45834Q518.4695 318.45834 518.9851 318.7396Q519.51636 319.02084 519.8601 319.5521Q520.20386 320.06772 520.39136 320.81772Q520.57886 321.56772 520.57886 322.84897Q520.57886 324.3646 520.26636 325.28647Q519.9695 326.20834 519.3445 326.72397Q518.7351 327.22397 517.782 327.22397Q516.5476 327.22397 515.82886 326.33334Q514.9851 325.27084 514.9851 322.84897ZM516.06323 322.84897Q516.06323 324.95834 516.56323 325.66147Q517.06323 326.3646 517.782 326.3646Q518.51636 326.3646 519.00073 325.66147Q519.50073 324.95834 519.50073 322.84897Q519.50073 320.72397 519.00073 320.03647Q518.51636 319.33334 517.76636 319.33334Q517.0476 319.33334 516.6101 319.94272Q516.06323 320.72397 516.06323 322.84897ZM521.9851 322.84897Q521.9851 321.31772 522.2976 320.39584Q522.6101 319.45834 523.2195 318.95834Q523.8445 318.45834 524.782 318.45834Q525.4695 318.45834 525.9851 318.7396Q526.51636 319.02084 526.8601 319.5521Q527.20386 320.06772 527.39136 320.81772Q527.57886 321.56772 527.57886 322.84897Q527.57886 324.3646 527.26636 325.28647Q526.9695 326.20834 526.3445 326.72397Q525.7351 327.22397 524.782 327.22397Q523.5476 327.22397 522.82886 326.33334Q521.9851 325.27084 521.9851 322.84897ZM523.06323 322.84897Q523.06323 324.95834 523.56323 325.66147Q524.06323 326.3646 524.782 326.3646Q525.51636 326.3646 526.00073 325.66147Q526.50073 324.95834 526.50073 322.84897Q526.50073 320.72397 526.00073 320.03647Q525.51636 319.33334 524.76636 319.33334Q524.0476 319.33334 523.6101 319.94272Q523.06323 320.72397 523.06323 322.84897ZM528.9851 322.84897Q528.9851 321.31772 529.2976 320.39584Q529.6101 319.45834 530.2195 318.95834Q530.8445 318.45834 531.782 318.45834Q532.4695 318.45834 532.9851 318.7396Q533.51636 319.02084 533.8601 319.5521Q534.20386 320.06772 534.39136 320.81772Q534.57886 321.56772 534.57886 322.84897Q534.57886 324.3646 534.26636 325.28647Q533.9695 326.20834 533.3445 326.72397Q532.7351 327.22397 531.782 327.22397Q530.5476 327.22397 529.82886 326.33334Q528.9851 325.27084 528.9851 322.84897ZM530.06323 322.84897Q530.06323 324.95834 530.56323 325.66147Q531.06323 326.3646 531.782 326.3646Q532.51636 326.3646 533.00073 325.66147Q533.50073 324.95834 533.50073 322.84897Q533.50073 320.72397 533.00073 320.03647Q532.51636 319.33334 531.76636 319.33334Q531.0476 319.33334 530.6101 319.94272Q530.06323 320.72397 530.06323 322.84897ZM535.9851 322.84897Q535.9851 321.31772 536.2976 320.39584Q536.6101 319.45834 537.2195 318.95834Q537.8445 318.45834 538.782 318.45834Q539.4695 318.45834 539.9851 318.7396Q540.51636 319.02084 540.8601 319.5521Q541.20386 320.06772 541.39136 320.81772Q541.57886 321.56772 541.57886 322.84897Q541.57886 324.3646 541.26636 325.28647Q540.9695 326.20834 540.3445 326.72397Q539.7351 327.22397 538.782 327.22397Q537.5476 327.22397 536.82886 326.33334Q535.9851 325.27084 535.9851 322.84897ZM537.06323 322.84897Q537.06323 324.95834 537.56323 325.66147Q538.06323 326.3646 538.782 326.3646Q539.51636 326.3646 540.00073 325.66147Q540.50073 324.95834 540.50073 322.84897Q540.50073 320.72397 540.00073 320.03647Q539.51636 319.33334 538.76636 319.33334Q538.0476 319.33334 537.6101 319.94272Q537.06323 320.72397 537.06323 322.84897Z" fill-rule="nonzero"/><path fill="#46bdc6" d="M204.24255 342.45566C204.24255 341.90335 204.69028 341.45566 205.24255 341.45566L215.24255 341.45566C215.79485 341.45566 216.24255 341.90335 216.24255 342.45566L216.24255 352.45566C216.24255 353.00793 215.79485 353.45566 215.24255 353.45566L205.24255 353.45566C204.69028 353.45566 204.24255 353.00793 204.24255 352.45566Z" fill-rule="nonzero"/><path fill="#1a1a1a" d="M225.18005 351.45566L225.18005 342.8619L228.99255 342.8619Q230.1488 342.8619 230.74255 343.09628Q231.3363 343.33066 231.69568 343.9244Q232.05505 344.50253 232.05505 345.20566Q232.05505 346.12753 231.4613 346.75253Q230.86755 347.37753 229.63318 347.5494Q230.0863 347.76816 230.32068 347.97128Q230.82068 348.4244 231.25818 349.1119L232.75818 351.45566L231.32068 351.45566L230.19568 349.6744Q229.69568 348.89316 229.36755 348.4869Q229.05505 348.08066 228.78943 347.9244Q228.53943 347.75253 228.2738 347.6744Q228.0863 347.64316 227.6488 347.64316L226.32068 347.64316L226.32068 351.45566L225.18005 351.45566ZM226.32068 346.65878L228.7738 346.65878Q229.53943 346.65878 229.97693 346.50253Q230.43005 346.33066 230.6488 345.9869Q230.88318 345.62753 230.88318 345.20566Q230.88318 344.59628 230.43005 344.20566Q229.99255 343.81503 229.03943 343.81503L226.32068 343.81503L226.32068 346.65878ZM238.11755 351.45566L238.11755 350.53378Q237.38318 351.59628 236.13318 351.59628Q235.5863 351.59628 235.10193 351.39316Q234.63318 351.1744 234.3988 350.8619Q234.16443 350.53378 234.07068 350.06503Q234.00818 349.76816 234.00818 349.08066L234.00818 345.2369L235.07068 345.2369L235.07068 348.69003Q235.07068 349.50253 235.13318 349.7994Q235.22693 350.20566 235.53943 350.45566Q235.86755 350.69003 236.35193 350.69003Q236.82068 350.69003 237.22693 350.45566Q237.6488 350.20566 237.82068 349.78378Q238.00818 349.3619 238.00818 348.56503L238.00818 345.2369L239.05505 345.2369L239.05505 351.45566L238.11755 351.45566ZM245.11755 351.45566L245.11755 350.53378Q244.38318 351.59628 243.13318 351.59628Q242.5863 351.59628 242.10193 351.39316Q241.63318 351.1744 241.3988 350.8619Q241.16443 350.53378 241.07068 350.06503Q241.00818 349.76816 241.00818 349.08066L241.00818 345.2369L242.07068 345.2369L242.07068 348.69003Q242.07068 349.50253 242.13318 349.7994Q242.22693 350.20566 242.53943 350.45566Q242.86755 350.69003 243.35193 350.69003Q243.82068 350.69003 244.22693 350.45566Q244.6488 350.20566 244.82068 349.78378Q245.00818 349.3619 245.00818 348.56503L245.00818 345.2369L246.05505 345.2369L246.05505 351.45566L245.11755 351.45566ZM250.3363 350.51816L250.49255 351.44003Q250.03943 351.53378 249.69568 351.53378Q249.11755 351.53378 248.80505 351.3619Q248.49255 351.1744 248.35193 350.87753Q248.22693 350.58066 248.22693 349.62753L248.22693 346.0494L247.4613 346.0494L247.4613 345.2369L248.22693 345.2369L248.22693 343.69003L249.2738 343.06503L249.2738 345.2369L250.3363 345.2369L250.3363 346.0494L249.2738 346.0494L249.2738 349.69003Q249.2738 350.14316 249.32068 350.26816Q249.38318 350.39316 249.50818 350.47128Q249.63318 350.5494 249.86755 350.5494Q250.05505 350.5494 250.3363 350.51816ZM255.11755 351.45566L255.11755 350.53378Q254.38318 351.59628 253.13318 351.59628Q252.5863 351.59628 252.10193 351.39316Q251.63318 351.1744 251.3988 350.8619Q251.16443 350.53378 251.07068 350.06503Q251.00818 349.76816 251.00818 349.08066L251.00818 345.2369L252.07068 345.2369L252.07068 348.69003Q252.07068 349.50253 252.13318 349.7994Q252.22693 350.20566 252.53943 350.45566Q252.86755 350.69003 253.35193 350.69003Q253.82068 350.69003 254.22693 350.45566Q254.6488 350.20566 254.82068 349.78378Q255.00818 349.3619 255.00818 348.56503L255.00818 345.2369L256.05505 345.2369L256.05505 351.45566L255.11755 351.45566ZM258.11755 351.45566L258.11755 342.8619L259.25818 342.8619L259.25818 347.12753L263.5238 342.8619L265.07068 342.8619L261.4613 346.34628L265.22693 351.45566L263.72693 351.45566L260.66443 347.1119L259.25818 348.47128L259.25818 351.45566L258.11755 351.45566ZM270.28943 349.45566L271.38318 349.58066Q271.13318 350.53378 270.43005 351.06503Q269.72693 351.59628 268.6488 351.59628Q267.28943 351.59628 266.47693 350.75253Q265.68005 349.90878 265.68005 348.39316Q265.68005 346.83066 266.49255 345.97128Q267.30505 345.09628 268.5863 345.09628Q269.8363 345.09628 270.61755 345.94003Q271.41443 346.78378 271.41443 348.33066Q271.41443 348.4244 271.41443 348.6119L266.7738 348.6119Q266.8363 349.64316 267.35193 350.19003Q267.86755 350.72128 268.6488 350.72128Q269.22693 350.72128 269.63318 350.4244Q270.05505 350.1119 270.28943 349.45566ZM266.8363 347.75253L270.30505 347.75253Q270.24255 346.95566 269.91443 346.56503Q269.3988 345.95566 268.60193 345.95566Q267.86755 345.95566 267.36755 346.44003Q266.88318 346.9244 266.8363 347.75253ZM273.03943 351.45566L273.03943 342.8619L274.10193 342.8619L274.10193 347.76816L276.5863 345.2369L277.9613 345.2369L275.57068 347.53378L278.19568 351.45566L276.8988 351.45566L274.8363 348.26816L274.10193 348.9869L274.10193 351.45566L273.03943 351.45566ZM278.6488 348.34628Q278.6488 346.6119 279.60193 345.78378Q280.3988 345.09628 281.55505 345.09628Q282.8363 345.09628 283.6488 345.94003Q284.47693 346.76816 284.47693 348.25253Q284.47693 349.45566 284.11755 350.14316Q283.75818 350.83066 283.05505 351.22128Q282.36755 351.59628 281.55505 351.59628Q280.25818 351.59628 279.44568 350.76816Q278.6488 349.9244 278.6488 348.34628ZM279.72693 348.34628Q279.72693 349.53378 280.24255 350.12753Q280.7738 350.72128 281.55505 350.72128Q282.35193 350.72128 282.86755 350.12753Q283.38318 349.53378 283.38318 348.31503Q283.38318 347.15878 282.85193 346.56503Q282.3363 345.97128 281.55505 345.97128Q280.7738 345.97128 280.24255 346.56503Q279.72693 347.14316 279.72693 348.34628Z" fill-rule="nonzero"/><path fill="#ea4335" d="M301.24255 342.45566C301.24255 341.90335 301.69028 341.45566 302.24255 341.45566L312.24255 341.45566C312.79483 341.45566 313.24255 341.90335 313.24255 342.45566L313.24255 352.45566C313.24255 353.00793 312.79483 353.45566 312.24255 353.45566L302.24255 353.45566C301.69028 353.45566 301.24255 353.00793 301.24255 352.45566Z" fill-rule="nonzero"/><path fill="#1a1a1a" d="M322.16443 351.45566L322.16443 342.8619L325.41443 342.8619Q326.25818 342.8619 326.7113 342.94003Q327.35193 343.0494 327.7738 343.34628Q328.2113 343.64316 328.4613 344.1744Q328.72693 344.70566 328.72693 345.34628Q328.72693 346.44003 328.0238 347.20566Q327.3363 347.95566 325.50818 347.95566L323.30505 347.95566L323.30505 351.45566L322.16443 351.45566ZM323.30505 346.95566L325.5238 346.95566Q326.63318 346.95566 327.0863 346.5494Q327.55505 346.12753 327.55505 345.37753Q327.55505 344.84628 327.2738 344.47128Q327.00818 344.08066 326.57068 343.95566Q326.2738 343.87753 325.50818 343.87753L323.30505 343.87753L323.30505 346.95566ZM330.0238 351.45566L330.0238 345.2369L330.97693 345.2369L330.97693 346.1744Q331.3363 345.51816 331.63318 345.31503Q331.94568 345.09628 332.32068 345.09628Q332.85193 345.09628 333.3988 345.4244L333.03943 346.40878Q332.6488 346.1744 332.2738 346.1744Q331.91443 346.1744 331.63318 346.39316Q331.36755 346.59628 331.25818 346.97128Q331.07068 347.53378 331.07068 348.19003L331.07068 351.45566L330.0238 351.45566ZM334.03943 344.08066L334.03943 342.8619L335.10193 342.8619L335.10193 344.08066L334.03943 344.08066ZM334.03943 351.45566L334.03943 345.2369L335.10193 345.2369L335.10193 351.45566L334.03943 351.45566ZM336.6488 348.34628Q336.6488 346.6119 337.60193 345.78378Q338.3988 345.09628 339.55505 345.09628Q340.8363 345.09628 341.6488 345.94003Q342.47693 346.76816 342.47693 348.25253Q342.47693 349.45566 342.11755 350.14316Q341.75818 350.83066 341.05505 351.22128Q340.36755 351.59628 339.55505 351.59628Q338.25818 351.59628 337.44568 350.76816Q336.6488 349.9244 336.6488 348.34628ZM337.72693 348.34628Q337.72693 349.53378 338.24255 350.12753Q338.7738 350.72128 339.55505 350.72128Q340.35193 350.72128 340.86755 350.12753Q341.38318 349.53378 341.38318 348.31503Q341.38318 347.15878 340.85193 346.56503Q340.3363 345.97128 339.55505 345.97128Q338.7738 345.97128 338.24255 346.56503Q337.72693 347.14316 337.72693 348.34628ZM344.0238 351.45566L344.0238 345.2369L344.97693 345.2369L344.97693 346.1744Q345.3363 345.51816 345.63318 345.31503Q345.94568 345.09628 346.32068 345.09628Q346.85193 345.09628 347.3988 345.4244L347.03943 346.40878Q346.6488 346.1744 346.2738 346.1744Q345.91443 346.1744 345.63318 346.39316Q345.36755 346.59628 345.25818 346.97128Q345.07068 347.53378 345.07068 348.19003L345.07068 351.45566L344.0238 351.45566ZM348.03943 344.08066L348.03943 342.8619L349.10193 342.8619L349.10193 344.08066L348.03943 344.08066ZM348.03943 351.45566L348.03943 345.2369L349.10193 345.2369L349.10193 351.45566L348.03943 351.45566ZM353.3363 350.51816L353.49255 351.44003Q353.03943 351.53378 352.69568 351.53378Q352.11755 351.53378 351.80505 351.3619Q351.49255 351.1744 351.35193 350.87753Q351.22693 350.58066 351.22693 349.62753L351.22693 346.0494L350.4613 346.0494L350.4613 345.2369L351.22693 345.2369L351.22693 343.69003L352.2738 343.06503L352.2738 345.2369L353.3363 345.2369L353.3363 346.0494L352.2738 346.0494L352.2738 349.69003Q352.2738 350.14316 352.32068 350.26816Q352.38318 350.39316 352.50818 350.47128Q352.63318 350.5494 352.86755 350.5494Q353.05505 350.5494 353.3363 350.51816ZM353.99255 353.84628L353.86755 352.8619Q354.2113 352.95566 354.47693 352.95566Q354.82068 352.95566 355.0238 352.83066Q355.24255 352.72128 355.38318 352.51816Q355.47693 352.34628 355.7113 351.72128Q355.72693 351.64316 355.80505 351.47128L353.43005 345.2369L354.57068 345.2369L355.86755 348.83066Q356.11755 349.51816 356.32068 350.28378Q356.50818 349.5494 356.75818 348.8619L358.0863 345.2369L359.13318 345.2369L356.7738 351.56503Q356.38318 352.58066 356.18005 352.97128Q355.8988 353.50253 355.5238 353.7369Q355.16443 353.9869 354.66443 353.9869Q354.36755 353.9869 353.99255 353.84628ZM366.68005 350.53378Q367.47693 351.08066 368.13318 351.33066L367.80505 352.12753Q366.88318 351.78378 365.9613 351.06503Q365.00818 351.59628 363.85193 351.59628Q362.68005 351.59628 361.72693 351.03378Q360.78943 350.47128 360.2738 349.45566Q359.75818 348.44003 359.75818 347.15878Q359.75818 345.89316 360.2738 344.84628Q360.78943 343.7994 361.74255 343.25253Q362.69568 342.70566 363.86755 342.70566Q365.05505 342.70566 366.00818 343.28378Q366.97693 343.84628 367.47693 344.8619Q367.97693 345.87753 367.97693 347.15878Q367.97693 348.22128 367.6488 349.06503Q367.3363 349.90878 366.68005 350.53378ZM364.18005 349.08066Q365.16443 349.3619 365.80505 349.90878Q366.80505 348.9869 366.80505 347.15878Q366.80505 346.1119 366.44568 345.33066Q366.0863 344.5494 365.3988 344.12753Q364.72693 343.69003 363.88318 343.69003Q362.60193 343.69003 361.75818 344.56503Q360.93005 345.4244 360.93005 347.15878Q360.93005 348.83066 361.75818 349.7369Q362.5863 350.62753 363.88318 350.62753Q364.49255 350.62753 365.0238 350.39316Q364.49255 350.0494 363.8988 349.90878L364.18005 349.08066ZM373.11755 351.45566L373.11755 350.53378Q372.38318 351.59628 371.13318 351.59628Q370.5863 351.59628 370.10193 351.39316Q369.63318 351.1744 369.3988 350.8619Q369.16443 350.53378 369.07068 350.06503Q369.00818 349.76816 369.00818 349.08066L369.00818 345.2369L370.07068 345.2369L370.07068 348.69003Q370.07068 349.50253 370.13318 349.7994Q370.22693 350.20566 370.53943 350.45566Q370.86755 350.69003 371.35193 350.69003Q371.82068 350.69003 372.22693 350.45566Q372.6488 350.20566 372.82068 349.78378Q373.00818 349.3619 373.00818 348.56503L373.00818 345.2369L374.05505 345.2369L374.05505 351.45566L373.11755 351.45566ZM380.28943 349.45566L381.38318 349.58066Q381.13318 350.53378 380.43005 351.06503Q379.72693 351.59628 378.6488 351.59628Q377.28943 351.59628 376.47693 350.75253Q375.68005 349.90878 375.68005 348.39316Q375.68005 346.83066 376.49255 345.97128Q377.30505 345.09628 378.5863 345.09628Q379.8363 345.09628 380.61755 345.94003Q381.41443 346.78378 381.41443 348.33066Q381.41443 348.4244 381.41443 348.6119L376.7738 348.6119Q376.8363 349.64316 377.35193 350.19003Q377.86755 350.72128 378.6488 350.72128Q379.22693 350.72128 379.63318 350.4244Q380.05505 350.1119 380.28943 349.45566ZM376.8363 347.75253L380.30505 347.75253Q380.24255 346.95566 379.91443 346.56503Q379.3988 345.95566 378.60193 345.95566Q377.86755 345.95566 377.36755 346.44003Q376.88318 346.9244 376.8363 347.75253ZM387.11755 351.45566L387.11755 350.53378Q386.38318 351.59628 385.13318 351.59628Q384.5863 351.59628 384.10193 351.39316Q383.63318 351.1744 383.3988 350.8619Q383.16443 350.53378 383.07068 350.06503Q383.00818 349.76816 383.00818 349.08066L383.00818 345.2369L384.07068 345.2369L384.07068 348.69003Q384.07068 349.50253 384.13318 349.7994Q384.22693 350.20566 384.53943 350.45566Q384.86755 350.69003 385.35193 350.69003Q385.82068 350.69003 386.22693 350.45566Q386.6488 350.20566 386.82068 349.78378Q387.00818 349.3619 387.00818 348.56503L387.00818 345.2369L388.05505 345.2369L388.05505 351.45566L387.11755 351.45566ZM394.28943 349.45566L395.38318 349.58066Q395.13318 350.53378 394.43005 351.06503Q393.72693 351.59628 392.6488 351.59628Q391.28943 351.59628 390.47693 350.75253Q389.68005 349.90878 389.68005 348.39316Q389.68005 346.83066 390.49255 345.97128Q391.30505 345.09628 392.5863 345.09628Q393.8363 345.09628 394.61755 345.94003Q395.41443 346.78378 395.41443 348.33066Q395.41443 348.4244 395.41443 348.6119L390.7738 348.6119Q390.8363 349.64316 391.35193 350.19003Q391.86755 350.72128 392.6488 350.72128Q393.22693 350.72128 393.63318 350.4244Q394.05505 350.1119 394.28943 349.45566ZM390.8363 347.75253L394.30505 347.75253Q394.24255 346.95566 393.91443 346.56503Q393.3988 345.95566 392.60193 345.95566Q391.86755 345.95566 391.36755 346.44003Q390.88318 346.9244 390.8363 347.75253Z" fill-rule="nonzero"/><path fill="#757575" d="M60.82068 35.92719L60.82068 21.614689L67.16443 21.614689Q69.07068 21.614689 70.07068 22.005314Q71.07068 22.380314 71.66443 23.364689Q72.25818 24.333439 72.25818 25.520939Q72.25818 27.036564 71.2738 28.083439Q70.28943 29.130314 68.22693 29.411564Q68.97693 29.770939 69.36755 30.130314Q70.19568 30.880314 70.94568 32.036564L73.43005 35.92719L71.05505 35.92719L69.1488 32.942814Q68.32068 31.661564 67.78943 30.974064Q67.25818 30.286564 66.82068 30.020939Q66.3988 29.739689 65.9613 29.630314Q65.63318 29.567814 64.91443 29.567814L62.711304 29.567814L62.711304 35.92719L60.82068 35.92719ZM62.711304 27.927189L66.78943 27.927189Q68.0863 27.927189 68.80505 27.661564Q69.53943 27.395939 69.91443 26.802189Q70.30505 26.208439 70.30505 25.520939Q70.30505 24.505314 69.57068 23.849064Q68.8363 23.192814 67.24255 23.192814L62.711304 23.192814L62.711304 27.927189ZM81.35193 35.92719L81.35193 34.39594Q80.1488 36.161564 78.07068 36.161564Q77.1488 36.161564 76.35193 35.817814Q75.55505 35.45844 75.16443 34.92719Q74.78943 34.39594 74.63318 33.61469Q74.5238 33.099064 74.5238 31.974064L74.5238 25.552189L76.2738 25.552189L76.2738 31.302189Q76.2738 32.67719 76.38318 33.161564Q76.55505 33.849064 77.0863 34.255314Q77.63318 34.64594 78.41443 34.64594Q79.2113 34.64594 79.8988 34.23969Q80.60193 33.83344 80.88318 33.14594Q81.18005 32.442814 81.18005 31.114689L81.18005 25.552189L82.93005 25.552189L82.93005 35.92719L81.35193 35.92719ZM92.35193 35.92719L92.35193 34.39594Q91.1488 36.161564 89.07068 36.161564Q88.1488 36.161564 87.35193 35.817814Q86.55505 35.45844 86.16443 34.92719Q85.78943 34.39594 85.63318 33.61469Q85.5238 33.099064 85.5238 31.974064L85.5238 25.552189L87.2738 25.552189L87.2738 31.302189Q87.2738 32.67719 87.38318 33.161564Q87.55505 33.849064 88.0863 34.255314Q88.63318 34.64594 89.41443 34.64594Q90.2113 34.64594 90.8988 34.23969Q91.60193 33.83344 91.88318 33.14594Q92.18005 32.442814 92.18005 31.114689L92.18005 25.552189L93.93005 25.552189L93.93005 35.92719L92.35193 35.92719ZM100.3988 34.349064L100.6488 35.911564Q99.91443 36.067814 99.32068 36.067814Q98.36755 36.067814 97.8363 35.77094Q97.32068 35.45844 97.10193 34.974064Q96.88318 34.474064 96.88318 32.89594L96.88318 26.927189L95.60193 26.927189L95.60193 25.552189L96.88318 25.552189L96.88318 22.989689L98.63318 21.927189L98.63318 25.552189L100.3988 25.552189L100.3988 26.927189L98.63318 26.927189L98.63318 32.98969Q98.63318 33.73969 98.72693 33.95844Q98.82068 34.161564 99.0238 34.30219Q99.24255 34.42719 99.63318 34.42719Q99.91443 34.42719 100.3988 34.349064ZM109.35193 35.92719L109.35193 34.39594Q108.1488 36.161564 106.07068 36.161564Q105.1488 36.161564 104.35193 35.817814Q103.55505 35.45844 103.16443 34.92719Q102.78943 34.39594 102.63318 33.61469Q102.5238 33.099064 102.5238 31.974064L102.5238 25.552189L104.2738 25.552189L104.2738 31.302189Q104.2738 32.67719 104.38318 33.161564Q104.55505 33.849064 105.0863 34.255314Q105.63318 34.64594 106.41443 34.64594Q107.2113 34.64594 107.8988 34.23969Q108.60193 33.83344 108.88318 33.14594Q109.18005 32.442814 109.18005 31.114689L109.18005 25.552189L110.93005 25.552189L110.93005 35.92719L109.35193 35.92719ZM113.7113 35.92719L113.7113 21.614689L115.60193 21.614689L115.60193 28.708439L122.7113 21.614689L125.2738 21.614689L119.2738 27.411564L125.53943 35.92719L123.03943 35.92719L117.94568 28.677189L115.60193 30.958439L115.60193 35.92719L113.7113 35.92719ZM133.66443 32.58344L135.47693 32.817814Q135.05505 34.39594 133.88318 35.286564Q132.72693 36.161564 130.91443 36.161564Q128.6488 36.161564 127.30505 34.77094Q125.97693 33.36469 125.97693 30.833439Q125.97693 28.208439 127.32068 26.770939Q128.66443 25.317814 130.82068 25.317814Q132.8988 25.317814 134.2113 26.739689Q135.53943 28.145939 135.53943 30.724064Q135.53943 30.880314 135.5238 31.192814L127.78943 31.192814Q127.88318 32.89594 128.75818 33.80219Q129.63318 34.70844 130.93005 34.70844Q131.8988 34.70844 132.57068 34.20844Q133.25818 33.692814 133.66443 32.58344ZM127.88318 29.739689L133.68005 29.739689Q133.57068 28.442814 133.0238 27.786564Q132.18005 26.770939 130.8363 26.770939Q129.63318 26.770939 128.80505 27.583439Q127.97693 28.380314 127.88318 29.739689ZM136.91443 30.739689Q136.91443 27.864689 138.50818 26.474064Q139.85193 25.317814 141.7738 25.317814Q143.91443 25.317814 145.25818 26.724064Q146.61755 28.130314 146.61755 30.599064Q146.61755 32.599064 146.0238 33.755314Q145.43005 34.89594 144.2738 35.536564Q143.13318 36.161564 141.7738 36.161564Q139.5863 36.161564 138.24255 34.77094Q136.91443 33.36469 136.91443 30.739689ZM138.7113 30.739689Q138.7113 32.73969 139.57068 33.724064Q140.44568 34.70844 141.7738 34.70844Q143.0863 34.70844 143.94568 33.724064Q144.82068 32.724064 144.82068 30.677189Q144.82068 28.755314 143.94568 27.770939Q143.07068 26.770939 141.7738 26.770939Q140.44568 26.770939 139.57068 27.770939Q138.7113 28.755314 138.7113 30.739689ZM148.55505 35.92719L148.55505 25.552189L150.1488 25.552189L150.1488 27.036564Q151.28943 25.317814 153.44568 25.317814Q154.38318 25.317814 155.16443 25.661564Q155.9613 25.989689 156.35193 26.536564Q156.74255 27.083439 156.8988 27.833439Q156.99255 28.333439 156.99255 29.552189L156.99255 35.92719L155.22693 35.92719L155.22693 29.614689Q155.22693 28.536564 155.0238 28.005314Q154.82068 27.474064 154.28943 27.161564Q153.7738 26.849064 153.07068 26.849064Q151.94568 26.849064 151.13318 27.567814Q150.32068 28.270939 150.32068 30.255314L150.32068 35.92719L148.55505 35.92719ZM165.55505 23.645939L165.55505 21.614689L167.30505 21.614689L167.30505 23.645939L165.55505 23.645939ZM163.32068 39.95844L163.6488 38.45844Q164.18005 38.599064 164.49255 38.599064Q165.0238 38.599064 165.28943 38.23969Q165.55505 37.880314 165.55505 36.45844L165.55505 25.552189L167.30505 25.552189L167.30505 36.48969Q167.30505 38.411564 166.80505 39.161564Q166.18005 40.130314 164.69568 40.130314Q163.99255 40.130314 163.32068 39.95844ZM176.3363 34.64594Q175.35193 35.474064 174.44568 35.817814Q173.53943 36.161564 172.50818 36.161564Q170.80505 36.161564 169.88318 35.33344Q168.9613 34.48969 168.9613 33.192814Q168.9613 32.42719 169.30505 31.802189Q169.66443 31.177189 170.22693 30.802189Q170.78943 30.411564 171.49255 30.208439Q172.00818 30.083439 173.05505 29.942814Q175.18005 29.692814 176.18005 29.349064Q176.19568 28.989689 176.19568 28.880314Q176.19568 27.817814 175.69568 27.364689Q175.0238 26.770939 173.69568 26.770939Q172.44568 26.770939 171.85193 27.208439Q171.2738 27.645939 170.99255 28.755314L169.2738 28.520939Q169.50818 27.411564 170.03943 26.739689Q170.57068 26.052189 171.5863 25.692814Q172.60193 25.317814 173.94568 25.317814Q175.2738 25.317814 176.10193 25.630314Q176.93005 25.942814 177.32068 26.427189Q177.7113 26.895939 177.86755 27.614689Q177.9613 28.067814 177.9613 29.239689L177.9613 31.583439Q177.9613 34.036564 178.07068 34.692814Q178.18005 35.33344 178.5238 35.92719L176.68005 35.92719Q176.41443 35.380314 176.3363 34.64594ZM176.18005 30.724064Q175.22693 31.114689 173.30505 31.380314Q172.22693 31.536564 171.7738 31.739689Q171.3363 31.927189 171.0863 32.30219Q170.8363 32.67719 170.8363 33.14594Q170.8363 33.849064 171.36755 34.317814Q171.8988 34.786564 172.93005 34.786564Q173.94568 34.786564 174.72693 34.349064Q175.5238 33.89594 175.8988 33.130314Q176.18005 32.52094 176.18005 31.364689L176.18005 30.724064ZM186.78943 35.92719L186.78943 21.614689L192.18005 21.614689Q193.61755 21.614689 194.36755 21.739689Q195.41443 21.927189 196.13318 22.427189Q196.85193 22.911564 197.2738 23.802189Q197.7113 24.692814 197.7113 25.755314Q197.7113 27.583439 196.53943 28.849064Q195.38318 30.099064 192.35193 30.099064L188.68005 30.099064L188.68005 35.92719L186.78943 35.92719ZM188.68005 28.411564L192.38318 28.411564Q194.2113 28.411564 194.97693 27.739689Q195.75818 27.052189 195.75818 25.802189Q195.75818 24.911564 195.30505 24.270939Q194.85193 23.630314 194.11755 23.427189Q193.63318 23.302189 192.3363 23.302189L188.68005 23.302189L188.68005 28.411564ZM199.53943 35.92719L199.53943 25.552189L201.11755 25.552189L201.11755 27.130314Q201.72693 26.020939 202.24255 25.677189Q202.75818 25.317814 203.36755 25.317814Q204.25818 25.317814 205.18005 25.880314L204.57068 27.520939Q203.93005 27.130314 203.28943 27.130314Q202.7113 27.130314 202.24255 27.489689Q201.78943 27.833439 201.5863 28.442814Q201.30505 29.380314 201.30505 30.489689L201.30505 35.92719L199.53943 35.92719ZM206.57068 23.630314L206.57068 21.614689L208.3363 21.614689L208.3363 23.630314L206.57068 23.630314ZM206.57068 35.92719L206.57068 25.552189L208.3363 25.552189L208.3363 35.92719L206.57068 35.92719ZM209.91443 30.739689Q209.91443 27.864689 211.50818 26.474064Q212.85193 25.317814 214.7738 25.317814Q216.91443 25.317814 218.25818 26.724064Q219.61755 28.130314 219.61755 30.599064Q219.61755 32.599064 219.0238 33.755314Q218.43005 34.89594 217.2738 35.536564Q216.13318 36.161564 214.7738 36.161564Q212.5863 36.161564 211.24255 34.77094Q209.91443 33.36469 209.91443 30.739689ZM211.7113 30.739689Q211.7113 32.73969 212.57068 33.724064Q213.44568 34.70844 214.7738 34.70844Q216.0863 34.70844 216.94568 33.724064Q217.82068 32.724064 217.82068 30.677189Q217.82068 28.755314 216.94568 27.770939Q216.07068 26.770939 214.7738 26.770939Q213.44568 26.770939 212.57068 27.770939Q211.7113 28.755314 211.7113 30.739689ZM221.53943 35.92719L221.53943 25.552189L223.11755 25.552189L223.11755 27.130314Q223.72693 26.020939 224.24255 25.677189Q224.75818 25.317814 225.36755 25.317814Q226.25818 25.317814 227.18005 25.880314L226.57068 27.520939Q225.93005 27.130314 225.28943 27.130314Q224.7113 27.130314 224.24255 27.489689Q223.78943 27.833439 223.5863 28.442814Q223.30505 29.380314 223.30505 30.489689L223.30505 35.92719L221.53943 35.92719ZM228.57068 23.630314L228.57068 21.614689L230.3363 21.614689L230.3363 23.630314L228.57068 23.630314ZM228.57068 35.92719L228.57068 25.552189L230.3363 25.552189L230.3363 35.92719L228.57068 35.92719ZM236.3988 34.349064L236.6488 35.911564Q235.91443 36.067814 235.32068 36.067814Q234.36755 36.067814 233.8363 35.77094Q233.32068 35.45844 233.10193 34.974064Q232.88318 34.474064 232.88318 32.89594L232.88318 26.927189L231.60193 26.927189L231.60193 25.552189L232.88318 25.552189L232.88318 22.989689L234.63318 21.927189L234.63318 25.552189L236.3988 25.552189L236.3988 26.927189L234.63318 26.927189L234.63318 32.98969Q234.63318 33.73969 234.72693 33.95844Q234.82068 34.161564 235.0238 34.30219Q235.24255 34.42719 235.63318 34.42719Q235.91443 34.42719 236.3988 34.349064ZM238.47693 39.92719L238.28943 38.27094Q238.86755 38.42719 239.28943 38.42719Q239.88318 38.42719 240.22693 38.224064Q240.5863 38.036564 240.80505 37.692814Q240.97693 37.42719 241.35193 36.380314Q241.3988 36.224064 241.50818 35.942814L237.57068 25.552189L239.4613 25.552189L241.61755 31.567814Q242.03943 32.70844 242.36755 33.95844Q242.68005 32.755314 243.0863 31.599064L245.30505 25.552189L247.07068 25.552189L243.11755 36.099064Q242.49255 37.817814 242.13318 38.45844Q241.66443 39.33344 241.05505 39.724064Q240.4613 40.130314 239.61755 40.130314Q239.10193 40.130314 238.47693 39.92719ZM259.63318 34.39594Q260.9613 35.30219 262.07068 35.724064L261.50818 37.036564Q259.9613 36.48969 258.43005 35.286564Q256.8363 36.17719 254.91443 36.17719Q252.97693 36.17719 251.38318 35.23969Q249.80505 34.30219 248.94568 32.599064Q248.10193 30.895939 248.10193 28.770939Q248.10193 26.645939 248.9613 24.911564Q249.82068 23.177189 251.3988 22.270939Q252.99255 21.349064 254.9613 21.349064Q256.94568 21.349064 258.5238 22.302189Q260.11755 23.239689 260.94568 24.942814Q261.78943 26.630314 261.78943 28.755314Q261.78943 30.520939 261.25818 31.942814Q260.72693 33.349064 259.63318 34.39594ZM255.4613 31.974064Q257.10193 32.42719 258.16443 33.33344Q259.8363 31.817814 259.8363 28.755314Q259.8363 27.020939 259.24255 25.724064Q258.66443 24.427189 257.5238 23.708439Q256.38318 22.989689 254.9613 22.989689Q252.85193 22.989689 251.44568 24.442814Q250.05505 25.880314 250.05505 28.770939Q250.05505 31.567814 251.43005 33.067814Q252.82068 34.55219 254.9613 34.55219Q255.97693 34.55219 256.88318 34.161564Q255.99255 33.599064 255.00818 33.349064L255.4613 31.974064ZM271.35193 35.92719L271.35193 34.39594Q270.1488 36.161564 268.07068 36.161564Q267.1488 36.161564 266.35193 35.817814Q265.55505 35.45844 265.16443 34.92719Q264.78943 34.39594 264.63318 33.61469Q264.5238 33.099064 264.5238 31.974064L264.5238 25.552189L266.2738 25.552189L266.2738 31.302189Q266.2738 32.67719 266.38318 33.161564Q266.55505 33.849064 267.0863 34.255314Q267.63318 34.64594 268.41443 34.64594Q269.2113 34.64594 269.8988 34.23969Q270.60193 33.83344 270.88318 33.14594Q271.18005 32.442814 271.18005 31.114689L271.18005 25.552189L272.93005 25.552189L272.93005 35.92719L271.35193 35.92719ZM282.66443 32.58344L284.47693 32.817814Q284.05505 34.39594 282.88318 35.286564Q281.72693 36.161564 279.91443 36.161564Q277.6488 36.161564 276.30505 34.77094Q274.97693 33.36469 274.97693 30.833439Q274.97693 28.208439 276.32068 26.770939Q277.66443 25.317814 279.82068 25.317814Q281.8988 25.317814 283.2113 26.739689Q284.53943 28.145939 284.53943 30.724064Q284.53943 30.880314 284.5238 31.192814L276.78943 31.192814Q276.88318 32.89594 277.75818 33.80219Q278.63318 34.70844 279.93005 34.70844Q280.8988 34.70844 281.57068 34.20844Q282.25818 33.692814 282.66443 32.58344ZM276.88318 29.739689L282.68005 29.739689Q282.57068 28.442814 282.0238 27.786564Q281.18005 26.770939 279.8363 26.770939Q278.63318 26.770939 277.80505 27.583439Q276.97693 28.380314 276.88318 29.739689ZM293.35193 35.92719L293.35193 34.39594Q292.1488 36.161564 290.07068 36.161564Q289.1488 36.161564 288.35193 35.817814Q287.55505 35.45844 287.16443 34.92719Q286.78943 34.39594 286.63318 33.61469Q286.5238 33.099064 286.5238 31.974064L286.5238 25.552189L288.2738 25.552189L288.2738 31.302189Q288.2738 32.67719 288.38318 33.161564Q288.55505 33.849064 289.0863 34.255314Q289.63318 34.64594 290.41443 34.64594Q291.2113 34.64594 291.8988 34.23969Q292.60193 33.83344 292.88318 33.14594Q293.18005 32.442814 293.18005 31.114689L293.18005 25.552189L294.93005 25.552189L294.93005 35.92719L293.35193 35.92719ZM304.66443 32.58344L306.47693 32.817814Q306.05505 34.39594 304.88318 35.286564Q303.72693 36.161564 301.91443 36.161564Q299.6488 36.161564 298.30505 34.77094Q296.97693 33.36469 296.97693 30.833439Q296.97693 28.208439 298.32068 26.770939Q299.66443 25.317814 301.82068 25.317814Q303.8988 25.317814 305.2113 26.739689Q306.53943 28.145939 306.53943 30.724064Q306.53943 30.880314 306.5238 31.192814L298.78943 31.192814Q298.88318 32.89594 299.75818 33.80219Q300.63318 34.70844 301.93005 34.70844Q302.8988 34.70844 303.57068 34.20844Q304.25818 33.692814 304.66443 32.58344ZM298.88318 29.739689L304.68005 29.739689Q304.57068 28.442814 304.0238 27.786564Q303.18005 26.770939 301.8363 26.770939Q300.63318 26.770939 299.80505 27.583439Q298.97693 28.380314 298.88318 29.739689ZM308.55505 35.92719L308.55505 25.552189L310.1488 25.552189L310.1488 27.036564Q311.28943 25.317814 313.44568 25.317814Q314.38318 25.317814 315.16443 25.661564Q315.9613 25.989689 316.35193 26.536564Q316.74255 27.083439 316.8988 27.833439Q316.99255 28.333439 316.99255 29.552189L316.99255 35.92719L315.22693 35.92719L315.22693 29.614689Q315.22693 28.536564 315.0238 28.005314Q314.82068 27.474064 314.28943 27.161564Q313.7738 26.849064 313.07068 26.849064Q311.94568 26.849064 311.13318 27.567814Q310.32068 28.270939 310.32068 30.255314L310.32068 35.92719L308.55505 35.92719ZM324.85193 32.83344L326.60193 32.55219Q326.74255 33.599064 327.41443 34.161564Q328.0863 34.70844 329.28943 34.70844Q330.49255 34.70844 331.07068 34.224064Q331.66443 33.724064 331.66443 33.067814Q331.66443 32.474064 331.1488 32.130314Q330.78943 31.895939 329.35193 31.536564Q327.41443 31.036564 326.66443 30.692814Q325.93005 30.333439 325.53943 29.708439Q325.1488 29.067814 325.1488 28.302189Q325.1488 27.614689 325.4613 27.020939Q325.78943 26.427189 326.3363 26.036564Q326.74255 25.739689 327.44568 25.536564Q328.16443 25.317814 328.97693 25.317814Q330.19568 25.317814 331.11755 25.677189Q332.03943 26.020939 332.47693 26.630314Q332.91443 27.224064 333.0863 28.224064L331.36755 28.458439Q331.24255 27.661564 330.68005 27.224064Q330.11755 26.770939 329.10193 26.770939Q327.88318 26.770939 327.36755 27.177189Q326.85193 27.567814 326.85193 28.099064Q326.85193 28.442814 327.07068 28.724064Q327.2738 29.005314 327.74255 29.192814Q328.00818 29.286564 329.28943 29.630314Q331.16443 30.130314 331.8988 30.458439Q332.63318 30.770939 333.05505 31.380314Q333.47693 31.974064 333.47693 32.880314Q333.47693 33.755314 332.9613 34.536564Q332.44568 35.317814 331.47693 35.73969Q330.50818 36.161564 329.28943 36.161564Q327.2738 36.161564 326.2113 35.317814Q325.1488 34.474064 324.85193 32.83344ZM342.35193 35.92719L342.35193 34.39594Q341.1488 36.161564 339.07068 36.161564Q338.1488 36.161564 337.35193 35.817814Q336.55505 35.45844 336.16443 34.92719Q335.78943 34.39594 335.63318 33.61469Q335.5238 33.099064 335.5238 31.974064L335.5238 25.552189L337.2738 25.552189L337.2738 31.302189Q337.2738 32.67719 337.38318 33.161564Q337.55505 33.849064 338.0863 34.255314Q338.63318 34.64594 339.41443 34.64594Q340.2113 34.64594 340.8988 34.23969Q341.60193 33.83344 341.88318 33.14594Q342.18005 32.442814 342.18005 31.114689L342.18005 25.552189L343.93005 25.552189L343.93005 35.92719L342.35193 35.92719ZM346.55505 35.92719L346.55505 21.614689L348.32068 21.614689L348.32068 26.739689Q349.55505 25.317814 351.43005 25.317814Q352.57068 25.317814 353.41443 25.770939Q354.2738 26.224064 354.63318 27.036564Q355.00818 27.833439 355.00818 29.349064L355.00818 35.92719L353.25818 35.92719L353.25818 29.349064Q353.25818 28.036564 352.68005 27.442814Q352.10193 26.833439 351.07068 26.833439Q350.28943 26.833439 349.5863 27.239689Q348.8988 27.645939 348.60193 28.349064Q348.32068 29.036564 348.32068 30.255314L348.32068 35.92719L346.55505 35.92719ZM361.3988 34.349064L361.6488 35.911564Q360.91443 36.067814 360.32068 36.067814Q359.36755 36.067814 358.8363 35.77094Q358.32068 35.45844 358.10193 34.974064Q357.88318 34.474064 357.88318 32.89594L357.88318 26.927189L356.60193 26.927189L356.60193 25.552189L357.88318 25.552189L357.88318 22.989689L359.63318 21.927189L359.63318 25.552189L361.3988 25.552189L361.3988 26.927189L359.63318 26.927189L359.63318 32.98969Q359.63318 33.73969 359.72693 33.95844Q359.82068 34.161564 360.0238 34.30219Q360.24255 34.42719 360.63318 34.42719Q360.91443 34.42719 361.3988 34.349064ZM370.66443 32.58344L372.47693 32.817814Q372.05505 34.39594 370.88318 35.286564Q369.72693 36.161564 367.91443 36.161564Q365.6488 36.161564 364.30505 34.77094Q362.97693 33.36469 362.97693 30.833439Q362.97693 28.208439 364.32068 26.770939Q365.66443 25.317814 367.82068 25.317814Q369.8988 25.317814 371.2113 26.739689Q372.53943 28.145939 372.53943 30.724064Q372.53943 30.880314 372.5238 31.192814L364.78943 31.192814Q364.88318 32.89594 365.75818 33.80219Q366.63318 34.70844 367.93005 34.70844Q368.8988 34.70844 369.57068 34.20844Q370.25818 33.692814 370.66443 32.58344ZM364.88318 29.739689L370.68005 29.739689Q370.57068 28.442814 370.0238 27.786564Q369.18005 26.770939 367.8363 26.770939Q366.63318 26.770939 365.80505 27.583439Q364.97693 28.380314 364.88318 29.739689ZM381.66443 32.58344L383.47693 32.817814Q383.05505 34.39594 381.88318 35.286564Q380.72693 36.161564 378.91443 36.161564Q376.6488 36.161564 375.30505 34.77094Q373.97693 33.36469 373.97693 30.833439Q373.97693 28.208439 375.32068 26.770939Q376.66443 25.317814 378.82068 25.317814Q380.8988 25.317814 382.2113 26.739689Q383.53943 28.145939 383.53943 30.724064Q383.53943 30.880314 383.5238 31.192814L375.78943 31.192814Q375.88318 32.89594 376.75818 33.80219Q377.63318 34.70844 378.93005 34.70844Q379.8988 34.70844 380.57068 34.20844Q381.25818 33.692814 381.66443 32.58344ZM375.88318 29.739689L381.68005 29.739689Q381.57068 28.442814 381.0238 27.786564Q380.18005 26.770939 378.8363 26.770939Q377.63318 26.770939 376.80505 27.583439Q375.97693 28.380314 375.88318 29.739689ZM385.5238 35.92719L385.5238 21.614689L387.2738 21.614689L387.2738 35.92719L385.5238 35.92719ZM389.5238 35.92719L389.5238 21.614689L391.2738 21.614689L391.2738 35.92719L389.5238 35.92719ZM393.57068 23.630314L393.57068 21.614689L395.3363 21.614689L395.3363 23.630314L393.57068 23.630314ZM393.57068 35.92719L393.57068 25.552189L395.3363 25.552189L395.3363 35.92719L393.57068 35.92719ZM397.55505 35.92719L397.55505 25.552189L399.1488 25.552189L399.1488 27.036564Q400.28943 25.317814 402.44568 25.317814Q403.38318 25.317814 404.16443 25.661564Q404.9613 25.989689 405.35193 26.536564Q405.74255 27.083439 405.8988 27.833439Q405.99255 28.333439 405.99255 29.552189L405.99255 35.92719L404.22693 35.92719L404.22693 29.614689Q404.22693 28.536564 404.0238 28.005314Q403.82068 27.474064 403.28943 27.161564Q402.7738 26.849064 402.07068 26.849064Q400.94568 26.849064 400.13318 27.567814Q399.32068 28.270939 399.32068 30.255314L399.32068 35.92719L397.55505 35.92719ZM415.66443 32.58344L417.47693 32.817814Q417.05505 34.39594 415.88318 35.286564Q414.72693 36.161564 412.91443 36.161564Q410.6488 36.161564 409.30505 34.77094Q407.97693 33.36469 407.97693 30.833439Q407.97693 28.208439 409.32068 26.770939Q410.66443 25.317814 412.82068 25.317814Q414.8988 25.317814 416.2113 26.739689Q417.53943 28.145939 417.53943 30.724064Q417.53943 30.880314 417.5238 31.192814L409.78943 31.192814Q409.88318 32.89594 410.75818 33.80219Q411.63318 34.70844 412.93005 34.70844Q413.8988 34.70844 414.57068 34.20844Q415.25818 33.692814 415.66443 32.58344ZM409.88318 29.739689L415.68005 29.739689Q415.57068 28.442814 415.0238 27.786564Q414.18005 26.770939 412.8363 26.770939Q411.63318 26.770939 410.80505 27.583439Q409.97693 28.380314 409.88318 29.739689ZM419.55505 35.92719L419.55505 25.552189L421.1488 25.552189L421.1488 27.036564Q422.28943 25.317814 424.44568 25.317814Q425.38318 25.317814 426.16443 25.661564Q426.9613 25.989689 427.35193 26.536564Q427.74255 27.083439 427.8988 27.833439Q427.99255 28.333439 427.99255 29.552189L427.99255 35.92719L426.22693 35.92719L426.22693 29.614689Q426.22693 28.536564 426.0238 28.005314Q425.82068 27.474064 425.28943 27.161564Q424.7738 26.849064 424.07068 26.849064Q422.94568 26.849064 422.13318 27.567814Q421.32068 28.270939 421.32068 30.255314L421.32068 35.92719L419.55505 35.92719ZM435.85193 32.83344L437.60193 32.55219Q437.74255 33.599064 438.41443 34.161564Q439.0863 34.70844 440.28943 34.70844Q441.49255 34.70844 442.07068 34.224064Q442.66443 33.724064 442.66443 33.067814Q442.66443 32.474064 442.1488 32.130314Q441.78943 31.895939 440.35193 31.536564Q438.41443 31.036564 437.66443 30.692814Q436.93005 30.333439 436.53943 29.708439Q436.1488 29.067814 436.1488 28.302189Q436.1488 27.614689 436.4613 27.020939Q436.78943 26.427189 437.3363 26.036564Q437.74255 25.739689 438.44568 25.536564Q439.16443 25.317814 439.97693 25.317814Q441.19568 25.317814 442.11755 25.677189Q443.03943 26.020939 443.47693 26.630314Q443.91443 27.224064 444.0863 28.224064L442.36755 28.458439Q442.24255 27.661564 441.68005 27.224064Q441.11755 26.770939 440.10193 26.770939Q438.88318 26.770939 438.36755 27.177189Q437.85193 27.567814 437.85193 28.099064Q437.85193 28.442814 438.07068 28.724064Q438.2738 29.005314 438.74255 29.192814Q439.00818 29.286564 440.28943 29.630314Q442.16443 30.130314 442.8988 30.458439Q443.63318 30.770939 444.05505 31.380314Q444.47693 31.974064 444.47693 32.880314Q444.47693 33.755314 443.9613 34.536564Q443.44568 35.317814 442.47693 35.73969Q441.50818 36.161564 440.28943 36.161564Q438.2738 36.161564 437.2113 35.317814Q436.1488 34.474064 435.85193 32.83344ZM453.35193 35.92719L453.35193 34.39594Q452.1488 36.161564 450.07068 36.161564Q449.1488 36.161564 448.35193 35.817814Q447.55505 35.45844 447.16443 34.92719Q446.78943 34.39594 446.63318 33.61469Q446.5238 33.099064 446.5238 31.974064L446.5238 25.552189L448.2738 25.552189L448.2738 31.302189Q448.2738 32.67719 448.38318 33.161564Q448.55505 33.849064 449.0863 34.255314Q449.63318 34.64594 450.41443 34.64594Q451.2113 34.64594 451.8988 34.23969Q452.60193 33.83344 452.88318 33.14594Q453.18005 32.442814 453.18005 31.114689L453.18005 25.552189L454.93005 25.552189L454.93005 35.92719L453.35193 35.92719ZM456.91443 30.739689Q456.91443 27.864689 458.50818 26.474064Q459.85193 25.317814 461.7738 25.317814Q463.91443 25.317814 465.25818 26.724064Q466.61755 28.130314 466.61755 30.599064Q466.61755 32.599064 466.0238 33.755314Q465.43005 34.89594 464.2738 35.536564Q463.13318 36.161564 461.7738 36.161564Q459.5863 36.161564 458.24255 34.77094Q456.91443 33.36469 456.91443 30.739689ZM458.7113 30.739689Q458.7113 32.73969 459.57068 33.724064Q460.44568 34.70844 461.7738 34.70844Q463.0863 34.70844 463.94568 33.724064Q464.82068 32.724064 464.82068 30.677189Q464.82068 28.755314 463.94568 27.770939Q463.07068 26.770939 461.7738 26.770939Q460.44568 26.770939 459.57068 27.770939Q458.7113 28.755314 458.7113 30.739689ZM468.53943 35.92719L468.53943 25.552189L470.11755 25.552189L470.11755 27.130314Q470.72693 26.020939 471.24255 25.677189Q471.75818 25.317814 472.36755 25.317814Q473.25818 25.317814 474.18005 25.880314L473.57068 27.520939Q472.93005 27.130314 472.28943 27.130314Q471.7113 27.130314 471.24255 27.489689Q470.78943 27.833439 470.5863 28.442814Q470.30505 29.380314 470.30505 30.489689L470.30505 35.92719L468.53943 35.92719ZM475.57068 23.630314L475.57068 21.614689L477.3363 21.614689L477.3363 23.630314L475.57068 23.630314ZM475.57068 35.92719L475.57068 25.552189L477.3363 25.552189L477.3363 35.92719L475.57068 35.92719ZM483.3988 34.349064L483.6488 35.911564Q482.91443 36.067814 482.32068 36.067814Q481.36755 36.067814 480.8363 35.77094Q480.32068 35.45844 480.10193 34.974064Q479.88318 34.474064 479.88318 32.89594L479.88318 26.927189L478.60193 26.927189L478.60193 25.552189L479.88318 25.552189L479.88318 22.989689L481.63318 21.927189L481.63318 25.552189L483.3988 25.552189L483.3988 26.927189L481.63318 26.927189L481.63318 32.98969Q481.63318 33.73969 481.72693 33.95844Q481.82068 34.161564 482.0238 34.30219Q482.24255 34.42719 482.63318 34.42719Q482.91443 34.42719 483.3988 34.349064ZM492.35193 35.92719L492.35193 34.39594Q491.1488 36.161564 489.07068 36.161564Q488.1488 36.161564 487.35193 35.817814Q486.55505 35.45844 486.16443 34.92719Q485.78943 34.39594 485.63318 33.61469Q485.5238 33.099064 485.5238 31.974064L485.5238 25.552189L487.2738 25.552189L487.2738 31.302189Q487.2738 32.67719 487.38318 33.161564Q487.55505 33.849064 488.0863 34.255314Q488.63318 34.64594 489.41443 34.64594Q490.2113 34.64594 490.8988 34.23969Q491.60193 33.83344 491.88318 33.14594Q492.18005 32.442814 492.18005 31.114689L492.18005 25.552189L493.93005 25.552189L493.93005 35.92719L492.35193 35.92719ZM495.85193 32.83344L497.60193 32.55219Q497.74255 33.599064 498.41443 34.161564Q499.0863 34.70844 500.28943 34.70844Q501.49255 34.70844 502.07068 34.224064Q502.66443 33.724064 502.66443 33.067814Q502.66443 32.474064 502.1488 32.130314Q501.78943 31.895939 500.35193 31.536564Q498.41443 31.036564 497.66443 30.692814Q496.93005 30.333439 496.53943 29.708439Q496.1488 29.067814 496.1488 28.302189Q496.1488 27.614689 496.4613 27.020939Q496.78943 26.427189 497.3363 26.036564Q497.74255 25.739689 498.44568 25.536564Q499.16443 25.317814 499.97693 25.317814Q501.19568 25.317814 502.11755 25.677189Q503.03943 26.020939 503.47693 26.630314Q503.91443 27.224064 504.0863 28.224064L502.36755 28.458439Q502.24255 27.661564 501.68005 27.224064Q501.11755 26.770939 500.10193 26.770939Q498.88318 26.770939 498.36755 27.177189Q497.85193 27.567814 497.85193 28.099064Q497.85193 28.442814 498.07068 28.724064Q498.2738 29.005314 498.74255 29.192814Q499.00818 29.286564 500.28943 29.630314Q502.16443 30.130314 502.8988 30.458439Q503.63318 30.770939 504.05505 31.380314Q504.47693 31.974064 504.47693 32.880314Q504.47693 33.755314 503.9613 34.536564Q503.44568 35.317814 502.47693 35.73969Q501.50818 36.161564 500.28943 36.161564Q498.2738 36.161564 497.2113 35.317814Q496.1488 34.474064 495.85193 32.83344ZM513.3363 34.64594Q512.3519 35.474064 511.44568 35.817814Q510.53943 36.161564 509.50818 36.161564Q507.80505 36.161564 506.88318 35.33344Q505.9613 34.48969 505.9613 33.192814Q505.9613 32.42719 506.30505 31.802189Q506.66443 31.177189 507.22693 30.802189Q507.78943 30.411564 508.49255 30.208439Q509.00818 30.083439 510.05505 29.942814Q512.18005 29.692814 513.18005 29.349064Q513.1957 28.989689 513.1957 28.880314Q513.1957 27.817814 512.6957 27.364689Q512.0238 26.770939 510.69568 26.770939Q509.44568 26.770939 508.85193 27.208439Q508.2738 27.645939 507.99255 28.755314L506.2738 28.520939Q506.50818 27.411564 507.03943 26.739689Q507.57068 26.052189 508.5863 25.692814Q509.60193 25.317814 510.94568 25.317814Q512.2738 25.317814 513.1019 25.630314Q513.93005 25.942814 514.3207 26.427189Q514.7113 26.895939 514.86755 27.614689Q514.9613 28.067814 514.9613 29.239689L514.9613 31.583439Q514.9613 34.036564 515.0707 34.692814Q515.18005 35.33344 515.5238 35.92719L513.68005 35.92719Q513.4144 35.380314 513.3363 34.64594ZM513.18005 30.724064Q512.2269 31.114689 510.30505 31.380314Q509.22693 31.536564 508.7738 31.739689Q508.3363 31.927189 508.0863 32.30219Q507.8363 32.67719 507.8363 33.14594Q507.8363 33.849064 508.36755 34.317814Q508.8988 34.786564 509.93005 34.786564Q510.94568 34.786564 511.72693 34.349064Q512.5238 33.89594 512.8988 33.130314Q513.18005 32.52094 513.18005 31.364689L513.18005 30.724064ZM517.5707 23.630314L517.5707 21.614689L519.3363 21.614689L519.3363 23.630314L517.5707 23.630314ZM517.5707 35.92719L517.5707 25.552189L519.3363 25.552189L519.3363 35.92719L517.5707 35.92719ZM521.5707 35.92719L521.5707 21.614689L523.3363 21.614689L523.3363 29.770939L527.49255 25.552189L529.7582 25.552189L525.80505 29.395939L530.1644 35.92719L527.99255 35.92719L524.5707 30.630314L523.3363 31.817814L523.3363 35.92719L521.5707 35.92719ZM538.3363 34.64594Q537.3519 35.474064 536.4457 35.817814Q535.5394 36.161564 534.5082 36.161564Q532.80505 36.161564 531.8832 35.33344Q530.9613 34.48969 530.9613 33.192814Q530.9613 32.42719 531.30505 31.802189Q531.6644 31.177189 532.2269 30.802189Q532.7894 30.411564 533.49255 30.208439Q534.0082 30.083439 535.05505 29.942814Q537.18005 29.692814 538.18005 29.349064Q538.1957 28.989689 538.1957 28.880314Q538.1957 27.817814 537.6957 27.364689Q537.0238 26.770939 535.6957 26.770939Q534.4457 26.770939 533.8519 27.208439Q533.2738 27.645939 532.99255 28.755314L531.2738 28.520939Q531.5082 27.411564 532.0394 26.739689Q532.5707 26.052189 533.5863 25.692814Q534.6019 25.317814 535.9457 25.317814Q537.2738 25.317814 538.1019 25.630314Q538.93005 25.942814 539.3207 26.427189Q539.7113 26.895939 539.86755 27.614689Q539.9613 28.067814 539.9613 29.239689L539.9613 31.583439Q539.9613 34.036564 540.0707 34.692814Q540.18005 35.33344 540.5238 35.92719L538.68005 35.92719Q538.4144 35.380314 538.3363 34.64594ZM538.18005 30.724064Q537.2269 31.114689 535.30505 31.380314Q534.2269 31.536564 533.7738 31.739689Q533.3363 31.927189 533.0863 32.30219Q532.8363 32.67719 532.8363 33.14594Q532.8363 33.849064 533.36755 34.317814Q533.8988 34.786564 534.93005 34.786564Q535.9457 34.786564 536.7269 34.349064Q537.5238 33.89594 537.8988 33.130314Q538.18005 32.52094 538.18005 31.364689L538.18005 30.724064Z" fill-rule="nonzero"/></svg>